<?xml version="1.0" encoding="UTF-8"?>
<!DOCTYPE svg PUBLIC "-//W3C//DTD SVG 1.1//EN" "http://www.w3.org/Graphics/SVG/1.1/DTD/svg11.dtd">
<!-- Creator: CorelDRAW X6 -->
<svg xmlns="http://www.w3.org/2000/svg" xml:space="preserve" width="21.1906mm" height="21.1906mm" version="1.1" style="shape-rendering:geometricPrecision; text-rendering:geometricPrecision; image-rendering:optimizeQuality; fill-rule:evenodd; clip-rule:evenodd"
viewBox="0 0 25142 25142"
 xmlns:xlink="http://www.w3.org/1999/xlink">
 <defs>
  <style type="text/css">
   <![CDATA[
    .fil0 {fill:#BC0300}
   ]]>
  </style>
 </defs>
 <g id="Layer_x0020_1">
  <metadata id="CorelCorpID_0Corel-Layer"/>
  <path class="fil0" d="M12571 0c6936,0 12571,5618 12571,12571 0,6936 -5618,12571 -12571,12571 -6936,0 -12571,-5618 -12571,-12571 0,-6936 5618,-12571 12571,-12571zm745 10681c0,0 4,-2022 4,-2325 0,-303 -83,-1095 259,-1391 342,-296 448,-341 448,-341 0,0 -431,745 -347,1448l86 723 0 -3c-35,-243 17,-815 87,-1040 87,-295 225,-486 243,-503 -17,-69 -139,-191 -69,-416 87,-277 434,-381 676,-191 104,69 156,225 156,347l0 -52c347,35 486,156 607,503 -104,-17 -104,17 -139,52l139 -35c69,87 416,867 451,988 -243,312 -503,-208 -191,-191 87,35 52,121 87,173 35,-104 35,-191 -87,-225 -243,-52 -260,277 -139,364 121,69 156,35 260,17 0,35 -52,87 -69,104 -69,87 -225,121 -347,139 -52,-69 -35,-104 -104,-156 -69,-35 -156,-52 -225,-17 -260,87 -121,191 -104,191 69,17 69,-17 87,-52l-35 0c0,0 0,0 -52,17l0 -69c17,35 0,-17 17,35 35,87 -17,-35 0,35 52,-35 17,-35 69,-52 35,104 0,87 -69,156 -69,87 0,121 -87,191 -69,0 -69,-52 -104,-87 -52,-52 -104,-35 -191,-35 -17,-87 0,-156 104,-121 0,87 -69,35 35,69l0 -104c-52,-35 -104,-35 -156,17 -52,69 -17,121 0,173l139 0c52,52 104,156 208,121 87,-35 35,-121 104,-208 17,35 0,52 87,139 -35,35 -69,35 -69,87 -17,121 104,173 121,-17 0,-52 -17,-17 17,-52 52,17 0,17 0,104 0,87 35,87 104,87 52,-69 35,-52 35,-139 17,52 69,69 121,52 69,-69 -69,-156 -69,-156l35 -87c69,35 17,17 69,0l17 -69c52,52 -35,35 69,69 35,-35 0,0 17,-35 0,0 0,0 0,-17 0,0 0,0 0,-17 17,-52 -35,17 0,-35 69,35 -17,35 87,52 17,-35 0,-69 0,-87 52,17 -35,52 52,35 104,-35 -87,-139 104,-87 -17,191 -191,503 -329,659 0,0 0,0 0,17 0,0 0,0 0,17 0,0 -17,17 -17,35 -69,87 -121,121 -243,243 -139,173 -329,69 -590,17 -173,-35 -381,-139 -503,-260 -121,-121 -399,-434 -399,-555l0 -69c0,-28 -11,-33 -16,-53l140 1171 -592 703zm578 -482l445 -541 381 139 690 880 203 -74 91 -1154 282 -381 815 156 -312 1769 -1612 395 -983 -1189zm-526 3221c-69,0 -139,-69 -156,-104 -35,-52 -69,-104 -173,-121 -225,-52 -347,121 -312,277 35,208 312,191 347,35 52,-225 -312,-243 -225,17 87,17 156,35 139,-87 -35,35 0,0 -35,35 -52,35 -17,35 -52,35 -139,-156 173,-173 121,17 -52,139 -260,52 -277,-69 -17,-139 121,-243 260,-208 312,52 173,642 17,642 -104,0 -225,-139 -277,-225 -104,-156 -173,-642 -121,-850 17,0 208,87 277,104 139,35 208,17 347,17 87,52 173,381 104,503l17 -17zm-87 -2549c52,-87 87,-139 156,-208 35,-35 104,-156 156,-191l-69 295 364 -69c-17,87 -139,295 -121,364l364 -104c-17,104 -87,225 -121,347l208 -52 -260 243c-104,-35 -121,-87 -156,-208 -225,-17 -295,-35 -295,-277 -139,0 -191,-17 -243,-121l17 -17zm659 7144l35 468c17,208 52,434 69,520 69,-87 277,-156 416,-156 87,0 191,0 260,35 69,35 139,87 173,139 121,-87 225,-156 416,-156 156,0 312,121 364,208 35,0 416,-295 642,-17 17,35 35,35 69,69 104,-52 139,-156 329,-208 260,-69 277,35 451,52 52,-17 52,-69 121,-121 191,-139 347,-191 590,-69 87,-87 121,-208 329,-277 121,-52 260,-17 364,17 17,-121 139,-260 225,-312 121,-69 312,-87 451,-69 35,-173 104,-243 191,-329 121,-104 243,-121 416,-121 69,-121 35,-173 173,-312 35,-35 17,-17 69,-52 139,-87 156,-69 295,-87 0,-225 69,-399 191,-520 191,-173 347,-104 572,-104 -87,-121 -295,-798 -399,-867 0,-87 -35,-87 -69,-173 -35,-69 -35,-69 -52,-121l-295 -572c-35,-35 -35,-35 -52,-69 -17,-35 -35,-52 -35,-87 -104,-260 -607,-988 -832,-1266 -69,-87 -173,-191 -243,-295l-520 -537c-87,-69 -173,-173 -277,-243l-1508 -1092c35,104 69,225 104,329 69,277 35,121 225,191 17,87 17,69 0,173 -121,52 -260,52 -191,-173l-451 -208c-52,-17 -35,-17 -87,-35 0,0 0,0 -17,0l-17 0c0,0 -35,0 -35,0 -17,121 -69,468 -69,572 69,0 104,17 121,69 52,139 -139,225 -208,104 -52,-87 17,-104 52,-191 -52,0 -17,17 -104,-69l-173 -156c-17,-17 -17,-17 -35,-17 -52,-35 -69,-69 -104,-87 0,52 624,2167 676,2358 35,121 69,277 121,399 52,121 87,260 121,399l312 971c17,52 35,139 52,191 35,69 52,121 69,191 17,35 17,69 35,104l35 69c0,0 0,0 0,17 69,225 139,381 208,572l69 191c17,87 35,52 69,191l208 572 -52 17c-87,-260 -208,-503 -295,-746 -104,-295 -468,-1474 -537,-1647 0,0 0,0 0,-17 0,0 0,0 0,-17l-555 -1838c-35,-139 -69,-260 -121,-399l-52 -191c-17,-69 -35,-139 -52,-208l-347 -1179c0,0 0,0 0,-17l-17 17c-52,104 -121,468 -173,537l-277 -364c0,0 0,0 0,0 0,0 0,0 0,-17l-52 -104c17,-17 17,-52 17,-17 -139,-17 -52,-69 -121,-69 17,17 35,52 52,104 -87,35 -87,69 -191,225 -35,69 -35,69 -69,139 -35,52 -52,87 -87,139l17 17c35,17 52,35 69,69 17,69 0,104 -17,139 -87,17 -191,35 -208,-69 -17,-121 35,-139 104,-156 0,-52 -69,-191 -104,-243 -35,-69 -69,-173 -104,-260 -35,35 -139,312 -156,381 -17,52 -69,191 -69,225l0 173 -191 294c0,104 -104,399 -121,537 -139,694 -243,1040 -260,1803 0,104 -35,208 -35,329l0 1023c0,173 0,1196 35,1335 0,17 0,35 0,52l52 1zm-3312 -12935c104,17 69,0 139,-17 69,-17 35,17 121,0 35,0 17,-17 52,0 173,35 69,0 173,0 104,17 139,17 243,17l434 104c35,17 0,17 52,17 35,17 52,0 69,17 52,17 -17,0 52,35 52,35 52,0 104,35l104 52c35,17 35,35 87,69 52,35 225,173 243,225 87,139 173,104 121,277 -52,156 -104,295 -156,451 -104,277 -225,624 -364,867 -52,-121 -139,-208 -312,-208 -416,0 -225,503 0,312 -35,-17 -52,0 -104,-17 -35,-17 -52,-35 -69,-69 -17,-69 52,-139 121,-139 121,-17 243,208 139,312 -191,191 -416,-52 -537,-208 -69,-87 -52,-104 -87,-173l121 -35c35,-139 -17,-121 -52,-156 -35,-52 0,-121 -17,-173 -35,35 0,-17 -17,35 -17,52 0,104 0,139 -87,17 -104,17 -104,104 69,-35 0,-17 52,-35 35,-17 139,-35 87,87l-139 17c-35,69 -17,104 -121,104 -69,-69 0,-69 -52,-139 -35,-52 -87,-69 -104,-139 17,-17 69,-87 104,-17 35,69 -52,69 17,121 35,-69 69,-225 -87,-191 -139,35 -69,121 -35,191 -35,52 -347,156 -486,104 -399,-139 -208,-451 35,-399 69,17 69,52 104,121 -52,87 -52,156 -156,121 -69,-17 -17,0 -35,-17l-52 -69c17,69 17,69 52,104 0,0 0,0 0,0l35 17c87,52 191,-35 191,-52 52,-69 35,-381 -295,-381 -52,0 -52,0 -87,17 35,-139 35,-243 69,-381 69,-312 295,-815 312,-1040l35 -18zm2254 -1162c69,17 52,-17 121,0l35 399c35,17 0,0 35,0 87,0 191,-52 277,-17 0,0 0,0 17,0l-17 364 104 -52 -17 69 0 0c-52,17 17,0 0,0 0,0 -17,0 -17,0l-35 0c0,0 0,0 -17,0l35 69c-52,17 0,-17 -69,17 17,87 87,0 -69,225l52 -329 -364 87 35 -416 -139 52 17 381c17,87 17,17 52,104 0,35 -104,139 -17,243 52,69 87,87 139,191 -52,52 -69,69 -104,121 -69,87 -52,35 -52,173 69,-17 17,0 52,-35 69,-69 277,-329 347,-416 191,-260 399,-624 208,-971 -139,-243 -191,-277 -381,-486 -17,-35 -17,-17 -52,-35 -104,-69 -121,-121 -208,-139l17 381 18 17zm-6988 13265c243,69 590,156 1023,295 -208,-225 -139,-520 17,-728 104,-156 225,-191 260,-416 17,-104 -17,-191 -104,-225 -156,-52 -191,87 -225,87 -17,-121 121,-208 277,-208 763,0 867,1422 156,1595 329,69 676,104 1058,121 -104,-139 -139,-381 -35,-590 69,-156 312,-399 191,-642 -17,-35 -35,-52 -69,-69 -35,-17 -35,0 -69,-17l-69 -35c-17,52 -104,104 -121,121 0,-35 0,-52 17,-87l35 -35c0,0 0,0 0,0 35,-52 87,-69 156,-87 329,-69 607,173 728,486 104,277 87,746 -139,971 329,0 659,-17 988,-35 -139,-52 -139,-156 -208,-191l52 -52c0,0 0,-17 0,-17 0,0 0,-17 0,-17 -52,-35 -104,-52 -87,-139 104,0 69,69 191,104 -52,-156 -104,-69 -121,-191 139,-17 52,69 191,121 35,69 69,139 191,139 104,0 156,-87 156,-173 0,-173 -277,-260 -347,-17 0,0 0,-17 0,-17 0,0 -17,-17 -17,-17 -173,-208 -208,0 -243,0 -35,-191 156,-399 173,-607 0,-121 -17,-243 -121,-277 -173,-52 -191,87 -243,139 -69,-243 416,-537 867,-35 35,52 0,35 69,52 -52,17 -17,-17 -52,52 -52,87 35,173 104,208 52,35 35,0 52,35 52,87 104,659 -156,850 0,0 -17,-17 -17,0l-69 -52c52,69 35,17 52,87 0,0 -17,17 -17,17 329,-17 659,-52 971,-87 -35,-35 -69,-52 -104,-104 -104,-156 -139,-347 -69,-555 52,-173 173,-295 139,-503 -17,-104 -52,-173 -139,-191 -139,-35 -173,52 -225,121 -52,-139 87,-225 225,-277 69,-17 87,17 139,69 35,17 104,87 121,121 17,-87 -104,-52 -156,-208 763,87 919,1075 572,1439 399,-52 763,-104 1058,-156 -87,-35 -139,-87 -191,-139 -104,-156 -139,-347 -69,-555 52,-173 173,-295 139,-503 -17,-104 -52,-173 -139,-191 -139,-35 -173,52 -225,121 -52,-139 87,-225 225,-277 69,-17 87,17 139,69 35,17 104,87 121,121 17,-87 -104,-52 -156,-208 780,104 936,1162 520,1491 329,-52 537,-104 537,-104l0 0c0,-191 -17,-364 -35,-537l-312 -2323c-17,-121 -35,-260 -52,-399 -17,-121 -17,-277 -52,-381 -52,17 -87,0 -156,-17 0,295 -121,624 -399,399l-52 -52c-69,-52 -35,-17 -69,-87 -381,-642 -69,-1682 173,-2323 52,-139 156,-329 225,-451 87,-156 35,-295 35,-590 0,-208 0,-451 -17,-676 0,-225 0,-434 0,-659 17,-434 17,-850 52,-1283 35,-451 121,-832 434,-1075 191,-139 156,-156 434,-243 121,-35 52,-87 329,-139 416,-87 1006,69 1318,329l173 156c139,139 173,191 295,364 163,245 248,396 344,563 -123,-193 -248,-368 -367,-494 -503,-537 -1104,-798 -1104,-798 0,0 562,584 769,1049 208,465 653,1483 653,1483l815 208c0,0 -152,-340 -367,-749l2 4c63,111 359,716 449,844 -10,-3 -19,-6 -26,-7l153 180 -278 82c43,54 201,155 214,210l-290 58c49,66 141,126 208,198l-163 38 267 76c60,-61 54,-104 34,-200 150,-92 192,-129 106,-298 90,-46 122,-76 125,-153l120 48c208,87 694,347 850,468l295 225c35,35 35,52 173,173l139 173c55,83 125,195 165,313 -33,-75 -81,-162 -148,-261 -35,-52 -17,-35 -52,-69 -104,-121 -208,-243 -329,-329 -52,104 -17,87 -121,208l17 0c-35,52 -104,156 -173,173 -16,115 108,698 343,714 -21,52 -46,76 -152,49 -208,-52 -277,-329 -329,-503 -87,-277 17,-243 -191,-347 -69,-35 -312,-139 -381,-156l434 919c156,312 277,590 416,902 104,208 173,416 277,607 156,243 52,156 260,416l399 503c35,52 52,69 87,121 572,798 1110,1994 1491,2948 104,243 243,486 208,676 -35,243 -260,503 -416,694 -35,52 -69,52 -121,104 -156,173 -295,277 -468,416 -277,208 -503,347 -798,520 -1214,728 -2774,1196 -4231,1058 -260,-17 -832,-139 -1058,-277 -35,-17 -104,-69 -139,-87 -191,-156 -312,-555 -364,-936 -87,35 -2150,607 -4422,884 -2323,277 -4786,-1352 -4803,-1352l-17 -17 0 -17 434 -1422c-347,-121 -69,-87 17,-69l87 -295 35 17c69,-312 208,-694 329,-971 243,-590 520,-1179 832,-1717l520 -902c104,-191 590,-936 694,-1075 52,-69 87,-121 139,-191l381 -555c121,-191 260,-364 399,-555l277 -364c52,-52 87,-121 139,-173 -52,-69 -139,-139 -69,-277 35,-87 139,-121 260,-156l52 -1040c-260,52 -381,87 -624,156 -177,48 -1096,557 -1356,797 -499,-15 -464,434 -274,451 121,17 139,-121 243,-104 35,191 -451,312 -451,-52 0,-347 312,-364 486,-381 -87,-87 -278,-225 -451,-260 -139,104 -381,624 -416,936 -52,607 590,260 798,0 15,-22 30,-45 44,-69 -33,78 -79,150 -132,208 -121,156 -624,468 -815,277 -52,-52 -87,-121 -87,-208 -35,-312 121,-676 260,-919 69,-104 139,-225 225,-312l537 -590c35,-52 87,-52 121,-87l295 -243c468,-329 1040,-624 1613,-780 225,-69 798,-191 1023,-191 5,30 12,65 23,104 -100,0 -198,1 -265,35 52,35 104,69 139,69 -17,0 -17,17 -17,17l-35 87c-35,35 -52,69 -69,104l-87 -191c-35,-87 0,-52 -69,-69 -277,35 -590,139 -850,225 -17,295 156,832 364,954l0 87c0,0 191,-35 191,104 0,52 -52,173 -191,87 0,-17 -17,-17 -17,-17 17,69 17,52 156,139 69,35 139,87 225,104l17 -69c0,35 0,35 17,69 35,69 312,139 399,156l0 -35c0,0 0,-17 0,-17 0,-17 0,-52 0,-69l35 104c35,52 381,87 503,121 -104,-381 295,-277 225,-104 -17,52 -17,35 -52,52 35,-52 52,-52 35,-156 -156,-52 -260,35 -173,191 0,0 17,0 17,0 0,0 17,0 17,0 87,35 416,35 503,35 -69,-173 -17,-277 121,-260 121,17 156,243 -69,208 52,-35 104,17 139,-52 35,-139 -173,-156 -208,-35 -17,69 17,104 52,156 87,-17 173,0 260,-17 69,-17 173,-35 243,-35 -35,-69 -104,-156 -17,-243 35,-52 156,-104 208,35l-69 -52c-121,-52 -225,69 -104,243 260,-17 191,-139 208,-173 139,0 17,17 104,35 191,-208 364,-746 347,-1144 -20,-13 -56,-40 -96,-68l25 16c104,52 191,139 295,191l0 798c-17,52 0,17 -17,35 -69,104 -35,156 17,260 35,87 35,451 17,537 -87,-52 -243,-347 -468,-451 -69,-35 -139,-69 -225,-69 -35,17 -208,329 -225,364 -52,104 -139,295 -208,399 0,0 17,0 17,0l104 69c35,35 52,87 52,139 0,156 -69,173 -156,225 17,69 17,35 69,104l173 295c191,312 364,676 520,1023 52,104 69,121 35,225 -52,-52 -104,-225 -139,-312 -52,-104 -104,-208 -139,-312l-399 -728c-35,-52 -52,-87 -104,-121 -347,-173 -711,-104 -884,243 -52,104 -69,243 -17,364 69,208 295,381 537,277l104 -69c0,0 0,0 17,0 52,-35 35,-35 69,-87 104,-191 0,-451 -225,-434 -52,0 -104,35 -139,69 -69,87 -52,243 52,277 156,52 139,-121 191,-208 35,17 87,0 69,139 -35,156 -208,208 -347,139 -156,-87 -156,-347 -17,-451 156,-139 434,-69 520,104 0,0 0,0 0,17 191,468 -347,798 -728,520 -225,-173 -277,-451 -173,-711 35,-87 52,-87 104,-156 17,-35 104,-156 225,-173 -17,-17 -17,-17 -35,-17 -17,0 -35,0 -52,0 -52,0 -104,0 -139,0 -104,0 -191,-17 -295,-17 -1023,-121 -1179,-364 -1387,-416l-191 225c-52,69 -121,156 -173,225 -52,87 -121,156 -173,225l-329 468c-52,87 0,87 -52,156 -35,35 -52,52 -87,104 -87,208 -69,399 69,572 35,52 0,17 52,52 347,277 884,-156 520,-486 -191,-156 -486,69 -347,243 121,156 312,-17 208,-104 -87,-69 -69,35 -121,-104 52,-35 -52,-17 87,-35 17,0 52,17 69,17 208,104 52,451 -225,364 -87,-17 -121,-69 -156,-156 -191,-486 676,-607 676,0 0,156 -52,225 -139,312 -121,121 -364,156 -537,87 -243,-104 -347,-347 -347,-624 -104,139 -451,676 -572,867l-208 329c-156,260 -329,503 -468,780l-364 676c-69,121 -69,139 -35,312 35,191 104,329 225,468 35,52 52,35 104,69 35,35 52,52 104,69 416,225 763,104 971,-191 243,-347 69,-798 -277,-867 -243,-52 -381,52 -468,191 -173,243 35,607 329,520 121,-35 208,-208 156,-312 -121,-191 -191,-52 -381,-52 17,-87 52,-121 139,-156 69,-17 156,-17 208,35 104,52 191,191 139,364 -139,451 -850,225 -746,-277 139,-590 1006,-520 1110,87 35,156 0,295 -35,434 -156,381 -590,555 -1006,434 -156,-52 -225,-104 -312,-173 -295,-225 -277,-434 -347,-642 -35,87 -69,139 -104,208 -35,69 -69,156 -104,225 -35,69 -69,139 -104,225 -35,69 -52,139 -87,208 35,87 -312,902 -191,971 434,-87 815,-364 746,-537 35,0 35,0 52,35 0,0 17,17 17,17 35,35 52,52 69,121 17,69 17,260 0,347 -87,503 -364,676 -572,694l53 17zm13485 -5909c-107,137 -311,46 -405,-1 -43,-136 -172,-317 29,-472 173,-139 451,121 277,295 -87,87 -277,17 -225,-191 87,-17 87,-35 173,0 17,69 17,69 0,139l-87 17c17,-52 0,-17 17,-35 104,-139 -69,-121 -87,-35 -17,173 347,52 173,-139 -121,-121 -381,35 -295,243 17,35 69,87 104,104 118,83 243,111 325,73zm-9122 -3708c26,73 59,150 96,225 -56,-103 -74,1 -228,-41 0,-121 87,-104 139,-156l-6 -28zm107 247c86,169 194,319 297,353 295,104 798,-329 902,-364 -329,-17 -590,-260 -624,-607 -52,87 -173,156 -312,191 -208,52 -260,17 -434,-17 0,-52 35,-87 17,-121 0,0 -52,-87 -35,-35l-17 87c0,0 0,17 0,17 0,0 0,17 -17,17 -104,0 -52,-52 -121,-121 -35,-35 -17,0 -52,-52 -87,-121 -87,-277 -52,-416 -173,-87 -52,-260 35,-329 0,0 0,0 17,0 0,0 0,0 17,0 -35,-225 -35,-416 -17,-642 35,-260 104,-312 364,-295 139,-399 139,-624 156,-1040 17,-381 69,-884 399,-1092 173,-104 572,-104 780,-104 243,17 746,104 919,243 17,35 0,0 17,69l0 520 -104 35c-35,-104 -121,-381 -173,-451 -121,52 -243,191 -364,260 -87,-104 -173,-329 -260,-399 -52,35 -104,104 -156,156 -52,52 -104,104 -139,156 -52,-35 -52,-35 -87,-87 -35,-52 -173,-243 -225,-260 -35,35 -208,312 -225,364l-121 -121c0,52 0,69 -35,104l69 35c17,17 -17,-52 17,17 -87,52 -104,-121 -156,277 0,0 0,0 17,-17 35,-35 69,-104 104,-139l-17 -17c-35,-17 -52,-35 -35,-69 69,0 17,0 52,17l17 17 52 -104 139 173c52,69 87,121 121,173l295 -364c0,0 0,0 0,0l225 399c104,-87 208,-243 329,-312 69,87 104,329 156,434 17,-35 329,-243 399,-260 35,104 35,312 35,434l87 -35 0 468c-156,-52 -711,-624 -2011,-416l0 191c624,-104 1352,17 1838,381 104,69 191,121 191,260 0,139 0,312 17,451 0,121 0,173 -17,277l17 121c0,0 -17,0 -17,0 -69,17 -35,-17 -52,17l-208 537c0,-35 35,-87 52,-104 69,-104 139,-225 191,-347 52,121 0,243 -69,329 -35,52 -52,69 -87,121l-87 121c17,52 35,35 52,121 17,156 -104,225 -260,191 -104,208 -121,416 -312,520 35,17 69,52 104,69l242 152c-12,-6 -24,-10 -33,-13l0 34 -35 -17c-35,17 -69,69 -121,104 -35,35 -104,104 -121,104l-35 -243c87,0 156,0 243,17 -17,0 -17,0 -17,0 -17,17 -17,-35 -104,-87 -156,-121 -121,-104 -208,-17 -35,35 -17,0 -52,52 17,87 69,121 35,208 -87,17 -121,-69 -156,-121 -52,17 -121,87 -191,104 17,69 52,121 35,191 -104,35 -104,-17 -104,-17 -17,-17 -52,-69 -52,-87l-173 69c-17,69 17,87 -17,156 -17,52 35,17 -35,17l-17 0c-35,0 -69,-87 -87,-121l-87 0c-17,139 -35,156 -104,156 -52,-69 -35,-104 -52,-191 -139,-35 -87,52 -260,35 0,-35 0,-52 17,-87 0,-17 0,0 17,-17l52 -35c-17,-17 -35,-69 -69,-104 -69,0 -121,35 -191,0 0,-87 52,-69 121,-139 -15,-39 -27,-70 -38,-93zm2552 -4588l35 0c156,35 191,104 295,173 35,17 52,35 87,69 191,191 277,295 416,537 225,434 35,867 -225,1214 -87,121 -243,329 -364,434 -35,52 -104,87 -191,104 0,69 -17,121 -17,191l52 277 -17 17c17,156 -35,295 -121,434 -35,52 -69,87 -87,139l0 17c0,17 0,52 17,69 17,243 -139,399 -347,434 -35,87 -69,156 -104,225l277 173c87,52 191,139 260,173l121 52c0,-104 17,-208 17,-312 35,-468 139,-936 537,-1248 208,-156 225,-191 503,-277 139,-104 208,-121 364,-156 486,-87 1144,69 1526,381l173 156c156,139 208,243 329,416 191,277 329,555 503,850 87,139 156,295 243,451 121,243 277,590 416,815 104,52 277,121 381,156 260,104 694,347 902,503l295 225c52,52 104,121 173,173l17 17 156 208 0 0c156,243 312,537 208,832 -104,295 -347,329 -590,277 -87,69 -191,87 -329,52 69,156 139,312 225,468 104,191 173,399 277,590 104,173 121,225 243,399l399 503c35,35 52,87 87,121 624,867 1110,2011 1508,3000 104,243 277,520 225,798 -52,295 -277,590 -468,815 -35,52 -87,69 -121,104 -156,173 -329,295 -503,434 -260,208 -537,364 -815,537 -1266,763 -2878,1231 -4370,1092 -312,-35 -902,-156 -1162,-312 -52,-35 -121,-69 -156,-121 -208,-173 -329,-520 -399,-815 -1352,364 -2826,659 -4214,832 -1613,191 -3607,-503 -4959,-1387l-173 -104 434 -1422c-87,-69 -139,-156 -104,-277 35,-139 139,-173 243,-173l104 -329 17 0c69,-260 173,-520 277,-763 243,-607 520,-1196 850,-1751l520 -902c173,-347 486,-780 711,-1110 52,-69 87,-121 121,-191l381 -555c121,-191 277,-364 416,-555l277 -381c17,-17 17,-35 35,-35 -52,-104 -69,-208 0,-364 52,-121 139,-191 243,-243l35 -555c-104,17 -191,52 -295,87 -156,52 -902,451 -1179,676 69,260 -35,555 -208,780 -225,277 -850,607 -1162,312 -104,-87 -139,-208 -156,-347 -52,-364 121,-763 295,-1058 69,-121 156,-243 243,-347l537 -572c52,-52 87,-69 139,-104l0 0 312 -260 0 0c503,-347 1092,-642 1682,-815 156,-52 381,-104 590,-139 -52,-104 -52,-225 -35,-329 -104,-156 -69,-364 52,-520 -17,-191 -17,-381 0,-572 35,-312 173,-468 416,-503 69,-277 87,-503 104,-815 17,-451 87,-1023 503,-1283 225,-139 659,-156 919,-139 277,17 832,121 1058,295l52 35 17 35 18 -17z"/>
 </g>
</svg>
