<?xml version="1.0" encoding="UTF-8"?>
<!DOCTYPE svg PUBLIC "-//W3C//DTD SVG 1.1//EN" "http://www.w3.org/Graphics/SVG/1.1/DTD/svg11.dtd">
<!-- Creator: CorelDRAW X6 -->
<svg xmlns="http://www.w3.org/2000/svg" xml:space="preserve" width="0.83372in" height="0.83372in" version="1.1" style="shape-rendering:geometricPrecision; text-rendering:geometricPrecision; image-rendering:optimizeQuality; fill-rule:evenodd; clip-rule:evenodd"
viewBox="0 0 144 144"
 xmlns:xlink="http://www.w3.org/1999/xlink">
 <defs>
  <style type="text/css">
   <![CDATA[
    .fil0 {fill:#BC0300}
   ]]>
  </style>
 </defs>
 <g id="Layer_x0020_1">
  <metadata id="CorelCorpID_0Corel-Layer"/>
  <path class="fil0" d="M72 0c40,0 72,32 72,72 0,40 -32,72 -72,72 -40,0 -72,-32 -72,-72 0,-40 32,-72 72,-72zm47 100c0,1 1,2 0,3 0,0 0,1 0,1 -1,1 -2,1 -3,0 0,0 0,0 0,0 0,1 0,1 0,2 0,1 0,1 -1,1 0,0 -1,1 -2,0 0,0 -1,0 -1,0 -1,0 0,0 -1,0 0,1 0,1 0,2 0,1 -2,2 -3,1 -1,0 -1,-1 -1,-1 0,2 -1,4 -3,3 -1,0 -1,-1 -1,-1 0,1 0,2 -1,2 -1,1 -2,1 -3,0 0,0 0,0 0,0 0,0 -1,-1 -1,-1 0,0 0,1 0,1 -1,2 -3,2 -4,1 0,0 0,0 0,-1 0,2 -2,3 -4,2 0,0 -1,-1 -1,-2 0,0 -1,2 -3,2 -1,0 -2,-1 -2,-2 0,0 0,0 0,0 0,0 0,0 0,0l0 0c0,0 0,0 0,0 -1,1 -1,1 -2,1 -1,0 -1,0 -1,-1 -1,-1 -1,-2 0,-3 1,-1 2,-1 2,0l1 0c0,0 1,1 1,2 1,-1 1,-2 2,-1 0,0 1,0 1,0 0,0 0,0 0,0 0,0 0,0 0,0 0,0 1,1 1,1l1 -1c0,0 1,-1 1,-1 1,0 2,1 2,2l0 0c0,0 0,0 0,0 1,-2 3,-2 4,-1l0 0c0,-2 2,-4 4,-2 0,0 0,0 0,0 0,-1 0,-1 0,-2 1,-1 2,-1 3,-1l1 0c0,-1 0,-1 0,-2 0,0 0,-1 1,-1 0,0 1,0 2,0 1,0 1,1 1,1 0,-1 0,-2 0,-2l0 0c0,0 1,0 2,0 1,0 1,0 1,1 0,-1 -1,-2 0,-3 1,-1 2,-1 3,-1 -2,-2 1,-5 3,-3 0,0 1,1 1,1 0,1 0,1 0,2 -1,1 -2,1 -3,1zm-89 -4l-1 2 0 0 0 0 0 0c0,0 1,0 3,1 0,0 0,-1 -1,-2 0,0 0,0 0,0 0,0 0,0 -1,0 0,0 0,0 0,0l0 0zm3 3c1,0 3,1 6,2 -1,-1 -1,-3 0,-4 1,-1 1,-1 1,-2 0,-1 0,-1 -1,-1 -1,0 -1,0 -1,1 0,-1 1,-1 2,-1 4,0 5,8 1,9 2,0 4,1 6,1 -1,-1 -1,-2 0,-3 0,-1 2,-2 1,-4 0,0 0,0 0,0 0,0 0,0 0,0l0 0c0,0 -1,1 -1,1 0,0 0,0 0,-1l0 0c0,0 0,0 0,0 0,0 1,0 1,-1 2,0 4,1 4,3 1,2 1,4 -1,6 2,0 4,0 6,0 -1,0 -1,-1 -1,-1l0 0c0,0 0,0 0,0 0,0 0,0 0,0 0,0 -1,0 0,-1 1,0 0,0 1,1 0,-1 -1,0 -1,-1 1,0 0,0 1,1 0,0 0,1 1,1 1,0 1,0 1,-1 0,-1 -2,-1 -2,0 0,0 0,0 0,0 0,0 0,0 0,0 -1,-1 -1,0 -1,0 0,-1 1,-2 1,-4 0,-1 0,-1 -1,-2 -1,0 -1,0 -1,1 0,-1 2,-3 5,0 0,0 0,0 0,0 0,0 0,0 0,0 0,1 0,1 1,1 0,0 0,0 0,0 0,0 1,4 -1,5 0,0 0,0 0,0l0 0c0,0 0,0 0,0 0,0 0,0 0,0 2,0 4,0 6,-1 0,0 0,0 -1,-1 -1,-1 -1,-2 0,-3 0,-1 1,-2 1,-3 0,-1 0,-1 -1,-1 -1,0 -1,0 -1,1 0,-1 1,-1 1,-2 0,0 1,0 1,0 0,0 1,1 1,1 0,0 -1,0 -1,-1 4,1 5,6 3,8 2,0 4,-1 6,-1 0,0 -1,0 -1,-1 -1,-1 -1,-2 0,-3 0,-1 1,-2 1,-3 0,-1 0,-1 -1,-1 -1,0 -1,0 -1,1 0,-1 1,-1 1,-2 0,0 1,0 1,0 0,0 1,1 1,1 0,0 -1,0 -1,-1 5,1 5,7 3,9 2,0 3,-1 3,-1l0 0c0,-1 0,-2 0,-3l-2 -13c0,-1 0,-2 0,-2 0,-1 0,-2 0,-2 0,0 -1,0 -1,0 0,2 -1,4 -2,2l0 0c0,0 0,0 0,0 -2,-4 0,-10 1,-13 0,-1 1,-2 1,-3 1,-1 0,-2 0,-3 0,-1 0,-3 0,-4 0,-1 0,-3 0,-4 0,-2 0,-5 0,-7 0,-3 1,-5 3,-6 1,-1 1,-1 3,-1 1,0 0,-1 2,-1 2,0 6,0 8,2l1 1c1,1 1,1 2,2 1,2 2,3 3,5 1,1 1,2 1,3 0,1 2,5 3,5 0,0 2,1 3,1 1,1 4,2 5,3l2 1c0,0 0,0 1,1l1 1c1,1 1,2 1,4 -1,1 -2,1 -3,0 0,0 0,1 -1,1 -1,0 -2,-2 -2,-3 0,-2 0,-1 -1,-2 0,0 -2,-1 -2,-1l2 5c1,2 2,3 2,5 1,1 1,2 2,3 1,1 0,1 1,2l2 3c0,0 0,0 0,1 3,5 6,11 9,17 1,1 1,3 1,4 0,1 -1,3 -2,4 0,0 0,0 -1,1 -1,1 -2,2 -3,2 -2,1 -3,2 -5,3 -7,4 -16,7 -24,6 -1,0 -5,-1 -6,-2 0,0 -1,0 -1,-1 -1,-1 -2,-3 -2,-5 -1,0 -12,3 -25,5 -13,2 -28,-8 -28,-8l0 0 0 0 3 -8c-2,-1 0,0 0,0l1 -2 0 0c0,-2 1,-4 2,-6 1,-3 3,-7 5,-10l3 -5c1,-1 3,-5 4,-6 0,0 0,-1 1,-1l2 -3c1,-1 2,-2 2,-3l2 -2c0,0 0,-1 1,-1 0,0 -1,-1 0,-2 0,-1 1,-1 1,-1l0 -6c-1,0 -2,1 -4,1 -1,0 -7,4 -8,5 1,1 0,3 -1,4 -1,1 -4,3 -5,2 0,0 0,-1 -1,-1 0,-2 1,-4 2,-5 0,-1 1,-1 1,-2l3 -3c0,0 0,0 1,-1l2 -1c3,-2 6,-4 9,-5 1,0 5,-1 6,-1 0,1 1,4 3,5 2,1 5,-2 5,-2 -2,0 -3,-2 -4,-3 0,0 -1,1 -2,1 -1,0 -1,0 -2,0 0,0 0,-1 0,-1 0,0 0,0 0,0l0 0c0,0 0,0 0,0 0,0 0,0 0,0 -1,0 0,0 -1,-1 0,0 0,0 0,0 -1,-1 0,-2 0,-2 -1,0 0,-2 0,-2 0,0 0,0 0,0 0,0 0,0 0,0 0,-1 0,-2 0,-4 0,-1 1,-2 2,-2 1,-2 1,-4 1,-6 0,-2 0,-5 2,-6 1,-1 3,-1 4,-1 1,0 4,1 5,1 0,0 0,0 0,0l0 3 -1 0c0,-1 -1,-2 -1,-3 -1,0 -1,1 -2,1 -1,-1 -1,-2 -1,-2 0,0 -1,1 -1,1 0,0 -1,1 -1,1 0,0 0,0 0,0 0,0 -1,-1 -1,-1 0,0 -1,2 -1,2l-1 -1c0,0 0,0 0,1l0 0c0,0 0,0 0,0 0,0 -1,-1 -1,2 0,0 0,0 0,0 0,0 0,-1 1,-1l0 0c0,0 0,0 0,0 0,0 0,0 0,0l0 0 0 -1 1 1c0,0 0,1 1,1l2 -2c0,0 0,0 0,0l1 2c1,0 1,-1 2,-2 0,1 1,2 1,2 0,0 2,-1 2,-1 0,1 0,2 0,3l1 0 0 3c-1,0 -4,-4 -12,-2l0 1c4,-1 8,0 11,2 1,0 1,1 1,1 0,1 0,2 0,3 0,1 0,1 0,2l0 1c0,0 0,0 0,0 0,0 0,0 0,0l-1 3c0,0 0,0 0,-1 0,-1 1,-1 1,-2 0,1 0,1 0,2 0,0 0,0 0,1l0 1c0,0 0,0 0,1 0,1 -1,1 -1,1 -1,1 -1,2 -2,3 0,0 0,0 1,0l2 2c1,0 1,1 2,1l0 5c0,0 0,0 0,0 0,1 0,1 0,1 0,1 0,3 0,3 0,0 -1,-2 -3,-3 0,0 -1,0 -1,0 0,0 -1,2 -1,2 0,1 -1,2 -1,2 0,0 0,0 0,0l1 0c0,0 0,1 0,1 0,1 0,1 -1,1 0,0 0,0 0,1l1 2c1,2 2,4 3,6 0,1 0,1 0,1 0,0 -1,-1 -1,-2 0,-1 -1,-1 -1,-2l-2 -4c0,0 0,-1 -1,-1 -2,-1 -4,-1 -5,1 0,1 0,1 0,2 0,1 2,2 3,2l1 0c0,0 0,0 0,0 0,0 0,0 0,0 1,-1 0,-3 -1,-2 0,0 -1,0 -1,0 0,0 0,1 0,2 1,0 1,-1 1,-1 0,0 0,0 0,1 0,1 -1,1 -2,1 -1,0 -1,-2 0,-3 1,-1 3,0 3,1 0,0 0,0 0,0 1,3 -2,5 -4,3 -1,-1 -2,-3 -1,-4 0,0 0,0 1,-1 0,0 1,-1 1,-1 0,0 0,0 0,0 0,0 0,0 0,0 0,0 -1,0 -1,0 -1,0 -1,0 -2,0 -6,-1 -7,-2 -8,-2l-1 1c0,0 -1,1 -1,1 0,0 -1,1 -1,1l-2 3c0,1 0,0 0,1 0,0 0,0 0,1 -1,1 0,2 0,3 0,0 0,0 0,0 2,2 5,-1 3,-3 -1,-1 -3,0 -2,1 1,1 2,0 1,-1 0,0 0,0 -1,-1 0,0 0,0 0,0 0,0 0,0 0,0 1,1 0,3 -1,2 0,0 -1,0 -1,-1 -1,-3 4,-3 4,0 0,1 0,1 -1,2 -1,1 -2,1 -3,0 -1,-1 -2,-2 -2,-4 -1,1 -3,4 -3,5l-1 2c-1,1 -2,3 -3,4l-2 4c0,1 0,1 0,2 0,1 1,2 1,3 0,0 0,0 1,0 0,0 0,0 1,0 2,1 4,1 6,-1 1,-2 0,-5 -2,-5 -1,0 -2,0 -3,1 -1,1 0,3 2,3 1,0 1,-1 1,-2 -1,-1 -1,0 -2,0 0,0 0,-1 1,-1 0,0 1,0 1,0 1,0 1,1 1,2 -1,3 -5,1 -4,-2 1,-3 6,-3 6,0 0,1 0,2 0,2 -1,2 -3,3 -6,2 -1,0 -1,-1 -2,-1 -2,-1 -2,-3 -2,-4 0,0 0,1 -1,1 0,0 0,1 -1,1 0,0 0,1 -1,1 0,0 0,1 0,1 0,1 -2,5 -1,6 2,0 5,-2 4,-3 0,0 0,0 0,0 0,0 0,0 0,0 0,0 0,0 0,1 0,0 0,2 0,2 0,3 -2,4 -3,4zm7 2l0 0c0,0 0,0 0,0 0,0 0,0 0,0zm39 3l0 3c0,1 0,2 0,3 0,0 2,-1 2,-1 1,0 1,0 2,0 0,0 1,0 1,1 1,-1 1,-1 2,-1 1,0 2,1 2,1 0,0 2,-2 4,0 0,0 0,0 0,0 1,0 1,-1 2,-1 1,0 2,0 3,0 0,0 0,0 1,-1 1,-1 2,-1 3,0 0,-1 1,-1 2,-2 1,0 1,0 2,0 0,-1 1,-2 1,-2 1,0 2,-1 3,0 0,-1 1,-1 1,-2 1,-1 1,-1 2,-1 0,-1 0,-1 1,-2 0,0 0,0 0,0 1,0 1,0 2,0 0,-1 0,-2 1,-3 1,-1 2,-1 3,-1 0,-1 -2,-5 -2,-5 0,0 0,0 0,-1 0,0 0,0 0,-1l-2 -3c0,0 0,0 0,0 0,0 0,0 0,-1 -1,-2 -4,-6 -5,-7 0,-1 -1,-1 -1,-2l-3 -3c0,0 -1,-1 -2,-1l-9 -6c0,1 0,1 1,2 0,2 0,1 1,1 0,1 0,0 0,1 -1,0 -1,0 -1,-1l-3 -1c0,0 0,0 0,0 0,0 0,0 0,0l0 0c0,0 0,0 0,0 0,1 0,3 0,3 0,0 1,0 1,0 0,1 -1,1 -1,1 0,-1 0,-1 0,-1 0,0 0,0 -1,0l-1 -1c0,0 0,0 0,0 0,0 0,0 -1,-1 0,0 4,12 4,14 0,1 0,2 1,2 0,1 0,2 1,2l2 6c0,0 0,1 0,1 0,0 0,1 0,1 0,0 0,0 0,1l0 0c0,0 0,0 0,0 0,1 1,2 1,3l0 1c0,0 0,0 0,1l1 3 0 0c-1,-1 -1,-3 -2,-4 -1,-2 -3,-8 -3,-9 0,0 0,0 0,0 0,0 0,0 0,0l-3 -11c0,-1 0,-1 -1,-2l0 -1c0,0 0,-1 0,-1l-2 -7c0,0 0,0 0,0l0 0c0,1 -1,3 -1,3l-2 -2c0,0 0,0 0,0 0,0 0,0 0,0l0 -1c0,0 0,0 0,0 -1,0 0,0 -1,0 0,0 0,0 0,1 0,0 -1,0 -1,1 0,0 0,0 0,1 0,0 0,1 0,1l0 0c0,0 0,0 0,0 0,0 0,1 0,1 -1,0 -1,0 -1,0 0,-1 0,-1 1,-1 0,0 0,-1 -1,-1 0,0 0,-1 -1,-1 0,0 -1,2 -1,2 0,0 0,1 0,1 0,1 0,0 0,1 0,0 0,0 -1,0 0,-1 1,-4 2,-5l0 0c0,0 0,0 0,0 -1,-1 0,-2 0,-2 0,0 0,0 -1,-1 0,0 0,0 -1,-1 0,0 -1,0 -1,1 0,0 0,0 0,0 0,0 0,0 -1,1 0,0 0,0 0,0 0,0 0,0 0,0 -1,1 -2,3 -3,4 0,0 1,0 0,1 0,0 0,1 0,1 0,0 0,0 0,1 0,0 0,0 0,0 0,0 0,0 0,0 0,0 0,1 0,1l0 0c0,0 0,0 0,0 0,0 0,0 0,1 0,1 0,0 0,1 0,0 0,1 0,1 0,0 0,0 0,1 0,0 0,0 0,1 0,1 0,0 0,1 0,0 0,0 0,0 0,0 0,0 0,0 0,0 0,0 0,0l0 0c0,0 0,1 0,1 0,0 0,1 0,1 0,0 0,0 0,1 0,0 0,0 0,1 0,0 1,0 0,1 0,0 0,0 0,1l0 0c0,0 0,0 0,0 0,0 0,-3 0,-4 0,-4 1,-6 2,-10 0,0 0,0 0,0 0,1 -1,2 -1,3 -1,4 -1,6 -2,10 0,1 0,1 0,2l0 6c0,1 0,7 0,8 0,0 0,0 0,0zm-50 -6l-2 8c1,1 15,9 27,8 12,-2 24,-5 25,-5l0 -3c0,0 0,0 0,-1 0,-1 0,-2 0,-3l0 -3c-1,0 -6,1 -12,2 0,0 0,0 0,0 0,0 -1,0 -1,0 -5,1 -10,1 -15,1 0,0 -1,0 -1,0 0,0 -1,0 -1,0 -3,0 -6,0 -8,-1 -6,-2 -9,-3 -10,-3zm3 -3c1,0 2,1 1,2 -1,1 -2,-1 -1,-2zm9 4c0,1 -2,1 -2,-1 0,-1 2,-1 2,1zm24 -1c1,0 2,2 0,2 -1,0 -2,-2 0,-2zm-16 1c1,0 2,2 0,2 -1,0 -2,-2 0,-2zm25 -3c1,0 2,2 0,2 -1,0 -2,-2 0,-2zm-1 -73c0,0 0,0 1,0l0 2c0,0 0,0 0,0 1,0 1,0 2,0 0,0 0,0 0,0l0 2 1 0 0 0 0 0c0,0 0,0 0,0 0,0 0,0 0,0l0 0c0,0 0,0 0,0l0 0c0,0 0,0 0,0 0,0 1,0 0,1l0 -2 -2 1 0 -2 -1 0 0 2c0,0 0,0 0,1 0,0 -1,1 0,1 0,0 0,0 1,1 0,0 0,0 -1,1 0,1 0,0 0,1 0,0 0,0 0,0 0,0 2,-2 2,-2 1,-2 2,-4 1,-6 -1,-1 -1,-2 -2,-3 0,0 0,0 0,0 -1,0 -1,-1 -1,-1l0 2zm-33 33c1,1 0,2 0,3 -1,1 -5,3 -5,0 0,-2 2,-5 2,-5 1,0 2,1 3,2 -1,0 -3,0 -3,2 0,2 3,1 3,0 -1,0 -1,1 -1,1 -1,0 -1,-3 2,-3zm12 0l0 -2c1,0 1,0 0,-1l0 0c0,0 0,0 0,0l0 -1c1,0 1,1 2,1 4,2 8,3 13,2 0,1 0,1 -1,1 0,0 0,0 0,1l-1 2c-2,0 -5,0 -7,0 -2,0 -3,-1 -5,-1 0,0 -1,0 -1,0zm-9 -3c0,0 0,0 -1,0 0,0 0,0 -1,0 0,0 0,0 0,0 0,0 0,0 0,0l0 0c0,0 0,0 -1,0l0 -1 -1 0c-1,-1 -1,-1 -1,-1l0 -1c0,0 0,0 -1,0 0,0 1,-1 1,-1 0,0 1,-1 1,-1 0,0 1,-1 2,-1 0,0 0,0 1,0 1,-1 2,-1 2,-2 0,0 1,1 1,1 1,1 1,2 1,3 0,0 -1,0 -1,0 0,0 0,0 -1,0 0,0 0,0 0,0 -1,0 -2,1 -2,1zm25 -7c0,0 1,1 2,1 0,2 -1,5 -2,7 0,0 0,0 -1,0 0,0 0,1 -1,1 -1,-1 0,-2 1,-1l0 0c0,-1 -1,0 -1,0 0,0 0,1 0,1 0,0 -1,0 -1,0 -1,0 -1,0 -1,0 0,0 0,0 0,-1 0,-1 1,-1 1,0 0,0 0,0 -1,0 1,0 1,-1 0,-1 -1,0 -1,1 -1,1 0,0 -2,0 -3,0 0,0 0,0 0,0 0,0 0,0 0,0 0,-1 0,-1 1,-1 0,1 0,1 0,1 0,0 0,0 0,0 0,-1 -2,-2 -1,1 -1,0 -3,0 -3,-1l0 -1c0,0 0,0 0,0 0,0 0,0 0,0l0 0c0,0 -2,-1 -2,-1 0,0 0,0 0,0l0 0c0,0 -1,0 -1,-1 -1,0 -1,0 -1,-1 0,0 0,0 0,0 1,1 1,0 1,0 0,-1 -1,-1 -1,-1l0 0c-1,-1 -2,-4 -2,-5 1,-1 3,-1 5,-1 0,0 0,0 0,0l0 1c0,0 0,0 0,-1l0 0c0,0 0,0 0,0 0,0 -1,0 -1,0 0,0 1,0 2,0l0 1c0,0 -1,0 -1,1 1,0 1,-1 2,1 0,0 -1,0 -1,1 0,0 1,0 1,0 0,0 0,0 0,1l0 0c0,0 0,0 0,0 0,0 0,0 0,1 1,0 1,0 2,0 0,1 0,1 0,1 0,0 1,0 1,-1l0 0c0,0 0,1 1,1l0 0c0,0 0,0 0,0 0,0 0,0 0,-1l1 0c0,0 0,0 0,1 0,0 0,0 1,0 0,0 0,-1 0,-1 0,0 1,0 1,-1 0,0 0,1 1,1 0,-1 0,-1 0,-1 0,0 0,0 0,0 0,0 0,-1 1,0 0,0 1,1 1,0 0,0 0,0 0,0 -1,0 -1,0 -1,0l0 1c0,0 1,0 1,-1 0,0 0,0 1,-1l0 0zm-9 -16c1,0 0,0 1,0 0,0 0,0 1,0 0,0 0,0 0,0 1,0 0,0 1,0 1,0 1,0 1,0l3 1c0,0 0,0 0,0 0,0 0,0 0,0 0,0 0,0 0,0 0,0 0,0 1,0l1 0c0,0 0,0 0,0 0,0 1,1 1,1 0,1 1,1 1,2 0,1 -1,2 -1,3 -1,2 -1,4 -2,5 0,-1 -1,-1 -2,-1 -2,0 -1,3 0,2 0,0 0,0 -1,0 0,0 0,0 0,0 0,0 0,-1 1,-1 1,0 1,1 1,2 -1,1 -2,0 -3,-1 0,0 0,-1 0,-1l1 0c0,-1 0,-1 0,-1 0,0 0,-1 0,-1 0,0 0,0 0,0 0,0 0,1 0,1 0,0 -1,0 -1,1 0,0 0,0 0,0 0,0 1,0 1,1l-1 0c0,0 0,1 -1,1 0,0 0,0 0,-1 0,0 -1,0 -1,-1 0,0 0,0 1,0 0,0 0,0 0,1 0,0 0,-1 0,-1 -1,0 0,1 0,1 0,0 -2,1 -3,1 -2,-1 -1,-3 0,-2 0,0 0,0 1,1 0,1 0,1 -1,1 0,0 0,0 0,0l0 0c0,0 0,0 0,1 0,0 0,0 0,0l0 0c0,0 1,0 1,0 0,0 0,-2 -2,-2 0,0 0,0 -1,0 0,-1 0,-1 0,-2 0,-2 2,-5 2,-6zm16 48c0,0 -1,0 -1,-1 0,0 0,-1 -1,-1 -1,0 -2,1 -2,2 0,1 2,1 2,0 0,-1 -2,-1 -1,0 1,0 1,0 1,-1 0,0 0,0 0,0 0,0 0,0 0,0 -1,-1 1,-1 1,0 0,1 -1,0 -2,0 0,-1 1,-1 1,-1 2,0 1,4 0,4 -1,0 -1,-1 -2,-1 -1,-1 -1,-4 -1,-5 0,0 1,1 2,1 1,0 1,0 2,0 1,0 1,2 1,3zm-2 -11c0,0 1,-2 1,-2 0,0 1,0 1,0 0,0 0,2 2,1 0,1 0,1 1,1 0,0 -1,1 -1,1 -1,0 -3,-1 -4,-2zm33 -6c1,-1 0,-1 1,-1 1,1 1,1 2,2 0,0 0,0 0,0 2,4 1,4 -1,3 0,0 0,0 -1,-1 -1,-1 1,-2 2,-1 1,1 -1,2 -1,1 0,0 1,-1 0,0 0,0 0,0 0,0l0 0c0,0 0,0 0,-1 -1,0 -1,0 -1,0 0,1 1,2 1,1 1,-1 -1,-2 -2,-2 -1,1 0,2 0,3 -2,0 -2,-3 -2,-4 0,0 1,-1 1,-1zm-31 3c0,0 1,-1 1,-1 0,0 1,-1 1,-1l0 2 2 0c0,0 -1,2 -1,2l2 -1c0,1 -1,1 -1,2l1 0 -1 1c-1,0 -1,-1 -1,-1 -1,0 -2,0 -2,-2 -1,0 -1,0 -1,-1zm20 0c0,-1 1,-2 1,-3 2,0 3,0 5,0 0,0 0,0 0,1 0,0 0,0 1,0 0,1 0,1 1,1 0,1 0,1 0,1l0 0c0,1 0,1 1,1 0,1 0,1 1,1 0,0 0,1 0,1 0,0 0,0 1,0 0,1 0,1 1,1 0,1 0,1 1,1 0,1 0,1 1,1 0,1 0,1 1,1 0,1 0,1 1,1l0 1 -4 -4c0,0 0,0 0,0 -1,-1 -6,-4 -7,-5 1,-2 0,-2 -1,-2zm-5 -10c1,0 3,0 4,0 0,0 1,0 1,0 0,1 0,3 0,4 0,2 -1,5 -2,6 0,0 -2,1 -3,1 0,0 -2,1 -2,1 0,0 -3,0 -4,1 -1,0 -1,0 -1,0l-2 -2c-1,-1 -3,-4 -4,-5 0,-1 2,-3 3,-3 1,0 2,1 2,1 0,0 0,1 1,1 0,0 0,0 0,0 0,0 0,0 0,0 0,1 0,0 1,1l0 0c1,1 0,0 1,0 0,1 0,0 0,1l0 0c0,0 0,0 0,0 0,0 0,0 0,0 1,-1 2,0 1,1 1,-1 -1,-1 -1,-1 0,1 0,1 1,1 1,0 1,0 1,0 0,0 0,0 0,0 0,0 0,0 0,-1 0,0 0,0 0,-1 0,0 -1,0 0,0 0,0 0,0 0,0 0,0 0,0 0,0 0,-2 0,-3 0,-4 0,-1 0,-2 0,-2 0,0 0,0 1,-1l1 0zm-6 -12c2,0 3,1 3,3 -1,0 -1,0 -1,0l1 0c0,0 2,5 3,6 -1,2 -3,-1 -1,-1 1,0 0,1 0,1 0,-1 0,-1 -1,-1 -1,0 -2,2 -1,2 1,0 1,0 1,0 0,0 0,0 0,1 0,0 -1,1 -2,1 0,0 0,-1 -1,-1 0,0 -1,0 -1,0 -1,1 -1,1 -1,1 0,0 0,0 0,0l0 0c0,0 0,0 0,0l0 0c0,0 0,0 0,0 0,1 0,0 0,0 0,0 0,0 0,0 0,1 0,1 0,1 0,1 0,1 0,1 0,0 0,0 -1,-1 0,0 -1,0 -1,0 0,0 0,-1 1,-1 0,0 0,0 0,0l0 -1c0,0 -1,0 -1,0 0,0 0,1 0,1l1 0c0,0 1,1 1,1 0,0 0,-1 1,-1 0,0 0,0 0,1 0,0 0,0 0,0 0,1 1,1 1,0 0,0 0,0 0,0 0,0 0,0 0,1 0,0 0,0 1,1 0,0 0,0 0,-1 0,0 0,0 1,0 0,0 0,-1 0,-1l0 -1c0,0 0,0 0,0l0 0c0,0 0,0 0,0 0,0 0,0 0,0 0,0 0,0 0,0 0,0 0,0 0,0 0,0 0,0 0,0 0,0 0,0 1,0 0,0 0,0 0,0 0,0 0,0 0,0 1,0 -1,-1 1,0 0,1 -1,3 -2,4 0,0 0,0 0,0 0,0 0,0 0,0 0,0 0,0 0,0 0,0 -1,1 -1,1 -1,1 -2,0 -3,0 -1,0 -2,-1 -3,-1 -1,-1 -2,-3 -2,-3l0 0c0,0 0,0 0,0 0,-1 0,-5 0,-6 0,-2 1,-3 1,-3 0,0 -1,-1 0,-2 0,-2 2,-2 4,-1 1,0 1,1 1,2zm-6 -1c1,0 0,0 1,0l-1 1c0,0 0,0 0,0 0,0 0,0 0,0 0,0 0,0 0,1 0,0 -1,0 0,1l0 0c0,0 0,1 0,1 0,0 0,0 0,0l0 0c0,0 0,1 0,1 0,0 0,0 0,0 0,0 0,0 0,1l0 0c0,0 0,0 0,0 0,0 0,0 0,0 0,0 0,0 0,0 0,0 0,0 0,1 0,0 0,0 0,1l0 0c0,0 0,1 0,1 -1,0 0,1 0,1 0,0 0,0 0,1 0,0 0,0 0,0 0,0 0,0 0,1 0,0 0,0 0,0 0,0 0,0 0,1 0,0 0,0 0,1 0,0 0,0 0,1 0,0 0,0 0,0 0,1 0,0 0,1l0 0c0,1 0,0 0,1 0,0 0,0 0,1 0,0 0,0 0,0 0,0 0,0 0,1l0 0c0,0 0,0 0,0 0,1 0,0 0,0 0,0 0,0 0,1 0,0 -1,1 -1,1 0,0 0,0 0,1 0,0 0,0 0,1 -1,1 -1,2 -2,2 0,-1 0,0 0,-1l0 -1c0,-1 0,0 0,-1 0,0 0,0 0,0 0,0 0,0 0,0 0,0 0,0 0,0l0 0c0,-1 0,0 0,-1 0,0 0,0 0,0 0,0 0,0 0,-1 0,0 0,0 0,0 0,0 0,0 0,-1 0,0 0,0 0,0 0,0 0,0 0,0 0,0 0,0 0,0 0,0 0,0 0,0 0,0 0,0 0,0 0,0 0,0 0,0 0,0 0,0 0,-1 0,0 0,0 0,-1 0,-1 0,0 0,-1 0,0 0,0 0,0 0,0 0,0 0,0 0,0 0,0 0,-1 0,0 0,-1 0,-1 0,0 0,0 0,0 0,0 0,0 0,0 0,-1 0,0 0,-1 0,0 0,0 0,-1 0,0 0,0 0,0 0,-1 0,-1 0,-1 0,0 0,0 0,0 0,0 0,0 0,0 0,0 0,0 0,-1 0,0 0,0 0,0 0,-1 0,-1 0,-1 0,0 0,0 0,-1 1,0 0,0 1,0 0,0 0,0 0,0 0,0 0,0 1,-1 0,0 0,0 0,0zm7 -1c0,0 0,0 -1,0l0 0c0,0 1,0 1,0 0,0 0,1 1,1 0,0 0,1 1,0 0,0 0,1 1,0 0,1 0,1 1,1 0,1 0,1 1,1 0,1 0,1 1,1 0,1 0,1 1,1 0,1 0,1 1,1 0,1 0,1 1,1 0,1 0,1 0,1 0,1 0,1 1,1 0,1 0,1 1,1 0,1 0,1 1,1 0,1 0,1 0,1 0,0 0,0 0,0 0,0 0,0 0,0 0,0 0,0 0,0 0,0 0,0 0,1l0 0c0,0 0,1 0,1 0,1 0,1 0,1 0,0 0,0 0,1 0,0 1,0 0,1 -1,0 -2,0 -2,-1 -1,0 -2,0 -2,-1 0,0 0,-1 -1,-1 0,0 0,-1 0,-1 0,0 0,0 0,0l0 0c0,0 0,-1 0,-1 0,0 0,0 0,-1 0,0 0,0 0,0 -1,0 0,-1 -1,-1 0,-1 0,-1 0,-1 0,-1 0,-1 0,-1l0 -1c-1,-1 0,0 -1,-1 0,-1 0,-1 -1,-1 0,-1 0,-1 0,-1 0,-1 0,-1 -1,-1 0,-1 0,-1 -1,-1 0,-1 0,-1 -1,-1 0,-1 0,-1 -1,-1 0,0 0,0 0,-1zm-13 -19l0 0c1,0 1,1 2,1 0,0 0,0 1,0 1,1 2,2 2,3 1,2 0,5 -1,7 0,1 -1,2 -2,3 0,0 -1,1 -1,1 0,0 0,1 0,1l0 2 0 0c0,1 0,2 -1,2 0,0 0,1 -1,1l0 0c0,0 0,0 0,0 0,1 -1,2 -2,3 0,0 0,1 -1,1l2 1c0,0 1,1 1,1l1 0c0,-1 0,-1 0,-2 0,-3 1,-5 3,-7 1,-1 1,-1 3,-2 1,-1 1,-1 2,-1 3,-1 7,0 9,2l1 1c1,1 1,1 2,2 1,2 2,3 3,5 0,1 1,2 1,3 1,1 2,3 2,5 1,0 2,1 2,1 1,1 4,2 5,3l2 1c0,0 1,1 1,1l0 0 1 1 0 0c1,1 2,3 1,5 -1,2 -2,2 -3,2 0,0 -1,0 -2,0 0,1 1,2 1,3 1,1 1,2 2,3 1,1 1,1 1,2l2 3c0,0 0,0 1,1 4,5 6,12 9,17 1,1 2,3 1,5 0,2 -2,3 -3,5 0,0 -1,0 -1,1 -1,1 -2,2 -3,3 -2,1 -3,2 -5,3 -7,4 -17,7 -25,6 -2,0 -5,-1 -7,-2 0,0 -1,0 -1,-1 -1,-1 -2,-3 -2,-5 -8,2 -16,4 -24,5 -9,1 -21,-3 -28,-8l-1 -1 3 -8c-1,0 -1,-1 -1,-2 0,-1 1,-1 1,-1l1 -2 0 0c0,-1 1,-3 2,-4 1,-3 3,-7 5,-10l3 -5c1,-2 3,-4 4,-6 0,0 0,-1 1,-1l2 -3c1,-1 2,-2 2,-3l2 -2c0,0 0,0 0,0 0,-1 0,-1 0,-2 0,-1 1,-1 1,-1l0 -3c-1,0 -1,0 -2,0 -1,0 -5,3 -7,4 0,2 0,3 -1,4 -1,2 -5,3 -7,2 -1,-1 -1,-1 -1,-2 0,-2 1,-4 2,-6 0,-1 1,-1 1,-2l3 -3c0,0 0,0 1,-1l0 0 2 -1 0 0c3,-2 6,-4 10,-5 1,0 2,-1 3,-1 0,-1 0,-1 0,-2 -1,-1 0,-2 0,-3 0,-1 0,-2 0,-3 0,-2 1,-3 2,-3 0,-2 0,-3 1,-5 0,-3 0,-6 3,-7 1,-1 4,-1 5,-1 2,0 5,1 6,2l0 0 0 0z"/>
 </g>
</svg>
