<?xml version="1.0" encoding="UTF-8"?>
<!DOCTYPE svg PUBLIC "-//W3C//DTD SVG 1.1//EN" "http://www.w3.org/Graphics/SVG/1.1/DTD/svg11.dtd">
<!-- Creator: CorelDRAW X6 -->
<svg xmlns="http://www.w3.org/2000/svg" xml:space="preserve" width="0.83372in" height="0.83372in" version="1.1" style="shape-rendering:geometricPrecision; text-rendering:geometricPrecision; image-rendering:optimizeQuality; fill-rule:evenodd; clip-rule:evenodd"
viewBox="0 0 313 313"
 xmlns:xlink="http://www.w3.org/1999/xlink">
 <defs>
  <style type="text/css">
   <![CDATA[
    .fil0 {fill:#BC0300}
   ]]>
  </style>
 </defs>
 <g id="Layer_x0020_1">
  <metadata id="CorelCorpID_0Corel-Layer"/>
  <path class="fil0" d="M157 0c62,0 116,36 141,88l-1 -1c0,0 -11,12 -48,16 -6,1 -12,0 -19,-1l0 0 -2 0c-25,-5 -52,-20 -66,-28 -1,-1 -2,-2 -2,-3l-1 -1 1 -1 1 -1 0 0 0 0 1 0c1,0 4,-1 5,-1l1 0 0 1c1,1 2,2 2,2 1,1 2,1 4,1 6,0 15,-7 20,-11l1 -1 0 0c1,-1 2,-2 3,-3l0 0c1,-1 2,-2 2,-2 0,0 1,-1 1,-1 0,0 0,-1 0,-1l0 0c0,0 0,0 -1,0l0 0c-1,0 -1,0 -2,0 -3,1 -8,2 -13,1 -3,0 -6,-1 -8,-2 -1,-1 -1,-2 -1,-3l0 0c0,-1 -1,-2 -3,-4 -2,-1 -5,-1 -8,-2 -4,0 -8,0 -11,1 -2,0 -2,3 -1,5 0,1 0,1 0,2l0 11c0,1 0,2 0,3 0,1 0,2 0,3l0 0c0,0 0,1 0,1l0 0 -1 -1 -1 1c0,0 -27,26 -74,32 -47,6 -66,-6 -66,-6l-1 1c24,-57 80,-96 145,-96zm142 90c10,20 15,43 15,67 0,87 -70,157 -157,157 -87,0 -157,-70 -157,-157 0,-3 0,-5 0,-8 1,1 5,3 11,4l4 12 3 -11c5,1 11,1 18,0 1,0 2,0 3,0l4 12 3 -13 -3 0c23,-2 22,-8 22,-8l-1 0 -1 0c0,0 1,3 -26,5 -21,1 -30,-3 -33,-4 -1,-1 -1,-1 -1,-1l-1 1c1,-17 5,-34 11,-50 1,0 3,2 8,3l4 12 3 -11c6,1 13,2 23,3l-2 0 4 13 3 -13c7,0 15,0 25,-1l3 11 3 -12c8,-1 16,-3 23,-6l3 10 3 -12c17,-6 29,-15 36,-20 -1,1 -2,2 -2,3 -2,2 -3,4 -5,6 -1,1 -1,2 -2,2 -1,1 -2,2 -3,4l0 0 -17 17 0 0c-1,1 -1,1 -1,1 0,0 -1,1 -1,1 -1,1 -2,2 -3,3 -2,2 -4,4 -6,5l0 0c-7,6 -13,10 -19,15 -6,4 -13,9 -20,13l0 0 -1 0c-2,1 -2,1 -1,5 1,3 3,7 5,11 2,3 5,6 8,8l1 0 0 1c0,4 0,9 0,14 0,5 0,11 -1,14 0,2 0,3 0,5 0,3 0,6 -1,8l0 0c-2,9 -3,17 -4,23 -2,7 -4,14 -7,23l0 1c-1,4 -2,4 3,6 4,2 7,3 11,3 4,1 8,1 12,2 1,0 2,0 3,0 1,0 2,0 3,0l0 0c0,0 1,0 2,0 2,0 3,0 3,-1 1,-1 6,-7 10,-12 2,-3 4,-5 5,-6l0 0c1,-1 1,-2 3,-2 1,0 2,0 3,-1 1,0 2,0 3,0 9,-1 18,-2 27,-2 9,0 18,1 27,2l0 0c2,0 4,1 6,1l0 0c2,0 2,1 3,2 0,0 1,1 1,2l0 0 13 16 0 0c1,1 1,1 3,1l0 0c1,0 1,0 1,0 1,0 2,0 3,0 1,0 2,0 3,0 5,0 9,-1 12,-2 4,-1 7,-2 11,-3 5,-2 4,-2 2,-8 -1,-2 -2,-5 -3,-9 -4,-12 -7,-26 -8,-40l0 0c-2,-13 -2,-26 -1,-38l0 -1 1 0c3,-1 5,-3 6,-5 2,-2 3,-5 4,-8 0,-1 2,-3 3,-6 0,-1 1,-2 1,-3 0,-1 -1,-1 -1,-2 0,0 -1,0 -1,0 -4,-2 -7,-4 -10,-6 -3,-2 -6,-4 -9,-6 -7,-5 -14,-10 -21,-16 -7,-6 -14,-13 -20,-19 -3,-3 -6,-6 -9,-10 -3,-3 -5,-5 -7,-8 8,4 17,9 28,14l-1 0 3 13 3 -11c8,3 15,6 23,7l3 11 3 -9c7,1 14,2 20,1 2,0 4,0 6,-1l3 12 4 -13 -2 0c8,-1 14,-3 19,-5l3 12 4 -13 -6 0c12,-4 17,-8 19,-10zm-29 63l-3 0 3 13 4 -12c1,0 2,0 3,0 7,0 13,0 18,0l3 11 4 -12c9,-2 12,-5 12,-5l-1 -1 0 0 -1 -1c0,0 0,0 -1,1 -3,2 -12,6 -33,5 -27,-1 -26,-5 -26,-5l-1 0 -1 0c0,0 -1,6 22,8zm-108 -103l0 13c1,0 3,-1 4,-1 1,0 3,-1 4,-1 4,-1 5,1 6,3 0,1 1,1 2,1 1,0 4,-1 6,-3 2,-1 4,-2 5,-3 -5,0 -11,0 -14,-5 0,-1 -1,-1 -1,-2 0,-1 -1,-2 -3,-3 -1,0 -3,0 -5,0 -1,0 -2,0 -3,0zm-15 114l-25 -1c0,0 0,1 1,1 1,2 3,3 4,4 4,3 8,3 11,2 4,-1 7,-3 10,-6zm64 -3c0,0 0,0 1,0 2,1 4,3 5,3 6,3 10,2 12,0 1,0 1,-1 2,-1l0 0c1,0 2,0 2,-1 1,0 1,-1 1,-1 1,-1 2,-3 3,-4 0,0 0,-1 1,-1 0,0 -1,0 -1,0l0 0c-1,0 -2,1 -3,1 -3,1 -7,1 -11,1 -4,0 -7,1 -10,1l0 0 -1 0zm-48 2l0 0 0 0 0 -2 2 0c3,0 5,0 8,0 3,0 5,0 8,0l0 0 16 -1 2 0 -1 2c-1,1 -1,3 -2,4 -1,1 -2,3 -4,4l0 0c-1,1 -3,2 -4,3 -2,1 -4,1 -6,1 -2,0 -5,-1 -8,-2 -3,-2 -6,-4 -8,-6 0,0 -1,-1 -1,-1 0,0 0,0 -1,0l0 0c0,0 0,-1 0,-1zm74 -15c-1,0 -2,-1 -2,-1l0 0c0,0 -1,0 -1,-1l0 0c-12,-7 -23,-16 -33,-25 -11,-9 -21,-20 -31,-30l0 0c0,0 -1,-1 -2,-2 -1,-1 -2,-3 -4,-4 0,2 1,5 2,7 2,8 5,16 6,19l1 2c6,15 9,24 18,38 0,1 1,1 1,2l1 1c0,0 0,0 1,0 0,0 1,0 2,0 2,0 3,0 5,0 2,0 3,0 5,-1 3,0 7,-1 10,-1 2,0 5,-1 7,-1 2,0 3,0 4,0 4,0 6,-1 10,-2zm-24 117c2,0 4,0 6,0 3,0 7,-1 9,-1 2,0 5,-1 7,-2 2,0 3,-1 5,-2 0,-1 -1,-4 -2,-6l0 0 -1 -2 0 0c-1,-4 -3,-10 -4,-15 -1,-6 -3,-11 -3,-16 -1,-6 -2,-12 -2,-17 -1,-6 -1,-12 -1,-18 0,-2 0,-4 0,-6 0,-2 0,-4 0,-5l0 0 0 0c-1,0 -1,0 -2,0 -4,0 -8,-1 -11,-3 -3,-2 -6,-4 -9,-7 0,0 0,0 -1,-1l0 0c0,0 0,-1 -1,-1 0,0 0,1 -1,1l0 0c0,1 0,1 0,2 0,4 0,10 0,15 0,2 0,4 0,6 0,4 0,9 1,14 0,5 1,9 1,14 0,4 1,9 2,13 1,4 1,8 2,12l0 0c1,3 2,10 4,15 1,3 2,5 2,6zm-11 -17c0,2 1,4 1,5l0 3 -2 -1c-1,0 -3,-3 -5,-6 -3,-5 -8,-12 -9,-14 -5,-9 -10,-18 -14,-27 -4,-9 -8,-18 -11,-28 0,-1 -1,-2 -1,-2 -2,-4 -2,-6 -2,-11l0 -2 2 1c1,0 2,1 3,2l0 0c0,0 1,1 1,1 15,12 24,6 27,4 1,0 1,-1 1,-1l2 0 0 2c0,4 0,7 0,11 0,3 0,7 0,10 0,8 1,17 2,25 1,8 2,17 4,25 0,1 1,2 1,4zm-69 -69c-2,0 -3,0 -4,0 -1,0 -2,-1 -4,-1 -1,0 -2,-1 -3,-2l0 0 0 0c0,6 0,13 -1,19 0,7 -1,14 -1,21 0,4 -1,9 -1,14 -1,5 -2,11 -3,16l0 0c0,1 0,2 -1,3l0 1 1 -1c3,-5 7,-11 8,-13 4,-6 7,-13 11,-20 4,-7 7,-14 10,-22l0 -1c2,-5 7,-19 8,-22l0 0c-1,1 -1,1 -2,2 -2,2 -5,4 -8,5 -3,1 -6,2 -10,2l0 0zm-40 -3c-2,0 -3,0 -4,0 0,9 0,17 0,24 -1,8 -2,17 -4,27 -1,3 -1,6 -2,9 -1,3 -1,6 -2,9 0,1 -1,3 -1,4 -1,2 -1,3 -1,4 0,1 -1,2 -1,3 -1,1 -1,3 -1,4 1,0 2,1 3,1 3,1 6,2 8,2 3,0 6,1 9,1 2,0 5,0 7,0 1,-2 2,-7 3,-9l0 0 0 0c4,-13 6,-28 7,-44 1,-16 2,-31 2,-45 0,-1 0,-1 -1,-2 0,0 -1,1 -1,1l0 0c-1,1 -1,1 -2,2 -2,2 -5,4 -8,5 -3,2 -6,3 -9,3zm16 -17l0 0 1 1 -1 1c0,1 -2,2 -3,3 -2,1 -4,3 -5,3l0 0c-8,4 -12,2 -15,1 -1,0 -1,-1 -2,-1 -2,0 -4,-2 -6,-4 -2,-3 -4,-7 -4,-8l0 -2 2 0c1,0 3,1 5,1 1,0 2,1 3,1l0 0 24 3c0,0 1,0 1,0l0 0 0 0 0 0 0 0zm-30 -11c5,1 10,2 16,3 1,0 3,0 4,1 2,0 4,1 6,1 2,0 4,1 6,1l0 0 0 0c3,0 8,1 12,1 1,-1 6,-11 8,-15l1 -1 0 0c3,-6 7,-15 10,-23 3,-8 6,-17 8,-24 0,0 0,-1 0,-2 0,-1 1,-2 1,-4 -1,2 -3,3 -4,4l0 0 -1 1 0 0c-9,11 -20,21 -31,30 -11,10 -23,18 -35,26l0 0c0,0 0,0 -1,0zm54 6c3,0 5,0 8,0 1,0 3,0 4,0 2,0 4,0 5,0 3,0 6,0 9,0l25 -1c-1,-2 -3,-5 -4,-7 -2,-3 -3,-5 -3,-6 -3,-6 -5,-11 -8,-17 -2,-6 -5,-12 -6,-17l0 0 -4 -14 0 2c0,1 0,2 -1,3 0,2 -1,3 -1,5 0,1 -1,3 -1,5 -2,6 -4,12 -6,18 -2,6 -5,11 -8,17 0,1 -1,3 -3,5l0 0c-2,3 -3,6 -5,8z"/>
 </g>
</svg>
