<?xml version="1.0" encoding="UTF-8"?>
<!DOCTYPE svg PUBLIC "-//W3C//DTD SVG 1.1//EN" "http://www.w3.org/Graphics/SVG/1.1/DTD/svg11.dtd">
<!-- Creator: CorelDRAW X6 -->
<svg xmlns="http://www.w3.org/2000/svg" xml:space="preserve" width="0.83372in" height="0.83372in" version="1.1" style="shape-rendering:geometricPrecision; text-rendering:geometricPrecision; image-rendering:optimizeQuality; fill-rule:evenodd; clip-rule:evenodd"
viewBox="0 0 92 92"
 xmlns:xlink="http://www.w3.org/1999/xlink">
 <defs>
  <style type="text/css">
   <![CDATA[
    .fil0 {fill:#BC0300}
   ]]>
  </style>
 </defs>
 <g id="Layer_x0020_1">
  <metadata id="CorelCorpID_0Corel-Layer"/>
  <path class="fil0" d="M46 0c25,0 46,21 46,46 0,25 -21,46 -46,46 -25,0 -46,-21 -46,-46 0,-25 21,-46 46,-46zm1 16c2,0 4,1 5,2l0 0c1,1 2,3 2,5 0,2 -1,4 -2,5l0 0c-1,1 -3,2 -5,2 -2,0 -4,-1 -5,-2l0 0c-1,-1 -2,-3 -2,-5 0,-2 1,-4 2,-5 1,-1 3,-2 5,-2zm-40 40c2,1 3,1 4,1 2,0 4,0 5,5 0,1 1,2 1,3 0,1 1,1 2,2 1,1 2,1 2,1 0,0 0,0 0,0l0 0c0,0 0,0 1,1l1 1c2,0 3,0 4,0 1,0 1,0 2,0 2,0 3,0 4,-1 0,0 1,0 2,0l0 0 12 -1 0 0c2,0 3,0 3,0 0,0 1,0 2,0 2,0 3,0 4,0 1,0 1,0 2,0 1,0 2,0 2,1 0,0 1,1 3,1 1,0 3,0 4,0 1,0 2,0 3,0 1,-1 1,-1 1,-1l0 0c0,0 0,0 0,-1 0,0 0,0 0,0l0 0c0,0 0,0 2,-1 4,-2 4,-3 4,-6 0,-1 1,-3 2,-5l0 0 0 0c1,0 2,0 3,0 2,0 3,0 5,-1 -1,-2 -2,-2 -4,-3l0 0c-1,0 -3,-1 -4,-1 -2,2 -2,4 -3,6 -1,2 -1,4 -3,5l0 0 0 0c-4,0 -5,-1 -6,-3 -1,-1 -1,-2 -2,-2 -1,-1 -2,-1 -2,-1 -1,0 -1,0 -2,-1 -1,-1 -2,-1 -2,-1l0 0c0,0 -1,-1 -2,-1 -2,1 -3,2 -3,3 -1,2 -3,3 -6,3 -3,0 -5,-2 -6,-3 -1,-1 -2,-2 -4,-3 -2,0 -2,1 -2,1l0 0c0,0 -1,1 -2,1 -1,0 -2,1 -2,1 -1,0 -2,0 -3,1 -1,1 -2,2 -2,2 -1,2 -2,4 -7,3l0 0 0 0c0,0 -1,-3 -2,-5 -1,-2 -2,-5 -2,-6 -2,1 -4,1 -5,2l0 0c-2,1 -3,1 -4,3zm33 -43c0,0 0,0 -1,0 0,0 0,0 -1,1l0 0 0 0c0,0 0,0 0,0 0,0 0,0 0,1 0,0 -1,1 -1,2 0,0 0,1 -1,1 0,0 0,1 0,1l0 0c0,3 0,4 0,6 0,0 0,1 0,1 0,0 0,1 1,1 0,1 0,1 1,1l0 0 2 3 0 0c0,0 1,1 1,1 0,1 1,1 1,1l2 3c0,0 0,1 1,1 0,1 1,1 1,2l0 0 0 0 0 0 0 0c0,0 0,0 0,0l0 0 0 0 2 3c0,0 1,1 1,2 0,0 0,1 1,1 0,0 0,0 0,0 0,0 0,0 0,0 0,0 0,-1 1,-1 0,0 0,0 0,0l0 0c0,0 0,0 0,-1l0 0 0 0c0,0 0,0 0,0 0,0 0,0 0,-1 0,0 0,-1 1,-1 0,-1 1,-1 1,-1 0,0 1,-2 2,-3 0,-1 1,-1 1,-1 0,0 0,-1 1,-1 0,0 0,0 0,0 0,0 0,0 0,0 0,0 0,-1 1,-1 0,0 0,-1 1,-1 0,0 0,0 0,0l0 0 0 0 0 0c0,0 1,-1 1,-1 0,0 0,-1 1,-1l0 0 0 0 0 0c0,0 0,0 0,0l0 0 0 0 0 -1 1 -2c0,0 0,-1 0,-1 0,0 0,0 0,0 0,0 0,0 0,-1 0,0 0,0 0,-1l0 -3 0 -2c0,0 0,-1 0,-1 0,0 0,-1 0,-1l-1 -1 0 0 0 0 0 0c-1,-2 -2,-3 -3,-3 0,0 0,0 0,0l0 0 0 0 0 0c-1,-1 -2,-1 -3,-2 -1,0 -3,-1 -4,-1 -1,0 -3,0 -4,1 -1,0 -3,1 -3,2z"/>
 </g>
</svg>
