<?xml version="1.0" encoding="UTF-8"?>
<!DOCTYPE svg PUBLIC "-//W3C//DTD SVG 1.1//EN" "http://www.w3.org/Graphics/SVG/1.1/DTD/svg11.dtd">
<!-- Creator: CorelDRAW X6 -->
<svg xmlns="http://www.w3.org/2000/svg" xml:space="preserve" width="0.83372in" height="0.83372in" version="1.1" style="shape-rendering:geometricPrecision; text-rendering:geometricPrecision; image-rendering:optimizeQuality; fill-rule:evenodd; clip-rule:evenodd"
viewBox="0 0 144 144"
 xmlns:xlink="http://www.w3.org/1999/xlink">
 <defs>
  <style type="text/css">
   <![CDATA[
    .str0 {stroke:#009846;stroke-width:0.517443}
    .fil2 {fill:none;fill-rule:nonzero}
    .fil0 {fill:#BC0300}
    .fil1 {fill:#434242;fill-rule:nonzero}
   ]]>
  </style>
 </defs>
 <g id="Layer_x0020_1">
  <metadata id="CorelCorpID_0Corel-Layer"/>
  <path class="fil0" d="M72 0c40,0 72,32 72,72 0,40 -32,72 -72,72 -40,0 -72,-32 -72,-72 0,-40 32,-72 72,-72zm-24 66l0 -1 0 0 0 0 0 0 0 0 -3 -4 6 -4 -2 10 -1 6 2 1 5 -2 0 -2 0 -9 -3 -1 0 0 0 0 0 0 1 -8 -3 2 0 2 0 -1 -7 5 0 0 0 1 3 5 -2 6 1 0 -1 0 0 0 0 0 0 0 -5 1 0 0 0 0 0 0 0 0 0 0c0,0 0,0 0,-1 0,0 0,-1 0,-1 0,-1 0,-3 1,-6 0,-1 0,-1 0,-2 0,-3 1,-5 3,-6l0 0c0,0 1,0 1,-1l0 0c0,0 1,0 1,-1 3,-2 4,-3 4,-4 0,0 1,-1 1,-1l0 -1 0 0 0 0c0,0 0,0 0,0l0 0c0,0 1,0 1,0 0,0 1,0 0,1l0 0 0 0 0 0 0 0 0 0 0 0 0 0 0 0c0,-1 0,-2 1,-4 0,-1 1,-3 1,-4l0 0 0 0 0 0c1,-2 3,-5 4,-5l0 0 0 0c1,1 2,3 4,4 1,1 2,2 3,2l0 0 0 0c0,0 0,1 0,1l0 0c0,0 0,0 0,0l2 1 0 0c0,0 1,0 1,0l0 0c0,0 0,0 0,0l0 0c0,0 0,0 1,1l0 0 3 2c1,0 1,1 2,1l0 0c1,0 1,0 2,1 2,0 2,0 4,-1l0 0 0 0 0 0 1 1 2 0 0 0 0 0 0 0 0 0 0 0 0 0 0 0 0 0c1,0 1,0 2,1l0 0c0,0 0,0 1,0l0 0c0,0 0,0 0,1 0,0 0,1 0,2l0 0c0,1 0,1 -1,1 -1,1 -2,1 -3,1 -1,0 -2,-1 -2,-2l0 0c0,0 0,0 0,-1 0,0 0,0 -1,-1 0,0 0,0 0,0 0,0 0,0 0,0 0,1 0,1 0,2 0,1 0,1 0,2l0 0 0 0 0 0c0,1 0,1 0,1l0 0 0 0c0,0 0,0 0,2 0,0 0,1 -1,1 0,0 0,0 0,0l0 0 0 1c0,0 0,1 0,1 0,0 0,0 0,0 0,0 0,0 0,0l0 0c0,0 0,0 0,0l0 0 0 0 0 0c0,1 0,2 -1,3 -1,1 -2,2 -2,3 0,0 -1,0 -1,1l0 0c-1,0 -1,0 -1,1l0 0 0 0 -1 5 0 0 0 0c0,0 0,0 0,0 0,0 1,0 1,0 0,0 1,0 1,0l0 0 0 0c0,0 0,0 0,0 0,0 0,0 0,0 0,0 0,0 0,0l0 0c0,0 0,0 0,0l0 0 0 0c0,0 1,0 1,0l0 0c0,0 0,0 0,0l0 0 0 0c1,0 2,1 3,1l0 0 0 0c0,1 0,1 0,2l0 0 0 0 0 0c0,1 -1,2 -1,4 0,1 0,1 0,2l0 0c0,1 -1,3 -1,5 0,3 -1,5 -1,7 0,1 0,3 0,4 0,2 0,4 0,5 0,1 0,2 0,2 0,1 0,1 0,2l0 0 0 0c-1,0 -1,0 -2,0 -1,0 -1,0 -2,0 0,0 0,0 -1,0l0 0c-1,0 -1,0 -2,-1 0,0 0,-1 -1,-2l0 0c0,-1 0,-1 -1,-2l0 0 -2 -6 0 0 0 0 0 0 0 -1c0,-1 -1,-3 -1,-5l7 -15 -14 -2c0,0 4,12 4,12 0,0 0,2 -1,3 0,1 0,1 -1,2 0,1 -1,3 -2,5 0,1 0,1 -1,1 0,1 -1,3 -2,5 -1,1 -1,3 -2,3l0 0 0 0c-1,0 -1,0 -1,0 0,0 -1,0 -1,-1l0 0 0 0 0 0c-2,-1 -2,-1 -2,-3 1,-2 1,-4 1,-7 0,-2 1,-4 1,-6l0 0 1 -7 0 0c0,0 0,-1 0,-1 0,0 0,-1 0,-1 0,-1 0,-1 0,-2 0,-1 0,-2 1,-3l0 0c0,-1 0,-2 1,-2 0,0 1,0 2,0l1 0 0 0 0 0c0,0 1,0 1,0 0,0 1,0 1,0 0,0 0,-1 0,-1 0,-1 0,-1 0,-1 0,0 0,0 -1,0 -1,0 -1,0 -2,0 -1,0 -2,-1 -4,-1 0,0 -1,0 -1,-1l0 1 0 0c1,0 1,1 2,1 0,0 1,0 1,0 1,0 1,0 2,1l-4 1 0 0c-1,0 -1,0 -1,0l0 0c0,0 -1,1 -1,1l0 0c0,1 -1,2 -2,3 -1,1 -2,3 -3,4l-1 1 -4 -12c0,-1 0,-1 -1,-1l0 -1c0,-1 1,-1 1,-2 0,0 0,0 0,-1 0,0 0,0 0,-1l0 -1 0 0zm7 -17l0 3c0,0 1,0 1,0 0,0 1,0 1,0l0 0c1,0 2,-1 2,-2l0 0 0 0c0,0 0,-1 0,-1l0 0c0,0 0,0 -1,-1l0 0 0 0c-1,-1 -1,-1 -2,-1l0 0 0 0c0,0 0,0 1,1l0 0c0,0 0,1 0,1l0 0 0 0c-1,0 -1,0 -2,0zm-1 8l0 1 3 1 0 0 0 0 0 1 4 1 0 0c0,0 1,0 1,0l0 0 9 1c0,0 1,0 1,0 2,0 4,0 6,-1l0 0c0,0 0,0 0,0l0 0 0 0 0 0 0 0 0 0c0,0 0,0 0,0 0,0 0,0 0,0 0,0 -1,0 -3,0 -1,0 -3,-1 -4,-1 0,0 -1,0 -1,0l0 0c0,0 -1,0 -1,0l0 0 -8 -4 0 0c0,0 0,0 0,0 -1,0 -2,1 -3,0 0,0 -1,0 -1,0l-2 0 0 0c-1,0 -1,0 -2,0l0 0zm-5 18l-2 -2 0 0 0 0 0 0 0 0c1,1 1,1 2,1 0,0 0,0 0,0zm-2 -2l0 0 0 -1c0,0 0,1 0,1zm22 -8c-3,0 -8,-1 -9,-1l0 0 0 0c0,0 0,1 0,1 0,0 0,1 0,1 0,0 0,0 0,0 0,0 0,0 -1,0l0 0c0,0 0,1 0,1 0,1 1,2 2,2l0 0c1,0 1,0 2,0 0,0 1,0 1,0 1,0 2,-1 3,-1 1,-1 1,-1 2,-2l0 -1zm6 -8c0,0 0,1 0,1l0 0 0 0c-1,1 -1,0 -2,0l0 0c0,0 0,-1 0,-1 0,0 0,-1 0,-1 0,0 1,0 1,0 0,0 0,0 1,1l0 0zm-21 -10c0,0 1,0 1,-1 1,-1 2,-1 3,-2 0,0 0,-1 0,-1 0,0 0,-1 0,-1 0,0 -1,0 -1,0 -1,0 -1,1 -1,1l0 0 0 0c-1,1 -1,1 -1,2zm16 9c1,-1 1,-2 1,-3 0,-1 0,-1 0,-2 0,-1 -1,-1 -1,-1 -1,-1 -2,-1 -3,-1 0,0 0,0 0,0l0 0c0,1 1,1 0,2l0 0c0,0 -1,0 -1,0 0,0 -1,0 -1,0 0,0 0,0 -1,-1 -1,1 -1,2 0,3l0 0c0,1 1,1 1,2 0,0 1,1 2,1 1,0 2,0 3,-1zm-27 -1c1,-1 2,-1 3,-2 0,0 0,-1 -1,-1 0,-1 -1,-1 -1,-3 0,0 0,-1 0,-1l0 0c0,0 0,0 0,0l0 0c0,0 0,0 0,-1l0 0c-1,-1 -2,-3 -2,-5 0,-2 -1,-3 0,-5 0,-1 0,-1 1,-2l0 0c0,-1 1,-1 1,-2 0,0 0,-1 0,-2 0,-3 1,-7 7,-9 0,0 0,0 1,0 0,0 1,0 1,0 0,0 0,0 1,-1 1,-2 4,-5 9,-5 2,0 2,0 3,1l0 0c0,0 0,0 1,0 3,-2 5,-2 8,-2 2,0 5,2 7,4 0,0 1,1 1,1 1,1 1,1 2,2l0 0c0,0 1,0 1,0l0 0c0,0 1,0 1,0 1,0 2,1 2,1l0 0c1,0 1,1 2,2l0 0c5,4 6,9 6,12 0,1 0,2 0,2l0 0c1,1 1,3 1,4 0,1 0,3 0,4 0,3 -1,4 -2,5 0,1 -1,1 -1,2 -1,2 -2,4 -4,5 -2,1 -4,2 -6,3 0,0 -1,0 -1,0l0 0c0,0 -1,0 -1,0 0,1 0,1 0,2l0 0c0,2 -1,3 -3,5 -1,1 -1,1 -2,2 -1,0 -1,1 -1,4l10 3 0 0 0 0c0,1 0,1 0,1 0,0 0,0 0,1 1,1 1,2 2,4l0 0c0,0 0,1 0,1 2,4 4,10 5,15 1,5 2,11 3,15 0,1 0,1 0,1l0 0c0,0 0,0 0,1 0,2 0,3 0,5 0,2 -1,3 -3,4 -1,0 -1,0 -1,1 0,0 0,0 -2,1l0 0c0,0 -1,0 -1,0l0 0c-1,0 -1,1 -3,1 0,0 0,0 0,0l0 0c-1,0 -1,0 -1,-1 0,0 0,-1 0,-2 0,0 0,0 0,0l0 0 0 0 0 0 0 0c0,0 -1,-1 -1,-1 0,-1 0,-1 0,-1 0,0 0,0 0,-1 0,0 0,-1 0,-1 0,-1 0,-2 0,-3 0,-1 0,-1 1,-1 0,0 0,-1 0,-2 0,0 0,-1 0,-1 0,-1 0,-2 0,-3 0,-1 0,-2 0,-3 -1,-4 -1,-9 -2,-12 0,1 0,2 -1,4 0,2 0,3 0,5 0,1 0,2 0,3 0,1 0,2 0,3 0,1 0,1 0,2 0,1 0,2 0,3l0 0 0 0c-2,0 -4,0 -5,1 -2,0 -4,1 -6,1 -2,0 -4,0 -6,0 -2,0 -4,-1 -5,-2 -1,-1 -2,-1 -2,-2l0 0c0,0 0,0 -1,-1 0,0 0,0 -1,0 0,0 0,0 0,0l0 0c-2,-2 -2,-3 -2,-4 0,0 0,0 0,0l0 0c0,-1 0,-2 1,-4 0,-2 1,-5 1,-7 0,0 0,0 0,0l0 0c0,0 0,0 0,0 0,0 -1,1 -2,2 -1,1 -1,1 -2,1l0 0 0 0c0,0 -1,-1 -1,-1 -1,-1 -1,-1 -2,-2l0 0c0,0 -1,-1 -1,-1l0 0c0,0 -1,-1 -1,-1 -1,-1 -1,-2 -2,-3 -1,-1 -1,-2 -2,-3 0,-1 -2,-3 -3,-6 -1,-2 -2,-4 -2,-5 0,0 0,-1 0,-1 0,-1 -1,-2 -1,-3l0 0 0 0c0,0 0,0 1,-1 0,0 0,0 1,-1l0 0c0,0 0,0 1,0 0,0 1,0 1,-1 0,0 0,-1 0,-1 0,-1 0,-1 0,-2l0 0 0 0 2 -9 0 0 0 0c1,-2 3,-3 5,-4z"/>
  <path class="fil1 str0" d="M80 63c0,0 0,0 0,0l0 0 0 0 0 0z"/>
  <path class="fil2 str0" d="M79 64c0,0 0,0 0,0"/>
  <line class="fil2 str0" x1="57" y1="57" x2="57" y2= "57" />
 </g>
</svg>
