<?xml version="1.0" encoding="UTF-8"?>
<!DOCTYPE svg PUBLIC "-//W3C//DTD SVG 1.1//EN" "http://www.w3.org/Graphics/SVG/1.1/DTD/svg11.dtd">
<!-- Creator: CorelDRAW X6 -->
<svg xmlns="http://www.w3.org/2000/svg" xml:space="preserve" width="20.9952mm" height="20.9952mm" version="1.1" style="shape-rendering:geometricPrecision; text-rendering:geometricPrecision; image-rendering:optimizeQuality; fill-rule:evenodd; clip-rule:evenodd"
viewBox="0 0 1756 1756"
 xmlns:xlink="http://www.w3.org/1999/xlink">
 <defs>
  <style type="text/css">
   <![CDATA[
    .fil0 {fill:#BC0300}
   ]]>
  </style>
 </defs>
 <g id="Layer_x0020_1">
  <metadata id="CorelCorpID_0Corel-Layer"/>
  <path class="fil0" d="M878 0c485,0 878,393 878,878 0,485 -393,878 -878,878 -485,0 -878,-393 -878,-878 0,-485 393,-878 878,-878zm81 746c-64,13 -162,3 -220,-22 -46,-20 -74,-45 -105,-77 -15,-16 -22,-21 -26,-34 -3,12 24,49 32,58l51 40c-23,14 -53,32 -79,47 -42,26 -55,48 -68,56 -8,-6 -35,-92 -40,-109 -12,-37 -32,-71 -42,-108 16,-17 -3,11 24,-29 27,-39 31,24 70,-14 28,-27 19,-12 26,-26 1,-25 3,-49 12,-71 5,-11 10,-19 14,-28 8,-17 5,-23 22,-18 8,19 11,45 37,72 23,25 40,22 74,36 27,11 68,60 179,47 -4,135 33,144 39,181zm-364 -356c-5,30 -23,32 -61,46 -23,9 -53,21 -76,27 4,-32 13,-61 26,-85 27,-50 36,-33 49,-62 17,-3 15,-9 31,-15 9,26 12,74 32,89zm46 33c25,9 20,17 51,18 12,33 19,39 31,62 -20,-5 -38,-15 -49,-26 -8,-8 -10,-13 -16,-22 -18,-27 -10,-20 -16,-31zm127 -94c7,-22 9,-11 45,-34 47,-30 85,25 15,40 -50,11 -44,3 -60,-6zm-39 1191l9 18c19,56 54,24 95,7 28,-11 15,6 73,-2 25,-3 51,-14 74,-16 7,15 14,28 15,47 -41,6 -119,3 -166,5 -58,3 -113,19 -100,-60zm-182 2c-12,23 35,51 78,28 59,-33 14,-35 93,-21 0,35 2,26 8,50 -34,4 -83,1 -119,0 -36,-1 -70,-11 -60,-57zm259 7c-8,-24 0,-48 14,-62l14 54 -28 8zm-84 -26l-5 7c-28,-7 -36,-2 -36,-32 -1,-27 -2,-46 -5,-73 17,3 117,2 118,8 13,6 23,32 16,51 -4,10 -8,15 -12,26 -10,26 -27,33 -55,23 -1,-3 -2,-2 -2,-9l9 -24c-17,7 -16,9 -28,23zm178 -87l64 5c2,24 -8,49 -3,87l-60 12 -54 3 -37 -114c14,-1 84,3 90,7zm-384 -67c2,-55 -15,-105 21,-94 16,5 9,21 30,29 18,7 28,-5 42,-9 5,30 13,57 1,87l-95 -13zm531 43l-10 -4c5,-25 12,-31 5,-60l-9 3c-9,4 -12,11 -34,10 5,-15 3,-7 14,-19 16,-17 23,-33 31,-54 56,-1 84,-1 137,-14 1,20 3,37 4,57 1,25 -3,32 -25,36 0,-16 2,-28 -6,-40 -6,34 1,58 -40,60 4,-18 5,-44 -2,-58 -12,37 15,65 -36,71 5,-15 14,-59 6,-71 -6,13 -4,36 -8,52 -6,24 -14,12 -27,32zm-402 -98c7,-3 11,-3 20,-6 50,-22 22,-4 55,2 30,6 50,-26 79,-20 20,4 15,16 35,19 19,3 28,-8 36,-16 40,-40 37,12 55,22 41,5 64,-31 92,-20 5,36 -39,43 -41,81 38,11 30,-6 48,-14l-5 38c-60,15 -116,5 -179,0 -173,-14 -189,26 -196,-85zm383 -119c13,-17 20,16 42,17 22,1 21,-20 40,-31 24,12 3,26 33,32 23,-8 12,-21 34,-35 3,23 4,50 -2,73 -30,14 -105,29 -139,21 -4,-14 -5,-27 -8,-41 -11,-45 -9,-30 -1,-37zm61 -308c6,-2 4,-3 13,-1 6,11 4,12 -1,22l0 1c21,3 16,-10 30,9 -6,17 -10,18 -29,20 2,3 4,6 5,9 3,-4 7,-7 12,-10 24,51 47,158 54,218l-37 37c-19,-8 -13,-21 -23,-25 -27,0 -29,16 -50,25 -16,1 -9,-25 -56,-17 -11,-30 -20,-86 -23,-119 -9,-96 14,-76 22,-116 -16,4 -7,-3 -18,12 -9,12 -17,35 -18,52 -5,63 31,177 45,243l-20 7c-20,5 -27,12 -44,18 -32,12 -28,-16 -41,-30 -41,-11 -44,23 -66,27 -25,5 -21,-29 -65,-18 -31,8 -36,29 -68,11 -35,-20 -37,13 -63,10 -5,-12 -18,-109 -20,-127 -3,-40 -2,-99 5,-137 10,-57 78,-163 111,-183 -2,16 -12,38 -7,51 22,9 124,-2 155,-4 24,-2 48,-6 73,-8 59,-4 53,-5 63,-21 35,20 47,27 61,46l1 -1zm6 79c-18,4 -19,-8 -26,-19 -20,8 -25,12 -41,-5 3,-17 6,-18 20,-23 -7,-18 -9,-15 -5,-25 -24,3 -18,23 -27,39 -15,28 2,45 34,33 7,6 3,3 6,7 8,8 -2,6 14,8 16,2 20,-5 24,-15zm-21 -75c1,1 2,2 4,4l6 -5c-2,0 -6,0 -10,1zm-293 -111c40,4 66,22 118,21 52,0 82,-12 135,-5l-2 21c-25,12 -236,29 -265,23l13 -60zm-249 442c-3,-47 -10,-90 -15,-130 -7,-62 -9,-97 24,-149 5,-8 7,-14 13,-23 9,-13 24,-25 34,-36 20,-20 24,-3 55,-6 26,-3 30,-16 50,-22 -12,18 -18,21 -32,35 -11,11 -18,23 -29,38 -17,26 -31,61 -36,94 -22,154 43,216 -17,221 -8,-8 -13,-19 -19,-22 -15,-8 -16,2 -29,1zm78 -410c30,-18 57,-31 80,-51l33 17 -9 7c-27,17 -76,47 -104,26zm672 -153c-3,-39 6,-120 38,-140 13,46 22,26 -1,76 -8,17 -24,51 -37,63zm9 -186l19 30c-22,31 -42,81 -41,127 1,37 8,34 -16,55 -8,7 -33,29 -47,32 -28,-40 -31,-202 47,-267 8,4 13,6 20,11 9,6 7,7 17,13 -4,-12 1,-1 -6,-11l-55 -42c10,-14 30,-24 48,-28 52,39 73,74 58,139 -19,-25 -18,-45 -45,-59zm-696 -19c-31,69 -9,70 -27,92 -4,5 -15,13 -20,18 -32,29 -17,-10 -49,0 -12,4 -24,28 -41,39l-32 -91 168 -58zm546 -25c11,-11 6,-10 24,-10 -2,-22 -15,-20 11,-27l-3 42c25,-6 12,-8 26,-14 12,-5 15,-5 17,5 1,5 1,-8 -1,4 -2,23 -3,24 -25,19 -9,16 -6,19 -30,15 -7,-14 -6,-7 0,-20 -17,-4 -16,-1 -20,-10 -6,14 -34,13 -6,39 1,1 1,1 2,2 11,11 12,25 30,19 21,-7 -2,-13 28,-15 -7,18 -19,30 -27,47 -31,69 -11,134 -4,185 -23,13 -54,26 -79,30 -13,-52 -35,-97 -22,-162 13,-64 30,-91 58,-136 -16,1 -6,-6 -18,11 -21,29 -45,88 -50,123 -13,81 13,120 22,166 -28,11 -66,11 -96,9 -24,-21 -40,-91 -40,-132l3 -56c4,-34 18,-62 31,-86l50 -65c0,0 1,-1 1,-2 13,-12 43,-45 69,-33 17,8 50,28 61,39 -39,17 -30,12 -31,25 9,-7 6,-6 16,-9l0 -1zm199 -2c-11,-9 -14,-17 -24,-25 -11,-9 -14,-8 -24,-21l33 -10 15 57zm-284 -234l13 7c57,21 45,7 121,52l34 24c0,-1 1,1 2,2 -13,11 -16,21 -34,30 -22,-22 -55,-38 -88,-54 -101,-51 -262,-39 -324,31 8,-26 23,-38 41,-51 22,-16 35,-20 62,-30 72,-25 139,-5 174,-12zm-453 108c43,-7 85,-54 125,-29 -5,8 -56,31 -69,38 7,4 12,3 22,-2 23,-13 28,-29 75,-24 -6,32 -24,22 -65,48 -28,17 11,-14 -9,7 12,-2 102,-50 98,-19 -20,4 -13,12 -26,5 -26,-14 16,0 -6,-4 -24,32 -9,14 -69,40 -34,-23 -65,-35 -77,-60zm208 -7c-19,-1 -4,6 -16,-5 -9,-8 -3,-5 0,-9 11,-13 53,-29 70,-35 87,-29 152,-23 235,16 32,15 66,39 89,50 -7,19 -18,28 -24,49 -54,-39 -53,-32 -97,-55 -9,-2 -44,-14 -58,-19 -25,-7 -36,-13 -65,-15 -45,-4 -98,6 -133,22zm260 31c1,3 3,9 4,10 -20,5 -39,27 -54,39 -60,62 -88,93 -103,200 -27,2 -41,-18 -52,-32 -15,-20 -25,-31 -41,-48 -15,-15 -27,-26 -52,-37 -31,-14 -51,-3 -78,-6l-17 -86c48,-2 91,11 143,1 82,-17 70,-48 79,-72 31,-2 63,1 92,8 28,6 53,23 79,23zm-186 81c10,-30 20,-19 38,-41 -30,7 -25,16 -45,29l-12 -23c-13,18 -9,43 7,55 18,14 41,9 61,2l-49 -22z"/>
 </g>
</svg>
