<?xml version="1.0" encoding="UTF-8"?>
<!DOCTYPE svg PUBLIC "-//W3C//DTD SVG 1.1//EN" "http://www.w3.org/Graphics/SVG/1.1/DTD/svg11.dtd">
<!-- Creator: CorelDRAW X6 -->
<svg xmlns="http://www.w3.org/2000/svg" xml:space="preserve" width="21.1906mm" height="21.1906mm" version="1.1" style="shape-rendering:geometricPrecision; text-rendering:geometricPrecision; image-rendering:optimizeQuality; fill-rule:evenodd; clip-rule:evenodd"
viewBox="0 0 551 551"
 xmlns:xlink="http://www.w3.org/1999/xlink">
 <defs>
  <style type="text/css">
   <![CDATA[
    .fil0 {fill:#BC0300}
   ]]>
  </style>
 </defs>
 <g id="Layer_x0020_1">
  <metadata id="CorelCorpID_0Corel-Layer"/>
  <path class="fil0" d="M276 0c152,0 276,123 276,276 0,152 -123,276 -276,276 -152,0 -276,-123 -276,-276 0,-152 123,-276 276,-276zm12 233c-5,3 -4,11 -4,18 0,3 0,7 1,10 2,2 5,3 8,2 5,-2 3,-12 3,-18 0,-3 0,-7 -1,-10 -1,-2 -4,-4 -7,-2zm-32 0c-5,2 -4,9 -4,18 0,3 -1,7 1,10 1,2 4,4 8,3 6,-2 4,-12 4,-18 0,-3 1,-8 -1,-10 -1,-2 -4,-4 -7,-2zm-5 113l0 43c11,1 33,0 46,0 1,-5 1,-44 0,-47 -2,-6 -7,-11 -10,-14 -2,-2 -4,-3 -6,-6 -2,-2 -4,-4 -7,-6 -3,1 -12,10 -14,12 -3,3 -9,10 -9,17zm-128 43l-9 0c-1,-6 0,-154 0,-171 0,-7 -1,-10 -8,-16 -3,2 -4,4 -6,6 -3,4 -2,4 -2,10l0 147c0,8 0,17 0,24 -7,0 -15,-1 -18,5 -3,7 3,11 9,11l371 0c7,0 13,-4 9,-11 -3,-6 -11,-5 -18,-5 -1,-15 0,-34 0,-49l0 -122c0,-5 0,-6 -2,-10 -2,-3 -3,-4 -6,-6 -2,1 -4,4 -6,7 -3,5 -2,3 -2,10 0,18 1,165 0,171l-9 0c-1,-15 0,-33 0,-49l0 -122c0,-9 -2,-8 -8,-16 -2,2 -4,4 -6,6 -3,4 -3,4 -3,10l0 122c0,16 1,34 0,49l-9 0c-1,-6 0,-154 0,-171 0,-5 0,-6 -2,-10 -2,-2 -4,-5 -6,-7 -3,2 -4,4 -6,6 -3,3 -2,5 -2,10l0 147c0,7 1,17 0,24l-9 0 0 -135 -43 0 0 135 -9 0 0 -180c-9,-1 -78,-1 -90,0l0 180 -9 0 0 -135 -43 0 0 135 -9 0c-1,-7 0,-133 0,-147 0,-8 0,-16 0,-24 0,-5 0,-6 -2,-10 -1,-1 -2,-3 -3,-4 -1,-1 -2,-2 -3,-3 -2,1 -4,4 -5,6 -2,3 -3,4 -3,8l0 174 -9 0c-1,-8 0,-38 0,-49l0 -122c0,-6 0,-6 -2,-10l-6 -6c-7,6 -8,9 -8,16l0 122c0,15 1,33 0,49zm53 -144l17 0c0,-8 1,-14 -3,-19 -2,-2 -3,-4 -5,-6 -11,9 -8,12 -8,24zm179 0l17 0c0,-4 1,-12 -1,-15 -1,-3 -5,-7 -8,-9 -2,1 -6,6 -7,9 -2,3 -1,11 -1,15zm-152 0l17 0c0,-4 1,-13 -1,-16 -2,-3 -6,-7 -8,-9 -2,3 -5,5 -7,9 -2,3 -1,12 -1,16zm126 0l17 0c0,-4 1,-12 -1,-16 -2,-3 -6,-7 -8,-9 -2,2 -6,6 -7,9 -2,3 -1,12 -1,16zm78 -64l0 16c5,-3 8,-12 17,-2 0,0 1,1 1,1 1,1 0,0 2,1l0 -17c0,-6 -7,-12 -10,-13 -5,3 -9,8 -9,13zm-284 -1l0 17c3,-1 5,-6 9,-7 4,0 8,5 10,7 0,-5 1,-16 0,-19 -1,-3 -7,-9 -10,-10 -4,3 -9,6 -9,13zm107 19l90 0c1,-7 1,-25 0,-32 0,-6 -7,-7 -9,-3 -2,2 -1,12 -1,15l-16 0c0,-6 2,-17 -5,-18 -7,0 -5,11 -5,18l-16 0c0,-6 2,-18 -5,-18 -7,0 -5,12 -5,18l-16 0c0,-3 1,-13 -1,-15 -2,-4 -9,-3 -9,2 -1,5 0,27 0,32zm-104 -91l0 8c-8,2 -14,7 -17,15 -1,3 -1,6 -2,8 -5,1 -10,-1 -11,4 -2,7 6,8 6,9l0 40c5,-1 4,-3 10,2 1,1 0,0 2,1l0 -13c0,-9 2,-11 6,-16 2,-2 9,-9 13,-9 2,0 6,3 7,4 1,1 2,1 3,2 9,10 9,9 9,24l0 8c4,-1 2,-3 5,-4 2,-1 4,0 6,1l0 -40c1,0 9,-1 7,-8 -1,-4 -6,-4 -11,-4 -1,0 -1,-1 -1,-4 0,-1 -1,-3 -1,-4 -3,-7 -9,-13 -17,-15 0,-6 1,-14 -3,-16 -3,-2 -6,-1 -8,1 -2,2 -2,4 -2,8zm285 0l0 8c-6,1 -11,5 -13,8 -6,8 -5,10 -6,15 -5,0 -11,-1 -11,6 0,6 4,5 7,7l0 39c7,-1 4,-3 10,2 1,1 0,0 2,1 0,-14 -2,-22 8,-31 7,-6 10,-10 16,-6 17,12 15,18 15,36l2 -2c1,-1 2,-1 2,-2 3,-2 4,0 7,0l0 -40c0,0 8,-1 7,-8 -1,-5 -6,-4 -11,-5 -2,-5 0,-7 -6,-15 -2,-3 -8,-7 -13,-8 0,-6 1,-14 -3,-16 -3,-2 -6,-1 -8,1 -2,2 -2,4 -2,8z"/>
 </g>
</svg>
