<?xml version="1.0" encoding="UTF-8"?>
<!DOCTYPE svg PUBLIC "-//W3C//DTD SVG 1.1//EN" "http://www.w3.org/Graphics/SVG/1.1/DTD/svg11.dtd">
<!-- Creator: CorelDRAW X6 -->
<svg xmlns="http://www.w3.org/2000/svg" xml:space="preserve" width="0.83372in" height="0.833724in" version="1.1" style="shape-rendering:geometricPrecision; text-rendering:geometricPrecision; image-rendering:optimizeQuality; fill-rule:evenodd; clip-rule:evenodd"
viewBox="0 0 144 144"
 xmlns:xlink="http://www.w3.org/1999/xlink">
 <defs>
  <style type="text/css">
   <![CDATA[
    .fil0 {fill:#BC0300}
   ]]>
  </style>
 </defs>
 <g id="Layer_x0020_1">
  <metadata id="CorelCorpID_0Corel-Layer"/>
  <path class="fil0" d="M72 0c40,0 72,32 72,72 0,40 -32,72 -72,72 -40,0 -72,-32 -72,-72 0,-40 32,-72 72,-72zm-34 53c2,0 4,2 4,4 0,2 -2,4 -4,4 -2,0 -4,-2 -4,-4 0,-2 2,-4 4,-4zm31 -1c13,0 24,11 24,24 0,13 -11,24 -24,24 -13,0 -24,-11 -24,-24 0,-13 11,-24 24,-24zm0 9c8,0 15,7 15,15 0,8 -7,15 -15,15 -8,0 -15,-7 -15,-15 0,-8 7,-15 15,-15zm0 -4c11,0 19,9 19,19 0,11 -9,19 -19,19 -11,0 -19,-9 -19,-19 0,-11 9,-19 19,-19zm-16 -18c0,0 1,0 1,-1l0 0 0 0 0 0 0 0c0,0 1,0 1,0l0 0 0 0 30 0 0 0 0 0c0,0 0,0 0,0l0 0c0,0 1,0 1,0 0,0 1,0 1,1l0 0c0,0 0,0 1,0l0 0 0 0 0 0 0 0 0 0c0,0 1,1 1,2l0 0c0,0 1,1 1,1l0 0 0 0c0,0 0,0 0,0l0 0c0,0 0,0 0,1 0,0 0,0 0,0 0,0 0,0 0,0l0 0 0 0 0 0 0 0c0,0 0,0 0,0l0 0 0 0 0 0 0 0c0,0 0,0 0,0 0,0 0,0 1,0l0 0 17 0 0 0 0 0 1 0 0 0 0 0 0 0c0,0 1,0 1,1 0,0 1,1 1,1 0,0 0,0 0,0l0 0 0 0c0,0 0,1 0,1l0 0c0,0 0,1 1,2l0 0 0 0 0 3 0 0 0 3 0 3 0 3 0 3 0 3 0 3 0 3 0 3 0 3 0 3 0 3 0 3 0 3 0 3 0 3 0 3 0 3 0 0 0 3 0 0 0 0c0,1 -1,2 -1,3 -1,1 -1,1 -2,2l0 0c-2,1 -3,1 -5,1 0,0 -1,0 -1,0l-2 0 -3 0 -2 0 0 0 -3 0 -2 0 0 0 -3 0 -3 0 -3 0 -2 0 -3 0 -2 0 0 0 -3 0 -2 0 0 0 -3 0 -3 0 -3 0 -2 0 -3 0 -2 0 0 0 -3 0 -2 0 0 0 -3 0 -3 0 -3 0 -2 0 -3 0 -2 0 0 0 -3 0 0 0 -2 0 0 0c-1,0 -1,0 -2,0 0,0 -1,0 -1,-1l-1 0 0 0 0 0c0,0 0,0 0,-1 0,0 0,0 -1,-1 0,0 0,-1 -1,-1 0,0 0,-1 0,-1l0 0 0 0 0 -3 0 0 0 -3 0 -3 0 0 0 -3 0 -3 0 -3 0 0 0 -3 0 -3 0 -3 0 -3 0 -3 0 0 0 -3 0 -3 0 -3 0 0 0 -3 0 -3 0 -3 0 -3 0 0 0 -3 0 0 0 0 0 0 0 0c0,0 0,-1 0,-1 0,0 0,0 0,-1 0,0 0,0 0,0l0 0c0,0 0,0 0,0l0 0 0 0 0 0 1 -1 0 0 0 0c0,0 1,0 1,0 1,0 1,-1 4,-1l16 0 0 0 0 0c0,0 0,0 0,0 0,0 0,0 0,0 0,0 0,0 0,0l0 0 0 0 0 0 0 0 0 0c0,0 0,-1 1,-1l0 0c0,0 0,0 0,0 0,0 0,0 0,0l0 0 0 0 0 0c0,0 0,0 0,0l0 0c0,0 0,0 0,0l0 0 0 0 0 0 0 0c0,0 0,0 1,-1 0,0 0,-1 1,-1l0 0 0 0 0 0z"/>
 </g>
</svg>
