<?xml version="1.0" encoding="UTF-8"?>
<!DOCTYPE svg PUBLIC "-//W3C//DTD SVG 1.1//EN" "http://www.w3.org/Graphics/SVG/1.1/DTD/svg11.dtd">
<!-- Creator: CorelDRAW X6 -->
<svg xmlns="http://www.w3.org/2000/svg" xml:space="preserve" width="0.83372in" height="0.83372in" version="1.1" style="shape-rendering:geometricPrecision; text-rendering:geometricPrecision; image-rendering:optimizeQuality; fill-rule:evenodd; clip-rule:evenodd"
viewBox="0 0 314 314"
 xmlns:xlink="http://www.w3.org/1999/xlink">
 <defs>
  <style type="text/css">
   <![CDATA[
    .fil0 {fill:#BC0300}
   ]]>
  </style>
 </defs>
 <g id="Layer_x0020_1">
  <metadata id="CorelCorpID_0Corel-Layer"/>
  <path class="fil0" d="M157 0c87,0 157,70 157,157 0,87 -70,157 -157,157 -87,0 -157,-70 -157,-157 0,-87 70,-157 157,-157zm-10 170c2,2 1,2 5,3 4,1 11,1 14,0 4,-1 3,-2 5,-3 0,0 -2,-1 -3,-1 -2,0 -1,2 -9,-2 -2,1 -3,2 -6,3 -3,1 -2,-1 -6,1zm-5 -9c-1,1 -3,2 -4,2 -4,2 -7,-2 -6,-4 1,-1 2,-1 4,-2 -1,-1 -4,1 -5,2 -2,2 -1,4 0,6 1,1 0,1 1,1 0,2 0,2 0,3 0,1 0,1 1,1l1 1c2,1 5,1 7,1l5 -1c2,2 1,2 5,3 4,1 11,1 14,0 4,-1 3,-2 5,-3 2,0 3,1 5,1 2,1 6,0 7,-1 2,-1 3,-3 2,-6 1,0 1,0 1,-1 1,-2 1,-4 0,-6 -1,-1 -4,-2 -5,-1 7,2 3,6 1,6 -2,1 -5,-2 -7,-3 -1,0 -1,-1 -2,-1 -2,-1 -5,-3 -7,-4 -2,0 -3,0 -5,0 -2,1 -1,1 -4,0 -7,-3 -11,2 -15,4zm17 -38c2,-1 2,-1 2,-4 0,-3 -1,-15 -2,-16 -1,1 -2,8 -2,10 0,2 0,4 0,6 0,3 0,3 2,4zm-13 23c2,-1 2,-1 3,-2 1,-1 1,-2 2,-3 1,-2 2,-7 2,-9 -2,-5 -14,-5 -17,-4l-5 1c-6,1 -4,10 -3,14 1,3 2,4 5,5 2,1 8,1 9,0 1,0 3,-1 4,-1zm41 1c5,-2 8,-16 3,-19 -3,-2 -12,-1 -15,-1 -2,1 -5,0 -6,1 -3,1 -4,3 -3,7 1,5 3,10 8,12 2,1 7,2 9,1 2,0 3,-1 4,-1zm-33 -20c-2,0 -5,-1 -7,-1 -4,-1 -6,-1 -7,-1 0,0 0,0 0,0 0,0 0,0 0,0 -2,0 -6,-1 -8,0 -1,0 -2,0 -3,0l-4 0 0 -1c-1,1 -1,1 -3,1 -1,0 -3,0 -4,1l1 4c-1,0 -3,2 -4,4 -2,2 0,9 1,12 1,2 2,4 2,5 -5,1 -5,11 2,11 2,0 3,-1 5,-2 0,0 0,0 0,0 0,0 0,0 0,0 0,-1 0,-3 0,-4 0,2 -1,3 -2,3 -2,1 -3,0 -5,0 -1,-1 -2,-2 -2,-4 0,-2 1,-2 2,-3 0,2 1,2 2,3 2,0 2,-1 3,-1l1 2c0,-3 0,-6 -1,-9 -1,-3 -2,-6 -2,-8 2,2 3,3 3,6 1,2 2,3 4,4 2,1 5,1 7,1 7,0 11,-1 15,-5 5,-6 4,-12 8,-12 4,0 4,7 8,12 3,4 7,5 14,5 4,0 10,-1 11,-5 0,0 0,0 0,0l1 -1c2,-3 2,-10 3,-11 1,1 1,4 0,5 -1,2 -1,2 -2,4 -1,3 -1,7 -2,10l0 7c1,0 2,2 5,2 4,0 7,-4 6,-8 -1,-2 -2,-3 -3,-4 1,-3 3,-4 3,-11 1,-9 -3,-8 -3,-11l1 -3c-5,-1 -4,0 -6,-2 -2,-2 -2,-3 -4,-4 1,2 3,2 3,6 -7,-1 -14,-1 -21,0 -5,1 -13,4 -18,2zm40 27c1,1 1,2 3,1 2,0 2,-1 2,-2l0 -1c1,1 2,2 2,4 0,1 -2,2 -3,3 -4,1 -6,-2 -4,-6zm-35 61c3,0 2,0 4,1 1,1 5,4 7,5 2,1 5,2 8,2 2,0 5,0 7,0 1,0 1,-1 2,-2 0,-1 1,-2 1,-3 0,-3 1,-5 1,-8 0,-4 -1,-12 -3,-14 -5,0 -14,2 -18,6l-4 4c-4,-1 -3,-1 -6,0 -2,-2 -6,-6 -9,-7 -3,-1 -10,-3 -13,-3 -2,2 -3,10 -3,14 0,3 0,5 1,8 1,3 1,6 3,6 6,2 15,-2 20,-6l3 -3 0 0c0,0 1,0 1,0zm-90 5c2,4 9,10 12,13 1,2 3,3 4,4 19,17 47,27 74,27 10,0 21,-2 30,-4 4,-1 4,0 5,-4 5,-18 2,-41 0,-60 0,-1 0,-2 0,-2 0,0 -1,-1 -2,-1 0,1 -2,9 -2,10 1,9 1,12 -1,21 -1,2 -1,2 -3,3 -2,1 -3,1 -5,1 -5,10 -12,20 -18,29 -1,1 -2,3 -3,4 -1,0 0,0 -1,0l-5 -7c-2,-3 -4,-5 -6,-8 -3,-4 -5,-8 -8,-12 -4,-8 -1,-3 -8,-6 -2,-1 -2,-2 -3,-4 -1,-4 -2,-8 -2,-13 0,-2 1,-7 1,-8 -1,-3 -1,-5 -2,-8 -1,0 -2,1 -3,2 -1,1 -2,1 -3,2 -7,4 -13,8 -21,11 -5,2 -26,9 -30,12zm123 -44c1,1 8,33 9,37 3,13 7,25 9,38l7 -4c0,-6 -7,-21 -9,-26 -2,-4 -3,-9 -5,-13 -1,-4 -4,-10 -5,-14l11 25c3,6 9,21 10,26 1,0 4,-2 5,-3 1,-7 -1,-19 -2,-25 -3,-14 -12,-20 -19,-37l-6 -15c0,-1 -1,-4 -2,-5 -1,1 0,6 0,8 -1,3 -3,0 -1,6zm39 63l3 -2c1,-1 1,-2 1,-5 0,-9 -2,-18 -7,-25 -2,-3 -3,-3 -5,-6 -1,-1 -1,-2 -3,-3l-6 -5c-1,-1 -2,-2 -3,-2 -1,-1 -5,-4 -6,-5 1,4 13,19 16,24 4,6 6,14 9,21 0,1 2,7 2,8zm6 -5c1,0 0,0 1,0 0,0 0,0 0,0l6 -6c1,-1 5,-6 6,-7 -3,-1 -12,-6 -17,-7 0,2 2,6 3,10 1,4 1,7 1,12zm-39 -64c1,1 6,9 9,13 1,1 2,3 4,3 3,2 7,5 10,8l5 5c0,0 0,0 1,0 -1,-5 -4,-6 -7,-10 -3,-3 -3,-8 -4,-12 -2,-5 -4,-6 -8,-9 -1,-1 -9,-6 -11,-6l3 7zm-30 25c7,-2 14,-5 18,-10 7,-7 3,-7 4,-13 -3,3 -5,4 -7,7 -1,1 -1,0 -3,3l-7 7c-1,1 -1,1 -1,2l-3 3c-1,0 -1,1 -2,1zm-18 0c-1,-1 -2,-1 -3,-2l-4 -4c-1,-1 -1,-1 -1,-2 -1,-1 -1,-1 -1,-1l-2 -3c-1,-1 -1,-1 -1,-1 -2,-2 -6,-7 -9,-8 1,5 -1,5 2,9 5,6 12,11 20,13zm-30 -70l3 -4c0,-1 1,-1 1,-1l4 -5c2,-2 7,-7 9,-9l7 -6c6,-6 16,-12 24,-16 9,-5 16,-7 25,-11 2,-1 4,-1 7,-2 2,-1 5,-2 7,-2 0,-8 -9,-14 -17,-14 -6,0 -13,3 -18,6 -2,1 -3,2 -5,3 2,-2 8,-5 11,-7 5,-2 9,-3 15,-3 -3,-2 -13,-5 -18,-5 -13,-1 -26,3 -37,9 -5,3 -12,9 -16,13 -1,1 -2,2 -3,3 -2,2 -3,3 -5,7 -3,5 -6,10 -7,16 -2,10 -1,20 3,29 2,5 3,5 4,7 1,-1 2,-3 3,-3 1,-1 0,-3 0,-5l2 0zm52 -23c3,5 9,9 13,13 1,1 2,2 4,3 2,2 5,4 7,6 1,1 2,1 5,2 0,3 -2,4 2,7 3,0 6,-2 7,-4 1,-4 1,-5 -1,-8 -2,-3 -5,-7 -8,-9 -1,-1 -2,-2 -3,-3 0,0 -2,-3 -3,-3 -2,-4 -11,-9 -15,-12 -2,-1 -2,-1 -4,0 -3,1 -5,2 -7,4l2 3c1,1 1,2 2,2zm40 -21c0,-1 -1,-3 -1,-4 -1,-1 -2,-2 -4,-2l-1 1c0,0 5,3 5,6 -1,0 -2,-1 -3,-3 -1,-1 -2,-2 -3,-2l-4 4 4 3c1,1 2,3 4,4 4,3 6,7 7,9 1,-4 0,-9 -3,-12l-2 -3zm-11 27c4,4 4,4 8,9 1,1 2,2 3,3 5,-1 4,-8 3,-9 -1,-2 -2,-4 -3,-5 -3,-4 -5,-5 -8,-8 -1,-1 -2,-3 -4,-4 -1,-1 -3,-3 -4,-4 0,0 -4,-3 -5,-3l-12 4c2,1 4,3 6,4 8,5 7,4 13,11 1,1 2,1 3,2zm-2 -18c0,0 1,1 1,1 1,1 3,2 4,3 3,4 3,4 7,7 4,4 5,6 6,8 1,-1 4,-7 2,-9 -1,-4 -5,-10 -7,-12 -4,-3 -8,-8 -10,-9 -5,4 -4,3 -8,6l0 0c1,1 2,1 3,2 1,1 2,1 3,2zm-93 -21c-1,1 -6,2 -11,8 -4,4 -6,9 -8,16 -2,8 -7,19 -12,25l-3 3c1,1 7,5 9,6 0,-9 1,-14 3,-21 0,6 -2,10 -2,20 0,7 1,13 3,19 1,6 2,10 6,10 2,0 3,-1 4,-1 3,-2 5,-9 12,-10 -1,-1 -5,-4 -8,-11 -2,-5 -3,-11 -3,-17 0,1 1,5 1,6 1,4 4,14 6,15 4,-4 3,-14 0,-18 -8,-13 -11,-32 -1,-45 1,-2 4,-5 6,-6 -1,0 -2,1 -4,1zm-9 0c3,-1 8,-7 17,-8 2,0 2,-2 6,-4 1,-1 2,-2 3,-2 -9,0 -17,4 -22,11 -1,1 -2,3 -3,4zm31 -13c2,-1 5,-2 10,-4 7,-2 14,-2 17,-3 2,0 4,-1 5,-1 4,-1 8,-1 13,-1 0,0 0,0 -1,0 -2,-1 -9,-2 -11,-2 -9,-1 -17,1 -25,5 -3,1 -8,5 -9,6z"/>
 </g>
</svg>
