<?xml version="1.0" encoding="UTF-8"?>
<!DOCTYPE svg PUBLIC "-//W3C//DTD SVG 1.1//EN" "http://www.w3.org/Graphics/SVG/1.1/DTD/svg11.dtd">
<!-- Creator: CorelDRAW X6 -->
<svg xmlns="http://www.w3.org/2000/svg" xml:space="preserve" width="20.9952mm" height="20.9952mm" version="1.1" style="shape-rendering:geometricPrecision; text-rendering:geometricPrecision; image-rendering:optimizeQuality; fill-rule:evenodd; clip-rule:evenodd"
viewBox="0 0 1172 1172"
 xmlns:xlink="http://www.w3.org/1999/xlink">
 <defs>
  <style type="text/css">
   <![CDATA[
    .fil0 {fill:#BC0300}
   ]]>
  </style>
 </defs>
 <g id="Layer_x0020_1">
  <metadata id="CorelCorpID_0Corel-Layer"/>
  <path class="fil0" d="M586 0c324,0 586,262 586,586 0,324 -262,586 -586,586 -324,0 -586,-262 -586,-586 0,-324 262,-586 586,-586zm315 787c-11,-21 -15,-27 -41,-31l-171 -51c-6,37 6,33 -22,49 77,23 142,47 234,34zm-215 -199c-7,13 11,8 -7,11l23 -7c-2,17 -4,33 -6,49 -3,22 0,32 -12,48l9 -83 -54 19c9,-13 5,-13 19,-21 6,-4 20,-10 29,-15zm-1 101c11,17 142,51 173,58l-2 -23c-17,-68 -60,-101 -115,-129 -7,-3 -21,-10 -28,-12 -26,-7 -9,-5 -26,5 5,-14 2,-46 -1,-69l-37 12c40,-45 37,-7 27,-90l-25 -4c14,-8 26,-24 40,-36l-18 -92c-16,9 -11,10 -29,19 7,-16 34,-73 -10,-87 10,-19 12,-17 -1,-39 -9,-17 -17,-32 -30,-43 -6,33 -15,40 -10,76 -1,0 -2,0 -2,0l-10 5c-20,21 -10,46 -5,63 -32,17 24,0 -14,0 0,0 -2,0 -2,0 -19,65 -25,66 -1,97 -8,5 3,5 -21,-5 -3,25 -8,48 -11,71 -3,32 8,32 17,61l-30 -28 -17 64c13,21 14,19 18,44l-25 -16 -5 63c26,21 24,17 35,38l-167 -50c-49,7 -79,79 -90,132 80,-12 187,-21 273,-24 -37,14 -197,12 -253,23 -91,18 -46,146 -20,200 15,31 25,54 87,28 31,-13 67,-39 88,-55 15,-11 24,-19 38,-30l76 -67c18,-18 22,-20 56,-21 21,52 62,83 85,110 25,29 76,66 126,73 135,21 168,-212 86,-216 -65,6 -239,-9 -267,-61l39 6 7 -39c-22,4 -32,10 -51,2 19,-6 35,-15 55,-15zm-333 -55l143 42c-14,-21 -17,-9 -20,-42 -16,-9 -18,-4 -29,-19 -47,-4 -64,-27 -94,19zm97 -20l29 10c2,-25 -1,-36 10,-44l6 -2c0,0 2,0 3,-1l-4 -15c-39,11 -52,12 -72,38 9,9 -9,0 13,10 7,3 12,3 14,3zm101 164c-7,-56 75,-63 79,-11 5,54 -73,58 -79,11zm52 -74l19 18 -52 -8c24,-14 21,-26 27,-97 3,-38 6,-74 9,-113 5,-83 10,-168 7,-251 10,155 11,297 -10,451z"/>
 </g>
</svg>
