<?xml version="1.0" encoding="UTF-8"?>
<!DOCTYPE svg PUBLIC "-//W3C//DTD SVG 1.1//EN" "http://www.w3.org/Graphics/SVG/1.1/DTD/svg11.dtd">
<!-- Creator: CorelDRAW X6 -->
<svg xmlns="http://www.w3.org/2000/svg" xml:space="preserve" width="0.83372in" height="0.83372in" version="1.1" style="shape-rendering:geometricPrecision; text-rendering:geometricPrecision; image-rendering:optimizeQuality; fill-rule:evenodd; clip-rule:evenodd"
viewBox="0 0 92 92"
 xmlns:xlink="http://www.w3.org/1999/xlink">
 <defs>
  <style type="text/css">
   <![CDATA[
    .fil0 {fill:#BC0300}
   ]]>
  </style>
 </defs>
 <g id="Layer_x0020_1">
  <metadata id="CorelCorpID_0Corel-Layer"/>
  <path class="fil0" d="M46 0c25,0 46,21 46,46 0,25 -21,46 -46,46 -25,0 -46,-21 -46,-46 0,-25 21,-46 46,-46zm-10 29l0 0 0 0 0 0 3 -1 0 0 0 0c0,1 1,1 0,2 0,0 0,1 -1,1l0 0 0 0c0,0 0,0 0,0l0 0c0,0 0,0 0,0l0 0c0,0 0,0 -1,0 0,0 0,0 0,1 0,0 0,0 0,0l0 0 0 0 0 0 0 0c-1,0 -1,0 -1,-1 0,0 -1,-1 -1,-2l0 0zm6 2c0,0 1,0 1,1 0,0 0,1 -1,1 0,0 -1,0 -1,-1 0,0 0,-1 1,-1zm2 0c0,0 -1,0 -1,-1l0 0 0 0 2 -1 0 0 0 0c1,1 0,1 0,2 0,0 0,0 0,0l0 0 0 0c0,0 0,0 0,0l0 0c0,0 0,0 0,0 0,0 0,0 0,0 0,0 0,0 0,0l0 0c0,0 0,0 0,0l0 0c0,0 0,0 0,0l0 0 0 0c0,0 0,0 0,0l0 0zm-10 3l1 0c0,0 1,1 2,0 1,0 5,-1 6,-1 0,0 0,0 0,0 0,0 0,0 0,0 1,0 1,0 2,1 1,0 1,1 2,0 1,0 1,-1 1,-1 0,0 0,-3 1,-4 0,-1 0,-2 0,-2 1,0 0,-1 1,0l-3 -6 -1 0 0 0 0 0c-1,0 -2,1 -3,1 -1,0 -2,1 -3,1 -1,0 -2,1 -3,1 -1,0 -1,1 -2,1l0 0 0 0 0 0c0,0 0,0 -1,1 0,0 0,0 -1,1 0,0 0,0 0,0l0 0c0,0 0,0 0,0l0 0c0,0 0,0 0,0l0 0c0,0 0,0 0,0 0,0 0,0 0,0 0,0 0,0 0,1l0 0 0 0 0 0 0 0c0,0 0,0 -1,0l0 0c0,0 0,0 0,0 0,0 0,0 0,0 0,0 0,0 0,0l-1 1c0,0 0,0 0,0 0,0 0,0 0,0l0 0c0,0 0,0 1,0 0,0 1,0 1,0l0 0 0 0 0 -1 0 1 0 1 0 0c0,0 0,0 1,0l0 0 0 0 0 0 0 0zm18 11l-2 4 1 0 0 1 -2 0 2 -5 1 0zm3 0l-2 5 -1 0 0 -1 0 0 0 1 -1 0 3 -5 2 0zm-2 3c0,-1 1,-1 1,-2 -1,1 -1,2 -1,2l0 0zm3 -3l1 0c0,0 1,0 1,0 0,0 0,0 0,0 0,0 0,0 0,0 0,0 0,0 0,1l0 0c0,0 0,1 0,1 0,0 0,0 0,0 0,0 0,0 -1,0l0 0 -1 2 -1 0 2 -5zm1 1l-1 1c0,0 0,0 0,0 0,0 0,0 0,0 0,0 0,0 0,0l0 0c0,0 0,0 0,0 0,0 0,0 0,0zm4 -1l0 1 -1 0 -2 4 -1 0 2 -4 -1 0 0 -1 2 0zm1 3c0,1 0,1 -1,1 0,0 0,0 0,1 0,0 0,0 -1,0 0,0 0,0 -1,0 0,0 0,0 -1,0 0,0 0,0 0,0 0,0 0,0 0,-1 0,0 0,-1 0,-1l0 -1c0,-1 0,-1 1,-1 0,0 0,0 0,-1 0,0 0,0 1,0 0,0 0,0 1,0 0,0 0,0 1,0 0,0 0,0 0,0 0,0 0,0 0,1 0,0 0,1 0,1l0 1zm0 -2c0,0 0,0 0,0 0,0 0,0 0,0 0,0 0,0 0,0 0,0 0,0 0,0l-1 2c0,0 0,0 0,1 0,0 0,0 0,0 0,0 0,0 0,0 0,0 0,0 0,-1l1 -2zm2 -1l1 0c0,0 1,0 1,0 0,0 0,0 0,0 0,0 0,0 0,0 0,0 0,0 0,1l0 0c0,0 0,1 0,1 0,0 0,0 0,0 0,0 0,0 -1,0l0 0 -1 2 -1 0 2 -5zm1 1l-1 1c0,0 0,0 0,0 0,0 0,0 0,0 0,0 0,0 0,0l0 0c0,0 0,0 0,0 0,0 0,0 0,0zm-20 10c0,0 0,1 -1,1l0 0c0,0 0,1 0,1 1,0 2,0 3,0 1,0 2,0 3,0l0 0c3,0 5,0 6,0l5 -4 1 -1 0 0 0 0 0 0c1,-1 1,-2 2,-3 0,0 1,-1 1,-2l0 0c1,-1 1,-2 2,-4 1,-1 1,-2 1,-2l0 0 0 0 0 0 0 0 0 0c0,0 0,0 -1,0 -2,0 -4,0 -6,0l0 0 0 0 0 0c-3,0 -6,0 -9,-1l-6 11c0,0 0,0 -1,0 0,0 -1,0 -2,1l1 0 0 0 0 0 0 0 0 0 0 0c0,0 0,1 -1,1 0,1 -1,1 -1,2zm-18 -28l0 0c0,0 0,0 0,0 0,0 0,0 0,0 0,0 0,0 1,1 0,0 0,0 0,0l0 0c0,0 0,0 1,0l0 0 0 1c0,0 0,0 0,0l0 0 -1 2 1 -2 1 0c0,0 0,0 1,0 0,0 0,0 0,0l0 0 0 0 0 0 0 1c0,0 0,1 0,1 0,0 0,1 0,1l0 0c0,0 0,1 1,1l1 1 -2 0c0,0 0,0 0,0 0,0 -1,0 -1,0 0,0 -1,0 -1,0l0 0c0,0 -1,0 -1,0 0,0 0,0 -1,0 0,0 0,0 0,1 0,0 0,1 0,1l0 0c0,1 -1,2 -1,3 0,1 -1,2 -1,3 0,1 0,2 -1,3 0,1 0,2 0,4 0,1 0,1 0,2 0,1 0,1 0,2 0,0 0,1 0,1 0,0 0,0 0,0l0 0 -3 3 1 0c1,0 2,0 2,1 1,0 2,1 2,1 1,1 2,1 2,1 1,0 2,1 3,1 1,0 1,0 2,0l0 0c1,0 1,0 2,0 0,0 1,0 1,0l1 0 0 1c0,0 0,0 0,0 0,0 0,0 0,1 0,0 0,0 0,1 0,0 0,1 0,1l0 0c0,0 0,0 0,0l0 0 0 0c0,0 0,0 0,0 0,0 0,1 0,1 0,0 0,1 0,1 0,0 0,1 0,1 0,1 0,1 0,2 0,0 0,1 0,1l0 0c0,0 0,0 0,1 0,0 0,0 0,0 0,0 0,0 0,0l0 0c0,0 0,0 0,1l0 0 0 0c0,0 2,1 2,1 1,0 2,1 3,1 0,0 1,0 1,0 0,0 1,0 1,0 0,0 1,0 1,0 0,0 1,0 1,0 0,0 0,-1 1,-1 0,0 0,-1 0,-1l0 -1 -1 1c0,0 0,0 0,0l0 0 0 0c0,0 0,0 -1,0l0 0c0,0 -1,0 -1,-1 0,0 -1,0 -1,-1l0 0 0 0c0,0 0,0 0,0 0,0 0,0 0,0l0 0 0 -1 0 0c0,-1 1,-1 1,-2l0 0 0 0c0,0 0,0 0,0 0,0 0,0 1,-1 0,0 0,0 0,0l0 0 0 0c0,0 1,0 1,0 1,0 1,-1 2,-1 0,0 1,-1 1,-1 0,0 1,-1 1,-1 0,0 0,0 1,0l0 0c0,0 0,0 0,0 0,0 0,0 1,-1l0 0 0 0c0,0 0,0 0,0l0 0c0,0 0,0 0,0l0 0 0 0c0,0 0,0 0,0 0,0 0,0 1,0 0,0 0,0 1,0 0,0 0,0 1,0l0 0 7 0 0 -1 0 0 0 -2 0 0 0 0c-1,0 -1,0 -2,0 -1,0 -1,0 -2,0l-2 0 1 -1c0,0 0,-1 1,-1 0,-1 1,-1 1,-2l0 0 5 -4 1 -1c1,-1 1,-2 2,-3 0,-1 1,-2 1,-3l0 0c1,-1 2,-3 2,-4 0,-1 1,-2 1,-2l0 0 0 0c0,0 0,0 -1,0l0 0c-1,0 -1,0 -1,0 -2,0 -4,0 -6,0l0 0c-2,0 -3,0 -5,0 -2,0 -3,0 -5,0l0 0 -6 12 -1 0c0,0 -1,0 -1,0l0 1 -1 0c0,0 0,0 0,0 0,0 0,0 0,0l-1 0 0 0c0,-1 0,-1 0,-2 0,-1 0,-2 0,-3l0 -2 0 -3 1 0c1,0 2,0 3,-1 0,0 1,0 1,-1 0,0 1,-1 1,-1 0,0 1,-1 1,-1 0,0 0,0 0,-1l0 0 0 0c0,0 0,0 0,0 0,0 0,0 0,0 0,0 0,0 0,0l0 0 0 0c0,0 0,0 0,0l0 0c0,0 0,0 0,0 0,0 0,0 0,0 0,0 0,0 0,0l-1 0 0 -2 1 0c1,0 2,-1 3,-2l0 0c0,0 0,-1 1,-1 0,0 1,0 1,0 0,0 0,0 1,-1 0,0 0,0 1,-1 0,0 0,-1 0,-1 0,0 0,0 0,-1l0 0c0,-1 0,-3 1,-4 0,0 0,0 0,0 0,-1 0,-1 0,-2 0,-1 0,-3 -1,-4 0,0 0,0 0,0l0 0 0 0 0 0c0,0 0,-1 0,-1 0,-1 0,-1 0,-2 0,-1 0,-1 0,-1 0,0 -1,-1 -1,-1 0,0 -1,-1 -1,-1 0,0 0,0 0,0l0 0 0 0c0,0 0,0 0,0l0 0c-1,-1 -1,-2 -2,-2 -1,-1 -2,-1 -3,-1 -1,0 -3,0 -4,0 -1,0 -3,1 -4,1 -1,0 -1,1 -2,1l0 0c0,0 -1,0 -1,0 0,0 -1,0 -1,0 -1,0 -1,1 -2,1 -1,0 -1,1 -2,1 -1,0 -1,1 -1,2 0,1 -1,1 -1,2l0 0c0,1 -1,1 -1,2l0 0c-1,1 -1,1 -1,2 0,0 0,1 0,1 0,0 0,1 0,1 0,0 0,1 0,1 0,0 0,1 0,1l0 0c0,0 0,1 0,1 0,0 0,1 0,1 0,0 0,1 0,1 0,0 0,1 0,1 0,0 0,0 0,0l0 0zm15 28l-7 0 0 0 0 0 0 0 0 0c0,0 0,0 -1,0l0 0 0 0 0 0c-1,0 -1,0 -2,0 -1,0 -1,0 -2,0 0,0 -1,-1 -1,-2 0,-1 0,-3 0,-5 0,-2 0,-3 0,-5 0,-1 0,-2 1,-3l0 0 0 0 0 0 0 0 0 0 0 0 0 0 0 -1 0 -1 0 1 0 0c0,0 0,0 1,0l0 0c0,0 0,0 1,1 0,0 0,0 0,1 0,0 0,0 0,1l0 0 0 0 0 0 0 0c0,0 0,0 0,0l0 0c0,0 0,0 0,0 0,0 0,0 0,0 0,0 0,0 0,1l0 0 0 0c0,1 0,1 0,2 0,1 0,1 0,2 0,1 0,1 0,2 0,1 0,1 0,2 0,0 0,0 0,0 0,0 0,0 1,0 0,0 1,0 2,0 1,0 2,0 3,0l0 0c1,0 2,0 3,0 1,0 1,0 2,0l0 0 0 0 0 0 0 0c0,0 0,0 0,0 0,0 0,0 0,0l0 0 0 0 0 0 0 0 0 0 0 0 0 0c0,1 0,1 0,1l0 0 0 0 0 0c0,0 0,0 0,0l0 0 0 0 0 0 0 0 0 0c0,0 0,0 0,0 0,0 0,0 0,0l0 0c0,0 0,0 0,0 0,0 0,0 0,0l0 0 0 0 0 0 0 0zm2 15c0,0 -1,1 -1,1l0 0 0 0c0,0 -1,0 -1,0 0,0 -1,0 -1,-1l0 0 0 0 0 0 0 0 0 0c0,0 0,0 0,0l0 0c0,0 0,0 0,0 0,-1 0,-2 0,-3 0,0 0,-1 0,-1l0 0 0 0c0,0 0,0 0,0 0,0 0,0 0,1l0 0c0,0 0,0 0,0 0,0 1,0 2,0 0,0 1,0 1,0l0 0c-1,0 -2,0 -3,-1l0 0 0 0 0 0 0 0 0 -1 0 0 0 0c0,-1 0,-1 0,-2 0,-1 1,-2 1,-2 0,-1 1,-1 1,-1l0 0 0 0 0 0c0,0 1,0 1,0 0,0 1,0 1,0 0,0 1,0 1,0 0,0 1,0 1,0l2 0 0 0 0 0c0,0 -1,1 -1,2 0,1 0,1 -1,1l0 0 0 0 -1 1 0 0c-1,0 -1,1 -1,1 0,0 0,0 1,0 0,0 0,0 1,0l0 0 0 0 0 0c0,0 0,0 0,0 0,0 0,0 0,0l1 -1 -1 1c0,0 0,0 0,0 0,0 0,1 -1,1 0,0 0,0 0,0l0 0 0 0 -1 2c0,0 0,1 -1,1 -1,1 -2,2 -2,2l0 0 0 0c0,0 0,0 0,0zm0 -13c0,-1 1,-2 1,-2l0 0 0 0 0 0 0 0c0,-1 1,-2 1,-2l-1 0 0 0 0 0 0 0 0 0 0 -1c0,0 0,0 0,0 0,0 0,0 0,0 0,0 0,0 0,0 0,0 0,0 0,0l0 0 0 0c0,0 0,0 0,0l0 0c0,0 0,0 0,0l0 0 0 0 0 0 0 0c0,-1 0,-2 0,-3 0,-1 0,-2 0,-3l0 -1c0,0 0,-1 0,-1 0,0 0,0 0,0 0,0 0,0 -1,0 0,0 -1,0 -1,0 0,0 0,0 -1,0l0 0 0 0 0 0 0 0 0 -1 0 0 0 0 0 0 0 0 0 0c0,0 1,0 1,0l0 0c1,0 2,0 3,0 1,0 2,0 3,-1 0,0 1,0 1,0l0 0c0,0 1,-1 1,-1 0,0 1,-1 1,-1 0,0 0,-1 0,-1 0,0 0,0 0,0l0 0 0 0c0,0 0,0 -1,0 0,0 -1,0 -1,0 0,0 -1,0 -2,0 -1,0 -1,0 -2,0 0,0 0,0 -1,0 0,0 0,0 0,0l0 0c0,0 0,0 -1,1 0,0 -1,0 -1,0l0 0 0 0 0 0 0 0 0 0c0,0 -1,0 -1,0 0,0 -1,0 -1,0 0,0 0,0 -1,-1 0,0 0,0 0,-1 -1,0 -1,0 -2,0 -1,0 -1,0 -2,0 0,0 -1,0 -1,0l0 0 0 0c0,0 0,0 0,1l0 0c0,0 0,1 1,1 0,0 0,0 1,1l0 0 0 0 0 0 0 0 0 0 0 0 0 1 0 0 0 0 0 0 0 0c0,0 -1,0 -1,0 0,0 -1,0 -1,0l0 0c0,0 -1,0 -1,0 0,0 -1,0 -1,0l0 0 0 0c0,0 -1,0 -1,0 0,0 0,0 0,0 0,0 0,0 0,0l0 0c0,0 0,0 0,1l0 0 0 0 0 0 0 0c0,1 -1,2 -1,3 0,1 -1,2 -1,3 0,1 0,2 -1,3 0,1 0,2 0,4 0,0 0,1 0,2 0,1 0,1 0,2 0,0 0,1 0,1 0,0 0,0 0,1l0 0 0 0 0 0 0 0 0 0 0 0 0 0 0 0 0 0 0 0 0 0 2 1 0 0 0 0 0 0 0 0 0 0 0 0 0 0 0 0 0 0 0 0 1 0c0,0 0,0 1,0l0 0c0,0 1,0 1,0 0,0 0,0 1,0l0 0c0,0 0,0 0,0 0,0 0,0 0,0l0 0c0,0 0,0 0,0l0 0 0 0 0 0 0 0 0 0c0,0 1,-1 1,-1 0,0 0,0 1,-1l0 0 0 0c0,0 0,0 1,-1 1,-1 2,-1 3,-1l0 0 0 0 0 0 0 0 1 0c0,0 1,0 1,0l0 0c0,0 1,0 1,0 0,0 1,0 1,0 1,0 1,0 2,0zm-3 -23c1,0 2,0 2,1 0,0 -1,1 -2,1 -1,0 -2,0 -2,-1 0,0 1,-1 2,-1zm4 -2c0,0 0,0 -1,0 0,0 0,0 -1,0l0 0 0 0 0 0 0 0c0,0 0,0 0,0 0,0 0,0 0,0l0 0 0 0 0 0 0 0c-1,0 -1,0 -2,0 0,0 -1,0 -1,0l0 0c0,0 -1,0 -1,0 0,0 0,0 0,0l0 0c0,0 0,0 0,0 0,0 -1,0 -1,0 0,0 -1,0 -1,0l0 0 0 0 0 0 0 0c0,0 0,0 0,0l0 0c0,0 0,0 -1,0 0,0 0,0 0,0l0 0 0 0 0 0c0,0 0,0 0,1l0 0c0,0 1,0 1,1 0,0 1,0 2,0 1,0 1,0 2,0l0 0 0 0 0 0 0 0 0 0 0 0c0,0 0,0 0,0 0,0 0,0 0,0 0,0 0,0 1,0 0,0 0,0 1,0l0 0 0 0 0 0c1,0 1,0 1,-1l0 0 0 0 0 0c0,0 0,0 0,0 0,0 0,0 1,0 0,0 1,0 2,0 0,0 1,0 1,0 0,0 1,0 1,0 0,0 0,0 1,0l0 0c0,0 0,0 0,0l0 0c0,0 0,0 0,0 0,0 0,0 0,0 0,0 -1,0 -1,0 0,0 0,0 0,0l0 0 0 0 0 0 0 0c0,0 -1,-1 -2,-1zm2 -14c0,0 0,0 -1,0 -1,0 -2,0 -2,0 -2,0 -5,1 -7,3 -1,1 -3,2 -4,4 0,0 0,0 1,0 0,0 0,0 0,0 0,0 0,0 0,0 0,0 0,0 0,0l0 0 0 0 0 0c0,0 0,0 0,0 0,0 0,0 0,0l0 0c0,0 0,0 1,-1 0,0 0,0 1,-1l0 0 0 0 0 0c1,0 1,-1 2,-1 1,0 2,-1 3,-1 1,-1 2,-1 3,-1 1,0 2,-1 3,-1zm-16 10l0 0 0 0c1,-3 2,-5 4,-6l0 0c-1,1 -5,5 -5,5l-1 1c0,0 0,0 1,0 0,0 0,0 0,0 0,0 0,0 0,0l0 0 0 0zm6 -8c2,-1 4,-2 6,-3 1,0 2,0 3,0 1,0 2,0 2,0l0 0c1,0 1,1 2,1 1,0 1,1 1,2 1,1 1,2 1,4 0,1 -1,3 -2,5 1,0 2,0 2,-1l0 0c0,0 1,-1 1,-1 -1,1 -2,1 -2,1 0,0 3,-6 2,-8 -1,-2 -5,-5 -5,-5 0,0 -7,0 -8,1 -1,1 -2,2 -3,3zm15 -14c0,0 0,0 -1,-1l0 0c0,0 0,0 0,0l1 1zm-1 -1c-1,0 -1,-1 -2,-1 -1,0 -2,0 -4,0 0,0 4,0 6,1zm-7 -1c-1,0 -2,1 -3,1 1,0 3,-1 3,-1zm-6 2l0 0 0 0 0 0c0,0 -1,0 -1,0 0,0 -1,0 -1,0 0,0 -1,0 -1,1 1,0 2,-1 4,-1zm-4 2c0,0 0,0 0,0 -1,0 -1,1 -2,1 -1,0 -1,1 -1,2 0,1 -1,1 -1,2l0 0 0 0c0,1 -1,1 -1,2l0 0c0,0 0,0 -1,1 0,0 0,1 -1,1 0,0 0,1 0,1 0,0 0,1 0,1 0,0 0,0 0,0 0,0 0,-1 1,-1 1,-3 2,-3 3,-5 1,-2 4,-5 4,-5zm-6 18c0,0 0,0 0,0 0,0 0,0 0,0l0 0c0,0 0,0 0,0l0 0c0,0 0,0 0,0 0,0 0,-1 -1,-1z"/>
 </g>
</svg>
