<?xml version="1.0" encoding="UTF-8"?>
<!DOCTYPE svg PUBLIC "-//W3C//DTD SVG 1.1//EN" "http://www.w3.org/Graphics/SVG/1.1/DTD/svg11.dtd">
<!-- Creator: CorelDRAW X6 -->
<svg xmlns="http://www.w3.org/2000/svg" xml:space="preserve" width="0.83372in" height="0.83372in" version="1.1" style="shape-rendering:geometricPrecision; text-rendering:geometricPrecision; image-rendering:optimizeQuality; fill-rule:evenodd; clip-rule:evenodd"
viewBox="0 0 314 314"
 xmlns:xlink="http://www.w3.org/1999/xlink">
 <defs>
  <style type="text/css">
   <![CDATA[
    .fil0 {fill:#BC0300}
   ]]>
  </style>
 </defs>
 <g id="Layer_x0020_1">
  <metadata id="CorelCorpID_0Corel-Layer"/>
  <path class="fil0" d="M157 0c87,0 157,70 157,157 0,87 -70,157 -157,157 -87,0 -157,-70 -157,-157 0,-87 70,-157 157,-157zm28 62l-56 0 -2 0 1 -2 4 -9 0 -1 1 0 0 0 0 0c1,-2 1,-4 1,-5l0 0c0,-3 0,-5 4,-6l0 0 0 0 -1 -1 0 0c0,0 -1,0 -1,-1 0,0 0,0 0,0l0 -1 0 -1c1,-1 1,-2 2,-2 1,-1 1,-1 1,-2 0,0 0,-1 0,-2l0 0c0,-2 0,-5 1,-10l1 -6 2 6c2,6 1,9 1,11 0,2 0,3 3,6l1 1 -1 1 -2 3c4,1 4,3 4,6 0,1 0,3 1,5l2 0c1,-2 1,-4 1,-5 0,-3 0,-5 4,-6l-2 -2 -1 -1 0 -1c1,-2 2,-2 2,-3l0 0c0,0 0,0 0,0l0 0 0 0c0,0 0,-1 0,-2 0,-1 0,-2 0,-3l0 -1c0,-3 0,-6 1,-9l1 -6 1 6c1,6 1,9 1,11 0,1 0,1 0,2 0,1 0,1 1,2 0,1 1,1 1,2l0 1 0 1 -2 2c4,1 4,3 4,6 0,1 0,3 0,5l2 0c0,-2 0,-4 1,-5 0,-3 0,-5 4,-6l-2 -3 -1 -1 1 -1 0 0c1,-1 2,-2 2,-3 0,-1 0,-2 0,-3 0,-2 0,-5 1,-10l1 -10 1 10c0,2 0,3 0,5l0 0c0,2 0,3 0,5 0,1 0,2 0,3 0,1 0,2 0,2l0 0c0,0 0,0 0,0 0,0 1,1 2,3l0 1 0 1 -2 2c4,1 4,3 4,6 0,1 0,3 1,5l0 0 1 0 0 1c1,4 1,4 2,6 0,1 1,1 1,2l1 2 -2 0zm-68 164l83 0 0 3 -83 0 0 -3zm0 -16l83 0 0 3 -83 0 0 -3zm0 -16l83 0 0 3 -83 0 0 -3zm0 -16l83 0 0 3 -83 0 0 -3zm0 -16l83 0 0 3 -83 0 0 -3zm-27 83l-4 0 -1 0 0 -1 0 -113 0 -1 1 0 142 0 1 0 0 1 0 113 0 1 -1 0 -5 0 -1 0 0 -1 0 -35c-1,-1 -1,-1 -1,-1 -1,0 -2,0 -4,-3 -2,-4 0,-7 1,-11l0 0c1,-3 3,-7 3,-11 -1,0 -1,-1 -2,-1 -3,-1 -4,-2 -4,-6 0,-3 1,-4 1,-5 1,-1 1,-2 -2,-6 -2,-2 -2,-3 -2,-4l0 0c0,0 0,-1 -1,-2 -1,-1 -2,-2 -3,-2 -1,0 -3,0 -4,1l-1 1 0 -1c0,-4 -1,-7 -3,-8 -1,-1 -4,-1 -7,2l-1 1 0 -1 0 0c0,-1 -1,-2 -1,-3 -1,-2 -3,-4 -7,-3l-4 2 -1 1 -1 -1c-1,-1 -1,-2 -2,-3 -1,-2 -2,-4 -7,-5 -2,0 -4,-1 -5,-1 -3,0 -5,0 -7,-3 -3,3 -4,3 -7,3l0 0c-1,0 -3,0 -6,1 -5,1 -5,3 -7,5 0,1 -1,2 -1,2l-1 1 -1 -1c-3,-2 -5,-4 -7,-3 -2,0 -3,2 -4,7l0 2 -1 -1c-3,-2 -6,-2 -7,-2 -2,1 -3,3 -3,7l0 1 -1 -1c-5,-2 -7,0 -8,3l0 0c0,1 0,1 -1,2l0 0c0,1 0,1 -1,2l0 0c-1,1 -1,2 -2,2l0 0c0,0 0,0 -1,1 -1,2 0,3 0,5 0,1 1,3 1,4 0,5 -2,5 -4,6 -1,0 -1,0 -2,1 0,4 2,7 3,9 1,1 1,3 2,5l0 0c3,8 0,10 -3,11 -1,0 -2,1 -2,1l0 35 0 1 153 1 1 0 0 1c2,4 2,4 0,8l0 0 0 1 0 1 -1 0c-6,1 -49,1 -91,1 -40,0 -79,0 -85,-1l-1 0 0 -1c-1,-3 -2,-6 -1,-8 1,-2 3,-3 8,-3l0 0 15 0zm138 -123l-142 0 -1 0 0 -1 0 -15 0 -1c-5,0 -8,0 -9,0l-1 0 0 -1 0 -4 0 -1 1 0 161 0 1 0 0 1c0,4 0,5 -3,5 0,0 -1,0 -2,0 0,0 -1,0 -2,0l-3 0 0 1 0 16 0 1 -1 0zm-53 -29l-36 0 -1 0 0 -1c0,-7 6,-10 11,-14l0 0c2,-2 5,-3 7,-5l1 -1 1 0c2,1 4,2 6,3 2,1 4,3 5,4l1 1 0 0c3,2 7,5 7,11l0 1 -1 0zm-74 -1c-1,3 -1,3 -13,3l-1 0 0 -1c0,-7 10,-14 16,-18l0 0 2 -1 0 0c3,-2 5,-4 7,-5 7,-5 7,-6 18,-5l2 0 -2 2c-3,3 -8,7 -13,10 -7,4 -14,9 -16,15 0,1 -1,1 -1,2l0 0zm122 3l-10 0 -1 0 0 0c-1,-1 -2,-3 -2,-4 -1,-2 -1,-3 -3,-5 -3,-3 -8,-6 -12,-9 -5,-4 -11,-7 -13,-10l-2 -2 2 0 2 0c7,0 9,-1 14,3 2,2 4,3 7,5 9,6 20,14 20,22l0 1 -1 0zm-108 0l-7 0 -1 0 0 -1c2,-8 9,-13 15,-17l0 0 2 -1 0 0c3,-2 5,-3 6,-5 6,-5 8,-7 16,-7l2 0 -1 2c-2,3 -10,8 -15,12l0 0c-1,1 -2,2 -3,2 -9,6 -10,8 -12,12 0,1 -1,2 -2,3l0 1 -1 0zm91 0l-7 0 -1 0 0 -1c-1,-1 -1,-2 -2,-3 -3,-5 -4,-7 -12,-13 -1,0 -1,-1 -2,-2 -5,-3 -13,-9 -15,-12l-1 -2 2 0c8,0 8,1 12,4 1,0 1,1 2,1 2,1 4,3 6,4 8,6 18,12 20,21l0 1 -1 0zm-76 0l-7 0 -1 0 0 -1c0,-4 4,-8 8,-12 7,-7 17,-13 21,-15l1 0 1 0 4 2 1 1 -1 1c-2,2 -5,5 -9,7 -2,1 -4,3 -6,4l0 0 -1 1c-4,4 -8,6 -10,13l0 1 -1 0zm39 -17c-4,-2 -7,-5 -10,-8l-1 -1 1 -1 4 -2 1 0 1 0 17 12 0 0c2,2 5,4 7,6 3,3 5,6 5,10l0 1 -1 0 -7 0 -1 0 0 -1c-2,-8 -8,-12 -14,-16z"/>
 </g>
</svg>
