<?xml version="1.0" encoding="UTF-8"?>
<!DOCTYPE svg PUBLIC "-//W3C//DTD SVG 1.1//EN" "http://www.w3.org/Graphics/SVG/1.1/DTD/svg11.dtd">
<!-- Creator: CorelDRAW X6 -->
<svg xmlns="http://www.w3.org/2000/svg" xml:space="preserve" width="21.1906mm" height="21.1906mm" version="1.1" style="shape-rendering:geometricPrecision; text-rendering:geometricPrecision; image-rendering:optimizeQuality; fill-rule:evenodd; clip-rule:evenodd"
viewBox="0 0 14403 14403"
 xmlns:xlink="http://www.w3.org/1999/xlink">
 <defs>
  <style type="text/css">
   <![CDATA[
    .fil0 {fill:#BC0300}
   ]]>
  </style>
 </defs>
 <g id="Layer_x0020_1">
  <metadata id="CorelCorpID_0Corel-Layer"/>
  <path class="fil0" d="M7202 0c3973,0 7202,3218 7202,7202 0,3973 -3218,7202 -7202,7202 -3973,0 -7202,-3218 -7202,-7202 0,-3973 3218,-7202 7202,-7202zm397 8006l10 -328 0 -40 40 -10c199,-40 199,-50 219,-70 20,-30 50,-70 139,-139l10 -10 0 0c99,-79 159,-119 248,-139l0 0c89,-20 189,-10 417,10l0 0 10 0 0 0c20,0 10,10 10,10l0 0c20,-20 30,-20 99,10l10 0 10 0 149 119 0 0 0 10c129,179 219,179 278,179 99,0 149,0 149,199 0,238 10,238 30,258 20,20 50,50 89,149 30,89 60,159 79,228 60,169 89,258 79,318 -12,134 -191,99 -298,99 -17,-35 -41,-63 -60,-99 -10,-30 -20,-30 -89,-70 -99,-50 -109,-70 -129,-99 -10,-10 -20,-30 -40,-50 -109,-30 -248,-10 -368,0 -79,10 -159,20 -219,10 -487,-70 -536,-20 -606,40 -30,30 -70,60 -149,89 -70,30 -79,50 -99,99l0 0c-10,20 -10,30 -20,50l-10 30 -30 0c-70,10 -119,0 -169,-20 -50,-20 -79,-50 -119,-79l-20 -20 0 -20c10,-50 30,-89 60,-139 10,-20 20,-40 30,-50l0 0c70,-129 70,-189 79,-238 10,-89 20,-129 189,-258l-10 -30zm248 -3536l-30 40 0 -10 -10 0 -20 -20 -30 -30c-40,-40 -50,-50 -109,-119l0 0 -20 -30 0 0c-30,-40 -60,-79 -79,-109 -40,-40 -119,-70 -199,-89 -79,-20 -149,-50 -199,-89 -79,-60 -99,-159 20,-318 30,-30 79,-89 129,-139 40,-40 89,-79 129,-109 238,-159 377,-70 447,40 30,40 50,89 60,119l10 20c0,0 10,10 20,20 79,99 288,368 50,626 -30,30 -40,40 -40,40l0 0c0,0 -10,10 -20,20l-99 119 -10 20zm-844 -229c10,40 10,50 20,50 10,20 30,30 30,139 0,30 0,60 0,89 0,40 0,70 10,119l159 10 20 0 10 20c50,119 70,139 139,109 20,-10 50,-20 89,-40 40,-20 79,-40 129,-60l0 0 30 -10c30,-10 50,-20 70,-60 -20,-30 -30,-30 -50,-40 -40,-20 -79,-50 -219,-238 -10,-10 -20,-30 -30,-40l0 0c-30,-50 -40,-50 -109,-70 -20,-10 -50,-20 -70,-20l0 0c-60,-20 -99,-30 -169,-40l-70 89 10 -10zm-5155 2662c10,30 30,50 50,70 20,20 30,40 50,70 20,30 30,50 40,70l0 0c10,30 20,40 50,70l715 -159c60,-20 139,-40 228,-70 149,-50 308,-99 427,-119 0,-70 -20,-149 -40,-219 -30,-89 -70,-169 -99,-238 -40,-79 -20,-169 -10,-258 20,-99 30,-209 -20,-298 -40,10 -60,40 -79,70 -10,20 -20,50 -40,70 -79,99 -159,79 -248,40l0 0c-20,-10 -30,-10 -50,-20l0 0c-248,-70 -268,-70 -447,20l0 0 -60 30 0 0c-70,30 -89,79 -129,189 -20,60 -50,129 -99,238 -10,20 -10,40 -20,50l0 0c-10,20 -20,50 -30,79l0 0 -189 318 0 0zm-169 -199c60,-70 139,-219 209,-377 50,-119 89,-248 99,-338l-109 -40c-318,-109 -487,-169 -735,79 -109,109 -99,169 -89,258 0,30 10,70 10,109 0,99 10,99 119,119 40,10 89,20 149,30l0 0c20,10 50,10 70,10l0 0c50,10 109,20 159,40 30,20 50,40 79,60 10,10 30,30 40,40l0 10zm8652 50c-50,0 -109,0 -169,-10 -70,-10 -139,-10 -209,-10 -50,0 -89,10 -129,10 -89,10 -169,30 -268,-30 -40,-30 -89,-60 -129,-89 -129,-79 -258,-169 -417,-189 -10,20 -20,30 -20,50 -30,60 -60,119 -79,219l0 20 0 0c-20,139 -40,248 -119,338 -149,179 -517,179 -775,179l0 0 -10 0 0 0c-50,0 -109,0 -169,0 -139,0 -278,0 -407,0 -30,0 -70,-10 -99,-10l0 0c-119,-20 -248,-30 -298,40 -20,30 -20,50 -30,70l0 0c-10,40 -20,70 -89,119l0 0 -477 387 10 1808c725,20 1728,20 2642,10 417,0 824,-10 1142,-10l238 0c20,-745 20,-1500 10,-2255 0,-288 0,-576 0,-864l0 -20 20 -20c40,-40 70,-50 89,-60l0 0c0,0 0,10 0,0l0 0c0,0 0,-20 0,-79 -10,0 -20,-10 -30,-10 -50,-10 -109,-20 -159,-20 -40,0 -79,20 -89,50l0 0c0,0 0,10 0,10l0 0c-10,30 10,40 30,60l0 0c70,40 139,79 50,268l-10 30 -30 0 -20 10zm-3427 -626c50,10 129,20 209,20 99,10 199,20 258,20 20,-40 40,-89 70,-139l0 0c70,-139 139,-288 179,-437 10,-40 10,-79 10,-99 0,-60 0,-99 70,-159l40 -40 30 50c40,60 40,169 20,278 -30,169 -119,358 -139,397 -30,40 -40,70 -50,99l0 0c-10,20 -20,50 -30,79 -89,189 -179,169 -318,149 -30,0 -60,-10 -89,-10 -70,-10 -169,-10 -268,-10 -89,0 -179,0 -248,10 -30,30 -60,60 -79,89 -50,60 -109,119 -149,189 -79,129 -258,209 -407,278 -40,20 -89,40 -109,60 -30,20 -60,30 -89,50 -30,10 -60,30 -99,50 -219,99 -497,159 -685,199l0 0c-89,20 -159,40 -189,50 -70,30 -189,40 -328,40 -179,10 -377,0 -467,-20 -40,-10 -60,-20 -79,-30 -20,-10 -50,-20 -109,-30l-129 -20c-109,-20 -169,-30 -199,-40l0 0c-50,-20 -50,-50 -70,-99l-10 -30c-89,10 -149,30 -219,60l0 0c-20,10 -50,20 -70,20l0 0c-129,40 -318,89 -497,129 -189,50 -377,89 -497,129 20,129 30,228 30,288 10,139 10,159 159,268 109,79 179,139 228,209 60,70 99,159 149,288l0 0 258 586 0 0c159,348 238,447 407,666 30,40 60,79 89,119 30,50 60,79 89,109 30,30 60,50 119,89 407,258 646,228 1122,169 79,-10 179,-20 268,-30 328,-40 387,0 517,79 40,30 89,60 169,99 179,89 864,70 1321,60 129,0 248,-10 318,-10 109,0 457,0 904,0 1391,10 3765,20 4172,-10 0,-40 0,-79 0,-119 -10,-99 -10,-189 40,-258l40 -70 40 70c50,79 50,169 50,248 0,30 0,60 0,79 10,70 40,70 109,60l30 0c0,-99 -30,-377 -70,-636 -30,-228 -70,-447 -89,-517 -30,-89 -129,-169 -219,-248 -40,-30 -70,-60 -109,-89 -60,-60 -119,-129 -169,-199 -50,-70 -89,-149 -129,-228 -40,-79 -70,-159 -99,-248 -30,-89 -60,-179 -99,-248 -20,-40 -40,-70 -60,-99 -20,-30 -50,-60 -70,-109l0 0c-50,-99 -278,-358 -507,-556 -119,-119 -238,-209 -318,-248l0 2950 0 30 -20 20c-189,119 -616,109 -934,99 -70,0 -139,0 -199,0l-3020 0c-50,0 -79,0 -99,0 -189,0 -298,10 -437,-119l-10 -10 0 -20c-30,-219 -10,-517 0,-815 20,-427 30,-874 -50,-1113 -30,10 -50,30 -79,60 -30,30 -79,79 -169,159 -60,50 -99,89 -149,119 -50,40 -99,70 -169,119 -179,119 -397,169 -616,159 -248,-10 -507,-89 -725,-209 -169,-89 -368,-278 -507,-487l0 0c-109,-179 -179,-377 -149,-566l10 -40 40 0c109,0 159,10 209,30 30,10 70,20 139,30l0 0 40 0c119,10 228,20 348,20 268,0 507,-20 735,-60 228,-40 447,-109 685,-199 60,-20 169,-79 258,-129 129,-70 258,-139 318,-149l70 -10 -20 70c-20,109 -70,129 -129,159 -20,10 -50,20 -79,50 -50,40 -40,99 -40,159 0,40 0,79 0,119l0 50 -50 0c-40,0 -70,-10 -109,-20l0 0c-50,-20 -109,-30 -179,-10 20,50 50,70 129,99 40,20 89,50 159,79l0 0c209,119 248,79 517,-149 40,-30 79,-70 129,-109l20 -20 0 0c119,-109 129,-109 228,-278l10 -20 30 0c209,-20 467,-10 715,-10 79,0 159,0 228,0 89,0 139,0 169,0 30,0 50,0 60,0 20,0 30,-10 70,-10 30,-10 60,-10 119,-30 268,-60 278,-109 348,-427l20 -79 0 0c20,-99 50,-159 60,-209 40,-119 50,-129 -159,-437l0 0c-20,-30 -40,-60 -60,-89 -50,-70 -99,-129 -139,-219 -60,-119 -70,-228 -70,-328 -10,-129 -10,-248 -169,-328 -179,-99 -248,-60 -497,70l0 0c-40,20 -89,50 -119,60l0 0 -20 10c-219,109 -268,139 -348,507 -10,50 -50,219 -89,358 -30,89 -60,169 -79,209 -40,50 -50,70 -70,70l-10 10 -50 -20z"/>
 </g>
</svg>
