<?xml version="1.0" encoding="UTF-8"?>
<!DOCTYPE svg PUBLIC "-//W3C//DTD SVG 1.1//EN" "http://www.w3.org/Graphics/SVG/1.1/DTD/svg11.dtd">
<!-- Creator: CorelDRAW X6 -->
<svg xmlns="http://www.w3.org/2000/svg" xml:space="preserve" width="0.83372in" height="0.83372in" version="1.1" style="shape-rendering:geometricPrecision; text-rendering:geometricPrecision; image-rendering:optimizeQuality; fill-rule:evenodd; clip-rule:evenodd"
viewBox="0 0 144 144"
 xmlns:xlink="http://www.w3.org/1999/xlink">
 <defs>
  <style type="text/css">
   <![CDATA[
    .fil0 {fill:#BC0300}
   ]]>
  </style>
 </defs>
 <g id="Layer_x0020_1">
  <metadata id="CorelCorpID_0Corel-Layer"/>
  <path class="fil0" d="M72 0c40,0 72,32 72,72 0,40 -32,72 -72,72 -40,0 -72,-32 -72,-72 0,-40 32,-72 72,-72zm6 74l0 -3 0 0 0 0c2,0 2,0 2,-1 0,0 0,-1 1,-1l0 0 0 0c1,-1 2,-1 2,-1l0 0c1,0 2,0 4,0l0 0 0 0 0 0c0,0 0,0 0,0l0 0c0,0 0,0 1,0l0 0 0 0 1 1 0 0 0 0c1,2 2,2 3,2 1,0 1,0 1,2 0,2 0,2 0,3 0,0 1,0 1,1 0,1 1,2 1,2 1,2 1,3 1,3 0,1 -1,1 -2,1l0 0 0 0 0 0c0,0 0,-1 0,-1 0,0 0,0 -1,-1 -1,0 -1,-1 -1,-1 0,0 0,0 0,-1 -1,0 -2,0 -4,0 -1,0 -2,0 -2,0 -5,-1 -5,0 -6,0 0,0 -1,1 -1,1 -1,0 -1,0 -1,1l0 0c0,0 0,0 0,0l0 0 0 0c-1,0 -1,0 -2,0 0,0 -1,0 -1,-1l0 0 0 0c0,-1 0,-1 1,-1 0,0 0,0 0,-1l0 0c1,-1 1,-2 1,-2 0,-1 0,-1 2,-3zm2 2c0,0 0,0 0,0 0,0 0,0 1,-1l0 0 0 0 1 1 3 0 0 -4c-1,0 -2,0 -2,0 -1,0 -2,0 -3,0 0,0 0,0 0,1 0,0 0,0 0,1 0,0 0,1 0,1 0,1 0,1 0,2zm8 -4l0 4c2,0 2,0 2,0 0,0 0,0 0,0l0 -1 0 0 0 0c1,0 2,1 2,1 0,0 0,0 0,0 0,-1 0,-4 0,-5 0,0 -1,0 -2,0 -1,0 -2,0 -3,0zm14 16c0,0 1,0 1,-1l0 0c0,0 0,0 0,0l0 0 0 0 0 0c1,-1 1,-1 1,-1l0 0c0,0 0,0 -1,-1l0 0c0,0 -1,-1 -1,-1 -1,-1 -1,0 -2,0l0 0 0 0 0 0 0 0c-1,1 -1,1 -1,2 0,0 1,1 1,1 0,0 0,0 1,1zm-10 -2c0,0 1,1 1,1 0,0 1,1 1,1 0,0 0,0 1,-1 1,-1 1,-1 2,-2 0,0 -1,-1 -1,-1 0,0 -1,-1 -1,-1 0,0 -1,1 -1,1 0,0 -1,1 -1,1zm-5 2c0,0 1,-1 1,-1 0,0 1,-1 1,-1 0,0 0,-1 -1,-1 0,0 -1,-1 -1,-1 -1,-1 -1,0 -2,1l0 0 0 0 0 0c-1,1 -1,1 0,2l0 0 0 0 0 0c1,1 1,1 2,2zm-8 0c0,0 1,0 1,-1 0,0 1,-1 1,-1 0,0 0,-1 0,-1 0,0 -1,-1 -1,-1 -1,-1 -1,0 -1,0 0,0 0,0 -1,1 0,0 0,0 0,0 0,0 0,0 0,0 0,0 0,0 0,1l0 0 0 0 0 0c0,0 1,1 1,1zm-10 -2c0,0 1,1 1,1 0,0 1,1 1,1 0,0 1,-1 1,-1 0,0 1,-1 1,-1 0,0 0,-1 -1,-1 0,-1 -1,-1 -1,-1l0 0 0 0 0 0c0,0 -1,0 -1,1 -1,1 -1,1 -1,2zm35 2c-1,1 -1,1 -2,1l0 0 0 0c0,0 -1,0 -1,-1 -1,-1 -1,-1 -1,-2 -1,-1 0,-2 1,-3l0 0 0 0 0 0 0 0c1,-1 2,-2 3,0 0,0 1,1 1,1l0 0c1,1 1,1 1,1l0 0c0,1 0,1 -2,2l0 0 0 0 0 0c0,0 0,0 0,0zm-11 0c-1,-1 -1,-1 -1,-2l0 0 0 0c0,0 1,-1 1,-2 1,-1 1,-1 2,-2l0 0 0 0c0,0 1,1 2,1 1,1 1,1 1,2l0 0 0 0c0,0 -1,1 -2,2 -1,1 -1,1 -2,1l0 0 0 0c0,0 -1,-1 -2,-1zm-3 0c-1,1 -2,2 -2,2l0 0 0 0c-1,0 -2,-1 -3,-2l0 0 0 0 0 0c-1,-1 0,-2 0,-3l0 0 0 0 0 0c1,-1 2,-2 3,-1 0,0 1,1 1,1 0,0 1,1 1,2l0 0 0 0c0,0 -1,1 -1,2zm-8 0c-1,1 -1,1 -2,1l0 0 0 0c-1,0 -1,-1 -2,-2l0 0 0 0c-1,-1 -1,-2 0,-2 0,0 0,0 0,0l0 0c0,0 0,0 1,-1l0 0c1,-1 1,-1 3,0 0,0 1,1 1,1 0,1 1,1 1,2l0 0 0 0c0,0 -1,1 -1,2zm-11 0c-1,-1 -1,-1 -1,-2l0 0 0 0c0,0 1,-1 2,-2 1,-1 1,-1 2,-1 0,0 0,0 0,0l0 0c1,0 1,1 2,1 1,1 1,1 1,2 0,0 0,0 0,0l0 0 0 0c0,0 -1,1 -1,2 -1,1 -1,1 -2,1l0 0 0 0c0,0 -1,-1 -2,-1zm11 -49l0 0 0 0 0 0 0 0 0 0c0,0 -1,0 -1,-1l0 0 0 0 0 0c0,0 -1,-1 -1,-1 0,0 -1,-1 -2,-1 -1,0 -1,0 -2,-1 -1,-1 -1,-2 0,-3 0,0 1,-1 1,-1 0,0 1,-1 1,-1 2,-2 4,-1 4,0 0,0 0,1 1,1l0 0c0,0 0,0 0,0 1,1 3,4 1,6 0,0 0,0 0,0l0 0c0,0 0,0 0,0l-1 1zm-8 -2c0,0 0,0 0,1 0,0 0,0 0,1 0,0 0,1 0,1 0,0 0,1 0,1l2 0 0 0 0 0c1,1 1,1 1,1 0,0 1,0 1,0 0,0 1,0 1,-1l0 0 0 0c0,0 1,0 1,-1 0,0 0,0 0,0 0,0 -1,0 -2,-2 0,0 0,0 0,0l0 0c0,0 0,-1 -1,-1 0,0 0,0 -1,0l0 0c-1,0 -1,0 -2,0l-1 1zm-52 27c0,0 0,0 0,1 0,0 0,0 0,1 0,0 0,1 0,1l0 0c0,0 0,0 0,1l7 -2c1,0 1,0 2,-1 1,0 3,-1 4,-1 0,-1 0,-1 0,-2 0,-1 -1,-2 -1,-2 0,-1 0,-2 0,-3 0,-1 0,-2 0,-3 0,0 -1,0 -1,1 0,0 0,0 0,1 -1,1 -2,1 -2,0l0 0c0,0 0,0 0,0l0 0c-2,-1 -3,-1 -4,0l0 0 -1 0 0 0c-1,0 -1,1 -1,2 0,1 -1,1 -1,2 0,0 0,0 0,1l0 0c0,0 0,0 0,1l0 0 -2 3zm-2 -2c1,-1 1,-2 2,-4 1,-1 1,-3 1,-3l-1 0c-3,-1 -5,-2 -7,1 -1,1 -1,2 -1,3 0,0 0,1 0,1 0,1 0,1 1,1 0,0 1,0 1,0l0 0c0,0 0,0 1,0l0 0c1,0 1,0 2,0 0,0 1,0 1,1 0,0 0,0 0,0zm86 1c0,0 -1,0 -2,0 -1,0 -1,0 -2,0 0,0 -1,0 -1,0 -1,0 -2,0 -3,0 0,0 -1,-1 -1,-1 -1,-1 -3,-2 -4,-2 0,0 0,0 0,0 0,1 -1,1 -1,2l0 0 0 0c0,1 0,2 -1,3 -2,2 -5,2 -8,2l0 0 0 0 0 0c-1,0 -1,0 -2,0 -1,0 -3,0 -4,0 0,0 -1,0 -1,0l0 0c-1,0 -3,0 -3,0 0,0 0,1 0,1l0 0c0,0 0,1 -1,1l0 0 -5 4 0 18c7,0 17,0 26,0 4,0 8,0 11,0l0 0 2 0c0,-7 0,-15 0,-23 0,-3 0,-6 0,-9l0 0 0 0c0,0 1,-1 1,-1l0 0c0,0 0,0 0,0l0 0c0,0 0,0 0,-1 0,0 0,0 0,0 0,0 -1,0 -2,0 0,0 -1,0 -1,0l0 0c0,0 0,0 0,0l0 0c0,0 0,0 0,1l0 0c1,0 1,1 0,3l0 0 0 0zm-34 -6c1,0 1,0 2,0 1,0 2,0 3,0 0,0 0,-1 1,-1l0 0c1,-1 1,-3 2,-4 0,0 0,-1 0,-1 0,-1 0,-1 1,-2l0 0 0 0c0,1 0,2 0,3 0,2 -1,4 -1,4 0,0 0,1 0,1l0 0c0,0 0,0 0,1 -1,2 -2,2 -3,1 0,0 -1,0 -1,0 -1,0 -2,0 -3,0 -1,0 -2,0 -2,0 0,0 -1,1 -1,1 -1,1 -1,1 -2,2 -1,1 -3,2 -4,3 0,0 -1,0 -1,1 0,0 -1,0 -1,0 0,0 -1,0 -1,0 -2,1 -5,2 -7,2l0 0c-1,0 -2,0 -2,0 -1,0 -2,0 -3,0 -2,0 -4,0 -5,0 0,0 -1,0 -1,0 0,0 0,0 -1,0l-1 0c-1,0 -2,0 -2,0l0 0c0,0 -1,0 -1,-1l0 0c-1,0 -2,0 -2,1l0 0c0,0 0,0 -1,0l0 0c-1,0 -3,1 -5,1 -2,0 -4,1 -5,1 0,1 0,2 0,3 0,1 0,2 2,3 1,1 2,1 2,2 1,1 1,2 2,3l0 0 3 6 0 0c2,3 2,4 4,7 0,0 1,1 1,1 0,0 1,1 1,1 0,0 1,1 1,1 4,3 6,2 11,2 1,0 2,0 3,0 3,0 4,0 5,1 0,0 1,1 2,1 2,1 9,1 13,1 1,0 2,0 3,0 1,0 5,0 9,0 14,0 38,0 42,0 0,0 0,-1 0,-1 0,-1 0,-2 0,-3l0 -1 0 1c0,1 1,2 1,2 0,0 0,1 0,1 0,1 0,1 1,1l0 0c0,-1 0,-4 -1,-6 0,-2 -1,-5 -1,-5 0,-1 -1,-2 -2,-2 0,0 -1,-1 -1,-1 -1,-1 -1,-1 -2,-2 0,-1 -1,-1 -1,-2 0,-1 -1,-2 -1,-2 0,-1 -1,-2 -1,-2 0,0 0,-1 -1,-1 0,0 0,-1 -1,-1l0 0c-1,-1 -3,-4 -5,-6 -1,-1 -2,-2 -3,-3l0 29 0 0 0 0c-2,1 -6,1 -9,1 -1,0 -1,0 -2,0l-30 0c0,0 -1,0 -1,0 -2,0 -3,0 -4,-1l0 0 0 0c0,-2 0,-5 0,-8 0,-4 0,-9 -1,-11 0,0 0,0 -1,1 0,0 -1,1 -2,2 -1,0 -1,1 -2,1 0,0 -1,1 -2,1 -2,1 -4,2 -6,2 -2,0 -5,-1 -7,-2 -2,-1 -4,-3 -5,-5l0 0c-1,-2 -2,-4 -1,-6l0 0 0 0c1,0 2,0 2,0 0,0 1,0 1,0l0 0 0 0c1,0 2,0 3,0 3,0 5,0 7,-1 2,0 4,-1 7,-2 1,0 2,-1 3,-1 1,-1 3,-1 3,-1l1 0 0 1c0,1 -1,1 -1,2 0,0 -1,0 -1,0 0,0 0,1 0,2 0,0 0,1 0,1l0 0 0 0c0,0 -1,0 -1,0l0 0c-1,0 -1,0 -2,0 0,0 1,1 1,1 0,0 1,0 2,1l0 0c2,1 2,1 5,-2 0,0 1,-1 1,-1l0 0 0 0c1,-1 1,-1 2,-3l0 0 0 0c2,0 5,0 7,0 1,0 2,0 2,0 1,0 1,0 2,0 0,0 0,0 1,0 0,0 0,0 1,0 0,0 1,0 1,0 3,-1 3,-1 4,-4l0 -1 0 0c0,-1 0,-2 1,-2 0,-1 0,-1 -2,-4l0 0c0,0 0,-1 -1,-1 0,-1 -1,-1 -1,-2 -1,-1 -1,-2 -1,-3 0,-1 0,-2 -2,-3 -2,-1 -2,-1 -5,1l0 0c0,0 -1,0 -1,1l0 0 0 0c-2,1 -3,1 -3,5 0,1 0,2 -1,4 0,1 -1,2 -1,2 0,0 -1,1 -1,1l0 0z"/>
 </g>
</svg>
