<?xml version="1.0" encoding="UTF-8"?>
<!DOCTYPE svg PUBLIC "-//W3C//DTD SVG 1.1//EN" "http://www.w3.org/Graphics/SVG/1.1/DTD/svg11.dtd">
<!-- Creator: CorelDRAW X6 -->
<svg xmlns="http://www.w3.org/2000/svg" xml:space="preserve" width="0.83372in" height="0.83372in" version="1.1" style="shape-rendering:geometricPrecision; text-rendering:geometricPrecision; image-rendering:optimizeQuality; fill-rule:evenodd; clip-rule:evenodd"
viewBox="0 0 92 92"
 xmlns:xlink="http://www.w3.org/1999/xlink">
 <defs>
  <style type="text/css">
   <![CDATA[
    .fil0 {fill:#BC0300}
    .fil1 {fill:#E31E24;fill-rule:nonzero}
   ]]>
  </style>
 </defs>
 <g id="Layer_x0020_1">
  <metadata id="CorelCorpID_0Corel-Layer"/>
  <path class="fil0" d="M46 0c25,0 46,21 46,46 0,25 -21,46 -46,46 -25,0 -46,-21 -46,-46 0,-25 21,-46 46,-46zm4 56c0,0 1,-1 1,-1 -1,-1 -2,-1 -3,-1 0,0 -1,0 -1,0l0 0c0,0 -1,0 -1,0 0,0 -1,0 -1,0l0 0c0,0 0,0 -1,0 -1,0 -2,1 -3,2 0,0 0,0 0,0 0,0 0,0 0,0 1,1 2,0 3,0 1,0 1,0 2,0 1,0 1,0 2,0 0,0 1,0 1,0 0,0 1,0 1,0zm6 -6l0 0 0 0c0,0 1,0 1,1 0,0 0,0 1,1 0,0 0,0 1,1 0,0 0,0 0,-1 0,-1 1,-2 1,-2 0,0 0,0 0,0 -1,1 -1,1 -3,1zm-11 -9c0,1 0,1 0,1 0,1 0,1 -1,3 -1,1 -2,2 -4,3l0 0c0,0 1,0 1,0 0,-1 0,-1 1,-1l0 0c0,0 1,0 1,0 0,0 1,0 1,1l0 1 -1 0c0,0 0,0 -1,0 0,0 0,0 0,0 0,0 0,0 -1,0l0 0c0,0 0,1 0,1 0,0 0,0 0,0 0,0 1,0 1,1 0,0 0,0 0,1 0,0 0,0 0,0 0,0 0,1 1,0 0,0 0,0 0,0 0,0 0,0 0,0l0 0c0,0 0,0 1,-1 0,0 0,0 1,0 0,0 0,0 0,-1 0,0 -1,0 -1,0l0 0c0,0 0,0 0,0l-1 0 1 -1c1,-1 2,-1 2,-1 0,0 1,0 1,1 0,0 1,0 1,0 0,0 -1,-1 -1,-1 -1,-1 -2,-3 -3,-4 0,0 0,-1 0,-1 0,0 0,-1 0,-1 0,0 0,0 -1,0 0,0 -1,0 -1,0zm-18 5c0,0 0,-1 0,-2l0 0 0 0c2,0 3,-1 4,-1 1,0 1,0 1,0l0 0 0 0c0,1 0,1 -1,1l0 0c0,0 -1,0 -1,1 0,1 -1,1 -1,2 0,1 0,1 -1,1l0 0 0 0 -1 0 0 0 0 0c-1,0 -1,-1 -1,-1zm4 -6c1,0 2,1 2,1l0 0 0 0c0,1 -1,1 -1,1 0,0 0,0 0,0 0,0 -1,0 -1,0 -1,0 -3,1 -4,1 -2,0 -3,-1 -3,-4 0,-1 0,-2 0,-2 0,-1 0,-1 1,-2l0 0 0 0c0,0 1,0 1,0 0,0 0,0 0,1 0,1 1,1 2,2 1,1 1,1 2,2 0,0 1,0 2,1zm2 -4l0 0 0 5 0 0 0 0c-1,0 -2,0 -2,-1 -1,0 -2,-1 -2,-1l0 0 0 0 0 0 0 0c-2,-1 -2,-2 -2,-2 0,0 0,0 0,0 0,0 0,0 -1,-1l0 0c0,0 0,0 0,0 -1,-1 -1,-2 -1,-3 0,-1 0,-2 0,-3 0,-1 1,-2 2,-2 1,-1 1,-1 2,-1l0 0 0 0c0,1 1,1 1,2 0,0 0,1 1,1l0 0 2 3c0,0 0,1 1,1l0 0 0 0c0,0 0,0 0,0 0,0 1,1 0,2zm2 -6l-1 5 0 0 0 0c0,0 -1,-1 -1,-1 0,0 0,-1 -1,-1l0 0 0 -1 0 0 0 0c0,-1 -1,-2 -1,-3 -1,-1 -1,-2 -2,-3l0 0 0 0 0 0 0 0 0 0 -1 -1 0 0 0 0c0,0 0,0 0,0 0,0 0,0 0,0 0,0 0,0 0,-1 0,-1 0,-1 1,-2 0,0 1,-1 2,-1 1,0 2,-1 3,-1l0 0 0 0c0,1 0,1 1,3l0 0c0,1 0,2 1,3l0 0 1 4 0 0 0 0zm2 -5c0,1 -1,2 -1,3l0 0 0 0 0 0 0 0c0,0 0,0 0,0 0,0 0,0 0,0 0,0 0,0 0,0 0,0 0,-1 0,-1 0,-2 -1,-4 0,-6 1,-3 3,-3 5,-3 0,0 0,0 1,0l1 0 0 0 0 0c0,0 0,1 0,1 0,0 0,0 0,1l-1 3c0,1 -1,2 -1,3 0,1 -1,1 -1,1l0 0 0 0zm-2 15l-1 1 0 0 0 0c0,-2 0,-4 1,-6 1,-3 1,-6 2,-8 0,0 0,0 0,0 0,0 0,0 0,0 0,-1 1,-1 1,-1 0,0 0,-1 0,-1l1 -2c0,0 0,0 0,0 0,0 0,0 0,0 0,-1 1,-2 1,-3l0 0 0 0 0 0 0 0 0 0c0,0 0,-1 1,-1 0,0 0,0 1,-1 2,-1 3,-1 3,-1 1,2 1,7 0,9l0 0c0,1 -1,4 -2,7 -1,3 -2,6 -3,7l0 0c0,0 0,0 0,0 0,1 0,1 -1,1 0,0 -1,0 -1,0 -1,0 -2,0 -3,1zm10 -24c0,0 0,-1 0,-1l0 0 0 0c1,0 2,-1 2,-1 1,0 1,0 2,1l0 0 0 0c0,0 1,1 1,1 0,0 0,1 1,1 1,2 0,4 0,5 0,0 0,1 0,1 0,1 0,2 0,3 0,1 -1,2 -1,3l-1 3c-1,2 -2,4 -3,6 0,0 -1,1 -1,1l0 0 0 0c-1,0 -1,0 -2,0l0 0c-1,0 -1,0 -1,0l0 0c0,0 0,0 -1,0l0 0 0 0c0,-1 0,-1 1,-2 0,0 0,0 0,-1l0 0 1 -2 0 0c0,-1 1,-3 1,-4l0 -1 0 0c1,-2 1,-4 2,-6 0,-2 1,-4 0,-7 0,0 0,-1 0,-1zm7 2c0,0 0,-1 0,-1l0 0 0 0c1,-1 2,-1 3,-1 1,0 2,1 3,1l0 0 0 0 0 1c0,0 0,0 1,0l0 0c0,0 0,1 0,1 0,1 -1,3 -2,4 -1,1 -2,2 -3,3l0 0c-1,1 -2,1 -3,2l0 0 0 0c0,-1 0,-2 0,-3 0,-1 0,-1 0,-2 0,-3 0,-3 0,-4zm0 16c-1,1 -3,1 -3,1l0 0 0 0c0,0 0,0 0,0 0,0 0,0 0,0l2 -4c0,0 0,0 0,-1l0 0c0,0 0,0 0,-1l0 0c0,0 0,0 0,0 0,0 0,0 0,0l0 0 0 0 5 -3c1,-1 2,-2 3,-3 1,-1 1,-2 1,-4l0 0 0 0c1,1 1,2 1,3 0,1 0,3 -1,3 0,0 0,0 0,0l0 0 0 0 0 0c0,1 -1,2 -1,2 0,0 0,1 -1,1 0,0 -1,1 -1,2l0 0c-1,1 -1,1 -1,2 0,0 0,0 0,0l0 0c0,0 0,0 0,0l0 0c-1,1 -2,2 -4,2zm-3 6c-1,0 -2,0 -3,0l0 0 0 0 2 -3 0 0c1,-1 3,-1 4,-1 0,0 0,0 0,0 1,0 3,0 4,1 0,0 0,0 0,0l0 0c0,0 1,0 1,1l0 0c1,1 1,2 1,2l0 0 0 0c0,0 -1,0 -1,0 -1,0 -1,0 -2,0 -1,0 -1,0 -1,0 0,0 -1,0 -1,0 -1,0 -2,0 -3,0zm4 -4c-1,0 -2,0 -2,0l0 0 0 0c0,0 0,0 1,0 0,0 0,0 0,0 0,0 1,0 1,-1 1,0 1,-1 2,-1l3 -3 0 0 0 0c0,0 0,0 0,0l0 0c0,0 0,0 0,0l0 0c0,0 0,0 0,0l0 0 0 0 0 0 0 0 1 -2 0 0c0,0 0,0 0,-1l0 0c0,0 0,0 0,0l0 0c1,-1 1,-2 1,-3 0,-1 0,-2 0,-4l0 0 0 0c1,0 1,1 2,1 1,0 1,1 1,1l0 0c1,0 1,1 1,1 0,0 1,1 1,1 0,0 0,1 1,1 1,2 0,3 -1,5 -1,1 -2,2 -4,3 -1,1 -3,1 -4,2 -1,0 -1,0 -2,1 -1,0 -1,0 -2,0 -1,0 -2,0 -3,0zm11 1c-2,0 -5,0 -6,0l0 0 1 0 2 -1 0 0c1,0 1,0 2,-1l0 0c0,0 1,0 1,-1 0,0 0,0 1,0 1,0 2,-1 3,-2 1,-1 1,-1 2,-2 1,-2 1,-3 1,-4 0,0 0,-1 0,-1l0 0 0 0c0,0 1,0 1,0 0,0 1,0 1,1 0,1 0,1 0,1 0,0 0,0 0,0 0,0 0,0 0,0 0,0 0,0 0,0l0 0 0 0c0,0 0,1 0,2 0,1 0,2 -1,2 0,1 0,1 0,1l0 0c-1,1 -1,1 -1,1 0,0 0,0 -1,0 -1,1 -4,2 -6,2zm-1 6l-1 0 0 0 0 0c0,0 0,0 0,-1l0 0c0,0 0,-1 0,-1l0 0c0,0 0,0 0,0 0,0 0,0 0,0 0,0 0,0 0,0l0 0c0,0 0,0 0,0l0 0 -1 -1 0 0c0,0 -1,-1 -1,-1 0,0 0,-1 -1,-1l0 0 0 0c1,0 1,0 2,0 1,0 1,0 2,0 1,0 1,0 2,0 1,0 1,0 1,0l0 0 0 0c0,0 0,0 1,1 0,0 0,0 1,1 2,1 4,0 5,0 1,0 1,0 2,0 0,0 0,0 0,1 0,0 0,1 0,2 0,1 0,1 -1,2 -1,1 -1,2 -2,2 -1,0 -1,0 -2,0 -1,0 -1,0 -2,0l0 0 0 0 0 0 0 0 0 0 0 0 0 0 0 0 0 0c0,0 0,0 0,0l0 0 0 0c0,0 0,0 0,0 0,0 0,0 0,0 0,0 0,0 0,0 -1,-1 -1,-1 -1,-1l0 0 0 0zm5 3l0 0 0 0 0 0c0,1 0,1 -1,1l0 0 0 0 0 0c-1,1 -2,2 -4,2 0,0 -1,0 -1,0 0,0 0,0 -1,-1 0,0 0,0 0,0l0 0c0,1 0,2 -1,3 0,0 0,1 0,1l0 0 0 0c-1,0 -1,0 -1,-1 0,0 0,0 -1,0 0,0 -1,0 -1,-1l0 0c0,0 -1,0 -1,0l0 0c-1,0 -1,-1 -2,-1 -1,0 -2,0 -3,0l0 0 0 0c0,0 0,1 -1,1 0,0 0,0 -1,1 0,0 0,0 0,0l0 0c0,0 0,0 0,0 0,0 0,1 -1,1 -1,0 -1,0 -1,0l0 0 0 0c0,0 0,0 1,0 0,0 1,0 1,0l0 0c0,0 1,0 1,0 1,0 3,1 5,2 2,1 4,3 5,4 0,0 1,1 1,1 1,1 1,2 4,3 2,1 5,0 7,-1 1,-1 2,-2 3,-3 1,-1 1,-2 1,-4 0,-1 -1,-3 -2,-4 0,0 0,0 0,0 -1,-1 -2,-1 -3,-1 -1,0 -2,0 -2,1 0,0 0,0 0,0 0,0 0,0 0,0 -1,1 -1,2 0,3 0,1 1,2 1,3l0 0c0,0 0,0 0,0l1 0 -1 0c-1,0 -2,0 -2,0 -1,-1 -2,-2 -3,-2l0 0 0 0c0,0 0,-1 1,-1 0,0 0,0 1,-1 0,0 0,0 0,-1 0,0 0,0 0,-1l0 0c0,0 0,0 0,-1l0 0c0,0 0,0 0,-1l0 0c0,0 0,-1 0,-1 0,-1 0,-1 1,-2l0 0c1,-1 3,-2 3,-3 1,-1 1,-1 1,-1 0,0 0,0 1,0 1,-1 2,-2 3,-3 0,-1 0,-2 0,-4 -1,-1 -1,-2 -1,-3 0,0 0,-1 0,-1 -1,-1 -1,-1 0,-2 0,0 0,0 0,-1 0,-1 0,-2 1,-3 0,-1 0,-2 0,-2l0 0c0,-1 -1,-1 -1,-2 -1,0 -1,-1 -2,-1l0 0 0 0c0,-1 -1,-1 -1,-1 -1,-1 -1,-2 -4,-4 0,0 -1,0 -1,0 -1,0 -1,0 -1,-1 0,0 -1,-1 -1,-1l0 0c0,0 -1,0 -1,-1l0 0c0,0 -1,-1 -1,-1 0,0 -1,0 -1,-1 -2,-1 -4,0 -5,0 0,0 -1,0 -1,0l0 0 0 0c0,0 0,0 -1,-1 -1,-1 -1,-1 -2,-1 -2,0 -2,0 -3,0l0 0c0,0 -1,1 -2,0 -1,0 -2,0 -2,0 0,0 -1,0 -2,1 -1,0 -1,0 -2,0 -2,0 -4,0 -5,3l0 0c0,0 0,0 0,0l0 0c0,0 0,1 -1,1l0 0c0,0 0,0 -1,0 0,0 -1,0 -2,1 -4,1 -4,3 -3,5l0 0 0 1 0 0 0 0c0,0 -1,1 -1,1 -1,1 -2,1 -2,3 -1,2 0,4 0,5l0 0c0,1 0,1 0,1 0,0 0,0 0,1 -1,2 -2,5 0,7 0,0 1,0 1,1l0 0c0,0 1,0 1,0l0 0 0 0c0,0 0,1 0,1 0,1 0,2 3,3l0 0 0 0c0,1 0,2 1,3 0,1 1,1 2,1l0 0 0 0 0 2 0 0 0 0c0,0 -1,1 -1,1 -1,1 -2,2 -5,2l-1 0 1 -1 0 0 0 0c0,0 3,-3 1,-6 -1,-1 -2,-2 -3,-2 -1,0 -1,0 -2,0l0 0c-1,0 -1,1 -2,1l0 0c-1,1 -2,3 -1,5 0,1 1,2 1,2 1,1 2,3 4,3 2,1 4,1 6,0 1,0 2,-1 3,-1 0,0 1,-1 1,-2l0 0c0,0 0,-1 1,-1l0 0c1,-1 3,-3 4,-4 2,-1 3,-2 5,-3 1,0 1,0 1,0 0,0 -1,-1 -1,-1 0,0 0,0 0,0 0,0 0,0 0,0 0,0 0,0 -1,0 0,0 0,0 -1,0 0,0 -1,0 -1,-1l0 0c-1,0 -1,0 -1,0 -1,0 -2,0 -3,0 -1,0 -2,1 -2,1 0,0 -1,0 -1,1l0 0 0 0c0,0 0,0 0,-1 0,-1 -1,-1 -1,-2l0 -1 1 0c0,0 1,0 1,0 0,0 1,0 1,0 1,0 3,0 5,-1 2,-1 3,-2 4,-3 1,-1 1,-2 1,-2 0,0 0,-1 0,-2l0 0 0 0c0,0 1,0 2,0 1,0 1,0 1,1 0,0 0,1 0,2 0,0 0,1 0,1 0,1 1,3 3,3 1,1 3,2 4,2 2,0 3,0 3,-1 0,0 1,-1 1,-1l0 0c0,0 0,-1 0,-1 1,-1 1,-1 1,-2l0 0 0 -1 0 0 0 0c0,0 0,0 1,0 0,0 0,0 1,0 1,1 2,1 4,2zm-32 17c0,0 0,0 0,0 0,0 -1,1 -1,1 -1,1 -2,1 -3,1 -2,1 -4,0 -6,0 -2,-1 -3,-2 -4,-4 -1,-1 -1,-2 -1,-3 -1,-2 0,-4 1,-6l0 0c1,-1 1,-1 2,-2l0 0c1,0 2,-1 3,-1 1,0 3,1 3,2 2,3 0,5 -1,6 1,0 2,-1 3,-2 0,0 1,-1 1,-1l0 -1c-1,0 -2,-1 -2,-2 -1,-1 -1,-2 -1,-3 -3,-1 -3,-3 -3,-3 0,0 0,0 0,-1 0,0 -1,0 -1,0l0 0c-1,0 -1,0 -2,-1 -3,-2 -1,-7 0,-8 0,0 0,0 0,0 0,0 0,-1 0,-1l0 0c0,-1 -1,-3 0,-5 1,-2 2,-2 3,-3 0,0 0,0 1,-1l0 0 0 0c0,-3 -1,-4 4,-6 1,0 2,0 2,-1 0,0 0,0 1,0l0 0c0,0 0,0 0,0l0 0c0,0 0,0 0,0l0 0c1,-3 4,-3 6,-3 1,0 1,0 2,0 1,0 1,0 1,-1 1,0 1,-1 3,-1 0,0 1,0 1,0l0 0c1,0 1,-1 3,-1 1,0 2,1 3,1 0,0 0,0 0,0 0,0 0,0 1,0 1,0 3,-1 5,0 0,0 1,0 1,1 0,0 1,1 1,1l0 0c0,0 1,1 1,1l0 0c0,0 1,0 1,1 0,1 1,1 1,1 0,0 1,0 1,0 3,2 3,2 4,4 0,0 1,1 1,1 1,0 2,0 3,1 1,0 1,1 2,2l0 0c0,1 0,2 0,3 0,1 0,2 -1,3 0,0 0,1 0,1 0,0 0,0 0,1 0,1 0,1 0,1 0,1 0,1 1,2 1,1 1,3 0,4 -1,2 -2,3 -3,4 -1,0 -1,0 -1,0 0,0 0,0 -1,1 -1,1 -3,2 -4,3l0 0c0,0 0,1 -1,1 0,0 0,1 0,1l0 0c0,0 0,0 0,1l0 0c0,0 0,0 0,0l0 0c0,0 0,0 0,1 0,0 0,0 0,1 0,1 -1,1 -1,1 0,0 0,0 0,0 0,0 1,1 2,2 0,0 1,0 1,0 -1,-1 -1,-2 -1,-3 0,-1 0,-3 1,-4 0,0 0,0 0,0 0,0 0,0 0,0 1,-1 2,-1 3,-2 1,0 2,0 3,1 0,0 0,0 0,0 2,1 2,3 3,5 0,1 0,3 -1,4 -1,1 -2,2 -3,3 -2,1 -5,2 -8,2 -2,0 -3,-1 -3,-2 0,1 1,2 1,2 0,0 0,0 0,1l0 0 0 0c0,0 -1,0 -1,0 0,0 0,0 0,1l0 0 0 0 0 0c0,1 0,2 0,2 0,1 -1,1 -1,2 -3,3 -5,3 -8,4 -1,0 -2,0 -2,1 0,1 -1,1 -1,1l0 0c0,0 0,1 -1,1 -1,0 -2,0 -4,-1 -2,-1 -3,-4 -4,-5 0,-1 -1,-1 -1,-2 0,0 -1,-1 -1,-2l0 0c-1,-1 -1,-2 -1,-2 0,-1 0,-1 0,-2 0,0 -1,0 -1,0l0 0 0 0c0,-1 0,-1 1,-2 0,0 1,-1 1,-1z"/>
  <path class="fil1" d="M35 51c0,0 0,0 -1,0 -1,0 -1,0 -1,-1l0 0c0,0 0,1 1,1 0,0 0,0 0,0 0,0 0,0 0,0 0,0 0,0 1,0z"/>
 </g>
</svg>
