<?xml version="1.0" encoding="UTF-8"?>
<!DOCTYPE svg PUBLIC "-//W3C//DTD SVG 1.1//EN" "http://www.w3.org/Graphics/SVG/1.1/DTD/svg11.dtd">
<!-- Creator: CorelDRAW X6 -->
<svg xmlns="http://www.w3.org/2000/svg" xml:space="preserve" width="21.1905mm" height="21.1906mm" version="1.1" style="shape-rendering:geometricPrecision; text-rendering:geometricPrecision; image-rendering:optimizeQuality; fill-rule:evenodd; clip-rule:evenodd"
viewBox="0 0 618 618"
 xmlns:xlink="http://www.w3.org/1999/xlink">
 <defs>
  <style type="text/css">
   <![CDATA[
    .fil0 {fill:#BC0300}
   ]]>
  </style>
 </defs>
 <g id="Layer_x0020_1">
  <metadata id="CorelCorpID_0Corel-Layer"/>
  <path class="fil0" d="M309 0c170,0 309,138 309,309 0,171 -138,309 -309,309 -171,0 -309,-138 -309,-309 0,-171 138,-309 309,-309zm25 380c2,-2 3,-4 4,-6 -6,-4 -12,-6 -17,-7 -3,0 -4,0 -6,0l0 0c-2,0 -3,1 -8,1 -3,0 -5,-1 -6,-2l0 0c-1,0 -2,-1 -6,0 -8,2 -15,6 -23,11 1,1 1,1 1,2 0,0 0,0 1,0 4,4 11,3 18,0 4,-1 9,-2 13,-3 6,0 10,1 14,2 3,1 5,2 8,2 3,0 5,-1 7,-2l-1 0zm-34 -96c0,4 -1,6 -1,9 0,6 0,10 -5,19 -4,9 -14,17 -24,22l3 0c2,0 4,0 7,0 2,-4 3,-6 8,-7l0 0c3,-1 6,0 9,0 3,1 4,3 5,6l1 5 -5 -1c-3,-1 -3,-1 -4,-2 0,0 0,0 -1,0 -2,0 -2,0 -3,0l0 0c-2,3 -1,4 1,6 1,1 2,1 3,2 2,1 3,2 5,3 1,1 2,3 2,4 0,1 0,1 1,2 1,2 3,4 9,2 2,-1 2,-2 3,-3 0,-1 1,-1 1,-2l0 0c1,-1 3,-3 5,-4 1,-1 3,-2 4,-3 1,-1 2,-3 0,-4 -1,-2 -4,-1 -6,0l0 0c0,0 -1,0 -2,0l-7 2 4 -6c5,-8 11,-7 15,-4 2,1 4,3 5,4 3,0 6,0 9,0 -3,-2 -6,-4 -9,-6 -9,-7 -17,-17 -19,-26 -1,-3 0,-7 0,-10 0,-3 0,-6 0,-7 -1,-1 -3,-1 -5,-1 -3,0 -6,1 -8,2l0 0zm72 57l1 1 0 0c2,1 4,3 6,4 2,1 3,3 4,3 1,1 3,3 5,3 0,-2 1,-3 2,-5 2,-5 3,-11 4,-15 -1,1 -2,1 -3,2 -5,3 -9,7 -19,7l0 0zm-134 0c-2,0 -3,0 -5,-1 -3,-1 -6,-2 -8,-3l-1 -1c0,3 2,5 3,7 0,1 1,2 2,3 1,0 2,-1 3,-2 1,-1 3,-2 5,-3l0 0zm99 -224c0,0 26,-11 37,-3 11,8 29,24 29,24 0,0 31,25 37,34 6,10 21,6 23,18 2,13 -11,17 -3,31 8,13 22,40 7,56 -15,16 -46,43 -54,44 -8,1 -17,-6 -17,-19 0,-13 -2,-41 -21,-41 -19,0 -56,-4 -67,-3 -12,1 -54,1 -69,7 -15,6 -23,27 -27,35 -4,8 -17,19 -27,7 -9,-12 -27,-28 -27,-28 0,0 8,-33 7,-41 -1,-8 5,-52 15,-54 10,-2 -1,-31 39,-39 41,-8 27,-22 53,-25 26,-4 64,-2 64,-2zm63 209l0 0c0,7 -3,15 -5,23 -1,3 -2,6 -3,8l-1 3 -3 0c-4,-1 -7,-3 -10,-6 -1,-1 -3,-2 -4,-3 -2,-1 -4,-2 -6,-3l0 0c-2,-1 -4,-2 -6,-3l0 0c-5,-2 -10,-3 -15,-4 -5,0 -11,0 -17,0l-1 0 0 0c0,3 -1,4 -3,6 -1,1 -3,3 -5,3 -1,1 -3,2 -3,2l0 0c0,1 -1,1 -1,2 -1,3 -3,4 -6,6 -4,2 -7,3 -9,2l1 0 0 0c1,0 2,1 4,1 3,0 4,0 5,0l0 0c2,-1 4,-1 9,-1 9,1 20,8 32,15 14,9 27,21 33,29 2,3 4,6 6,8 6,9 9,14 26,18 17,4 33,0 46,-9 8,-6 14,-13 19,-20 4,-8 7,-16 6,-25 0,-10 -5,-20 -15,-28 0,0 -1,-1 -2,-1 -6,-4 -12,-6 -19,-6 -6,0 -12,3 -16,9 0,0 -1,1 -1,1 0,0 -1,1 -1,1 -3,6 -4,13 -3,20 1,7 4,14 10,17l0 0c0,0 1,0 1,1l4 3 -4 3c-4,3 -10,2 -17,-1 -8,-4 -17,-11 -19,-14l-1 -1 1 -2c1,-3 3,-4 4,-5 2,-1 3,-3 4,-7 0,-2 0,-3 0,-4 0,-2 0,-3 1,-6l0 0c0,-1 1,-3 2,-4l0 0c1,-1 1,-2 2,-3l0 0c1,-2 1,-4 1,-6 1,-5 1,-8 6,-11l0 0c8,-4 19,-11 23,-17 4,-7 4,-7 7,-8 1,0 3,-1 6,-3 8,-5 15,-12 19,-21 3,-8 3,-16 -1,-24 -5,-9 -6,-14 -6,-19 0,-3 0,-4 -2,-7 -4,-7 -3,-8 -1,-12 0,-1 1,-3 2,-5 2,-6 3,-12 3,-19 0,-6 0,-12 -2,-16l0 0c-2,-6 -5,-10 -8,-12 -4,-3 -9,-4 -15,-4l-1 0 -1 -1c-3,-4 -6,-7 -7,-10 -7,-10 -8,-12 -28,-24 -2,-1 -4,-2 -5,-3 -3,-2 -6,-3 -9,-8 -2,-3 -3,-4 -5,-5l0 0c-2,-1 -3,-3 -7,-6l0 0c-2,-2 -4,-4 -6,-5 -2,-1 -5,-3 -7,-3 -14,-6 -25,-1 -32,2 -3,1 -5,2 -6,2l-1 0 -1 -1c-1,-1 -3,-2 -4,-3 -4,-4 -9,-8 -16,-9 -11,-2 -14,1 -17,3l0 0c-3,2 -5,4 -10,3 -7,-1 -10,1 -14,3 -3,1 -6,3 -10,4 -4,1 -8,1 -13,2 -12,1 -26,2 -34,17l0 0c-1,1 -1,2 -2,3l0 0c-2,3 -2,4 -4,6l0 0c-1,1 -3,1 -5,2 -3,0 -7,2 -13,4 -27,9 -26,18 -23,33l0 0 0 3 0 1 -1 1c-2,2 -4,4 -6,6 -6,4 -12,9 -16,19 -6,13 -3,24 0,32l0 0c1,4 2,6 1,9 0,1 -1,3 -2,5 -4,10 -15,37 0,50 3,3 6,3 10,4l0 0c3,0 6,1 8,3l0 0 0 0c2,2 3,5 3,7 1,5 2,12 20,20l2 1 0 2c0,7 1,14 4,20 3,5 7,8 12,9l2 0 0 2 2 10 0 2 -2 1c-3,2 -6,5 -9,7 -7,7 -15,14 -31,14l-7 0 6 -5 0 0 0 0c1,-1 21,-18 8,-40 -5,-7 -11,-11 -18,-11 -5,0 -10,1 -14,3l0 0c-5,2 -9,6 -13,10l0 0c-7,9 -11,21 -7,35 1,6 4,11 7,16 6,9 16,17 28,23 11,5 24,6 37,3 6,-2 13,-5 19,-9 3,-2 7,-7 10,-11l0 0c1,-2 3,-3 4,-5l0 0c7,-9 17,-18 28,-27 11,-9 23,-16 35,-19 3,-1 6,-1 7,-1 -3,-1 -4,-3 -5,-6 0,-1 -1,-2 -1,-2 0,-1 -1,-2 -1,-3 0,-1 -2,-1 -3,-2 -1,-1 -3,-1 -4,-3 -2,-1 -3,-3 -4,-5l-1 0c-4,0 -6,0 -9,0 -7,0 -12,-1 -21,2 -8,3 -13,5 -16,7 -3,2 -5,3 -7,3l-2 0 -1 -2c-1,-2 -2,-3 -3,-4 -3,-5 -5,-8 -5,-15l0 -4 3 1c3,1 5,2 7,3 2,1 3,2 6,3 9,2 20,0 31,-5 11,-5 20,-13 24,-20 4,-8 4,-12 4,-16 0,-3 0,-6 1,-12l0 -1 1 -1c2,-1 7,-3 12,-3 3,0 7,1 9,3 2,3 2,7 2,12 0,3 0,6 0,8 2,9 9,17 17,23 9,6 19,11 29,12 13,1 18,-2 23,-6 3,-2 5,-4 9,-5l3 -1 2 4zm-23 82c2,7 3,9 4,10 1,1 2,2 2,5l0 2 -2 0c-2,0 -3,0 -5,-1 1,1 1,2 2,4l1 2 -2 0 -2 0c0,4 0,8 -1,12 -1,4 -3,8 -6,11 -13,15 -29,18 -40,21 -6,1 -10,2 -12,4 -2,3 -3,5 -4,6l0 0c-1,2 -1,3 -4,4 -6,3 -12,0 -19,-5 -9,-7 -17,-19 -20,-25 -2,-4 -5,-7 -8,-10 -2,-3 -5,-5 -7,-8l0 0c-3,-4 -5,-8 -7,-12 -1,-3 -2,-6 -1,-10 -1,1 -3,2 -5,2l-2 0 0 -2c0,-1 0,-3 1,-4l3 -4 0 0c1,-1 3,-3 3,-5 5,-3 45,-26 72,-19 28,7 58,22 58,22z"/>
 </g>
</svg>
