<?xml version="1.0" encoding="UTF-8"?>
<!DOCTYPE svg PUBLIC "-//W3C//DTD SVG 1.1//EN" "http://www.w3.org/Graphics/SVG/1.1/DTD/svg11.dtd">
<!-- Creator: CorelDRAW X6 -->
<svg xmlns="http://www.w3.org/2000/svg" xml:space="preserve" width="21.1905mm" height="21.1906mm" version="1.1" style="shape-rendering:geometricPrecision; text-rendering:geometricPrecision; image-rendering:optimizeQuality; fill-rule:evenodd; clip-rule:evenodd"
viewBox="0 0 4147 4147"
 xmlns:xlink="http://www.w3.org/1999/xlink">
 <defs>
  <style type="text/css">
   <![CDATA[
    .fil0 {fill:#BC0300}
   ]]>
  </style>
 </defs>
 <g id="Layer_x0020_1">
  <metadata id="CorelCorpID_0Corel-Layer"/>
  <path class="fil0" d="M2074 0c1144,0 2074,927 2074,2074 0,1144 -927,2074 -2074,2074 -1144,0 -2074,-927 -2074,-2074 0,-1144 927,-2074 2074,-2074zm-370 1883c114,0 206,65 206,146 0,81 -92,146 -206,146 -114,0 -206,-65 -206,-146 0,-81 92,-146 206,-146zm700 0c114,0 206,65 206,146 0,81 -92,146 -206,146 -114,0 -206,-65 -206,-146 0,-81 92,-146 206,-146zm-161 666c14,-11 23,-26 29,-40 -43,-26 -83,-43 -114,-46 -20,-3 -29,0 -37,3l0 0c-11,3 -23,9 -51,6 -20,-3 -31,-6 -40,-11l0 0c-9,-3 -14,-6 -40,0 -51,11 -103,37 -152,72 6,6 6,9 6,14 0,0 0,-3 6,3 26,29 72,17 123,3 29,-9 57,-14 86,-17 43,-3 66,6 92,14 17,6 34,11 54,11 17,0 31,-6 46,-14l-6 3zm-226 -646c-3,26 -6,43 -6,60 0,37 0,66 -31,126 -29,57 -92,112 -163,149l23 3c14,0 29,3 46,3 11,-29 20,-40 54,-49l0 0c20,-6 40,-3 57,3 17,6 29,20 31,40l9 31 -31 -9c-17,-6 -23,-9 -26,-11 0,0 0,0 -6,-3 -14,-3 -14,-3 -23,3l-3 0c-11,17 -6,29 6,37 6,6 14,9 20,14 11,9 23,14 31,23 6,9 11,17 14,29 3,6 3,9 6,14 9,14 20,29 57,11 11,-6 14,-11 23,-23 3,-6 6,-9 9,-14l0 0c6,-9 20,-17 31,-26 9,-6 20,-11 26,-20 9,-9 11,-17 0,-29 -9,-11 -29,-6 -40,0l0 0c-3,0 -9,3 -11,3l-46 11 26 -40c31,-54 72,-49 103,-29 14,9 26,20 34,29 20,-3 40,-3 60,-3 -23,-11 -43,-26 -63,-40 -63,-49 -112,-114 -129,-177 -6,-20 -3,-46 -3,-69 3,-23 3,-43 0,-49 -6,-6 -17,-9 -31,-9 -20,0 -40,6 -54,11l0 -3zm483 383l9 6 0 0c14,9 29,17 43,26 11,9 20,17 29,23 9,9 20,17 31,23 3,-11 6,-23 11,-34 11,-34 23,-72 29,-103 -9,6 -14,9 -23,14 -31,23 -63,46 -129,46l0 0zm-901 3c-11,0 -20,-3 -31,-6 -23,-6 -37,-14 -51,-23l-9 -6c3,20 11,31 23,49 3,6 6,11 11,17 6,-3 14,-9 23,-14 9,-6 20,-14 34,-20l0 3zm664 -1503c0,0 175,-72 247,-17 72,55 196,161 196,161 0,0 211,166 250,230 39,64 142,38 155,123 14,85 -75,116 -19,206 57,90 151,268 50,378 -101,109 -309,286 -362,294 -53,8 -112,-42 -112,-128 0,-86 -17,-277 -144,-277 -127,0 -373,-28 -452,-19 -79,9 -365,8 -465,48 -101,40 -153,184 -181,234 -28,50 -117,129 -179,50 -62,-79 -178,-189 -178,-189 0,0 54,-225 49,-278 -5,-54 32,-352 98,-365 66,-13 -10,-207 263,-262 273,-56 182,-145 353,-170 171,-29 431,-16 431,-16zm426 1403l0 0c3,49 -17,103 -31,152 -6,20 -11,37 -17,51l-6 17 -17 -3c-29,-6 -49,-23 -66,-40 -9,-9 -17,-14 -26,-20 -11,-9 -26,-14 -40,-23l0 0c-14,-6 -29,-14 -43,-20l0 0c-34,-14 -69,-23 -103,-29 -34,-3 -72,-3 -114,3l-9 0 0 0c0,17 -9,29 -23,43 -9,9 -20,17 -31,23 -9,6 -17,11 -20,14l0 0c-3,6 -6,9 -9,14 -9,17 -17,26 -37,37 -26,14 -46,17 -60,14l6 3 0 0c6,3 11,6 26,6 17,0 26,-3 34,-3l0 0c14,-6 26,-9 57,-6 57,9 137,51 215,103 92,63 180,143 220,195 14,20 26,37 37,54 40,60 63,94 177,123 112,29 223,-3 312,-63 51,-37 97,-86 129,-137 29,-51 46,-109 43,-166 -3,-69 -34,-134 -103,-189 -3,-3 -9,-6 -11,-9 -40,-29 -83,-40 -126,-37 -40,3 -80,23 -109,57 -3,3 -6,6 -6,9 -3,3 -6,6 -6,9 -23,40 -29,89 -23,137 9,46 29,92 66,114l0 0c3,3 6,3 9,6l26 17 -26 17c-29,20 -69,11 -112,-9 -54,-26 -112,-72 -126,-94l-6 -9 6 -11c9,-17 17,-26 29,-34 11,-9 23,-20 29,-46 3,-11 3,-20 3,-29 0,-11 0,-23 6,-37l0 0c3,-9 9,-17 14,-26l0 0c6,-9 9,-14 11,-23l0 0c6,-14 6,-26 9,-37 6,-31 9,-54 43,-74l3 -3c51,-29 129,-72 152,-114 26,-46 29,-46 49,-54 9,-3 17,-6 40,-17 54,-31 103,-83 126,-143 20,-51 20,-109 -9,-163 -34,-63 -37,-97 -37,-126 0,-17 -3,-29 -11,-46 -26,-46 -23,-51 -9,-77 3,-9 9,-17 14,-34 11,-37 23,-80 23,-126 3,-37 -3,-77 -14,-109l0 0c-14,-40 -31,-66 -54,-83 -26,-17 -57,-26 -103,-29l-9 0 -6 -6c-20,-29 -37,-49 -49,-66 -46,-66 -54,-77 -186,-163 -14,-9 -26,-14 -34,-17 -23,-11 -40,-20 -63,-51 -14,-20 -23,-29 -34,-34l0 0c-11,-9 -23,-17 -46,-43l0 0c-14,-14 -26,-26 -40,-34 -14,-9 -31,-17 -49,-23 -94,-37 -166,-9 -212,11 -17,9 -31,14 -43,14l-9 0 -6 -6c-9,-9 -20,-14 -29,-23 -29,-26 -57,-51 -109,-57 -74,-11 -97,6 -114,20l0 0c-17,14 -34,26 -69,20 -49,-6 -69,6 -94,20 -17,9 -40,20 -69,26 -26,6 -54,9 -86,11 -83,6 -172,14 -226,117l0 0c-6,9 -9,14 -11,20l0 0c-11,20 -14,29 -29,37l0 0c-9,6 -17,6 -34,11 -17,3 -46,11 -89,26 -183,60 -174,120 -154,220l0 0 3 23 3 9 -6 6c-14,14 -29,26 -43,37 -37,29 -77,63 -106,129 -37,89 -17,163 -3,215l0 0c6,26 11,43 9,60 0,6 -6,17 -11,31 -29,69 -100,249 3,338 20,17 43,20 66,26l0 0c20,3 37,6 54,17l0 0 0 0c14,14 17,31 20,49 6,31 11,77 134,134l11 6 0 11c0,49 9,94 29,132 17,31 46,51 83,60l11 3 3 11 14 69 3 11 -11 9c-20,14 -37,31 -57,49 -49,49 -100,97 -206,94l-49 0 37 -34 0 0 0 0c6,-6 140,-123 51,-266 -31,-49 -74,-72 -120,-74 -31,-3 -66,6 -94,20l0 0c-31,14 -60,37 -86,69l0 0c-49,57 -72,140 -49,235 9,37 26,72 49,106 43,63 109,117 186,152 74,31 163,43 249,20 43,-11 86,-31 126,-60 20,-14 46,-49 66,-74l0 0c9,-11 17,-23 26,-31l0 0c49,-57 114,-123 186,-183 72,-60 154,-109 232,-126 23,-6 37,-6 49,-6 -17,-9 -26,-23 -34,-40 -3,-6 -6,-11 -6,-14 -3,-9 -6,-14 -9,-17 -3,-6 -14,-9 -23,-14 -9,-6 -17,-9 -26,-17 -11,-9 -23,-20 -29,-34l-6 0c-26,0 -43,-3 -60,-3 -49,-3 -77,-6 -143,14 -54,17 -86,34 -109,49 -17,11 -31,20 -49,23l-14 3 -6 -11c-6,-11 -11,-20 -17,-29 -20,-31 -31,-51 -31,-100l0 -26 23 6c20,6 31,11 46,20 11,6 23,14 40,17 60,14 137,-3 206,-34 72,-34 134,-86 160,-137 26,-51 26,-77 26,-109 0,-20 0,-43 6,-77l3 -9 9 -6c14,-9 49,-20 80,-20 23,0 46,6 63,23 14,17 11,46 11,77 -3,20 -3,40 0,54 14,57 57,114 114,157 57,43 126,74 195,83 89,9 120,-14 154,-37 17,-11 34,-26 57,-34l23 -9 11 26zm-152 550c13,49 22,58 29,65 7,9 13,13 13,34l2 16 -16 0c-13,0 -22,-2 -31,-4 5,7 9,13 13,25l5 16 -16 2 -16 2c2,29 0,56 -5,79 -7,27 -20,52 -43,76 -90,99 -196,124 -267,142 -38,9 -67,16 -79,29 -16,20 -20,31 -25,38l0 0c-5,14 -9,20 -25,27 -40,18 -83,-2 -126,-34 -58,-47 -115,-126 -137,-166 -13,-25 -34,-45 -52,-67 -16,-18 -31,-34 -45,-54l0 0c-20,-29 -36,-54 -45,-83 -7,-20 -11,-43 -9,-70 -9,7 -18,11 -36,11l-16 0 0 -16c1,-10 3,-18 6,-25l19 -28 3 -3c8,-10 18,-20 23,-33 30,-18 305,-172 482,-126 187,49 392,148 392,148z"/>
 </g>
</svg>
