<?xml version="1.0" encoding="UTF-8"?>
<!DOCTYPE svg PUBLIC "-//W3C//DTD SVG 1.1//EN" "http://www.w3.org/Graphics/SVG/1.1/DTD/svg11.dtd">
<!-- Creator: CorelDRAW X6 -->
<svg xmlns="http://www.w3.org/2000/svg" xml:space="preserve" width="0.83372in" height="0.83372in" version="1.1" style="shape-rendering:geometricPrecision; text-rendering:geometricPrecision; image-rendering:optimizeQuality; fill-rule:evenodd; clip-rule:evenodd"
viewBox="0 0 92 92"
 xmlns:xlink="http://www.w3.org/1999/xlink">
 <defs>
  <style type="text/css">
   <![CDATA[
    .fil0 {fill:#BC0300}
   ]]>
  </style>
 </defs>
 <g id="Layer_x0020_1">
  <metadata id="CorelCorpID_0Corel-Layer"/>
  <path class="fil0" d="M46 0c25,0 46,21 46,46 0,25 -21,46 -46,46 -25,0 -46,-21 -46,-46 0,-25 21,-46 46,-46zm0 39c2,0 3,1 4,2l0 0c1,1 2,2 2,4 0,2 -1,3 -2,4 -1,1 -2,2 -4,2 -2,0 -3,-1 -4,-2l0 0c-1,-1 -2,-2 -2,-4 0,-2 1,-3 2,-4l0 0c1,-1 2,-2 4,-2zm3 2l0 0c-1,-1 -2,-1 -3,-1 -1,0 -2,1 -3,1 -1,1 -1,2 -1,3 0,1 1,2 1,3l0 0c1,1 2,1 3,1 1,0 2,-1 3,-1 1,-1 1,-2 1,-3 0,-1 -1,-2 -1,-3zm-28 -3c0,0 0,0 0,0 0,1 2,5 3,6l0 0c0,0 0,0 1,1l2 4 -1 0c0,0 0,0 0,0l0 0c0,0 0,1 1,1 0,0 1,2 1,2 0,1 0,0 0,0 1,-1 0,0 0,0 0,0 0,0 0,0l0 1 5 11c0,0 0,1 0,1l0 1c0,0 -1,1 -2,1 -1,0 0,0 -1,0 0,0 0,0 -1,0 0,0 0,0 0,0 0,0 0,0 0,0 0,1 0,0 0,0 0,0 0,0 1,1 -1,0 -1,0 -1,0 0,0 0,-1 0,-1 0,0 0,0 0,0l-1 1c0,0 0,0 0,0 0,0 1,0 1,0l21 -10c2,-1 20,-9 22,-10l-1 -2c0,0 0,0 -1,-1l-3 -6c0,0 -1,-1 -1,-2 0,0 0,0 0,0 0,0 0,0 0,0 0,0 0,0 0,0 0,0 0,-1 0,-1l0 0c0,0 0,0 0,0l0 -1c0,-1 0,1 0,0 0,0 0,0 0,0 0,0 0,0 0,0 0,0 0,0 -1,-1 0,-1 -1,-2 -1,-2 0,0 0,1 0,0 0,0 0,0 0,0 0,0 0,0 0,0 0,0 0,0 0,-1 0,0 0,0 0,-1 0,-1 0,0 0,-1 0,0 0,0 0,0 0,0 0,0 0,0 0,0 0,0 0,0l-2 -3c0,-1 -1,-1 -1,-2 0,0 0,0 0,0 0,0 0,0 0,-1l-1 -2c-1,1 -17,8 -19,8l-18 8c-1,0 -1,0 -1,1zm-1 24c0,0 1,0 1,0 1,-1 1,-1 0,-1 0,0 0,0 0,-1 0,1 0,0 0,0l-1 0 0 1zm1 -4c1,0 0,0 1,0 0,-1 0,0 0,-1l0 0c0,0 0,0 0,0 -1,0 1,0 0,0 -1,0 0,0 -1,0 0,0 0,0 0,0l-1 1zm2 -2c1,0 1,0 1,0 -1,-1 0,-1 -1,-1 0,0 0,0 0,0l0 0 -1 0c0,0 1,1 1,1zm-2 8l0 0c0,1 0,1 -1,1 0,0 0,0 0,0l0 2c1,0 2,-2 1,-3zm-3 -24c0,0 0,0 0,0 1,-1 0,-1 1,-2 0,0 0,0 0,0l0 0c-1,0 -1,1 -1,1 0,0 0,1 0,1zm7 19l1 1c0,-1 0,-1 0,-1l-1 0c0,0 0,0 -1,0 0,0 -1,1 -1,1zm-2 -5c0,1 0,0 1,1l0 -1c0,0 0,0 0,0 0,0 -1,0 -1,-1l0 0c0,1 0,0 0,1zm-5 2c0,1 1,0 1,1l1 -1 0 0c-1,0 -1,-1 -2,-1l0 1c0,1 0,0 0,1zm2 -5l0 1c1,0 0,0 1,0 1,0 0,0 0,0 0,-1 0,-1 1,-1l0 0c0,0 0,0 0,0l-1 0c0,0 0,0 0,0 0,0 0,0 0,0zm-1 7c0,-1 -1,-1 -2,-1 -1,0 0,0 -1,0 1,1 1,0 1,1l0 0c0,0 0,0 0,0 0,0 0,0 0,0 1,0 0,0 1,0zm2 -4l0 0c0,0 0,0 0,0l0 0c-1,0 -1,-1 -2,0 0,0 0,0 1,1 1,1 0,0 1,0 0,0 0,0 0,-1zm-9 -10c0,0 0,0 0,1l0 2c1,-1 1,-2 1,-2 0,-1 0,0 0,0 -1,0 -1,1 -1,0zm3 -2c1,0 1,1 1,0l0 -1c0,0 0,0 -1,0l-1 0c0,1 0,1 0,1zm8 8c-1,-1 0,-1 -1,-1 0,0 0,0 0,0 0,0 0,0 0,0 0,0 -1,0 -1,0 0,1 2,1 3,1zm-6 2c0,0 0,0 -1,-1 -1,0 -1,0 -2,0 0,1 1,1 2,1 0,0 1,0 1,0zm2 -10c1,0 1,1 1,1 0,0 0,-1 0,-1 -1,0 -1,0 -2,0l0 0c0,0 0,0 0,0 0,0 0,0 0,0 0,0 0,0 0,1zm-5 3c0,0 1,0 1,0 0,0 0,0 0,-1l0 -1 -1 0c0,0 0,0 0,1 0,0 0,0 0,0l0 0zm11 17l1 0c0,-1 0,-1 0,-1 0,0 0,0 0,0 -1,0 -1,-1 -1,-1l0 2zm-10 -20c1,1 2,1 3,1 0,-1 0,0 -1,-1 0,0 0,0 0,0 0,0 -1,-1 -1,0 0,0 0,0 0,0zm0 5c0,0 1,0 1,0 0,-1 -1,-1 -1,-1 0,0 0,0 0,0 0,0 0,0 -1,0 -1,1 0,1 0,1l1 0zm5 3l0 0c0,0 0,0 0,0l0 -1c-1,1 -1,2 -1,3 1,0 1,-1 1,-1l0 0zm8 2l0 -1 -1 0c0,1 0,1 -1,2 0,0 0,0 0,0 0,0 0,0 0,0 0,0 0,1 0,1 0,0 0,0 0,0 0,0 0,0 0,0l0 0c0,0 0,0 0,0 0,0 0,0 0,-1 0,-1 0,-1 0,-1zm-6 5l1 1c1,1 2,1 2,0l0 0c0,0 1,0 1,0l0 0c-1,0 0,0 0,0 0,0 0,0 0,0 -1,0 -1,-1 -2,0 0,-1 0,0 0,0 0,0 0,0 0,1zm-5 -11c0,-1 1,-1 1,-2 0,0 0,0 0,-1l-1 0c0,0 0,0 0,0 0,0 0,1 0,1 0,0 0,1 0,1zm8 11c0,0 0,0 0,0 1,-1 1,-1 1,-2l-1 0c-1,0 0,0 -1,0 0,1 -1,1 0,2zm3 2c0,0 0,0 0,0 -1,0 0,0 -1,-1 0,0 0,0 0,0l-1 0c0,0 0,0 -1,0 1,1 2,2 3,1zm-9 -20c0,-1 0,0 0,-1l0 -1c0,0 0,0 0,0 0,0 -1,0 -2,0 0,1 1,1 1,1l1 0c1,0 0,0 0,0zm4 13l0 1c1,0 0,0 0,0l0 0c0,0 0,-1 1,-1 0,-1 0,0 0,-1l-1 1c0,0 0,0 0,1 0,0 0,1 0,1zm7 13l1 0c0,0 0,-1 0,-1 0,-1 0,0 0,0 -1,0 -1,-1 -2,-1l0 0c0,0 0,0 0,0l0 0c0,0 0,0 1,1 0,0 1,0 1,0zm-11 -6l1 1c1,0 1,0 1,-1 0,0 0,0 0,0l0 0c0,0 0,0 0,-1 -1,1 -1,1 -1,1 0,0 0,0 0,0zm12 5c1,0 1,-2 1,-3 -1,1 -1,1 -1,2 0,0 0,0 0,0 0,0 0,0 0,0l0 0c0,0 0,0 0,0zm-3 -10c-1,0 -1,0 -1,0l0 0 1 1c0,0 1,1 1,1 1,0 1,0 1,0 0,0 0,0 -1,0 0,0 0,0 0,0zm-10 -14c1,1 -1,0 0,2 0,0 1,0 1,-1 1,-1 0,-1 0,-2 -1,0 -1,0 -1,1zm14 20c0,-1 -2,-1 -2,-1 0,0 -1,0 -1,0 1,1 2,2 3,1zm-15 -6c1,0 0,0 1,-1 0,0 0,0 0,0 0,0 0,0 0,-1l0 -1c0,0 0,0 0,0 -1,0 -1,1 -1,1l0 1c0,0 0,0 0,0 0,0 0,0 0,1zm4 1c0,0 1,0 1,-1 0,-1 0,-1 0,-2l-1 0c-1,0 0,0 0,0 0,1 0,0 0,1 0,0 0,1 0,1zm-1 -11c0,-1 1,-1 1,-1 0,0 0,0 -1,-1 0,0 0,0 0,0 -1,0 -1,0 -2,0 0,0 0,0 1,1 0,0 0,0 0,0l0 0c0,0 0,0 0,0l0 1c0,0 -1,0 -2,0l-1 1c0,0 1,0 1,0 0,0 1,0 1,0 0,0 0,0 0,0 0,0 0,0 0,1 0,0 1,-1 1,-1l0 -1c0,0 0,0 0,0 0,0 0,1 0,0 0,0 0,0 0,-1l0 0c0,0 0,-1 0,0l0 0c0,0 0,0 0,0 0,0 0,0 0,0 0,0 0,0 0,0 0,0 0,0 0,0l0 -1 1 0 0 0zm3 17l1 -1c0,0 0,0 0,0 0,0 0,0 0,0l0 0c0,0 0,-1 0,-2 -1,0 -1,1 -1,1 0,0 0,0 0,0 0,0 0,0 0,0 0,0 0,1 0,1zm-5 -14c0,0 1,0 2,0 0,-1 0,-1 -1,-1l0 0c0,0 0,0 0,0l-1 0c0,0 -1,0 -1,1 1,0 1,1 1,1zm-3 2c0,0 0,0 1,-1 1,-1 0,-1 1,-1l0 0c0,0 0,0 0,0l0 1c0,0 0,0 1,0l1 0 1 -1c0,0 0,0 -1,0 -1,0 0,0 -1,0 0,-1 0,-1 -1,-2l-1 0c0,0 0,0 0,0 0,0 0,0 0,0l0 0c0,0 0,0 0,0 0,0 0,0 0,0 0,1 0,1 -1,1l0 -1c0,-1 0,0 0,-1l-1 0c1,2 0,1 1,2 0,0 0,0 0,1zm12 1l0 0 -1 -1c0,0 0,0 0,0l-1 0c0,0 0,0 0,0l0 0c0,0 0,0 0,0l0 0c0,0 1,0 1,0 0,-1 0,-1 -1,-2 0,1 -1,1 -1,1 0,0 0,0 0,0 0,0 0,0 0,0l0 0c0,0 0,0 0,-1 0,0 0,-1 0,-1 0,0 0,0 0,0l0 0c0,0 0,1 -1,0 0,0 0,0 0,0 0,0 0,0 0,0 0,0 0,0 0,0l1 0c0,0 0,0 -1,-1l0 0c-1,0 -1,0 -1,0l0 0c0,0 0,0 0,0 1,0 0,0 1,1 0,0 2,1 1,1 0,0 0,0 0,0 0,0 0,0 0,0l-1 0c0,1 0,0 0,1 0,0 0,0 0,0 0,0 0,0 0,0 0,0 0,0 0,0l0 0c1,1 2,1 2,1 0,1 0,0 0,1 1,0 0,0 1,0l0 0c0,1 0,0 0,0 0,0 1,1 1,1 0,0 1,0 1,0zm49 -18c0,0 0,0 0,0l0 0c0,0 0,0 0,0 0,0 0,0 0,0l0 0c0,0 0,0 0,0l0 -1c0,0 0,0 0,0l-1 0c0,0 0,0 0,0 0,0 0,0 0,0 0,0 0,1 0,1zm-11 -7l0 0c0,0 0,0 0,0 0,-1 0,-1 0,-1 0,0 0,0 0,0l0 -1c-1,1 -1,1 -1,1l0 0c0,0 0,0 0,0 1,1 0,0 0,1zm6 8l0 -1 -1 0c0,0 0,0 0,0 0,0 0,0 0,0l0 1c0,0 0,1 0,1l1 -1c0,0 0,0 0,-1zm9 7c-1,0 -1,0 -1,0 0,0 0,0 0,0l-1 1c0,0 0,0 1,0l1 0c0,0 0,-1 1,-1zm2 2l1 0 0 -1 -1 0c0,1 0,1 0,1zm-12 -24c1,0 1,0 1,1l0 -1c0,0 0,0 0,0 0,0 0,0 0,0 0,0 0,0 0,0 0,0 0,0 0,0 -1,0 -1,0 -1,0 0,0 0,0 0,0l0 1c0,0 0,0 0,1zm2 16c0,0 0,0 0,0 0,0 1,0 1,0l1 -1c0,0 0,0 0,0 0,0 -1,0 -1,0 0,0 0,0 0,1zm3 -7c0,0 0,0 0,0l0 0c0,0 0,0 0,0l1 0 1 -1c0,0 0,0 0,0 0,0 0,0 0,0l0 0c0,0 0,0 0,0l-1 0c0,1 0,0 0,1 0,0 0,0 0,0zm-1 8l0 1c0,0 0,0 1,-1 0,0 0,0 0,0 0,-1 1,-1 0,-2 0,0 0,0 0,0l-1 0c0,1 0,0 -1,1zm4 2l0 0c0,0 0,0 1,-1 0,-1 0,-1 0,-2 -1,0 -1,0 -1,1 0,1 -1,1 0,2zm-6 -15c0,0 1,0 1,1 0,0 0,-1 1,-1 0,0 0,0 -1,0 0,0 0,0 0,0l0 0c0,0 0,0 0,0 0,0 0,0 0,0 0,1 0,0 0,1zm-2 -7c0,0 1,1 1,1l1 0c0,0 0,0 1,0 0,0 -1,-1 -1,-1l0 0c-1,0 0,0 -1,0 0,0 0,0 0,0 -1,0 0,0 -1,0zm1 11c0,0 0,0 0,0 1,0 0,0 1,0 0,0 0,-1 1,-1 -1,0 -1,0 -1,-1 0,0 0,0 0,0l0 1zm11 13l0 0c0,0 0,0 1,-1l0 -1c0,0 0,0 0,0 0,0 0,0 0,0l0 -1c0,0 0,0 0,0l0 0c0,0 0,0 0,0l0 1c0,1 0,1 0,1zm-14 -21c1,0 1,0 1,-1 0,-1 0,-1 0,-2 0,0 0,0 -1,1 -1,1 -1,1 0,2zm7 22l0 0c0,-1 0,0 0,-1 0,-1 0,0 -1,0 0,0 0,0 0,0l0 0c0,0 0,1 0,1 1,0 1,0 1,1zm4 -3l0 0c0,0 0,0 1,0 0,0 0,0 1,0 1,-1 0,-1 1,0 0,-1 0,-1 0,-1l0 0 -1 0c0,0 0,0 0,0 0,0 0,0 0,0 0,0 0,0 0,0zm-9 -14c0,0 0,0 1,0 1,-1 1,0 1,-1 0,-1 0,-1 0,-1 0,0 0,0 -1,0 0,0 0,0 0,1l0 1c0,0 0,0 0,0zm7 22l1 0c0,0 0,0 0,0 0,0 0,0 0,0l0 0c0,0 1,0 0,0l0 0c0,0 0,0 0,0 0,0 0,0 0,0l0 -1c-1,0 0,0 -1,0l-1 0c0,0 0,1 0,1zm-1 -9l0 0c0,0 0,0 0,0 0,1 1,1 1,1l1 -1 -1 0c0,1 0,0 0,1zm0 9c1,-1 1,-2 1,-3 -1,0 -1,1 -1,1 0,1 0,1 0,2zm-4 -21c1,0 0,0 2,1 0,0 0,0 0,0l0 -1c0,0 0,0 0,0 -1,0 0,0 -1,-1 0,0 -1,0 -1,0 0,0 0,0 0,0l0 1zm4 9l0 -1c-1,-1 -1,0 -1,-1 0,0 0,0 -1,0 0,0 -1,0 0,1 0,0 0,0 1,1 0,0 1,0 2,0zm-3 -2c0,0 1,0 1,-1l0 -1c0,0 0,0 0,0 0,0 0,0 0,0 0,0 0,0 0,0 -1,0 -1,0 -1,-1 -1,0 -1,1 -1,1l0 1zm0 -12c-1,-1 -1,-1 -3,-1 0,1 1,1 1,1 1,0 1,0 1,0zm1 0c0,0 0,0 1,0 0,0 0,0 0,0 0,0 0,0 0,0 1,-2 0,-1 0,-2 0,0 -2,1 -1,3zm-7 1c1,0 1,0 1,1 0,0 0,0 0,-1l0 -1c0,0 0,0 -1,0 0,0 0,0 -1,0 0,0 0,0 0,0l0 0c0,1 0,1 0,1zm5 7c0,0 0,0 1,1 1,0 1,0 1,1 1,0 1,0 2,0 0,0 0,0 0,0l-2 -1c0,0 0,0 0,0l0 0zm9 7c-1,-1 0,0 -1,-1 -1,0 -1,-1 -2,0 1,1 1,1 2,1 0,0 0,0 1,0zm-8 1c0,0 0,0 1,1 2,1 1,0 2,1 0,-1 0,-1 -1,-1 0,0 -1,0 -1,-1l-1 0zm5 -10c1,0 2,1 2,0l-1 -1c-1,-1 0,-1 -1,0 0,0 0,0 -1,0l0 1zm-2 2c0,0 0,0 0,0 0,-1 0,0 0,-2 -1,0 -1,1 -1,1l0 1c0,0 0,0 0,0l0 0c0,0 0,0 0,0 0,1 0,1 0,1 0,0 0,0 1,-1zm2 2c0,0 0,0 0,0 0,0 0,0 0,0 0,0 0,0 -1,-1 -1,-1 -1,0 -2,0l0 0c0,1 2,1 3,1zm7 10l0 0c0,0 0,0 0,0 1,1 0,1 2,1 1,0 0,0 1,0l-1 -1c0,0 0,0 0,-1 -1,0 -1,0 -1,0 0,0 0,0 0,0zm-19 -18c0,0 1,1 3,0l0 -1c0,0 0,0 -1,0 -1,0 -1,0 -2,0 0,0 0,0 0,1zm10 9l0 0c0,0 0,0 0,0 0,0 0,0 0,0 0,0 0,0 0,0l1 0c0,-1 1,-1 0,-2 0,-1 0,0 -1,-1l0 1c0,0 0,0 0,0zm1 6c1,1 1,0 1,1 1,0 1,0 2,0 0,0 0,0 0,0 0,0 -1,-1 -1,-1 0,0 -2,0 -2,0zm2 4c0,1 0,0 1,1 0,0 0,0 0,0 1,-1 0,0 1,-1 0,-1 0,-1 0,-1 0,0 0,0 -1,0 0,0 0,0 0,0 0,0 0,0 0,0 0,0 0,0 0,1 -1,0 -1,0 0,0 0,0 0,0 0,0l0 1zm4 -1l1 0c0,0 0,0 0,0 0,-1 0,0 -1,-1l-1 0c-1,0 -1,0 -1,0 0,1 0,0 0,0 1,0 0,0 1,1 1,1 1,0 1,1zm-1 -5c0,1 0,0 0,1l1 1c0,0 0,0 0,0 1,0 0,0 1,0 1,0 1,0 1,0 0,0 0,0 0,0 0,0 0,0 0,0l0 0c-1,0 -1,0 -1,-1 0,0 -1,0 -1,0 0,0 0,0 0,0zm0 11l1 -1c0,0 0,0 0,0l0 0c0,0 0,0 0,-1 1,0 1,0 1,0 -1,0 0,0 -1,0 0,0 0,0 -1,-1l-2 -1c0,0 0,0 0,0l0 0c0,1 1,1 2,1 1,0 0,0 1,0 0,0 0,1 -1,1l0 1zm-12 -21c0,0 0,0 0,0 0,0 0,0 0,1 0,0 1,0 1,0 0,0 0,0 0,0 0,0 0,-1 0,-1 0,0 0,0 0,-1l1 0c0,0 0,0 0,0 0,0 0,0 0,0l0 -1c-1,0 0,0 0,0 0,0 0,0 -1,0 0,0 0,0 0,0 0,0 0,0 0,0l-1 0c1,1 0,0 1,1l0 0zm8 -2l0 -1c1,0 0,0 0,0 0,-1 0,0 0,0 -1,-1 -2,-1 -3,-1 0,0 0,0 0,0 0,0 0,0 0,0l1 0c1,0 1,0 2,0l0 0c0,1 0,0 0,1 0,1 -1,1 0,2 1,0 1,-1 1,-2l0 0zm-3 17c0,0 0,0 0,0l0 0c0,0 0,0 0,0l0 0c0,0 0,0 0,0 0,1 1,1 1,1 1,0 1,0 2,0 -1,-1 0,-1 -2,-1l-1 -1c0,0 0,0 0,0 0,0 0,0 0,0 0,0 0,0 0,0 1,0 0,0 0,0 0,0 0,0 0,0 0,-1 0,1 0,-1 0,0 0,0 0,0 0,0 0,0 0,0l0 0c-1,0 0,0 -1,0 0,0 0,0 0,0l0 2zm-4 -9l-1 0 0 1c0,0 0,0 1,0 0,0 0,0 2,0 0,-1 0,0 -1,-1 0,0 0,0 0,-1 1,0 1,0 1,0l0 -1c0,0 1,0 1,0 0,0 0,0 0,0 -1,0 -1,-1 -2,-1 -1,1 -1,2 -1,2zm10 -3c0,0 0,0 -1,0 0,0 0,0 0,0 0,0 0,0 0,0l0 -1c0,0 0,0 -1,0 0,0 -1,1 -1,1 0,1 0,0 0,1 0,0 0,0 1,-1 1,0 1,0 1,1 0,0 0,0 -1,0 0,0 0,0 0,0 0,0 0,0 0,0l0 0c0,0 0,0 0,0l0 1c0,0 1,0 1,1 1,0 1,0 2,0 0,0 0,-1 0,-1 0,0 0,0 0,0 0,0 0,0 0,0 0,0 -1,0 0,-1l1 0 0 -1c0,0 0,0 0,0l0 0zm-16 -7c2,-1 0,-2 2,-3 0,0 0,1 1,1 0,0 0,0 1,0 0,0 0,0 0,0 0,0 0,0 0,0 0,0 0,0 0,0l0 0c0,1 -1,1 -1,2l0 1c0,0 1,-1 1,-1l0 -1c0,0 0,0 0,0 0,0 0,0 0,0 0,-1 0,0 0,-1 -1,0 0,0 -1,0 -1,-1 0,0 -1,-1l-1 0 -1 0c-1,0 -1,0 -1,0l-1 1c0,0 0,0 0,1 0,0 0,1 0,1zm-15 18c2,0 3,1 3,3 0,2 -1,3 -3,3 -2,0 -3,-1 -3,-3 0,-2 1,-3 3,-3zm11 0c0,0 0,0 -1,0 0,0 0,0 0,0 0,0 0,0 0,0 0,1 0,1 -1,2l-1 0c1,0 0,0 1,0 1,1 0,1 1,1l0 0c0,1 0,1 0,1 -1,1 0,0 -1,1l0 1c-1,0 -1,1 -2,0l0 0c0,0 0,0 0,0 0,2 -1,1 -1,3 0,1 0,0 0,1 0,0 0,1 -1,1 -1,0 -1,0 -2,0 -1,0 -1,-1 0,-2 0,0 0,0 -1,0 -1,0 -2,0 -2,-1 0,1 -1,1 -2,1 -1,0 0,0 -1,0l0 -1c0,0 -1,0 -2,0 0,0 -1,-1 -1,-1 0,-1 0,0 0,-1l-1 0c-1,0 0,0 -1,0 0,0 0,0 0,0 0,0 0,0 0,-1l0 0c0,0 -1,0 -1,0 0,0 0,0 -1,0 -1,0 -1,0 -1,0 0,-1 0,-2 0,-2 1,-1 1,0 2,-1 0,-1 0,-1 0,-1 0,-1 0,0 0,0l0 0 0 -1c0,0 0,0 0,-1l0 0c0,0 0,0 0,0l1 -2c0,0 0,0 0,-1 0,0 0,0 0,0 1,0 1,0 1,0 0,-1 0,-1 1,-2 0,-1 -1,-1 -1,-1l0 0 0 -1c0,0 1,-1 1,-1 0,0 0,0 1,0 0,0 1,0 1,1 0,1 0,1 0,1 0,0 0,0 0,0 0,0 0,0 0,0 1,-1 0,0 0,0 0,0 1,0 1,0 0,0 1,1 1,1 0,-1 2,-1 3,0l1 0c0,0 1,0 1,1 0,0 0,1 0,1 0,1 0,0 0,1 1,0 2,0 2,1 1,-1 3,-1 3,0 0,1 0,1 0,1z"/>
 </g>
</svg>
