<?xml version="1.0" encoding="UTF-8"?>
<!DOCTYPE svg PUBLIC "-//W3C//DTD SVG 1.1//EN" "http://www.w3.org/Graphics/SVG/1.1/DTD/svg11.dtd">
<!-- Creator: CorelDRAW X6 -->
<svg xmlns="http://www.w3.org/2000/svg" xml:space="preserve" width="0.826772in" height="0.826772in" version="1.1" style="shape-rendering:geometricPrecision; text-rendering:geometricPrecision; image-rendering:optimizeQuality; fill-rule:evenodd; clip-rule:evenodd"
viewBox="0 0 141 141"
 xmlns:xlink="http://www.w3.org/1999/xlink">
 <defs>
  <style type="text/css">
   <![CDATA[
    .fil0 {fill:#BC0300}
   ]]>
  </style>
 </defs>
 <g id="Layer_x0020_1">
  <metadata id="CorelCorpID_0Corel-Layer"/>
  <path class="fil0" d="M71 0c39,0 71,32 71,71 0,39 -32,71 -71,71 -39,0 -71,-32 -71,-71 0,-39 32,-71 71,-71zm1 37c-2,1 -1,4 -1,6 0,18 0,37 0,55 0,3 2,3 5,3 6,0 40,0 41,0 2,-1 1,-4 1,-6l0 -48c0,-2 0,-5 0,-7 0,-3 -2,-2 -5,-2 -6,0 -40,0 -41,0zm18 28c-1,0 -1,0 -1,0 0,0 0,0 0,0 0,0 -1,1 -1,1 -1,2 0,5 1,5 0,0 0,0 1,0 3,0 19,0 19,0 0,-1 0,-8 0,-9 0,-1 1,0 0,-1 0,0 0,0 0,0 0,0 -5,0 -6,0 -1,0 -1,0 -1,1 0,1 0,0 0,1 0,1 0,2 0,3l-2 0 0 -2 -2 0 0 2 -2 0 0 -2c0,0 -2,0 -2,0 0,1 0,1 0,2l-2 0c0,-1 0,-2 0,-3 0,-2 0,-1 0,-1 0,0 0,0 0,0 0,0 0,0 0,-1l-5 0c0,2 0,0 1,2 0,1 0,2 0,3zm-3 12l3 0c1,-2 0,-3 2,-4 0,0 1,-1 2,0 1,0 1,1 2,1 0,-1 1,-1 2,-1 1,0 2,1 2,1 0,-1 1,-1 2,-1 1,0 1,0 2,1 0,0 0,0 0,0l0 0c0,0 1,-1 1,-1 1,0 1,0 2,0 1,0 2,1 2,2 1,0 1,0 1,-3 0,0 0,-1 0,-1l-19 0c-1,0 -1,0 -1,1 0,1 -2,3 -2,4zm14 -4c-2,1 -1,4 1,3 2,-1 1,-4 -1,-3zm-4 0c-2,1 -1,4 1,3 2,-1 1,-4 -1,-3zm9 0c-2,1 -1,4 1,3 2,-1 1,-4 -1,-3zm-13 0c-2,1 -1,4 1,3 2,-1 1,-4 -1,-3zm-9 -26l4 -1 12 5 6 -2 3 1c0,0 1,1 -1,2 -2,1 -25,10 -25,10l-5 -6 3 -1 4 3 8 -3 -8 -6zm8 34c-1,0 -1,0 -2,0 -2,0 -1,2 -2,4l-1 0 0 1 1 0c-1,5 0,5 0,6 0,1 0,1 2,1 2,0 1,-1 1,-3l9 0c0,2 0,3 2,3 1,0 1,0 1,0 0,-1 0,-1 0,-2 0,-1 1,0 0,-4 0,-1 0,-1 0,-1l1 0 0 -1c-2,0 -2,0 -2,-2 -1,-3 -1,-3 -4,-3l0 -1c-2,0 -1,0 -3,0 -2,0 -1,0 -2,2zm-59 -9l-2 4c-2,-1 -6,-4 -8,-2 -1,1 -2,2 -2,4 -1,1 -1,3 -2,4 -1,3 -3,5 -4,8 -2,4 0,5 6,7 1,1 1,0 1,2 1,3 6,4 6,-1 0,-2 7,-15 7,-16 0,-2 -1,-3 -2,-3 0,-1 1,-3 2,-4 0,-1 0,-1 1,-2 1,0 1,0 2,-1 1,-1 1,-4 1,-5 0,-2 0,-3 2,-4 0,3 -2,8 0,11l5 7c3,4 2,3 3,9 0,3 0,9 2,11 1,1 3,2 4,1 2,-1 2,-2 1,-5 0,-4 0,-8 -1,-12 0,-4 -1,-5 -3,-9 -3,-5 -2,-3 -1,-10 1,1 1,2 2,2 1,0 3,1 4,1 3,0 6,1 7,-1 1,-4 -4,-4 -7,-4 -2,0 -1,0 -3,-2 0,-1 -1,-1 -1,-2 -3,-4 -5,-9 -11,-5 -2,2 -7,5 -8,6 -1,1 -1,2 -1,4 0,1 -1,5 -1,6 0,1 0,1 1,2l-1 1zm13 -34c-8,2 -4,14 3,12 3,-1 5,-4 4,-8 -1,-3 -4,-5 -8,-4zm-4 39c0,2 1,5 0,8 -1,2 -2,4 -2,6 0,1 -2,5 -2,6 0,3 2,5 5,3 2,-1 2,-3 3,-5 1,-3 2,-4 2,-7 -1,-7 0,-4 -4,-11l-1 -1zm32 20l40 0 0 -56 -40 0 0 56z"/>
 </g>
</svg>
