<?xml version="1.0" encoding="UTF-8"?>
<!DOCTYPE svg PUBLIC "-//W3C//DTD SVG 1.1//EN" "http://www.w3.org/Graphics/SVG/1.1/DTD/svg11.dtd">
<!-- Creator: CorelDRAW X6 -->
<svg xmlns="http://www.w3.org/2000/svg" xml:space="preserve" width="0.83372in" height="0.83372in" version="1.1" style="shape-rendering:geometricPrecision; text-rendering:geometricPrecision; image-rendering:optimizeQuality; fill-rule:evenodd; clip-rule:evenodd"
viewBox="0 0 314 314"
 xmlns:xlink="http://www.w3.org/1999/xlink">
 <defs>
  <style type="text/css">
   <![CDATA[
    .fil0 {fill:#BC0300}
   ]]>
  </style>
 </defs>
 <g id="Layer_x0020_1">
  <metadata id="CorelCorpID_0Corel-Layer"/>
  <path class="fil0" d="M157 0c87,0 157,70 157,157 0,87 -70,157 -157,157 -87,0 -157,-70 -157,-157 0,-87 70,-157 157,-157zm83 75c0,-1 1,-3 0,-4 0,0 0,-1 0,-1 0,0 0,0 0,-1 -1,-2 -4,-4 -7,-6 -1,-1 -3,-2 -4,-2 -1,2 -3,5 -4,7l0 0 -1 1 0 0 -2 3 0 0c-3,4 -5,6 -7,8 -1,1 -2,2 -3,3l0 0 0 0 -19 14c6,0 11,-1 16,-3 6,-2 13,-5 19,-9l0 0 2 -1 0 0c1,0 1,-1 2,-1l0 0 1 -1 0 0c0,0 1,-1 1,-1 1,-1 2,-2 4,-3l0 0 0 0c1,0 1,-1 1,-2l0 0 0 0c0,0 0,-1 0,-1zm4 22c-1,3 -12,12 -16,16l-1 1c-2,2 -5,4 -8,6 -3,2 -5,3 -8,4 -1,0 -2,1 -3,1 -2,0 -4,1 -5,-1l0 0 0 0c-1,-1 -1,-4 -1,-6 0,-3 0,-6 1,-7 1,-1 2,-2 3,-3 1,-1 2,-2 2,-3l0 -2 0 0 0 0 0 0c5,0 11,-2 16,-3 6,-2 11,-4 14,-6 1,0 2,-1 3,-1 0,0 1,0 1,-1 0,0 1,0 1,-1l0 0c0,0 1,0 1,0l5 1 -4 2c0,0 0,0 0,1l0 0zm-182 14l0 0 0 0c0,0 1,0 1,-1l0 0c0,0 0,-1 1,-1l0 0 7 -8 0 0c1,-1 3,-3 5,-5 2,-2 5,-4 5,-4l1 -2 1 1c7,3 18,6 29,7 12,1 25,1 34,0 4,-1 5,0 5,1l2 2 -3 0c-1,0 -4,1 -6,2l0 0c-1,1 -2,1 -3,1l0 0 -21 6 0 0c-8,2 -17,4 -27,5 -7,1 -15,1 -21,0 -1,0 -2,0 -4,-1 -2,-1 -5,-1 -6,-1l0 0 -1 -3zm80 -72c-5,1 -9,2 -13,3 -4,2 -8,3 -12,6l0 0c0,0 0,0 0,0l0 0 -2 1 0 0c-2,2 -5,3 -7,6 -4,4 -5,6 -6,8 -2,3 -2,3 -8,2 -1,0 -2,0 -3,1l0 0c-1,0 -1,0 -2,0 -2,0 -3,1 -4,1 -1,0 -2,1 -2,2 2,4 10,7 21,8 20,3 46,1 53,1 -1,-5 -2,-10 -3,-15 -1,-6 -1,-11 0,-17 0,-2 1,-5 1,-6 0,-1 0,-2 1,-2 0,0 0,0 -1,0 -1,0 -1,0 -2,0l0 0 0 0 0 0 0 0c0,0 -1,0 -1,0 -1,0 -1,0 -2,0l0 0 0 0 0 0 0 0c-2,0 -4,0 -4,0l0 0 -1 0zm52 66c0,0 0,0 0,0 0,0 0,1 -1,1l-5 5 0 0c-2,2 -4,4 -7,6 -3,2 -5,3 -8,5 -2,1 -4,2 -7,3l0 0c-1,0 -1,0 -2,1l0 0c-3,1 -6,2 -10,2 -4,1 -9,1 -12,1l0 0c-14,0 -16,0 -22,-3l0 0 -2 -1 -2 -1 2 -2c1,-1 8,-3 12,-4 1,0 2,-1 3,-1l0 0 2 -1c4,-1 9,-3 12,-5l0 0 26 -12 1 0 1 0c1,0 1,1 1,1 0,0 1,0 1,1 2,1 4,1 6,2 3,0 6,0 9,0l0 0 0 0 0 0 0 2 1 0zm-94 78c1,1 2,2 4,3 1,1 3,1 5,1 0,0 0,0 1,0 3,-1 5,-3 6,-7 -1,0 -3,0 -4,-1 -4,-1 -6,-4 -8,-7 -1,-3 -2,-7 -2,-10 0,-2 1,-5 1,-7 -3,0 -6,1 -8,2 -5,2 -9,3 -14,0 -3,-2 -7,-4 -10,-6 -3,-2 -6,-5 -7,-7 -1,-1 -3,-3 -4,-5 -1,-2 -2,-4 -3,-6 0,-1 -1,-1 -1,-2 -2,-2 -4,-4 -4,-10 0,-1 0,-3 0,-5 0,-1 0,-3 0,-4l0 0c0,-2 1,-3 1,-4l0 0c0,-1 1,-1 1,-3 1,-4 3,-8 6,-11 3,-4 6,-7 10,-9 3,-2 3,-3 3,-4 0,-2 1,-5 7,-12 6,-6 11,-6 17,-6l0 0c1,0 2,0 3,0 1,-2 4,-5 7,-8 4,-4 8,-7 11,-9 9,-6 19,-9 28,-10 9,-1 19,0 30,3 4,1 7,2 10,3 3,1 6,3 9,4 1,0 2,1 3,2 1,1 2,1 2,1l0 0 0 0c0,0 1,1 2,2 1,0 1,1 2,1 1,1 1,1 2,2 0,0 1,1 1,1 1,0 2,0 3,0 3,-1 6,-1 14,0l0 0 0 0c1,0 3,1 4,1 4,1 6,2 10,5 2,1 4,3 5,4 2,2 3,3 5,6l0 0c1,1 1,2 2,2 2,2 3,4 5,8 2,7 4,14 5,21 1,7 1,14 -2,21 -2,4 -4,7 -6,11 -2,3 -5,6 -8,9 -2,2 -7,5 -12,8 -4,2 -8,4 -10,4l0 0c-2,0 -3,0 -3,-1l-4 -2 6 -1c1,0 3,-1 5,-2 2,-1 3,-2 5,-3 0,-2 -1,-5 -2,-8 -1,-3 -2,-5 -3,-6l-4 3c-1,0 -1,1 -2,1 -9,5 -12,-10 -21,-8l-3 18 1 0c5,2 15,5 13,17l0 0c-1,4 -5,6 -7,8l0 0c0,0 -1,0 -1,1 1,2 2,5 3,7 1,1 2,2 3,2 2,0 4,0 6,0 1,0 1,0 2,0 0,0 0,0 0,0l0 0 0 0 1 -1c0,0 1,-1 1,-1 1,-1 2,-2 2,-3 0,-1 0,-2 -1,-4l-1 -2 2 0c3,0 5,1 6,2 2,2 4,4 4,8 0,3 0,6 -1,10 -2,6 -5,11 -8,14 -2,1 -5,3 -8,4 -3,1 -6,2 -9,3 -5,1 -9,1 -12,1 1,1 2,1 4,3l0 0 2 2c6,4 14,10 19,15 4,3 7,7 9,10l0 1 0 1c-1,1 -2,2 -3,4 -2,2 -4,4 -9,8 -9,7 -21,12 -33,15 -13,3 -28,4 -41,3 -8,-1 -18,-3 -26,-6 -6,-2 -12,-5 -16,-8 -2,-1 -3,-2 -4,-3l0 0 0 -1c0,-3 2,-7 4,-11 2,-4 5,-7 7,-10l0 0c1,-1 1,-1 1,-2 1,-1 3,-3 4,-4 2,-2 3,-3 5,-4 0,0 1,-1 2,-1 2,-1 4,-3 5,-4 -5,0 -9,-1 -13,-2 -5,-1 -9,-4 -13,-8 -3,-4 -6,-10 -6,-15 0,-2 0,-3 1,-5l0 0c1,-2 1,-3 3,-4 1,-1 3,-2 5,-2l2 0 0 2c0,2 0,4 1,5l1 -1zm115 -3c0,0 -1,1 -1,1l0 0c-1,1 -3,1 -5,2 -2,0 -4,0 -5,-1 -4,0 -7,-1 -10,-1 -1,0 -1,0 -1,0 -2,0 -5,-1 -7,-1 -8,-1 -16,-2 -23,2 -3,2 -4,3 -5,4 0,2 -1,2 -2,2l0 0c-1,0 -1,-1 -1,-2 0,0 -1,-1 -2,-2 -8,-5 -14,-3 -20,0 -5,2 -11,5 -20,5 -1,0 -2,0 -3,0 -1,0 -3,0 -4,0l0 0c-2,0 -4,-1 -5,-2 -3,-2 -5,-5 -5,-9 -1,0 -2,1 -2,1 -1,1 -1,1 -2,3l0 0c0,1 0,2 0,4 0,4 3,10 6,14 3,4 7,6 11,7 5,1 10,2 15,2l0 0c1,-1 1,-1 2,-2l1 -1 1 0c2,0 3,1 4,2l0 0 2 -1c1,-1 2,-1 4,-1 2,-1 3,-1 5,-2 1,0 2,-1 4,-2 3,-1 7,-3 8,-4l1 -1 1 1c1,1 1,1 1,1l0 0c0,0 0,0 1,1l0 0c0,0 0,0 1,0l0 0c1,0 1,1 2,2l0 0c1,0 1,-1 1,-1l0 0c0,0 0,0 0,0l0 0c0,0 0,0 0,0 0,-1 1,-2 2,-4l1 -1 1 0c1,0 2,1 3,1 3,1 8,3 11,4l0 0 1 0 0 0c1,0 2,0 3,2l1 1c1,-1 3,0 5,0 3,0 7,1 15,0 3,-1 6,-2 9,-3 3,-1 5,-3 7,-4 3,-2 6,-7 7,-13 1,-3 1,-6 1,-8 0,-2 -1,-4 -3,-6 -1,-1 -2,-1 -3,-1 0,1 0,3 0,4 0,2 -1,3 -2,5 -1,1 -1,1 -2,2zm-67 0c2,1 3,1 5,2 1,1 2,1 2,1 1,-1 3,-2 5,-4 1,-1 2,-1 3,-2 -2,0 -3,0 -4,-1l0 0c-1,0 -1,-1 -2,-1 -1,0 -2,1 -4,2 -1,1 -3,1 -4,2 0,0 -1,0 -1,0zm-21 -45c0,0 1,0 1,0 2,-1 6,-1 9,-1 3,0 6,1 7,3 1,1 1,1 1,2 0,1 0,2 0,3 0,1 -1,1 -1,2l0 0c-1,0 -1,1 -2,1 -2,1 -4,1 -7,0 -1,0 -1,0 -2,0 -2,0 -4,0 -5,1 -3,1 -6,2 -7,-1 -1,-2 0,-3 1,-5 1,-1 2,-2 2,-3l0 0 0 0c1,-1 1,-1 1,-1l0 0c0,0 1,0 1,0l0 0zm39 3c0,0 1,-1 1,-1l0 0c1,-3 3,-6 8,-7 2,-1 6,-1 9,0l0 0c2,1 5,2 6,4 1,1 1,3 0,4 0,1 -1,2 -2,3 -3,1 -4,1 -6,1 0,0 -1,0 -2,0 -2,0 -3,0 -5,1l-1 0 0 0c-3,2 -4,1 -5,-1 0,-1 -1,-1 -2,-1l-2 0 1 -2zm18 15c0,-1 0,-3 0,-4l0 -1 1 0c3,0 6,1 9,3 2,1 3,3 4,5l0 0c1,2 1,4 1,6 0,2 -1,3 -3,4l0 0c-1,1 -4,2 -6,3 -1,0 -2,0 -3,0 -1,0 -2,-1 -3,-2l0 0c0,-1 -1,-1 -1,-2 0,-2 0,-8 0,-12zm-35 -19c0,1 0,2 1,4 1,4 2,11 2,20 0,5 -3,8 -5,11l0 0c-2,2 -3,4 -4,7l0 0c1,1 2,2 6,1 1,0 2,-1 4,-2 2,-1 4,-2 5,-2l0 0c2,0 3,0 4,1l0 0c1,1 2,1 5,0 1,0 2,-1 3,-2 0,-1 1,-1 0,-3 -1,-2 -1,-3 -2,-4 -1,-2 -3,-4 -4,-13 -1,-4 -1,-9 -1,-14 0,-2 0,-4 0,-6 -1,0 -1,0 -2,0 -1,0 -2,0 -3,0 -1,0 -2,0 -3,0 -1,0 -3,0 -4,0zm-32 -1c-1,1 -2,2 -3,4 -2,4 -4,9 -5,15 -1,6 -2,11 -1,15 0,3 1,4 3,5 1,1 3,1 5,1 1,0 1,0 1,0 0,0 1,0 1,-1l0 0c0,0 0,-1 0,-2 0,-1 0,-2 -1,-4 0,-1 0,-2 -1,-3l0 0c0,-2 0,-17 0,-27l0 -4zm18 76c1,1 2,1 4,2 3,1 6,1 8,1 1,-1 2,-2 3,-3 2,-2 4,-4 5,-5 0,0 0,0 0,0l0 0c0,0 -1,0 -1,-1 -1,-1 -1,-1 -1,-1 -2,1 -5,2 -7,3 -2,1 -3,1 -4,2 -2,1 -3,1 -5,2 0,0 -1,0 -1,1zm21 -3c-1,1 -3,3 -4,4 -1,2 -3,3 -3,3l0 1 -1 0 0 0c0,1 0,2 -1,5 0,2 -1,4 -1,7 -1,5 -1,8 -1,9 0,1 0,1 0,1l0 0c-1,2 -1,1 -3,1 0,0 0,0 -1,0l-1 1 0 1c0,1 0,2 0,3 0,5 0,10 3,13 1,1 1,1 2,2 1,0 2,0 3,-2 1,-2 2,-5 3,-8 3,-12 5,-30 5,-32l0 -8 0 0zm3 -1l7 5c2,0 5,-1 7,-2 2,-1 4,-2 5,-3l0 0 0 0 -1 0 0 0c-4,-1 -8,-3 -12,-4l-2 -1c-1,1 -1,2 -1,2 0,0 0,1 0,1l0 0c0,0 0,0 -1,1l0 0c0,0 -1,0 -1,1zm2 -2l0 0 0 0zm3 9l-8 -5 2 7c1,3 1,6 1,10 0,3 1,6 1,8 0,2 2,11 5,18 1,2 2,4 3,5l0 0c1,1 2,1 2,1 0,0 1,-1 2,-1 3,-3 3,-6 3,-10 0,-2 0,-4 0,-6l0 -1 1 0c4,-1 9,-2 12,-2 2,0 4,0 4,0 0,-1 0,-1 0,-1l0 0c0,0 -1,0 -2,0 -1,0 -2,0 -3,0 -1,0 -2,0 -4,0 -6,1 -7,1 -9,2 -1,0 -1,1 -2,1l-2 1 0 -2c-1,-7 -3,-14 -4,-18l0 0c-1,-2 -1,-4 -1,-5 0,0 0,0 -1,0l0 0 0 0zm-35 26c4,0 7,0 8,-1 -2,-1 -8,-1 -12,0l0 0c-2,0 -4,1 -6,1 -2,0 -3,1 -4,1 0,1 0,1 0,1 0,0 1,0 2,0l0 0c5,-1 9,-1 13,-2z"/>
 </g>
</svg>
