<?xml version="1.0" encoding="UTF-8"?>
<!DOCTYPE svg PUBLIC "-//W3C//DTD SVG 1.1//EN" "http://www.w3.org/Graphics/SVG/1.1/DTD/svg11.dtd">
<!-- Creator: CorelDRAW X6 -->
<svg xmlns="http://www.w3.org/2000/svg" xml:space="preserve" width="20.902mm" height="20.902mm" version="1.1" style="shape-rendering:geometricPrecision; text-rendering:geometricPrecision; image-rendering:optimizeQuality; fill-rule:evenodd; clip-rule:evenodd"
viewBox="0 0 1000 1000"
 xmlns:xlink="http://www.w3.org/1999/xlink">
 <defs>
  <style type="text/css">
   <![CDATA[
    .fil0 {fill:#BC0300}
   ]]>
  </style>
 </defs>
 <g id="Layer_x0020_1">
  <metadata id="CorelCorpID_0Corel-Layer"/>
  <path class="fil0" d="M500 0c276,0 500,224 500,500 0,276 -224,500 -500,500 -276,0 -500,-224 -500,-500 0,-276 224,-500 500,-500zm-4 192l14 134c0,0 -2,5 -2,11 34,7 24,21 29,53 4,23 13,34 15,60 6,59 34,71 17,128 -3,-11 1,-31 -1,-46 -3,-20 -10,-26 -16,-41 -5,-15 -4,-33 -7,-49 -3,-14 -9,-25 -13,-41 -25,1 -24,7 -41,-9 0,21 -4,26 -1,48 19,106 -4,74 -6,126 -1,28 2,69 3,97 1,31 22,45 36,59 18,18 26,33 46,51 26,23 37,36 62,36 60,1 135,3 194,-1 -28,-17 -66,-48 -105,-72 -17,-10 -18,-12 -32,-25l-42 -47c-24,-33 -28,-66 -34,-109 -14,-112 4,-55 -34,-140l-40 -134c-5,-16 -7,-31 -11,-46l-8 -41 -23 -3zm34 204l-6 -46c-23,-5 -37,-9 -34,21 3,27 14,29 40,25zm-77 -170c2,-1 35,-5 20,-36 -19,4 -13,1 -16,24l-2 -20c-6,46 -31,136 -46,182 -33,103 -44,207 -68,268 -23,56 -36,64 -72,94 -30,26 -86,62 -94,70l205 0c23,-27 43,-52 65,-77 10,-11 22,-21 28,-40 8,-24 4,-106 1,-133 -3,-26 -13,-29 -12,-58 1,-42 24,-77 19,-121 -10,22 -12,31 -42,26 -22,23 -21,46 -29,80 -7,31 -17,45 -23,79 -4,-44 16,-59 21,-101 3,-24 2,-30 16,-48 13,-17 12,-25 20,-41 -2,11 -4,18 -1,28 40,6 43,-58 15,-50 -13,4 -8,8 -14,20 2,-24 6,-35 32,-24 2,-13 0,-12 1,-21 2,-24 5,-26 5,-60 0,-13 -1,-5 2,-19 1,-7 2,-9 3,-17 1,-15 1,-24 -3,-38 -12,26 6,23 -27,32 -5,37 -15,102 -32,130 6,-44 24,-84 28,-130z"/>
 </g>
</svg>
