<?xml version="1.0" encoding="UTF-8"?>
<!DOCTYPE svg PUBLIC "-//W3C//DTD SVG 1.1//EN" "http://www.w3.org/Graphics/SVG/1.1/DTD/svg11.dtd">
<!-- Creator: CorelDRAW X6 -->
<svg xmlns="http://www.w3.org/2000/svg" xml:space="preserve" width="21.6765mm" height="21.6765mm" version="1.1" style="shape-rendering:geometricPrecision; text-rendering:geometricPrecision; image-rendering:optimizeQuality; fill-rule:evenodd; clip-rule:evenodd"
viewBox="0 0 99 99"
 xmlns:xlink="http://www.w3.org/1999/xlink">
 <defs>
  <style type="text/css">
   <![CDATA[
    .str0 {stroke:#FEFEFE;stroke-width:2.28402}
    .fil2 {fill:none}
    .fil0 {fill:#BC0300}
    .fil1 {fill:#FEFEFE;fill-rule:nonzero}
   ]]>
  </style>
   <clipPath id="id0">
    <path d="M50 1c27,0 48,22 48,48 0,27 -22,48 -48,48 -27,0 -48,-22 -48,-48 0,-27 22,-48 48,-48z"/>
   </clipPath>
 </defs>
 <g id="Layer_x0020_1">
  <metadata id="CorelCorpID_0Corel-Layer"/>
  <path class="fil0" d="M50 1c27,0 48,22 48,48 0,27 -22,48 -48,48 -27,0 -48,-22 -48,-48 0,-27 22,-48 48,-48z"/>
  <g style="clip-path:url(#id0)">
   <g id="_442361328">
    <g>
     <path id="1" class="fil1" d="M25 37l0 0 0 0 0 0c0,0 0,0 0,-1l0 0 -1 -4 0 0c-1,-3 -2,-5 -2,-8 -1,-2 -1,-4 -2,-6 0,-1 -1,-3 -1,-4 0,-2 -1,-3 -2,-5 0,-1 0,-1 -1,-2 0,-1 0,-1 -1,-2l0 0 -1 -3 0 0 0 0 0 0 0 0 0 0 0 0c0,0 0,0 0,0l0 0c0,0 0,0 0,0l0 0c0,0 0,0 0,0l0 0c0,0 0,0 0,0 0,0 0,0 1,0l0 0 0 0 8 29 0 0c0,0 0,0 0,0l0 0c0,0 0,0 0,0l0 0 0 0c0,0 0,0 0,0l0 0c0,0 0,0 0,0l0 0c0,0 0,0 0,0l0 0 0 0 0 0 0 0c0,0 0,0 0,0l0 0c0,0 -1,0 -1,-1l0 0 0 0 1 0c0,0 0,-1 0,-1 0,-1 0,-1 0,-2l0 0 0 0 0 0 0 0 0 0c0,0 0,1 0,1 0,0 0,1 0,1l0 0c0,0 0,0 1,0 1,0 2,0 3,0 0,0 1,0 1,0 0,0 0,0 0,1 0,0 0,0 0,1 0,1 -1,0 -1,0l0 0c0,0 0,0 0,0 0,0 -1,0 -1,0 0,0 -1,0 -1,0 -1,0 -1,0 -1,0l0 0c0,0 0,0 0,0l0 0c0,0 0,0 0,0 0,0 1,0 1,0 0,0 1,0 2,0l0 0c1,0 1,0 2,1l0 0c0,0 1,1 1,1l0 0 0 0c0,0 0,0 -1,1l0 0c0,0 0,0 0,0 -1,0 -2,0 -2,0 -1,0 -1,0 -2,0 0,0 0,1 0,1l0 0 0 0 0 0 0 0 0 0c0,0 0,1 0,2l0 0 0 0 0 0 0 2 1 0 0 0 0 0c0,0 0,0 0,0 0,0 0,0 0,0l2 1 0 0 0 0 0 0 0 0 0 0 0 0 0 0 0 0 0 0c0,0 0,1 0,1 0,0 0,1 0,1 0,0 0,0 0,0 0,0 1,0 1,-1l0 0 0 0c0,0 0,0 0,0 0,0 0,0 0,0 0,0 0,0 0,-1 0,0 0,0 0,0 0,0 0,-1 0,-1l0 0 0 0c0,0 0,-1 0,-1 0,-1 0,-1 1,-1l0 0 0 0c1,1 1,3 1,4l0 0 0 0c0,0 0,0 0,0 1,0 1,0 1,1l0 0 1 -2 0 0 0 0 0 0 0 0 0 0c0,0 0,1 0,2l0 0 0 1 0 0 0 0c0,0 0,1 0,1l0 0c0,0 0,0 0,0 0,0 0,0 0,1 0,1 0,2 0,3 0,1 0,1 -1,2 0,0 0,0 0,1 0,0 0,0 0,0l0 0c0,-1 1,-3 1,-4 0,0 0,-1 0,-1 0,0 0,-1 0,-1 0,-1 0,-3 1,-4l-1 0 0 0 0 0 -3 0 3 0 1 0 0 0 0 0c0,-1 0,-2 0,-3l0 0c0,0 0,-1 0,-1l0 0 1 -4 0 -2c1,-6 3,-22 4,-24l0 0c0,0 0,0 0,0 0,0 0,0 0,0l0 0c0,0 0,0 0,0l0 0c0,0 0,0 0,0 0,0 0,0 0,0 0,0 1,0 1,0 0,0 0,0 0,0 0,0 0,0 0,0l-1 8 0 0c0,1 0,2 -1,4 0,2 0,3 -1,5 0,3 -1,6 -1,9 0,3 -1,6 -1,9 0,0 0,0 0,0l0 0c0,0 0,0 0,1l0 0 0 0 0 0c0,1 0,2 0,3 0,1 0,2 0,3 0,1 0,2 -1,4l0 0c0,0 1,0 1,0 0,0 1,0 1,0 0,0 0,1 1,1l0 0c0,0 0,1 0,1l0 0c0,1 0,1 0,1 0,0 0,0 0,0l0 0 0 0c0,0 0,0 0,1l0 0c0,0 0,0 0,0l0 0 0 0c0,0 0,0 0,0 0,0 -1,0 -1,1 -1,0 -1,0 -1,0 0,0 0,0 0,0 0,0 0,0 -1,0l0 0c0,0 0,0 -1,0 0,0 0,0 -1,0 0,0 0,0 0,0 -1,0 -1,0 -2,0 -1,0 -1,0 -2,0 0,0 0,0 0,0l0 0c0,0 0,0 0,0 0,0 0,0 -1,0l0 0c0,0 0,0 0,0 0,0 0,0 0,0 0,0 -1,0 -1,0 -1,0 -1,0 -1,-1l0 0 0 0 0 0 0 0 0 0 0 0 0 0c0,0 0,0 0,0 0,0 0,0 0,0 0,-1 0,-1 0,-2 0,0 0,-1 0,-1l0 0 0 0c0,0 1,0 1,0 0,0 1,0 1,0l-2 -6 0 0c0,0 0,-1 0,-1 0,-1 0,-1 -1,-2zm0 0l0 0 0 0c0,1 0,1 1,2 0,0 0,1 0,1l0 0 2 7 0 0c0,1 0,1 0,2 0,0 0,1 0,2 0,0 0,0 0,0l0 0c0,0 0,0 -1,0l0 0 0 0c0,0 0,0 0,-1 0,0 0,-1 0,-1l0 0 0 0c0,0 0,-1 0,-2 0,0 0,0 -1,0 0,0 -1,0 -1,0 0,0 0,0 0,1 0,1 0,1 0,2 0,0 0,0 0,0 0,0 0,0 0,0l0 0 0 0 0 0 0 0c0,0 1,0 1,1 1,0 1,0 1,0 0,0 0,0 1,0 0,0 0,0 0,0l0 0c0,0 0,0 0,0 0,0 0,0 0,0 0,0 0,0 1,0 1,0 1,0 2,0 1,0 1,0 2,0 0,0 0,0 0,0 0,0 0,0 1,0 0,0 0,0 0,0 0,0 0,0 0,0 0,0 0,0 1,0 0,0 0,0 1,0 1,0 1,0 1,0 0,0 0,0 0,0 0,0 0,0 0,0l0 0c0,0 0,0 0,0 0,0 0,0 0,0 0,0 0,-1 0,-1 0,0 0,-1 0,-1l0 0c0,0 0,-1 0,-1 0,0 0,0 -1,0 0,0 -1,0 -1,0 0,1 0,2 0,3 0,0 0,1 0,1l0 0 0 0c0,0 0,0 -1,0l0 0c0,0 0,0 0,0l0 0c0,0 0,0 0,0l0 0 0 0 0 0c0,0 0,0 -1,0 0,0 -1,0 -1,0 0,0 -1,0 -1,0l0 0c0,0 0,0 -1,-1 0,0 0,0 0,-1l0 0c0,0 0,-1 0,-1 0,0 0,-1 1,-1 0,0 0,0 0,0l0 0 0 0 0 0c0,0 0,0 0,-1 0,0 0,0 0,-1l0 0 0 0c0,0 1,-1 1,-2 0,-1 0,-2 0,-2 0,0 0,-1 0,-1 0,0 0,0 0,0 0,0 0,0 0,0l0 0 0 0c0,0 0,0 0,0 0,0 -1,-1 -1,-1l0 0 0 0c0,0 0,0 0,0l0 0c0,0 0,0 0,0l0 0 0 0 0 0c0,-1 0,-3 0,-4 0,0 0,0 0,1 0,0 0,1 0,1l0 0 0 0c0,0 0,1 0,1 0,0 0,0 0,0 0,0 0,1 0,1 0,0 0,0 0,0 0,0 0,0 -1,0 0,0 -1,0 -1,0 0,0 0,0 0,0l0 0 0 0c0,0 0,-1 0,-1 0,0 0,-1 0,-1l0 0 0 0 0 0 0 0 -2 -1 0 0 0 0 0 0c0,0 0,0 0,0 0,0 0,0 0,0l-1 0 0 0 0 0 0 -2 0 0 0 0c0,-1 0,-2 0,-2l0 0c0,0 0,0 0,0l0 0 -9 -30c0,0 0,0 0,0 0,0 0,0 0,0l0 0c0,0 0,0 0,0l0 0 0 0 0 0c0,0 0,0 0,0l0 0 0 0 0 0 0 0 0 0 1 3 0 0c0,1 0,1 1,2 0,1 0,1 1,2 1,2 1,3 2,5 0,1 1,3 1,4 1,2 1,4 2,6 1,3 2,5 2,8l0 0 1 4 0 0 0 0c0,0 0,0 0,0zm3 12c0,0 0,-1 0,-1 0,0 0,1 0,1l0 0c0,1 0,1 0,1l0 0 0 0 0 0c0,0 0,0 0,0 0,0 0,-1 0,-1zm9 0c0,-1 0,-1 0,-2 0,0 0,0 0,1l0 1 0 0 0 0 0 0 0 0 0 0 0 0c0,0 0,0 0,0l0 0c0,0 0,0 0,0l0 0c0,0 0,0 0,0l0 0 0 0c0,0 0,0 0,-1zm-1 0l0 0 0 0 0 -1c0,0 0,0 0,-1l0 0 0 0c0,0 -1,-1 -1,0 0,0 0,0 -1,1 0,0 0,1 0,1 0,0 0,0 0,1 0,0 0,0 0,0l0 0c0,0 0,0 1,0 0,0 1,0 1,0 0,0 0,0 0,0 0,0 0,0 0,0zm-1 -3c0,0 1,0 1,0l0 0 0 0c0,0 0,-1 0,-1 0,-1 0,-3 1,-4 0,-1 0,-2 0,-3 0,-1 0,-2 0,-3l0 0 0 0 0 0c0,0 0,0 0,0l0 0c0,0 0,0 0,0l0 0 0 0c0,-3 1,-6 1,-9 0,-3 1,-6 1,-9 0,-2 0,-3 1,-5 0,-1 0,-2 1,-4l0 0 1 -8 0 0 0 0 0 0c0,0 0,0 0,0 0,0 0,0 0,0 0,0 0,0 0,0l0 0c0,0 0,0 0,0l0 0 0 0c0,0 -3,17 -4,24l0 2 0 0 -1 4c0,0 0,1 0,1 0,1 0,2 0,3l0 0 0 0 0 0 0 0c0,0 0,3 -1,4 0,1 0,1 0,1 0,0 0,1 0,1 0,1 0,3 -1,4l0 0 0 0 0 0zm7 -45l0 0 0 0 0 0zm-16 35l0 0m-2 -7l0 0c0,0 1,1 2,1 1,0 1,0 2,0 0,0 0,0 0,0l0 0c0,0 0,0 0,0 0,0 0,0 0,-1l0 0c0,0 -1,0 -2,0l0 0c0,0 -1,0 -1,0 0,0 -1,0 -1,1l0 0 0 0 0 0c0,0 0,0 0,0l0 0 0 0 0 0c0,0 0,0 0,0zm0 -2c0,0 0,0 0,0l0 -1 0 0 0 0 0 0 0 0c0,0 0,0 0,0 0,0 0,0 0,0l0 0 0 0 0 0zm0 0l0 0 0 0c0,0 0,0 0,0 0,0 0,0 1,0 0,0 1,0 1,0 0,0 1,0 1,0 0,0 0,0 0,0l0 0c0,0 1,0 1,0 0,0 0,0 0,0 0,0 0,0 0,0 0,0 0,0 -1,0 -1,0 -2,0 -3,0 0,0 0,0 -1,0 0,0 0,0 0,0l0 1z"/>
     <path class="fil1" d="M25 50c0,0 0,0 -1,1 0,0 -1,1 -1,1l0 0c0,0 0,0 0,0l0 0 -1 1c1,1 5,3 6,3l0 0 0 0 0 0c1,1 3,2 4,2 0,0 3,-2 4,-3 0,0 0,0 0,0l4 -3c0,0 0,0 0,0 0,0 0,0 -1,0 0,0 0,0 -1,-1l0 0c0,0 0,0 -1,0 0,0 -1,0 -1,-1 0,0 0,0 0,0 0,0 -1,0 -1,1 -1,0 -1,0 -1,0 0,0 0,0 0,0 0,0 0,0 -1,0l0 0c0,0 0,0 -1,0 0,0 0,0 -1,0 0,0 0,0 0,0 -1,0 -1,0 -2,0 -1,0 -1,0 -2,0 0,0 0,0 0,0l0 0c0,0 0,0 0,0 0,0 0,0 -1,0l0 0c0,0 0,0 0,0 0,0 0,0 0,0 0,0 -1,0 -1,0 -1,0 -1,0 -1,-1l0 0zm-1 0c0,0 1,-1 1,-1l0 0 0 0 0 0c0,0 1,0 1,1 1,0 1,0 1,0 0,0 0,0 1,0 0,0 0,0 0,0l0 0c0,0 0,0 0,0 0,0 0,0 0,0 0,0 0,0 1,0 1,0 1,0 2,0 1,0 1,0 2,0 0,0 0,0 0,0 0,0 0,0 1,0 0,0 0,0 0,0 0,0 0,0 0,0 0,0 0,0 1,0 0,0 0,0 1,0 1,0 1,0 1,0 0,0 0,0 0,0l0 0 0 0c0,0 1,0 1,1 0,0 0,0 1,0l0 0c0,0 1,0 1,1 0,0 0,0 1,1l0 0 0 0 0 0c0,0 0,0 0,0 0,0 0,0 0,0 0,0 0,0 0,0l0 0 -4 3 0 0c0,0 0,0 0,0 -1,1 -4,3 -5,3 0,0 -3,-1 -4,-2l0 0 0 0 0 0c-1,-1 -6,-3 -6,-3l0 0 0 0 1 -1 0 0 0 0 0 0 0 0c0,0 0,0 0,0l0 0c0,0 0,0 1,-1z"/>
     <path class="fil1" d="M56 39l0 0c1,0 2,-1 3,-1l1 0c0,0 0,0 0,0l0 0c0,0 0,0 0,0l0 0c0,0 0,0 0,0l0 0c-2,-2 -2,-4 -1,-6 0,0 0,0 0,-1l0 0 0 0 0 0c0,0 0,-1 0,-1 0,-1 0,-2 1,-2 1,-2 2,-3 3,-3 1,-1 3,-1 5,0 2,1 4,1 4,3 1,1 1,3 1,5 0,0 0,1 -1,2 0,1 0,1 -1,1l0 0 0 0 0 0c0,2 -1,3 -1,4l0 0c1,0 1,0 2,1 0,0 0,0 0,0 0,0 1,0 1,0 1,0 1,0 1,0 0,0 0,0 0,0l0 -1 0 0c0,-2 0,-4 -1,-6 0,-2 -1,-4 -1,-5 0,-1 -1,-1 -1,-2 -1,0 -1,-1 -2,-1 -1,0 -2,-1 -3,-1 -1,0 -2,0 -3,0 -2,0 -3,1 -4,2 -1,1 -2,3 -2,4 0,1 -1,3 -1,6 0,2 -1,4 -1,5zm0 0c0,0 -1,0 -1,0l0 0 0 0c0,-1 0,-3 1,-6 0,-2 1,-4 1,-6 1,-2 1,-3 2,-5 1,-1 2,-2 4,-3 1,0 2,0 3,0 1,0 2,0 3,1 1,0 2,1 2,1 1,0 1,1 2,2 1,1 1,3 1,5 0,2 1,5 1,6l0 1 0 0 0 0c0,0 0,0 0,0 0,0 0,0 -1,1 0,0 -1,0 -1,0 0,0 0,0 0,0l0 0 0 0c0,0 -1,0 -2,0l0 0 0 0 0 0c0,0 0,0 0,-1 0,-1 1,-2 1,-4l0 0 0 0 0 0c0,0 0,-1 0,-1 0,-1 0,-1 1,-2 0,-2 0,-3 -1,-4 -1,-1 -2,-2 -4,-3 -2,-1 -4,-1 -5,0 -1,0 -2,2 -3,3 0,0 0,1 -1,2 0,0 0,1 0,1l0 0 0 0 0 0c0,0 0,1 0,1 -1,2 -1,4 1,6l0 0c0,0 0,0 0,0l0 0c0,0 0,0 0,0l0 0c0,0 0,0 0,1l0 0 -1 0 0 0 0 0c-1,0 -2,1 -3,1z"/>
     <path class="fil1" d="M25 30l0 0 0 0 0 0c0,0 0,0 0,1l0 0 0 0c0,0 0,0 1,0l0 0 0 0c0,0 0,0 0,0l0 0c0,0 0,0 0,0l0 0 0 0c0,0 0,0 0,0l0 0c0,0 0,0 1,0 0,0 1,-1 3,-1 0,0 0,0 0,0 0,0 0,0 1,0 0,0 0,0 0,0l0 0c0,0 0,0 0,0 0,0 0,-1 0,-1 0,-1 0,-2 0,-2l0 0 0 0c0,0 0,0 0,0 1,0 1,-1 2,-1 1,0 1,0 1,0 0,0 1,0 1,0l0 0c0,0 0,0 0,0l0 0c0,0 -1,0 -1,0 0,0 0,0 -1,0 0,0 0,0 -1,0 0,0 -1,0 -1,0l0 0c-1,0 -1,1 -1,0l0 0 0 0c0,0 0,-1 0,-1 0,0 0,0 1,0 0,0 1,0 1,-1 1,0 1,0 2,0l0 0c0,0 1,0 1,0l0 0 0 0c0,0 0,-1 0,-1 0,0 0,-1 0,-1l0 0 0 0 0 0 0 0 0 0c0,0 0,1 1,2 0,0 0,1 0,1l1 0 0 0 0 0 0 0 0 0 0 0 0 0 0 0 0 0 0 0 0 0 0 0 0 0 0 0c0,0 0,1 0,1l0 0 0 0 0 0 0 0c0,0 0,0 0,1 0,0 0,0 0,0l0 0 0 0c0,1 0,1 0,1l0 0c0,0 0,0 0,1 1,6 0,6 -3,6 -1,0 -1,0 -2,1l0 1 0 0 0 0c0,0 0,0 0,0l0 0c0,0 0,0 0,0l0 0 0 0 0 0c0,-1 0,-3 0,-4 0,0 0,0 0,1 0,0 0,1 0,1l0 0 0 0c0,0 0,1 0,1 0,0 0,0 0,0 0,0 0,1 0,1l0 0c0,0 0,0 0,0l0 0c0,0 0,0 -1,0l0 0 0 0 0 -1c0,0 0,0 -1,0 0,0 0,0 0,0l0 0c0,0 0,0 -1,0l0 0 0 0 0 0 0 0 0 0 0 0 0 0 -1 0 0 0c-2,-1 -2,-1 -3,-3l0 0 0 0c0,-1 0,-2 0,-2l0 0c0,0 0,0 0,0l0 0c0,0 0,0 0,0zm0 2l0 1 0 0 0 0 0 0c1,2 1,2 3,3l0 0 0 0c0,0 0,0 0,0l0 0c0,0 0,0 0,0 0,0 0,0 1,0 0,0 0,0 0,0 0,0 1,0 1,0l0 0c0,0 0,0 0,0 0,0 0,-1 0,-1l0 0 0 0c0,0 0,-1 0,-1 0,-1 0,-1 1,-1l0 0 0 0c0,1 1,2 1,4l0 0c1,0 2,-1 2,-1 2,-1 3,-1 2,-6l0 0c0,-2 0,-2 0,-2l0 0c0,0 0,0 0,0 0,0 0,0 0,0l0 0c0,0 -1,0 -1,0 0,0 -1,0 -1,0 -1,0 -1,0 -2,1l0 0 0 0 0 0 0 0 0 0c0,0 0,1 0,2 0,0 0,1 0,1 0,1 0,1 0,1 0,0 0,0 0,0 0,0 0,0 0,0 0,0 0,0 0,0l0 0c0,0 0,0 0,0l0 0 0 0c-1,0 -2,0 -2,1 0,0 -1,1 -1,0 0,0 0,0 -1,0l0 0 0 0c0,0 0,0 0,0l0 0c0,0 0,0 0,0l0 0c0,0 0,0 0,1l0 1 0 -1 0 0 0 0 0 0zm11 -6l0 0c0,0 0,0 0,0l0 0 0 0 -1 0 0 0 0 0 0 0 0 0c0,0 0,0 -1,0l0 0c0,0 0,0 -1,0l0 0c0,0 -1,0 -1,0 0,0 -1,0 -1,1 0,0 0,0 0,0 0,0 0,0 0,0 0,0 0,0 1,0l0 0c0,0 1,0 1,0 0,0 1,0 1,0l0 0c0,0 0,0 1,0 0,0 1,0 1,0 0,0 0,0 1,0l0 0zm-5 2c0,0 0,0 0,0l0 0zm-1 4c0,0 0,0 0,0l0 0 0 0 0 0z"/>
     <path class="fil1" d="M25 49l0 0c0,0 0,0 0,0 0,0 0,0 0,0 0,-1 0,-1 0,-2 0,0 0,-1 0,-1l0 0 0 0c0,0 1,0 1,0 0,0 1,0 1,0l-2 -6 0 0c0,0 0,-1 0,-1 0,-1 0,-1 -1,-2 0,0 0,0 0,0l0 0c0,0 -1,0 -1,1 0,0 0,0 0,0 -1,1 -2,3 -3,5 0,2 0,3 1,5 0,0 0,0 0,0 0,1 1,1 2,1 1,0 1,0 2,1zm0 0l0 0 0 0 0 0c-1,0 -2,0 -2,-1 -1,0 -1,-1 -2,-1 0,0 0,0 0,0l0 0c-1,-1 -1,-3 -1,-5 0,-2 1,-4 3,-5 0,0 0,0 0,0 1,0 1,-1 1,-1l0 0c0,0 0,0 0,0l0 0 0 0 0 0 0 0 0 0c0,1 0,1 1,2 0,0 0,1 0,1l0 0 2 7 0 0c0,1 0,1 0,2 0,0 0,1 0,2 0,0 0,0 0,0l0 0c0,0 0,0 -1,0l0 0 0 0c0,0 0,0 0,-1 0,0 0,-1 0,-1l0 0 0 0c0,0 0,-1 0,-2 0,0 0,0 -1,0 0,0 -1,0 -1,0 0,0 0,0 0,1 0,1 0,1 0,2 0,0 0,0 0,0 0,0 0,0 0,0l0 0 0 0zm2 -3c0,0 0,1 0,1l0 0c0,1 0,1 0,1l0 0 0 0 0 0c0,0 0,0 0,0 0,0 0,-1 0,-1 0,0 0,-1 0,-1z"/>
     <path class="fil1" d="M60 29c0,0 0,0 0,0l0 0c0,0 0,0 0,0 0,0 0,0 1,0l0 0 0 0c1,0 1,0 2,0 1,0 1,0 2,1 0,0 0,0 1,0 0,0 0,0 0,0 0,0 0,0 0,0 0,0 0,0 0,-1 0,0 -1,0 -1,0l0 0c0,0 -1,0 -1,0l-1 0 1 0c0,0 1,0 1,-1 0,0 1,0 1,0 0,0 0,-1 0,-1 0,0 0,-1 0,-1 0,0 0,0 1,-1 0,0 1,0 1,0 0,0 1,0 1,1 0,0 0,1 1,1 0,0 0,1 0,1 0,0 0,1 0,1l0 0c0,0 0,0 1,1 0,0 0,0 0,1 0,0 0,0 0,1l0 1 -1 0c0,0 -1,0 -1,0l0 0c0,0 0,0 -1,0 0,0 0,0 0,0 0,0 0,0 0,0 0,0 1,0 1,0 0,0 1,0 1,0 0,0 1,0 1,1l0 0c0,0 0,1 1,1l0 0 0 0 0 0 0 0 0 1 0 0c0,0 0,-1 0,-1 0,-1 0,-1 1,-2 0,-2 0,-3 -1,-4 -1,-1 -2,-2 -4,-3 -2,-1 -4,-1 -5,0 -1,0 -2,2 -3,3 0,0 0,1 -1,2 0,0 0,1 0,1zm0 0c0,0 0,0 -1,0l0 0 0 0c0,0 0,-1 0,-1 0,-1 0,-2 1,-2 1,-2 2,-3 3,-3 1,-1 3,-1 5,0 2,1 4,1 4,3 1,1 1,3 1,5 0,0 0,1 -1,2 0,1 0,1 -1,1l0 0 0 0 0 0 0 0 0 0 0 -1 0 0c0,0 0,0 0,0l0 0 0 0c0,0 0,0 0,-1l0 0c0,0 -1,-1 -1,-1 0,0 -1,0 -1,0 0,0 -1,0 -1,0l0 0 0 0c0,0 0,0 0,-1 0,0 0,0 1,-1 0,0 1,0 1,0l0 0c0,0 1,0 1,0l0 0c0,0 0,0 0,-1 0,0 0,0 -1,-1 0,0 0,0 0,0l0 0 0 0c0,0 0,0 0,-1 0,0 0,-1 0,-1 0,0 0,0 0,-1 0,0 0,0 -1,0 0,0 -1,0 -1,0 0,0 0,0 -1,0 0,0 0,0 0,1 0,0 0,1 0,1l0 0 0 0c0,0 -1,0 -1,0 0,0 -1,0 -1,0 0,0 0,0 1,0l0 0c0,0 1,0 1,1 0,0 0,1 0,1l0 0c0,0 0,0 0,0l0 0c0,0 0,0 0,0 0,0 -1,0 -1,0 0,0 -1,-1 -1,-1 0,0 -1,0 -1,0 0,0 0,0 0,0l0 0c0,0 0,0 0,0l0 0 0 0c0,0 0,0 0,0l0 0z"/>
     <path class="fil1" d="M56 39c0,0 0,0 -1,0l0 0c0,0 -1,1 -1,1 0,0 0,0 0,0l0 0c0,0 0,0 0,0l0 0c0,0 0,0 -1,1 0,0 0,0 0,0 0,0 0,1 0,1l0 0c0,0 0,0 0,0 0,0 0,0 0,0l0 0 0 0c0,0 0,0 0,0 0,1 -1,2 -1,3 0,1 0,1 0,2 0,0 0,0 1,0l0 0c0,0 0,0 0,0 0,0 0,0 0,0 0,0 0,0 0,0 0,0 1,0 1,0 0,0 0,-1 0,-2 0,0 0,-1 0,-1 0,0 0,-1 1,-1 0,0 0,0 0,0 0,0 0,0 1,-1 0,0 0,0 0,0l0 0c0,0 0,0 1,0 0,0 1,-1 1,-1 0,0 1,0 1,0l0 0 0 0c0,0 0,1 0,1l0 0c0,0 0,0 0,0 0,1 0,1 0,2 0,1 0,2 0,2l0 0 0 0 0 0c1,0 2,1 3,1l0 -1c-1,-1 -1,-3 -1,-5 0,0 0,-1 -1,-2 0,-1 -1,-3 -1,-4 -1,0 -2,1 -2,1 0,0 -1,0 -1,0zm-1 0c0,0 1,0 1,0l0 0 0 0c0,0 0,0 1,0 1,0 2,-1 3,-1l0 0 0 0c0,0 1,2 1,4 0,1 1,2 1,2 0,2 1,3 1,5l0 1 0 0 0 0c-1,0 -3,-1 -4,-1l0 0 0 0 0 0 0 -1c0,-1 0,-1 0,-2 0,-1 0,-2 0,-2 0,0 0,0 0,0 0,0 0,0 0,-1 0,0 -1,0 -1,0 0,0 -1,0 -1,1 0,0 0,0 0,0l0 0c0,0 0,0 0,0 0,1 0,1 0,1 0,0 0,0 0,0l0 0 0 0 0 0 0 0c0,0 0,0 0,1 0,0 0,1 0,1 0,0 0,1 0,2l0 0 0 0 0 0c0,0 -1,0 -1,0l0 0 0 0 0 0c0,0 0,0 0,0l0 0c0,0 0,0 0,0l0 0 0 0c0,0 0,0 0,0l0 0c0,0 0,0 -1,0l0 0 0 0c0,0 0,-1 0,-2 0,-1 1,-2 1,-3l0 0 0 0c0,0 0,0 0,0l0 0 0 0 0 0 0 0c0,0 0,0 0,0 0,0 0,0 0,0l0 0c0,0 0,0 0,-1l0 0 0 0c0,0 0,0 0,0l0 0c0,0 0,0 1,-1l0 0c0,0 0,0 0,0l0 0c0,0 0,0 0,0 0,0 0,0 1,-1l0 0z"/>
     <path class="fil1" d="M73 52c0,0 1,1 1,2 1,1 1,3 1,4l0 0 0 0 0 0c0,0 0,0 0,0l0 0 0 0 0 0 0 0 0 0c0,0 0,0 1,0 0,0 0,0 1,0l0 0c1,0 1,0 0,-1 0,0 0,0 0,0 0,-2 -1,-5 -1,-8 0,-2 0,-4 0,-5 0,0 0,0 0,0l0 0 0 0c0,0 0,0 0,0 0,0 -1,0 -1,0 -1,0 -1,0 -1,0 0,0 0,0 -1,0 0,0 0,0 0,0 0,1 0,1 0,1 0,1 0,3 0,4 0,1 0,1 0,2 0,0 0,1 0,1 0,0 0,0 0,0zm1 2c0,-1 -1,-2 -1,-2l0 0 0 0c0,0 0,0 0,-1 0,0 0,0 0,-1 0,0 0,-1 0,-2 0,-1 0,-3 0,-4 0,0 0,-1 0,-1 0,0 0,-1 0,-1l0 0 0 0c0,0 1,0 1,0 0,0 1,0 1,0 0,0 1,0 1,0 0,0 1,0 1,0l0 0 0 1c0,0 0,0 0,0l0 0c0,0 0,0 0,0l0 0 0 0c0,1 0,3 0,5 0,3 1,6 1,8 0,0 0,0 0,0 0,1 0,1 -1,1l0 0c0,0 0,0 -1,0 0,0 0,0 -1,0l0 0 0 0 0 0 0 0c0,0 0,0 0,0 0,0 0,0 0,0l0 0 0 0c0,-1 -1,-2 -1,-4zm2 4l0 0 0 0 0 0z"/>
     <path class="fil1" d="M76 37l0 -1 0 -4 1 4 0 0 0 0 0 0c0,0 0,0 1,-1 0,0 0,-1 1,-1 0,0 0,-1 1,-2 0,-1 0,-1 0,-1l-1 -2 1 1c0,0 0,0 0,0l0 0c0,0 0,0 0,0 0,0 0,0 0,0l0 0 0 0 0 0 0 0c0,0 0,0 0,0 0,0 0,0 1,0l0 0 0 0c0,0 0,0 0,0l0 0c0,0 0,0 0,0 0,0 0,0 0,0l0 0c0,0 0,0 0,0l0 0 0 0 0 0 0 0c0,2 0,3 -1,4 -1,1 -1,3 -2,4 -1,1 -2,2 -3,2 -1,1 -3,1 -5,1l0 0 0 0 0 -1c0,0 0,0 0,0l0 0c0,0 0,0 0,0 0,0 0,-1 0,-1l0 0c0,0 0,0 0,-1l0 0 0 0 0 0c0,0 0,0 0,-1 0,0 0,0 0,0 0,0 0,0 0,0l0 0 0 0c0,0 0,0 1,0 0,0 1,0 1,0 1,0 1,0 1,0 0,0 0,0 0,0zm0 0l0 0 0 0c0,0 0,0 0,0l0 0 0 0c0,0 0,0 0,0 0,0 0,0 -1,1 0,0 -1,0 -1,0 0,0 0,0 0,0 0,0 0,0 0,0 0,0 0,0 0,0 0,0 0,0 0,1l0 0 0 0 0 0c0,0 0,0 0,1l0 0c0,0 0,1 0,1l0 0 0 0c0,0 0,0 0,0l0 0 0 0 0 0 0 0 0 1c2,0 3,0 4,-1 1,-1 2,-1 3,-2 1,-1 1,-2 2,-4 0,-1 1,-3 1,-4l0 0c0,0 0,0 0,0l0 0c0,0 0,0 0,0 0,0 0,0 0,0l0 0c0,0 0,0 0,0 0,0 0,0 0,0 0,0 0,0 0,0 0,0 0,0 -1,0 0,0 0,0 0,0 0,0 0,0 0,1 0,1 0,2 -1,2 0,0 0,1 -1,1 0,0 0,1 -1,1l-1 1 0 0z"/>
     <path class="fil1" d="M53 43c0,0 0,0 -1,0l0 0 0 0c0,-2 0,-4 0,-5 0,-2 0,-4 0,-5 0,-2 0,-4 0,-5 0,-2 0,-4 0,-6 0,-2 0,-5 1,-7 0,-1 0,-3 0,-4l0 -3 0 -3 0 0c0,-1 0,-5 1,-5l0 0 0 0 1 0 0 0 0 0c0,0 0,1 0,3 0,3 -1,7 -1,7 0,4 -1,9 -1,14 0,2 0,5 -1,7 0,1 0,2 0,3 0,2 0,5 -1,7l0 0c0,0 0,1 0,1l0 0c0,0 0,0 0,0 0,0 0,0 0,0l0 0 0 0zm0 -1c0,0 0,0 0,0 0,0 0,0 0,0l0 0c0,0 0,0 0,-1l0 0c0,-2 0,-5 1,-7 0,-1 0,-2 0,-3 0,-2 0,-5 1,-7 0,-5 1,-9 1,-14 0,0 0,-4 1,-7 0,-1 0,-2 0,-3l-1 0c0,1 0,4 0,5l0 0 0 0 0 0 0 3 0 3 0 0c0,1 0,3 0,4 0,2 0,5 -1,7 0,2 0,4 0,6 0,2 0,4 0,5 0,2 0,4 0,5 0,2 0,3 0,5z"/>
     <path class="fil1" d="M56 45c0,1 0,4 0,5l0 1 0 5 0 0 0 0 0 0c0,0 0,0 0,0 0,0 0,0 0,0 0,0 1,-1 1,-2 0,0 0,-1 1,-1 1,-1 1,-1 1,-2 0,0 0,-1 1,-1 0,0 0,-1 0,-1 0,0 0,0 0,-1 0,0 0,0 0,0 0,0 0,0 0,-1 0,0 0,0 0,0l0 0c0,0 0,0 0,-1 0,-1 0,-1 0,-2 0,-1 0,-2 0,-2 0,0 0,0 0,0 0,0 0,0 0,-1 0,0 -1,0 -1,0 0,0 -1,0 -1,1 0,0 0,0 0,0l0 0c0,0 0,0 0,0 0,1 0,1 0,1 0,0 0,0 0,0zm-1 5c0,-2 0,-5 0,-5l0 0 0 0c0,0 0,0 0,0 0,0 0,0 1,-1 0,0 0,0 0,0l0 0c0,0 0,0 1,0 0,0 1,-1 1,-1 0,0 1,0 1,0l0 0 0 0c0,0 0,1 0,1l0 0c0,0 0,0 0,0 0,1 0,1 0,2 0,1 0,2 0,2l0 0 0 0c0,0 0,0 0,0l0 0c0,0 0,0 0,0 0,0 0,0 0,1 0,0 0,0 0,0 0,0 0,0 0,1 0,0 0,1 0,1l0 0 0 0c0,0 0,1 -1,1 0,0 -1,1 -1,2 0,0 0,1 -1,1 0,1 -1,2 -1,2l0 0 0 0 0 0c0,0 -1,0 -1,0 0,0 0,0 0,-1l0 0 0 0 0 -5 0 0 0 -1z"/>
     <path class="fil1" d="M31 37c-1,0 -1,1 -2,1l0 0c0,1 -1,2 -1,3 0,0 0,0 0,0 0,1 0,2 1,2 1,1 1,1 2,1 0,0 0,0 0,0 1,0 2,-1 2,-2 0,0 0,-1 0,-2 0,-1 0,-1 0,-1 -1,-1 -1,-2 -3,-2zm-2 1c1,-1 1,-1 2,-1 1,0 3,1 3,2 0,0 0,1 0,2 0,1 0,1 0,2 0,1 -1,3 -3,3 0,0 0,0 0,0 -1,0 -2,0 -2,-1 -1,-1 -1,-1 -1,-2 0,0 0,0 0,0 0,-1 0,-2 1,-3l0 0z"/>
     <path class="fil1" d="M28 20c0,0 -1,0 -1,0 0,0 0,0 0,0l0 0c0,0 0,0 -1,0 0,0 0,0 -1,0l0 0c0,0 0,0 0,0l0 0c0,0 0,0 0,0 0,1 0,1 0,2 0,0 0,0 0,1l0 0c0,0 1,0 1,0 1,0 3,0 3,0l0 0 0 0c0,0 0,0 0,0 0,1 0,2 0,3l0 0c0,0 0,0 0,0l0 0c0,0 0,-1 0,-2 0,0 0,-1 0,-1l0 0 0 0c1,0 1,0 2,0 1,0 2,0 2,0l0 0c0,0 0,-1 0,-1 0,-1 0,-1 0,-1 0,0 0,0 0,0l0 0c0,0 0,0 0,0l0 0c0,0 0,0 0,0 0,0 0,0 0,0 0,0 0,0 -1,0l0 0c0,0 0,0 -1,0l-2 0 -3 0zm-1 0c0,0 1,0 1,0l0 0 0 0 3 0 0 0 0 0 2 0 0 0c0,0 0,0 1,0 0,0 0,0 1,0 0,0 0,0 0,0l0 0c0,0 0,0 0,0l0 0c0,0 0,0 0,0l0 0c0,0 0,0 0,0l0 0 0 0c0,1 0,1 0,2 0,0 0,1 0,1l0 0 0 0 0 0 0 0 0 0c0,0 -1,0 -2,0 -1,0 -1,0 -2,0 0,0 0,0 0,1 0,1 1,2 0,3l0 0c0,0 -1,0 -1,0l0 0c0,-1 0,-2 0,-3l0 0c-1,0 -2,0 -3,0 -1,0 -1,0 -1,0l0 0 0 0 0 0 0 0 0 0c0,0 0,-1 0,-1 0,-1 -1,-1 0,-2l0 0 0 0c0,0 0,0 0,0l0 0c0,0 0,0 0,0l0 0 0 0 0 0 0 0 0 0c0,0 0,0 1,0 0,0 0,0 1,0 0,0 0,0 0,0z"/>
     <path class="fil1" d="M25 20l0 0c0,0 0,0 0,0l0 0 0 0c0,0 0,-1 0,-2 0,-1 0,-2 0,-3 0,-1 0,-1 0,-1 0,0 0,-1 1,-1 0,0 1,0 1,-1 0,0 0,0 0,0 0,0 0,0 0,0 0,-1 0,-1 1,-2 0,0 1,-1 2,-1 0,0 1,0 1,0 1,0 2,0 2,0 1,0 1,1 1,2 0,0 1,0 1,0l0 0c0,0 1,0 1,0 0,0 1,0 1,1 0,0 0,1 0,1 0,1 0,2 0,2 0,1 0,2 0,2l0 0 0 0c0,0 0,0 0,0l0 0c0,0 0,0 0,0l0 0c0,0 0,0 0,0 0,0 0,0 0,0 0,0 0,0 -1,0l0 0c0,0 0,0 -1,0l0 0 0 0c0,0 1,-1 1,-1l0 0 0 0 0 0c0,0 0,0 0,0 0,0 0,0 0,-1 0,0 0,-1 0,-1 0,0 0,0 0,-1l0 0c0,0 0,0 -1,0 0,0 -1,0 -1,0 0,0 -1,0 -1,0l0 0 -1 0c-1,0 -2,0 -3,0 -1,0 -1,0 -2,0l0 0 0 0c-1,0 -1,0 -1,1 0,0 0,0 -1,1l0 0 0 0 0 0c0,0 0,0 0,1l0 0c0,0 0,0 0,0 0,0 0,0 0,1l0 0c0,0 0,1 0,1 0,0 0,1 0,1l0 0 0 0c0,0 0,0 0,0zm-1 -4c0,0 0,0 0,-1l0 0c0,0 0,0 1,-1 0,0 0,-1 1,-1l0 0c0,0 -1,0 -1,1 0,0 0,0 -1,1 0,0 0,1 0,1 0,0 0,0 0,0zm2 -3l0 0c0,0 1,0 2,0 1,0 3,0 3,0l0 0 1 0 0 0 0 0 0 0c0,-1 0,-1 -1,-2 -1,0 -1,0 -2,0 0,0 -1,0 -1,0 -1,0 -1,0 -1,1 0,0 -1,1 -1,1l0 0c0,0 0,0 0,0l0 0 0 0 0 0zm9 3c0,0 0,0 0,0l0 0 0 0 0 0c0,0 -1,1 -1,1l0 0c0,0 0,0 1,0 0,0 0,0 0,0l0 0c0,0 0,0 0,0l0 0c0,0 0,0 0,0 0,-1 0,-1 0,-2 0,0 0,0 0,0z"/>
     <path class="fil1" d="M65 46l-1 -2 1 1c0,0 0,0 0,-1 0,0 0,0 0,-1 0,0 0,-1 0,-1 0,0 0,0 0,-1l0 0 -1 -4 0 0 0 0 1 0c2,1 3,1 5,0l0 0 0 0 -3 8 0 0 0 0c0,0 0,0 0,-1l0 0c0,0 0,0 0,-1zm0 0c0,0 0,0 0,1l0 0 0 0 3 -7c-2,0 -3,0 -5,-1l0 0 1 3 0 0c0,0 0,0 0,1 0,0 0,1 0,1 0,0 0,0 0,1 0,0 0,1 0,1z"/>
     <path class="fil1" d="M51 48c0,1 0,1 0,1l0 0 0 1 0 0c0,0 0,1 0,1 0,0 0,0 0,1 0,1 0,2 1,2 0,0 1,0 1,0 0,0 1,0 1,0 0,0 1,-1 1,-1 0,-1 0,-1 0,-1 0,0 0,0 0,-1 0,0 0,0 0,0 0,0 0,-1 0,-1 0,0 0,0 0,0 0,0 0,0 0,0 0,0 -1,0 -1,0l0 0 0 0 0 0c0,0 0,0 0,0l0 0c0,0 0,0 0,0l0 0 0 0c0,0 0,0 0,0l0 0c0,0 0,0 0,0zm28 -18c0,0 0,0 0,0l0 0c0,0 0,0 0,0 0,0 0,0 0,0l0 0 0 0 0 0 0 0c0,0 0,0 0,0 0,0 0,0 1,0l0 0 0 0c0,0 0,0 0,0l0 0c0,0 0,0 0,0 0,0 0,0 0,0l0 0c0,0 0,0 0,0l0 0 0 0 0 0c0,-1 0,-1 0,-1 0,0 0,-1 0,-1 0,0 0,0 0,0l0 0c0,-1 1,-2 0,-3 0,0 -1,0 -1,0 0,0 0,0 0,0l0 0c0,0 0,-1 0,-2 0,-1 0,-2 -1,-4l0 -2c0,-1 0,-3 -1,-4l0 0 -2 -12 0 0c0,0 0,0 0,0l0 0c0,0 0,0 0,0 0,0 0,0 0,0 0,1 1,11 2,17 0,2 1,4 1,4 0,0 0,0 0,1 0,1 0,2 0,2l0 0 0 0c-2,1 -2,2 -1,3 0,0 0,1 0,1l0 0c0,0 0,0 0,0 0,0 0,1 0,1 0,0 0,1 0,1zm0 0c0,0 0,0 0,0l0 0 0 0c0,0 0,-1 0,-1 0,0 0,-1 0,-1 0,0 0,0 0,0l0 0c0,0 0,0 0,-1 0,-1 0,-2 1,-3 0,-1 0,-1 0,-2 0,0 0,-1 0,-1 0,-1 0,-2 -1,-4 -1,-6 -2,-17 -2,-17l0 0 0 0c0,0 0,0 1,0 0,0 0,0 1,0l0 0 0 0c0,0 0,0 0,0 0,0 0,0 0,0l0 0c0,0 0,0 0,0l0 0c0,0 0,0 0,0l0 0 2 12 0 0c0,1 0,3 1,4l0 2 0 0c0,1 0,3 1,4 0,1 0,2 0,2l0 0c0,0 0,0 0,0 0,0 0,0 1,1 1,1 1,3 0,3l0 0c0,0 0,0 0,0l0 0c0,1 0,1 0,1 0,1 0,1 0,2 0,1 0,3 -1,4 0,1 -1,2 -2,3 -1,2 -2,2 -3,3 0,0 0,0 0,0l0 0 0 1 0 -1c0,0 0,0 0,0l0 0 0 0c0,0 0,0 0,0 0,0 -1,0 -1,0 -1,0 -1,0 -1,0 0,0 0,0 -1,0 0,0 0,0 0,0 0,1 0,1 0,1 0,1 0,3 0,4 0,1 0,1 0,2 0,0 0,1 0,1 0,0 0,0 0,0 0,0 1,1 1,2 1,1 1,3 1,4l0 0 0 0 0 0c0,0 0,0 0,0l0 0 0 0 0 0 0 0c0,0 0,0 0,0l0 0 0 0 0 0 0 0 0 0 0 0 0 0 0 0 0 0 0 0c0,0 0,0 0,0l0 0 0 0c0,0 0,0 0,0l0 0 1 3 0 0c0,0 0,1 0,1 0,0 0,1 0,1 0,0 0,0 0,1 0,0 0,1 0,1 0,0 0,1 0,1 0,1 0,1 0,2 0,0 0,0 0,0l0 0c0,0 0,0 0,0 0,0 0,1 0,2 0,1 0,1 0,2 0,0 0,0 0,1 0,2 0,2 -2,3 0,0 -1,0 -1,0l0 0c0,0 -1,0 -1,0 0,0 0,0 -1,0 0,0 -1,0 -1,0 0,0 0,1 0,1 0,1 -1,2 -1,3 0,1 0,1 0,1 0,0 0,0 0,0l0 0 0 0c0,1 1,1 0,2l0 0c0,0 0,1 0,1l0 0c0,0 0,1 -1,1 0,0 -1,1 -1,1 0,0 -1,0 -1,0 0,0 -1,-1 -1,-1 0,-1 -1,-1 0,-2 0,0 0,-1 0,-1 0,0 0,0 0,-1 0,-1 0,-2 -1,-3l0 -1c0,0 0,0 -1,0l0 0 0 0 0 0 0 0 0 0 -1 3 0 0c0,0 0,0 0,1 0,0 0,1 0,1 0,0 0,1 0,1 0,0 0,1 0,1 0,0 0,1 -1,1 0,0 -1,0 -1,1 0,0 -1,0 -1,0 0,0 0,0 -1,-1l0 0c0,0 0,-1 -1,-1 0,0 0,-1 0,-1l0 0c0,0 0,-1 0,-1 0,0 0,0 0,-1l0 0c0,0 0,0 0,0l0 0c0,0 0,-1 -1,-2 0,-1 -1,-3 -1,-3 -1,0 -1,0 -2,-1 -1,0 -1,0 -2,-1l0 0c-2,-1 -2,-2 -2,-3 0,0 0,-1 0,-1 0,0 0,-1 0,-2 0,-1 0,-1 0,-2l0 0 0 0c0,0 0,0 0,-1 0,0 0,-1 0,-1l0 0 0 0c0,0 0,-1 0,-1l0 0c0,0 0,-1 0,-1 0,0 0,-1 0,-1 0,0 0,-1 0,-1l0 0 1 -4 0 0c0,0 0,-1 0,-1l0 0c0,0 0,-1 0,-1l0 0 0 0c0,0 1,-1 1,-2 0,0 0,-1 1,-1 1,-1 1,-1 1,-2 0,0 0,-1 1,-1 0,0 0,-1 0,-1 0,0 0,0 0,-1 0,0 0,0 0,0 0,0 0,0 0,-1 0,0 0,0 0,0l0 0c0,0 0,0 0,-1l0 -1 0 1 0 0 0 0c1,0 2,1 3,1l0 -1c-1,-1 -1,-3 -1,-5 0,0 0,-1 -1,-2 0,-2 -1,-3 -1,-4l0 0 0 0 1 0c0,0 0,0 0,0 0,0 0,0 0,0l0 0c0,0 0,0 0,0l0 0c-2,-2 -2,-4 -1,-6 0,0 0,0 0,-1l0 0 -1 -1 2 0c0,0 0,0 0,0l0 0 0 0c0,0 0,0 0,0l0 0 0 0c0,0 0,0 1,0 1,0 1,0 3,0 1,0 1,0 1,1 0,0 1,1 1,1l0 0 0 0c-1,0 -1,1 -1,1 -1,0 -1,0 -2,0 -1,0 -1,0 -1,-1 0,0 0,0 -1,-1l0 0c0,0 0,0 0,1 0,0 0,0 0,1l0 0c0,0 0,0 0,1 0,1 0,2 0,2 0,0 1,1 1,1 0,0 0,0 0,0 1,1 3,1 5,2 2,0 3,0 4,-1l0 0c0,0 0,0 0,0 0,-1 1,-1 1,-2 0,-1 0,-1 0,-2 -1,0 -2,0 -2,0 0,0 -1,0 -1,0 0,0 0,0 0,1 0,0 0,1 0,1l0 0c0,0 0,0 0,0l0 0 0 0c0,0 0,0 0,0l0 0c0,0 0,0 0,0l0 0 0 0 0 0 0 0c0,0 -1,0 -1,0 0,0 0,0 0,0l0 0c0,0 0,0 0,0 0,0 0,0 0,0 0,0 0,0 0,0l0 0c0,0 0,0 0,0 -1,0 -1,0 -2,0 0,0 0,0 -1,0l0 0c0,0 0,0 0,-1 0,0 0,-1 0,-1l0 0c0,0 1,0 1,0 0,0 0,1 1,0 0,0 0,0 0,-1 0,0 -1,0 -1,-1l0 0 0 0c0,0 0,0 1,0l0 0c0,0 0,0 0,0l0 -3 0 0 0 0 0 0c0,0 0,0 0,0 0,0 0,0 0,0 0,0 0,0 0,0l0 0 0 0c0,0 0,0 0,0 1,0 2,0 3,0l0 0c0,0 1,0 1,0 0,0 1,0 1,1l0 0c0,0 0,0 0,0l0 0 0 0 0 0 0 1 0 0 0 0 0 0 0 0 0 0 0 0c0,2 -1,3 -1,4l0 0c0,0 1,0 2,0l0 0 0 0c0,0 0,0 0,0l0 0 0 0c0,0 0,0 0,0 0,0 0,0 0,0 0,0 0,0 0,1l0 0 0 0 0 0c0,0 0,0 0,1l0 0c0,0 0,1 0,1l0 0 0 0 0 1c2,0 3,0 4,-1 1,-1 2,-1 3,-2 1,-1 1,-2 2,-4 0,-1 1,-3 1,-4l0 0c0,0 0,0 0,0l0 0c0,0 0,0 0,0 0,0 0,0 0,0l0 0c0,0 0,0 0,0 0,0 0,0 0,0 0,0 0,0 0,0 0,0 0,0 -1,0 0,0 -1,0 -1,0l0 0zm-11 22l0 0 0 2 0 0c0,0 0,0 0,0l0 0c0,0 0,1 0,1l1 6c0,1 0,1 0,2l0 0 0 0 0 2 0 0c0,0 0,1 0,1 0,0 0,1 0,1l0 0 0 0 0 0 0 0 0 0 0 0 0 0 0 0 0 0 0 0 0 0 0 0 0 0 0 0 0 0 0 0 0 0 0 0 0 0 0 0 0 0 0 0 0 0 0 0 0 0 0 0 0 0 0 0 0 0 0 0 0 0 0 0 0 0 0 0 0 0 0 0 0 0 0 0 0 0 0 0 0 0 0 0 0 0 0 0 0 0 0 0 0 0 0 0 0 0 0 0 0 0 0 0 0 0 0 0 0 0 0 0 0 0 0 0 0 0 0 0 0 0 0 0 0 0 0 0 0 0 0 0 0 0 0 0 0 0 0 0 0 0 0 0 0 0 0 0 0 0 0 0 0 0 0 0 0 0 0 0 0 0 0 0 0 0 0 0 0 0 0 0 0 0 0 0 0 0 0 0 0 0 0 0 0 0 0 0 0 0 0 0 0 0 0 0 0 0 0 0 0 0 0 0 0 0 0 0 0 0 0 0 0 0c1,0 1,0 1,0l3 -1c0,0 0,0 0,0l0 0 0 0 0 0 0 0 0 0 0 0 0 0 0 0 0 0 0 0 0 0 0 0 0 0 0 0 0 0 0 0 0 0 0 0 0 0 0 0 0 0 0 0 0 0 0 0 0 0 0 0 0 0 0 0 0 0 0 0 0 0 0 0 0 0 0 0 0 0 0 0 0 0 0 0 0 0 0 0 0 0 0 0 0 0 0 0 0 0 0 0 0 0 0 0 0 0 0 0 0 0 0 0 0 0 0 0 0 0 0 0 0 0 0 0 0 0 0 0 0 0 0 0 0 0 0 0 0 0 0 0 0 0 0 0 0 0 0 0 0 0 0 0 0 0 0 0 0 0 0 0 0 0 0 0 0 0 0 0 0 0 0 0 0 0 0 0 0 0 0 0 0 0 0 0 0 0 0 0 0 0 0 0 0 0 0 0 0 0 0 0 0 0 0 0 0 0 0 0 0 0 0 0 0 0 0 0 0 0 0 0 0 0 0 0 0 0 0 0c0,0 0,-1 0,-1 0,0 0,-1 0,-1 0,0 0,-1 0,-1 0,0 0,-1 0,-1l0 0 -1 -3c0,0 0,0 0,0l0 0c0,0 0,0 0,0 0,0 0,0 0,0 0,0 0,0 0,0l0 0 0 0c0,-1 -1,-2 -1,-4 0,-1 -1,-1 -1,-2l0 0 0 0 0 0 0 0 0 0 0 0 0 0 0 0 0 0 0 0 0 0 0 0 0 0 0 0 0 0 0 0 0 0 0 0 0 0 0 0 0 0 0 0 0 0 0 0 0 0 0 0 0 0 0 0 0 0 0 0 0 0 0 0 0 0 0 0 0 0 0 0 0 0 0 0 0 0 0 0 0 0 0 0 0 0 0 0 0 0 0 0 0 0 0 0 0 0 0 0 0 0 0 0 0 0 0 0 0 0 0 0 0 0 0 0 0 0 0 0 0 0 0 0 0 0 0 0 0 0 0 0 0 0 0 0 0 0 0 0 0 0 0 0 0 0 0 0 0 0 0 0 0 0 0 0 0 0 0 0 0 0 0 0 0 0 0 0 0 0 0 0 0 0 0 0 0 0 0 0 0 0 0 0 0 0 0 0 0 0 0 0 0 0 0 0 0 0 0 0 0 0 0 0 0 0 0 0 0 0 0 0c-1,0 -1,0 -2,0l0 0 0 0 0 0 0 0 0 0 0 0 0 0 0 0 0 0 0 0 0 0 0 0 0 0 0 0 0 0 0 0 0 0 0 0 0 0 0 0 0 0 0 0 0 0 0 0 0 0 0 0 0 0 0 0 0 0 0 0 0 0 0 0 0 0 0 0 0 0 0 0 0 0 0 0 0 0 0 0 0 0 0 0 0 0 0 0 0 0 0 0 0 0 0 0 0 0 0 0 0 0 0 0 0 0 0 0 0 0 0 0 0 0 0 0 0 0 0 0 0 0 0 0 0 0 0 0 0 0 0 0 0 0 0 0 0 0 0 0 0 0 0 0 0 0 0 0 0 0 0 0 0 0 0 0 0 0 0 0 0 0 0 0 0 0 0 0 0 0 0 0 0 0 0 0 0 0 0 0 0 0 0 0 0 0 0 0 0 0 0 0 0 0 0 0 0 0 0 0 0 0 0 0 0 0zm-1 0l-3 0c0,0 0,1 0,1l0 0c0,0 0,0 0,0l0 0c0,1 0,2 0,2 0,1 0,1 0,2l-1 3 0 0c0,0 0,1 0,2 0,1 0,3 -1,4l0 0 0 0 0 0 0 0 0 0 0 0 0 0 0 0c0,0 0,0 0,0l0 0 0 0 0 0 0 0c0,0 0,0 0,0 0,0 1,0 2,1 1,0 2,1 2,1 0,0 2,0 3,-1 0,0 1,0 1,0 0,0 0,-1 0,-1 0,0 0,-1 0,-1l0 -2 0 0 0 0 0 0c0,-1 0,-1 0,-2l0 0 -1 -6 0 0c0,-1 0,-1 0,-1 0,0 0,0 0,0l0 -2zm4 -10l0 0 0 0 0 -1c0,0 0,0 -1,0 0,0 0,0 -1,0 0,0 0,0 0,1 0,0 0,0 0,1 0,0 0,-1 0,-1zm-1 -1c0,0 1,0 1,0l-1 -2c0,0 -1,0 -1,0 0,0 -1,0 -1,0 0,0 0,1 0,1 0,0 0,1 0,1l0 0c0,0 0,0 1,0zm0 1c0,0 0,-1 0,-1l0 0c0,0 -1,0 -1,0 0,0 0,0 -1,0 0,0 0,1 0,1 0,0 0,1 0,1l0 0 0 0c0,0 1,0 1,0l0 0c0,0 1,0 1,0 0,0 0,-1 0,-1zm0 1c0,0 0,0 -1,0l0 0c0,0 -1,0 -1,0 0,0 0,0 0,0l0 0c0,0 0,0 0,1 0,0 0,-1 0,-1 0,0 0,-1 0,-1zm-2 0l0 0 0 0c0,0 -1,0 -1,0 0,0 0,0 -1,0 0,0 0,1 0,1 0,0 0,1 0,1l0 0 0 0c0,0 1,0 1,0 0,0 1,0 1,0 0,0 0,-1 0,-1l0 0c0,0 0,0 0,-1zm1 2l0 0c0,1 -1,2 -1,2l0 0c0,0 1,0 1,0 1,0 1,0 2,0 0,-1 0,-2 0,-3 0,-1 0,-2 0,-3 0,0 0,0 0,1l0 0c0,0 0,1 0,1 0,0 0,0 0,1 0,1 0,1 -1,1zm2 3l0 0c-1,0 -1,0 -2,0 -1,0 -1,0 -2,0l0 0 0 0c-1,0 -1,0 -2,0l0 0 0 0 0 0c0,0 0,0 0,-1l0 0 0 1 0 0 0 0c-1,0 -1,0 -2,0l0 0c-1,0 -3,-1 -4,-1l0 0c0,0 0,0 0,0 0,0 0,0 0,0 0,0 0,0 0,1 0,0 0,1 0,1l0 0 0 0 0 0 0 0 0 0 0 0 0 0 0 0 0 0 0 0 0 0 0 0 0 0 0 0 0 0 0 0 0 0 0 0 0 0 0 0 0 0 0 0 0 0 0 0 0 0 0 0 0 0 0 0 0 0 0 0 0 0 0 0 0 0 0 0 0 0 0 0 0 0 0 0 0 0 0 0 0 0 0 0 0 0 0 0 0 0 0 0 0 0 0 0 0 0 0 0 0 0 0 0 0 0 0 0 0 0 0 0 0 0 0 0 0 0 0 0 0 0 0 0 0 0 0 0 0 0 0 0 0 0 0 0 0 0 0 0 0 0 0 0 0 0 0 0 0 0 0 0 0 0 0 0 0 0 0 0 0 0 0 0 0 0 0 0 0 0 0 0 0 0 0 0 0 0 0 0 0 0 0 0 0 0 0 0 0 0 0 0 0 0 0 0 0 0 0 0 0 0 0 0 0 0 0 0 0 0 0 0 0 0 0 0 0 0 0 0 0 0 0 0 0 0 0 0 0 0c0,0 0,0 1,0l0 0c1,0 2,1 2,1 1,0 2,0 2,0l0 0 0 0 0 0 3 0 0 0 0 0c0,0 2,0 3,0l0 0c0,0 1,0 1,0l0 0 0 0 0 0 0 0 0 0 0 0 0 0 0 0 0 0 0 0 0 0 0 0 0 0 0 0 0 0 0 0 0 0 0 0 0 0 0 0 0 0 0 0 0 0 0 0 0 0 0 0 0 0 0 0 0 0 0 0 0 0 0 0 0 0 0 0 0 0 0 0 0 0 0 0 0 0 0 0 0 0 0 0 0 0 0 0 0 0 0 0 0 0 0 0 0 0 0 0 0 0 0 0 0 0 0 0 0 0 0 0 0 0 0 0 0 0 0 0 0 0 0 0 0 0 0 0 0 0 0 0 0 0 0 0 0 0 0 0 0 0 0 0 0 0 0 0 0 0 0 0 0 0 0 0 0 0 0 0 0 0 0 0 0 0 0 0 0 0 0 0 0 0 0 0 0 0 0 0 0 0 0 0 0 0 0 0 0 0 0 0 0 0 0 0 0 0 0 0 0 0 0 0 0 0 0 0 0 0 0 0 0 0 0 0 0 0 0 0 0 0 0 0 0 0 0 0 0 0 0 0 0 0 0 0c0,0 0,0 0,0 0,0 0,0 0,-1 0,0 0,-1 0,-1zm-4 0c0,-1 1,-1 1,-2l0 0c0,0 -1,0 -1,0 0,0 0,0 0,1l0 0c0,0 0,0 0,1zm-1 0l0 0c0,0 0,-1 0,-1l0 0 -2 0 0 0 0 0c0,0 0,0 0,1 0,0 0,0 0,0l0 0 0 0c1,0 1,0 2,0 0,0 0,-1 0,-1zm-3 0l0 0c0,0 0,0 -1,0l0 0 0 0 0 0c0,0 0,1 0,1l0 0c0,0 0,1 0,1 0,0 0,0 1,0l0 -1zm-2 1c0,0 0,0 0,-1l0 0c0,0 0,0 0,-1 0,0 -1,0 -1,0 0,0 0,0 -1,0 0,0 0,1 0,1l0 1zm1 -2l0 0c0,0 0,-1 0,-1 0,0 0,-1 0,-1 0,0 -1,0 -1,0 0,0 -1,0 -1,0l0 0 0 0c0,0 0,1 0,1 0,0 0,1 0,1 0,0 0,0 1,0 0,0 1,0 1,0zm-2 -1c0,0 0,0 0,-1l0 0c0,0 0,0 0,-1l-1 -1c0,1 0,1 1,2zm1 -1l0 0 0 0c0,0 0,-1 0,-1 0,0 0,-1 0,-1 0,0 -1,0 -1,0 0,0 -1,0 -1,0l0 0 0 0c0,0 0,1 0,1 0,0 0,1 0,1l2 1zm-2 -1c0,0 0,-1 0,-1 0,0 0,0 0,-1 0,0 0,0 -1,0 0,0 0,0 -1,0l0 0c0,1 0,1 1,2zm1 -1l0 0 0 0c0,0 0,-1 0,-1 0,0 0,-1 0,-1l-2 -1c0,0 0,0 0,1 0,0 0,1 -1,1 0,0 0,0 1,0 0,0 1,0 1,1zm-2 -1c0,0 0,-1 1,-1 0,0 0,0 0,0l-1 -1c0,0 0,0 0,0l0 0c0,1 0,1 1,2zm0 -2l2 1c0,0 0,0 0,0l0 0c0,0 0,0 0,-1 0,0 -1,0 -1,0l0 0c0,0 0,0 0,0 0,0 -1,0 -1,0 0,0 0,0 0,0 0,0 0,0 0,0l0 0zm1 -1c0,0 0,0 0,0 0,0 0,0 0,0 0,0 0,0 0,0zm1 0l0 0c0,0 0,1 0,1l0 0c0,0 0,0 0,0l1 1 0 -2 0 0 0 0 0 0zm1 3c0,0 0,0 0,1 0,0 0,0 0,0 0,0 0,0 1,0 0,0 0,0 1,0 0,0 0,0 0,-1l0 0 0 -1zm1 3c0,0 0,0 0,1 0,0 0,0 0,0 0,0 0,0 0,0 0,0 0,0 1,0 0,0 0,-1 0,-1 0,0 0,0 0,-1l0 0zm1 1c0,0 0,1 0,1 0,0 0,0 0,1l0 0 0 0 3 -7c-2,0 -3,0 -5,-1l0 0 1 3 0 0c0,0 0,0 0,1 0,0 0,1 0,1 0,0 0,0 0,1zm4 -6l0 0 0 1c0,0 0,0 1,0 0,0 1,0 1,0l0 -1 0 0c0,0 0,0 0,0zm-1 2l-1 2c0,0 0,0 0,0 0,0 1,0 1,0 0,0 0,0 0,-1 0,0 0,0 0,-1zm-1 3l-1 2c0,0 0,0 1,0 0,0 1,0 1,0 0,0 0,0 0,-1 0,0 0,0 0,-1zm-1 3l0 1 0 0 0 0c0,0 0,0 0,-1 0,0 0,0 0,1 0,0 0,0 0,1 0,0 1,0 1,0l1 0c0,0 0,0 0,-1 0,0 0,0 0,-1zm4 -8l0 1 2 -1 0 0 0 0 0 0c0,0 0,0 0,0l-1 0c0,0 0,0 -1,0l0 0 0 0zm2 0l-1 1 1 1c0,0 0,0 0,-1l0 0c0,0 0,0 0,-1l0 0 0 0 0 0c0,0 0,0 0,-1 0,0 0,0 0,0zm0 -5l0 -1 0 0c0,0 0,0 0,0l0 0 0 0c0,0 0,0 0,0 0,0 -1,0 -1,0l0 0c-1,0 -2,0 -3,0l0 0 0 0 0 0 0 0c1,1 1,1 2,2 1,0 2,0 2,0l0 0zm-6 1l0 0 0 0 0 0 0 0c0,0 0,0 0,1l0 0 0 0 0 0 0 0c-1,1 -1,0 -2,0 0,0 0,0 0,0l0 0c0,0 0,0 0,0 0,0 0,0 0,0l0 0c0,0 0,0 0,0 0,0 1,0 1,0 0,0 0,0 0,0l0 0c0,0 0,0 1,0l0 0 0 0c0,0 0,0 0,0 0,0 0,0 0,0 0,0 0,0 0,0l0 0c0,0 0,0 0,0 0,0 0,0 0,0 0,0 0,0 0,0l0 0c0,0 0,0 0,0l0 0 0 0 0 0c0,0 0,0 0,0l0 0c0,0 0,-1 0,-1 0,0 0,0 0,0l0 0c0,0 0,0 -1,0 0,0 0,0 -1,0l0 0zm2 1l0 0c0,0 0,0 0,0zm-1 -2c0,0 0,0 0,0 0,0 -1,0 -1,-1l0 1c0,0 0,0 1,0zm-7 -3l0 0c0,0 0,1 1,1 0,0 1,0 1,1 1,0 1,0 1,0 0,0 1,0 1,0 0,0 0,-1 0,-1 0,0 -1,-1 -1,-1 -1,0 -2,0 -2,0 0,0 0,0 -1,0 0,0 0,0 0,0l0 0 0 0zm-8 42c0,0 0,1 0,1 0,1 0,1 1,2l0 0c0,0 1,1 2,1 1,0 1,0 2,1l0 0 0 0c0,1 0,2 1,4 0,1 0,2 1,2l0 0c0,0 0,0 0,0l0 0c0,0 0,0 0,0l0 0 0 0c0,0 0,0 0,1 0,0 0,1 0,1 0,0 0,1 0,1 0,0 0,1 0,1l0 0c0,0 0,0 1,0 0,0 1,0 1,0 0,0 1,0 1,0 0,0 0,0 1,-1 0,0 0,-1 0,-1 0,0 0,-1 0,-1 0,-1 0,-1 0,-1 0,0 0,0 0,-1l1 -3 0 0 0 0 0 0 0 0 0 0 0 0 0 -1 0 0 0 0 0 0 0 0c0,0 1,0 1,0l0 0 0 0c0,0 0,0 0,1 0,1 0,3 1,3 0,0 0,0 0,1 0,0 0,1 0,2 0,1 0,2 0,2 0,0 0,1 1,1 0,0 1,0 1,0 0,0 1,0 1,-1 0,0 0,0 0,-1l0 0c0,0 0,-1 0,-1 0,-1 0,-1 0,-2l0 0 0 0 0 0 0 0c0,0 0,0 0,0l0 0c0,0 0,0 0,-1 0,-1 0,-2 1,-3 0,-1 0,-2 0,-2l0 0 0 0c0,0 1,0 1,0 0,0 1,0 1,0 0,0 1,0 1,0l0 0c0,0 1,0 1,0 2,-1 2,-1 2,-2 0,0 0,0 0,-1l0 0 0 0 0 0 0 0 0 0 0 0 0 0 0 0 0 0 0 0 0 0 0 0 0 0 0 0 0 0 0 0 0 0 0 0 0 0 0 0 0 0 0 0 0 0 0 0 0 0 0 0 0 0 0 0 0 0 0 0 0 0 0 0 0 0 0 0 0 0 0 0 0 0 0 0 0 0 0 0 0 0 0 0 0 0 0 0 0 0 0 0 0 0 0 0 0 0c0,0 0,0 -1,0 0,0 0,0 -1,0 -2,1 -6,2 -9,1 -4,0 -8,-1 -11,-2 -1,0 -2,-1 -2,-1l0 0 0 0 0 0 0 0 0 0 0 0 0 0 0 0 0 0 0 0 0 0 0 0 0 0 0 0 0 0 0 0 0 0 0 0 0 0 0 0 0 0 0 0 0 0 0 0 0 0 0 0 0 0 0 0 0 0 0 0 0 0 0 0 0 0 0 0 0 0 0 0 0 0 0 0 0 0 0 0 0 0 0 0 0 0 0 0 0 0 0 0 0 0 0 0 0 0 0 0 0 0 0 0 0 0 0 0 0 0 0 0 0 0 0 0 0 0 0 0 0 0 0 0 0 0 0 0 0 0 0 0 0 0 0 0 0 0 0 0 0 0 0 0 0 0 0 0 0 0 0 0 0 0 0 0 0 0 0 0 0 0 0 0 0 0 0 0 0 0 0 0 0 0 0 0 0 0 0 0 0 0 0 0 0 0 0 0 0 0 0 0 0 0 0 0 0 0 0 0 0 0 0 0 0 0 0 0 0 0 0 0 0 0 0 0 0 0 0 0 0 0zm3 -15c0,0 0,1 0,1l0 0c0,0 0,1 0,1l-1 4c0,0 0,1 0,1 0,0 0,1 0,1l0 0 0 0 0 0 0 0 0 0 0 0 0 0 0 0 0 0 0 0 0 0 0 0 0 0 0 0 0 0 0 0 0 0 0 0 0 0 0 0 0 0 0 0 0 0 0 0 0 0 0 0 0 0 0 0 0 0 0 0 0 0 0 0 0 0 0 0 0 0 0 0 0 0 0 0 0 0 0 0 0 0 0 0 0 0 0 0 0 0 0 0 0 0 0 0 0 0 0 0 0 0 0 0 0 0 0 0 0 0 0 0 0 0 0 0 0 0 0 0 0 0 0 0 0 0 0 0 0 0 0 0 0 0 0 0 0 0 0 0 0 0 0 0 0 0 0 0 0 0 0 0 0 0 0 0 0 0 0 0 0 0 0 0 0 0 0 0 0 0 0 0 0 0 0 0 0 0 0 0 0 0 0 0 0 0 0 0 0 0 0 0c0,0 0,0 0,0l0 0 1 0 0 0 0 0 0 0 0 0 0 0 0 0 0 0 0 0 0 0 0 0 0 0 0 0 0 0 0 0 0 0 0 0 0 0 0 0 0 0 0 0 0 0 0 0 0 0 0 0 0 0 0 0 0 0 0 0 0 0 0 0 0 0 0 0 0 0 0 0 0 0 0 0 0 0 0 0 0 0 0 0 0 0 0 0 0 0 0 0 0 0 0 0 0 0 0 0 0 0 0 0 0 0 0 0 0 0 0 0 0 0 0 0 0 0 0 0 0 0 0 0 0 0 0 0 0 0 0 0 0 0 0 0 0 0 0 0 0 0 0 0 0 0 0 0 0 0 0 0 0 0 0 0 0 0c0,0 0,0 1,0l0 0 0 0 0 0 0 0c0,0 0,0 0,0 0,0 0,0 0,0l0 0 0 0c0,0 0,0 0,0l0 0c0,0 0,0 0,0l0 0 0 0 0 0c0,0 0,0 0,0 0,-1 0,-2 1,-4 0,-1 0,-1 0,-2l0 0 1 -3 0 0 0 0c0,0 0,-1 0,-2 0,-1 0,-2 1,-3l0 0c0,0 0,0 0,0l0 0c0,0 0,-1 0,-1l0 0 0 0 0 0 0 0 0 0 0 0 0 0 0 0 0 0 0 0 0 0 0 0 0 0 0 0 0 0 0 0 0 0 0 0 0 0 0 0 0 0 0 0 0 0 0 0 0 0 0 0 0 0 0 0 0 0 0 0 0 0 0 0 0 0 0 0 0 0 0 0 0 0 0 0 0 0 0 0 0 0 0 0 0 0 0 0 0 0 0 0 0 0 0 0 0 0 0 0 0 0 0 0 0 0 0 0 0 0 0 0 0 0 0 0 0 0 0 0 0 0 0 0 0 0 0 0 0 0 0 0 0 0 0 0 0 0 0 0 0 0 0 0 0 0 0 0 0 0 0 0 0 0 0 0 0 0 0 0 0 0 0 0 0 0 0 0 0 0 0 0 0 0 0 0 0 0 0 0 0 0 0 0 0 0 0 0 0 0 0 0 0 0 0 0 0 0 0 0 0 0 0 0 0 0 0 0 0 0 0 0 0 0 0 0 0 0 0 0 0 0 0 0 0 0c-1,0 -2,0 -2,-1l0 0c0,0 0,0 -1,0l0 0 0 0 0 0 0 0 0 0 0 0 0 0 0 0 0 0 0 0 0 0 0 0 0 0 0 0 0 0 0 0 0 0 0 0 0 0 0 0 0 0 0 0 0 0 0 0 0 0 0 0 0 0 0 0 0 0 0 0 0 0 0 0 0 0 0 0 0 0 0 0 0 0 0 0 0 0 0 0 0 0 0 0 0 0 0 0 0 0 0 0 0 0 0 0 0 0 0 0 0 0 0 0 0 0 0 0 0 0 0 0 0 0 0 0 0 0 0 0 0 0 0 0 0 0 0 0 0 0 0 0 0 0 0 0 0 0 0 0 0 0 0 0 0 0 0 0 0 0 0 0 0 0 0 0 0 0 0 0 0 0 0 0 0 0 0 0 0 0 0 0 0 0 0 0 0 0 0 0 0 0 0 0c0,0 0,0 0,1 0,0 -1,1 -1,2 0,0 0,1 -1,1 0,1 -1,2 -1,2zm6 12l0 0c-1,0 -4,-1 -5,-2l0 0 -1 0 0 0c0,0 0,0 0,0l0 0 0 0 0 0 0 0 0 0 0 0 0 0 0 0 0 0 0 0 0 0 0 0 0 0 0 0 0 0 0 0 0 0 0 0 0 0 0 0 0 0 0 0 0 0 0 0 0 0 0 0 0 0 0 0 0 0 0 0 0 0 0 0 0 0 0 0 0 0 0 0 0 0 0 0 0 0 0 0 0 0 0 0 0 0 0 0 0 0 0 0 0 0 0 0 0 0 0 0 0 0 0 0 0 0 0 0 0 0 0 0 0 0 0 0 0 0 0 0 0 0 0 0 0 0 0 0 0 0 0 0 0 0 0 0 0 0 0 0 0 0 0 0 0 0 0 0 0 0 0 0 0 0 0 0 0 0 0 0 0 0 0 0 0 0 0 0 0 0 0 0 0 0 0 0 0 0 0 0 0 0 0 0 0 0 0 0 0 0 0 0 0 0 0 0 0 0 0 0 0 0 0 0 0 0 0 0 0 0 0 0 0 0 0 0 0 0 0 0 0 0 0 0 0 0 0 0 0 0 0 0 0 0 0 0 0 0 0 0 0 0 0 0c0,0 0,0 0,0l0 0c0,0 0,1 0,1l0 0 0 0c0,0 0,1 0,1 0,0 0,0 0,0l0 0c0,0 0,0 0,0l0 0 0 0 0 0 0 0 0 0 0 0 0 0 0 0 0 0 0 0 0 0 0 0 0 0 0 0 0 0 0 0 0 0 0 0 0 0 0 0 0 0 0 0 0 0 0 0 0 0 0 0 0 0 0 0 0 0 0 0 0 0 0 0 0 0 0 0 0 0 0 0 0 0 0 0 0 0 0 0 0 0 0 0 0 0 0 0 0 0 0 0 0 0 0 0 0 0 0 0 0 0 0 0 0 0 0 0 0 0 0 0 0 0 0 0 0 0 0 0 0 0 0 0 0 0 0 0 0 0 0 0 0 0 0 0 0 0 0 0 0 0 0 0 0 0 0 0 0 0 0 0 0 0 0 0 0 0 0 0 0 0 0 0 0 0 0 0 0 0 0 0 0 0 0 0 0 0 0 0 0 0 0 0 0 0 0 0 0 0 0 0 0 0 0 0 0 0 0 0 0 0 0 0 0 0 0 0 0 0 0 0 0 0 0 0 0 0 0 0 0 0 0 0 0 0 0 0 0 0 0 0 0 0 0 0 0 0 0 0 0 0 0 0 0 0 0 0 0 0 0 0 0 0 0 0c0,0 1,0 1,0 0,0 1,0 1,0l1 0 0 0c2,1 4,1 6,2 1,0 2,0 3,0 0,0 0,0 1,0l0 0 6 -1 0 0c0,0 1,0 1,0l0 0 0 0 0 0 0 0 0 0 0 0 0 0 0 0 0 0 0 0 0 0 0 0 0 0 0 0 0 0 0 0 0 0 0 0 0 0 0 0 0 0 0 0 0 0 0 0 0 0 0 0 0 0 0 0 0 0 0 0 0 0 0 0 0 0 0 0 0 0 0 0 0 0 0 0 0 0 0 0 0 0 0 0 0 0 0 0 0 0 0 0 0 0 0 0 0 0 0 0 0 0 0 0 0 0 0 0 0 0 0 0 0 0 0 0 0 0 0 0 0 0 0 0 0 0 0 0 0 0 0 0 0 0 0 0 0 0 0 0 0 0 0 0 0 0 0 0 0 0 0 0 0 0 0 0 0 0 0 0 0 0 0 0 0 0 0 0 0 0 0 0 0 0 0 0 0 0 0 0 0 0 0 0 0 0 0 0 0 0 0 0 0 0 0 0 0 0 0 0 0 0 0 0 0 0 0 0 0 0 0 0 0 0 0 0 0 0 0 0 0 0 0 0 0 0 0 0 0 0 0 0 0 0 0 0 0 0 0 0 0 0 0 0 0 0 0 0c0,0 0,0 0,0l0 0c0,0 0,0 0,0 0,0 0,-1 0,-1l0 0c0,0 0,-1 0,-1l0 0 0 0 0 0 0 0 0 0 0 0 0 0 0 0 0 0 0 0 0 0 0 0 0 0 0 0 0 0 0 0 0 0 0 0 0 0 0 0 0 0 0 0 0 0 0 0 0 0 0 0 0 0 0 0 0 0 0 0 0 0 0 0 0 0 0 0 0 0 0 0 0 0 0 0 0 0 0 0 0 0 0 0 0 0 0 0 0 0 0 0 0 0 0 0 0 0 0 0 0 0 0 0 0 0 0 0 0 0 0 0 0 0 0 0 0 0 0 0 0 0 0 0 0 0 0 0 0 0 0 0 0 0 0 0 0 0 0 0 0 0 0 0 0 0 0 0 0 0 0 0 0 0 0 0 0 0 0 0 0 0 0 0 0 0 0 0 0 0 0 0 0 0 0 0 0 0 0 0 0 0 0 0 0 0 0 0 0 0 0 0 0 0 0 0 0 0 0 0 0 0 0 0 0 0 0 0 0 0 0 0c0,0 0,0 0,0l0 0 -3 1 0 0c0,0 -1,0 -1,0 -1,0 -2,1 -3,1l0 0 0 0 0 0c0,0 -1,0 -1,0 -1,0 -2,1 -3,1 0,0 -1,0 -2,-1 -1,0 -1,-1 -2,-1zm14 -10l0 0 0 0c0,0 0,0 0,0zm0 0l0 0 0 0 0 0zm-23 13l0 0c0,0 0,0 0,0 0,0 1,1 2,1 3,1 7,2 11,2 4,0 7,0 9,-1 0,0 0,0 0,0 0,0 1,0 1,0l0 0c0,0 0,-1 0,-1 0,-1 0,-1 0,-2l0 0 0 0 0 0 0 0 0 0 0 0 0 0 0 0 0 0 0 0 0 0 0 0 0 0 0 0 0 0 0 0 0 0 0 0 0 0 0 0 0 0 0 0 0 0 0 0 0 0 0 0 0 0 0 0 0 0 0 0 0 0 0 0 0 0 0 0 0 0 0 0 0 0 0 0 0 0 0 0 0 0 0 0 0 0 0 0 0 0 0 0 0 0 0 0 0 0 0 0 0 0 0 0 0 0 0 0 0 0 0 0 0 0 0 0 0 0 0 0 0 0 0 0 0 0 0 0 0 0 0 0 0 0 0 0 0 0 0 0 0 0 0 0 0 0 0 0 0 0 0 0 0 0 0 0 0 0 0 0 0 0 0 0 0 0 0 0 0 0 0 0 0 0 0 0 0 0 0 0 0 0 0 0 0 0 0 0 0 0 0 0 0 0 0 0 0 0 0 0 0 0 0 0 0 0 0 0 0 0 0 0 0 0 0 0 0 0 0 0 0 0 0 0 0 0 0 0 0 0 0 0 0 0c0,0 -1,0 -2,0l0 0 -6 1 0 0c0,0 0,0 -1,0 -1,0 -2,0 -3,0 -2,0 -4,-1 -6,-2l0 0 -1 0c0,0 -1,0 -1,0 0,0 -1,0 -1,0l0 0 0 0 0 0 0 0 0 0 0 0 0 0 0 0 0 0 0 0 0 0 0 0 0 0 0 0 0 0 0 0 0 0 0 0 0 0 0 0 0 0 0 0 0 0 0 0 0 0 0 0 0 0 0 0 0 0 0 0 0 0 0 0 0 0 0 0 0 0 0 0 0 0 0 0 0 0 0 0 0 0 0 0 0 0 0 0 0 0 0 0 0 0 0 0 0 0 0 0 0 0 0 0 0 0 0 0 0 0 0 0 0 0 0 0 0 0 0 0 0 0 0 0 0 0 0 0 0 0 0 0 0 0 0 0 0 0 0 0 0 0 0 0 0 0 0 0 0 0 0 0 0 0 0 0 0 0 0 0 0 0 0 0 0 0 0 0 0 0 0 0 0 0 0 0 0 0 0 0 0 0 0 0 0 0 0 0 0 0 0 0 0 0 0 0 0 0 0 0 0 0 0 0 0 0 0 0 0 0 0 0 0 0 0 0 0 0 0 0 0 0 0 0 0 0 0 0 0 0 0 0c0,0 0,1 0,1 0,0 0,1 0,1zm24 -4l0 0 0 0zm-9 5l0 0 0 0zm-17 -22c0,-1 0,-1 0,-2l0 0 0 0c0,0 1,0 1,0l0 0c0,0 0,0 0,0 0,0 0,0 0,0 0,0 0,0 0,0 0,0 1,0 1,0l0 0 0 0c0,0 0,0 0,0 0,0 0,0 0,1 0,0 0,0 0,1l0 0c0,0 0,1 0,1 0,0 0,0 0,1 0,1 0,2 -1,2 0,0 -1,0 -2,0 -1,0 -1,0 -2,0 -1,0 -1,-1 -1,-2 0,0 0,-1 0,-1 0,0 0,0 0,-1l0 0 0 -1z"/>
     <path class="fil1" d="M28 19l3 0c0,0 2,-2 3,-3 0,0 1,-1 1,-1 0,0 0,0 0,0 0,0 0,0 0,0 0,0 0,0 0,0l0 0c0,0 0,0 -1,0 0,0 0,0 -1,0l0 0 -5 5zm3 0l-3 0 -1 0 0 0 5 -6 0 0c0,0 0,0 0,0l-1 -1 1 0c0,0 1,0 1,0 0,0 1,0 1,0 0,0 1,0 1,0l0 0c0,0 0,0 0,1l0 0 0 0c0,0 0,0 0,0 0,0 0,0 0,0 0,0 -1,1 -1,1 -1,1 -2,3 -3,3l0 0 0 0z"/>
     <path class="fil1" d="M28 14l-1 0 -1 0 1 -1c0,0 1,0 2,0 1,0 2,0 3,0 0,0 0,0 0,0l4 1 -4 0 0 0c0,0 0,0 0,0 0,0 0,0 0,0 -1,1 -1,2 -2,2 -1,1 -3,3 -3,4l0 0 0 0 0 0 0 0 0 0c0,0 0,-1 0,-1 0,0 0,-1 0,-1l0 -1 1 1 0 0 0 0 0 0c0,0 1,-1 1,-2l0 0 0 0 0 0 0 0 0 0c0,0 1,-1 1,-2zm1 0c0,0 -1,2 -2,2l0 0 0 0 0 0 0 0 0 0c0,1 -1,2 -2,2l0 0c0,0 0,0 0,1 0,0 0,1 0,1 1,-1 2,-2 3,-4 1,-1 1,-2 2,-2 0,0 0,0 0,0l0 0c-1,0 -1,0 -2,0l0 0z"/>
     <path class="fil1" d="M26 20c0,0 0,0 -1,0l-1 0 0 0c1,-1 2,-3 3,-4 1,-1 1,-2 2,-2 0,0 0,0 0,0 0,0 0,-1 1,0l1 0 0 0 0 0c0,0 0,0 0,0l0 0c0,0 0,0 1,0l0 0 0 0 -6 6 0 0 0 0c0,0 -1,0 -1,0 0,0 0,0 0,0l0 0c0,0 0,0 -1,0zm0 0c0,0 0,0 1,0 0,0 0,0 0,0 0,0 1,0 1,0l5 -6 0 0c0,0 0,0 0,0l-1 0 0 0c0,0 0,0 -1,0 0,0 0,0 0,0 -1,1 -1,2 -2,2 -1,1 -2,2 -3,3z"/>
     <path class="fil1" d="M32 30c0,0 1,0 1,0 0,0 1,0 1,0 0,0 0,0 0,0l0 0c0,0 0,0 0,0 0,0 0,0 1,0 0,0 0,0 0,0 0,0 0,0 0,0 0,0 0,0 0,0 0,0 0,-1 0,-1 0,0 0,-1 0,-1 0,0 -1,0 -1,0 0,0 -1,0 -2,0 -1,0 -1,0 -2,0 0,0 0,0 -1,0l0 2zm1 0c0,0 -1,0 -1,0l0 0 0 0 0 -3 0 -1 0 0c0,0 1,0 1,1 0,0 1,0 1,0 1,0 1,0 1,0 0,0 1,0 1,-1l0 0 0 0c0,1 0,1 0,2 0,1 0,1 0,2l0 1 0 -1c0,0 0,0 0,0 0,0 0,0 0,0 0,0 0,0 0,0 0,0 0,0 0,0 0,1 -1,1 -1,0 0,0 0,0 0,0l0 0c0,0 0,0 0,0 0,0 -1,0 -1,0z"/>
     <path class="fil1" d="M66 27c0,0 0,0 0,1l0 0c0,0 0,0 1,0 1,0 1,0 2,0l0 0 0 0c0,0 0,0 0,-1 0,0 0,-1 0,-1 0,0 0,0 0,-1 0,0 0,0 -1,0 0,0 -1,0 -1,0 0,0 0,0 -1,0l0 0c0,0 0,0 0,1l0 0c0,0 0,1 0,1l0 0zm0 1c0,0 0,0 -1,-1 0,0 0,-1 0,-1l0 0c0,0 0,-1 0,-1l0 0c0,0 0,0 1,-1 0,0 1,0 1,0 0,0 1,0 1,1 0,0 0,1 1,1 0,0 0,1 0,1 0,0 0,1 -1,1l0 0 0 0 0 0 0 0c-1,0 -1,0 -2,0l0 0c0,0 -1,0 -1,0l0 0z"/>
     <path class="fil2" d="M30 51c2,0 3,0 5,0 0,0 0,-1 -1,-1 0,0 -1,0 -1,-1l-2 0c0,1 0,1 -1,1 0,0 0,0 -1,1 0,0 0,1 0,1z"/>
     <path class="fil1" d="M39 45c1,0 1,0 1,-1 0,0 0,0 0,-1 0,0 0,-1 0,-1 0,0 0,-1 -1,-2l0 0 0 0 0 0c0,0 -1,-1 -1,-1 0,1 0,2 0,3 0,1 0,1 0,2zm-2 2l0 1 0 0 0 0c0,0 0,0 0,0l0 0c0,0 0,0 0,0l0 0c0,0 0,0 0,0l0 0 0 0c0,0 0,0 0,-1 0,-1 0,-1 0,-2 0,0 0,0 0,0zm0 1l0 -1 0 0 0 0c0,0 0,-1 0,-2 0,-1 0,-3 1,-4 0,-1 0,-2 0,-3 0,-1 0,-2 0,-3l0 0 0 0 0 0 0 0 0 0c1,0 3,1 4,2l0 0c1,1 2,3 2,4 0,1 0,2 0,3l0 0c0,1 -1,2 -1,2l0 0c0,0 -1,1 -2,1 -1,0 -2,1 -2,1l0 0 0 0c0,0 0,0 0,0 0,0 0,-1 0,-1 0,0 0,-1 0,-1l0 0c0,0 0,-1 0,-1 0,0 0,0 -1,0 0,0 -1,0 -1,0 0,1 0,2 0,3 0,0 0,1 0,1l0 0 0 0c0,0 0,0 -1,0l0 0c0,0 0,0 0,0l0 0c0,0 0,0 0,0l0 0c0,0 0,0 0,0l0 0 0 0 0 0 0 0 0 0zm1 -3c0,0 1,0 1,0 0,0 1,0 1,0l0 0c0,-1 0,-1 0,-2 0,-1 0,-2 -1,-3 0,0 0,1 0,1 0,1 0,2 -1,4l0 0zm2 0c0,0 0,1 0,1l0 0c0,0 0,1 0,1l0 0c0,1 0,1 0,1 0,0 0,0 0,0 1,0 1,0 2,-1 1,0 1,-1 2,-1l0 0c1,-1 1,-1 1,-2l0 0c0,-1 0,-2 0,-3 0,-2 -1,-3 -2,-4l0 0c-1,-1 -2,-2 -4,-2l0 0c0,1 0,2 0,3 0,0 0,1 0,1l0 0c1,0 1,1 2,1l0 0 0 0 0 0c1,1 1,1 1,2l0 0c0,0 0,1 0,1 0,0 0,1 0,1 0,1 -1,1 -2,1z"/>
     <path class="fil1" d="M28 47c0,0 0,0 0,1 0,0 0,1 0,1 0,0 1,0 1,0 0,0 1,0 1,0 0,0 0,0 1,0 0,0 0,0 0,-1 0,0 0,-1 0,-1 0,0 0,-1 -1,-1 -1,0 -1,0 -1,1l0 0 0 0zm0 0c0,0 0,0 0,-1l0 0 0 0 0 0c1,0 1,-1 2,-1 0,0 1,0 1,1 0,0 0,1 0,1 0,0 0,1 0,1 0,0 0,0 -1,1 0,0 -1,0 -1,0 0,0 -1,0 -1,0 0,0 0,0 0,0l0 0c0,0 0,-1 0,-2l0 0z"/>
     <path class="fil1" d="M31 19l2 0c0,0 1,-1 1,-1l0 0 0 0 0 0c0,0 0,0 0,0 0,0 0,0 0,-1l0 -1c0,0 0,0 0,0 0,0 0,0 0,0 0,0 -1,1 -1,1 -1,1 -2,2 -2,2zm2 0l-2 0 0 0 0 0c0,0 2,-2 3,-3 0,0 1,-1 1,-1 0,0 0,0 0,0 0,0 0,0 1,0l0 0 0 0c0,0 0,1 0,1 0,1 0,1 0,1 0,0 0,0 0,1l0 0 0 0 0 0c0,0 -1,1 -1,1l0 0 0 0z"/>
     <path class="fil1" d="M27 14c-1,0 -1,0 -1,1 0,0 0,0 -1,1l0 0 0 0 0 0c0,0 0,0 0,1l0 0c0,0 0,0 0,0 0,0 0,0 0,1l0 0 0 0 0 0c0,0 1,-1 1,-2l0 0 0 0 0 0 0 0 0 0c0,0 1,-1 1,-2l-1 0zm-1 1c0,-1 1,-1 1,-1l0 0 1 0 0 0 0 0c0,0 -1,2 -2,2l0 0 0 0 0 0 0 0 0 0c0,1 -1,2 -2,2l0 0 0 0 0 0 0 0c0,0 0,0 0,0l0 0c0,0 0,0 0,0 0,0 0,0 0,0l0 0 0 0 0 0c0,0 0,-1 0,-1 0,0 0,0 0,0l0 0c0,0 0,0 1,-1l0 0c0,0 0,0 1,-1z"/>
     <path class="fil1" d="M25 45l0 0c0,-2 0,-3 0,-4 -1,0 -1,1 -1,2 0,1 0,1 0,1 0,0 0,1 1,1 0,0 0,0 1,0zm0 0l0 1 0 0 0 0c-1,0 -1,0 -1,-1 0,0 -1,-1 -1,-1 0,-1 0,-1 0,-2 0,-1 1,-2 2,-2l0 0 0 0c0,2 0,3 0,5z"/>
     <path class="fil1" d="M27 33c0,0 1,1 1,1 1,0 1,0 2,0l0 -1c0,0 0,0 0,0 0,0 0,0 0,0 0,0 0,0 0,-1 0,0 0,0 -1,1 0,0 0,0 -1,1 0,0 -1,0 -1,0 0,0 0,0 0,0zm1 1c-1,0 -2,-1 -2,-1l-1 -1 1 1c0,0 1,0 1,0 0,0 1,0 1,0 0,0 0,0 0,0 0,0 1,-1 1,-1l1 0 0 0c0,0 0,0 0,1 0,0 0,0 0,0 0,0 0,0 0,0l0 0 0 0 0 1 0 0 0 0c-1,0 -2,0 -3,0z"/>
     <path class="fil1" d="M31 40c0,0 -1,1 -1,1 0,0 0,0 0,1l0 0c0,0 0,0 0,0 0,0 1,0 1,0 0,0 1,-1 1,-1l0 0c0,0 0,0 0,-1 0,0 0,0 0,0 0,0 -1,0 -1,0l0 0zm-1 1c0,-1 0,-1 1,-1l0 0c1,0 1,0 1,0 0,0 0,0 0,1 0,0 0,1 0,1l0 0c0,1 0,1 -1,1 -1,0 -1,0 -1,0 0,0 0,0 0,-1l0 0c0,0 0,0 0,-1z"/>
     <path class="fil1" d="M70 34l0 0 0 0 0 0c0,0 0,0 0,0 0,0 0,0 0,0 0,0 0,0 0,-1l0 0 0 0c0,0 0,0 0,-1 0,0 0,0 0,-1l0 0c0,0 0,0 0,0l0 0c0,0 0,0 0,0l0 0c0,0 0,0 0,0l0 0c0,0 0,0 0,0 1,0 1,0 1,1l0 0c0,0 0,0 0,0 0,0 0,0 0,0 0,0 0,1 0,1 0,0 0,0 0,0l0 0c0,0 0,0 0,0l0 0c0,0 0,0 0,0l0 0zm0 0c0,0 0,0 0,0l0 0 0 0c0,0 0,0 0,0 0,0 0,-1 0,-1 0,0 0,0 0,0 0,0 0,0 0,0 0,0 0,0 0,0 0,0 0,0 0,0l0 0c0,0 0,0 0,0l0 0c0,0 0,0 0,0l0 0c0,0 0,0 0,0 0,0 0,0 0,0 0,0 0,0 0,0l0 0 0 0 0 0c0,0 0,0 0,0 0,0 0,0 0,0 0,0 0,0 0,0z"/>
     <path class="fil1" d="M62 31l0 0 0 0c0,0 0,0 1,0l0 0 0 0 0 0 0 0c0,0 0,0 0,-1l0 0 0 0 0 0c0,0 0,0 0,0l0 0c0,0 0,0 0,0l0 0c0,0 0,0 0,0l0 0c0,0 0,0 0,1 0,0 0,1 0,1zm0 0c0,0 0,0 0,0l0 0 0 0c0,0 0,-1 0,-1 0,0 0,-1 1,-1l0 0c0,0 0,0 0,0l0 0c0,0 0,0 0,0l0 0c0,0 0,0 1,1l0 0 0 0 0 0c0,1 0,1 0,2l0 0 0 0 0 0 0 0c0,0 -1,0 -1,0l0 0z"/>
     <path class="fil1" d="M29 36c0,0 0,0 0,1 0,0 0,1 0,1 0,0 0,0 0,0 0,0 0,0 1,0l0 -1c0,0 0,0 -1,0 0,0 0,0 0,0l0 0c0,0 0,0 -1,0zm0 1c0,0 0,-1 0,-1l0 0 0 0c0,0 0,0 0,0l0 0c0,0 0,0 0,0 0,0 0,0 1,0 0,0 0,0 0,0 0,0 1,0 1,0l0 0 0 0 0 1 0 0 0 0c0,0 -1,0 -1,0 0,0 0,0 0,0l0 0 0 0c0,0 0,-1 0,-1z"/>
     <path class="fil1" d="M22 63l0 0m13 15l0 0m0 0l0 0m5 -25c0,0 0,0 1,0 0,0 1,0 1,-1 0,0 0,0 -1,0 0,0 0,0 0,0 0,0 0,0 0,0l0 0c0,0 0,1 0,1zm-18 4c0,1 0,1 -1,2 0,1 -1,1 -1,2l0 0 0 1c0,0 0,1 0,1 0,0 0,0 1,0l0 0c0,0 0,0 0,0 0,0 0,0 0,-1 0,0 0,0 0,0 0,0 0,0 1,0l0 0c0,0 0,0 0,0 0,0 0,0 0,1 1,0 1,0 1,0l0 0 0 0 0 0c0,0 0,0 1,0 0,0 1,0 1,0 0,0 0,0 0,1 0,0 0,0 0,0 0,0 0,0 -1,0 0,0 0,1 0,1l0 0c0,0 0,1 -1,1l0 0c-1,0 -1,0 -2,0l0 0c0,0 0,0 0,0 0,0 0,0 0,0 0,0 0,0 0,0 0,0 0,0 0,0l0 0 0 0 0 0 0 0 0 0 0 0 0 0 0 0 0 0 0 0 0 0 0 0 0 0 0 0 0 0 0 0 0 0 0 0 0 0 0 0 0 0 0 0 0 0 0 0 0 0 0 0 0 0 0 0 0 0 0 0 0 0 0 0 0 0 0 0 0 0 0 0 0 0 0 0 0 0 0 0 0 0 0 0 0 0 0 0 0 0 0 0 0 0 0 0 0 0 0 0 0 0 0 0 0 0 0 0 0 0 0 0 0 0 0 0 0 0 0 0 0 0 0 0 0 0 0 0 0 0 0 0 0 0 0 0 0 0 0 0 0 0 0 0 0 0 0 0 0 0 0 0 0 0 0 0 0 0 0 0 0 0 0 0 0 0 0 0 0 0 0 0 0 0 0 0 0 0 0 0 0 0 0 0 0 0 0 0 0 0 0 0 0 0 0 0 0 0 0 0 0 0 0 0 0 0 0 0 0 0 0 0 0 0 0 0 0 0 0 0 0 0c1,0 2,1 3,1l0 0 0 0 0 0 0 0 0 0 0 0 0 0 0 0 0 0 0 0 0 0 0 0 0 0 0 0 0 0 0 0 0 0 0 0 0 0 0 0 0 0 0 0 0 0 0 0 0 0 0 0 0 0 0 0 0 0 0 0 0 0 0 0 0 0 0 0 0 0 0 0 0 0 0 0 0 0 0 0 0 0 0 0 0 0 0 0 0 0 0 0 0 0 0 0 0 0 0 0 0 0 0 0 0 0 0 0 0 0 0 0 0 0 0 0 0 0 0 0 0 0 0 0 0 0 0 0 0 0 0 0 0 0 0 0 0 0 0 0 0 0 0 0 0 0 0 0c0,0 0,0 0,0 0,0 0,-1 0,-1l0 0 0 0c0,0 0,0 0,0 0,0 0,0 -1,0 0,0 0,0 0,-1 0,0 0,-1 0,-1l0 0c0,0 0,0 0,0 0,0 0,0 0,0l0 0c0,0 0,0 0,-1 0,0 0,0 0,0 0,0 0,0 1,0 0,0 0,0 0,-1 0,0 0,0 0,0l0 0c0,0 0,0 0,0l0 0c0,0 1,0 1,0l0 0 0 0c0,0 0,0 0,0l0 0c0,0 0,0 0,0 0,0 0,0 0,0 0,0 1,0 1,1 0,0 0,0 0,0 0,0 0,0 1,0l0 0c0,0 0,0 0,0 0,0 0,0 0,1 0,0 0,0 0,0 0,0 0,0 0,0l0 0c0,0 0,0 0,1 0,0 0,0 0,1 0,0 0,0 -1,0 0,0 0,0 0,0l0 0c0,0 0,0 0,0 0,0 0,0 0,0l0 0c0,0 0,0 0,0 0,0 0,0 0,0l0 0 0 0 0 0 0 0 0 0 0 0 0 0 0 0 0 0 0 0 0 0 0 0 0 0 0 0 0 0 0 0 0 0 0 0 0 0 0 0 0 0 0 0 0 0 0 0 0 0 0 0 0 0 0 0 0 0 0 0 0 0 0 0 0 0 0 0 0 0 0 0 0 0 0 0 0 0 0 0 0 0 0 0 0 0 0 0 0 0 0 0 0 0 0 0 0 0 0 0 0 0 0 0 0 0 0 0 0 0 0 0 0 0 0 0 0 0 0 0 0 0 0 0 0 0 0 0 0 0 0 0 0 0 0 0 0 0 0 0 0 0 0 0 0 0 0 0 0 0 0 0 0 0 0 0 0 0 0 0 0 0 0 0 0 0 0 0 0 0 0 0 0 0 0 0 0 0 0 0 0 0 0 0 0 0 0 0 0 0 0 0 0 0 0 0 0 0 0 0 0 0 0 0 0 0 0 0 0 0 0 0 0 0 0 0 0 0 0 0 0 0 0 0 0 0 0 0 0 0 0 0 0 0 0 0 0 0 0 0 0 0 0 0 0 0 0 0 0 0 0 0 0 0 0 0 0 0 0 0 0 0 0 0 0 0 0 0 0 0 0 0 0 0 0 0 0 0 0 0 0 0 0 0 0 0 0 0 0 0 0 0 0 0 0 0 0 0 0 0 0 0 0 0 0 0 0 0 0 0 0 0 0 0 0 0 0 0 0 0 0 0 0 0 0 0 0 0 0 0 0 0 0 0 0 0 0 0 0 0 0 0 0 0c0,0 0,0 0,0 0,0 0,0 0,0l0 0c0,0 0,0 0,-1l0 0c0,0 0,0 -1,0l0 0c0,0 0,0 -1,0 0,0 0,0 0,-1 0,0 0,-1 0,-1 0,0 0,0 0,0 0,0 0,0 0,0l0 0c0,0 0,0 0,-1l0 0c0,0 0,0 0,-1 0,0 0,0 1,0l0 0c0,0 0,0 0,0 0,0 0,-1 0,-1l0 0c0,0 0,0 0,0l0 0c0,0 0,0 0,0 0,0 0,0 1,0l0 0c0,0 0,0 0,1 1,0 1,0 1,0 0,0 0,0 0,0 0,0 0,0 1,0 0,0 0,0 0,0 0,0 0,0 0,0 0,0 0,0 0,1l0 0c0,0 0,0 -1,0 0,0 0,1 0,1l0 0c0,0 0,0 0,0 0,0 0,0 0,0 0,0 0,0 0,0 0,0 0,0 0,0 0,0 0,0 0,0l0 0 0 0 0 0 0 0 0 0 0 0 0 0 0 0 0 0 0 0 0 0 0 0 0 0 0 0 0 0 0 0 0 0 0 0 0 0 0 0 0 0 0 0 0 0 0 0 0 0 0 0c1,0 1,0 2,0l0 0 0 0 0 0 0 0 0 0 0 0 0 0 0 0 0 0 0 0 0 0 0 0 0 0 0 0 0 0 0 0 0 0 0 0 0 0 0 0 0 0 0 0 0 0 0 0 0 0 0 0 0 0 0 0 0 0 0 0 0 0 0 0 0 0 0 0 0 0 0 0 0 0 0 0 0 0 0 0 0 0 0 0 0 0 0 0 0 0 0 0 0 0 0 0 0 0 0 0 0 0 0 0 0 0 0 0 0 0 0 0 0 0 0 0 0 0 0 0 0 0 0 0 0 0 0 0 0 0 0 0 0 0 0 0 0 0 0 0 0 0 0 0 0 0 0 0 0 0 0 0 0 0 0 0 0 0 0 0 0 0 0 0 0 0c0,0 0,0 0,0 0,0 0,0 0,-1 0,0 0,0 -1,0 0,0 0,0 -1,0 0,0 0,0 0,0 0,0 -1,0 -1,0 0,0 0,0 0,-1 0,0 0,0 0,-1l0 0c0,0 0,0 0,0 0,0 0,0 0,0l0 0c0,0 0,0 0,0 0,0 0,0 0,0 0,0 0,-1 1,-1 0,0 1,0 1,0 0,0 0,0 1,-1 0,0 1,0 1,0 0,0 0,0 0,0 0,0 0,0 0,0 0,0 0,0 0,0 0,0 0,0 0,0 0,0 0,0 0,0l0 0 0 0c0,0 0,0 0,0 0,0 0,0 0,0 0,0 0,0 0,0l0 0c0,0 0,0 0,-1 0,0 0,0 0,0l0 0c0,0 0,0 0,0 0,0 0,0 0,0 0,0 0,0 0,-1 0,0 0,0 0,0 0,0 0,0 1,0 0,0 0,0 0,1 1,0 1,0 1,0 0,0 0,0 1,0 0,0 1,0 1,0 0,0 0,0 0,1l0 0 0 0c0,0 0,0 -1,0 0,0 0,0 0,0 0,1 0,1 0,1 0,0 -1,0 -1,0 0,0 0,0 0,1l0 0c0,0 0,0 0,0 0,0 0,0 -1,0 0,0 0,0 0,0 0,0 0,0 0,0 0,0 0,0 0,0l0 0c0,0 0,0 0,0l0 0c0,0 0,0 0,0 0,0 0,0 0,0l0 0c0,0 0,0 0,0 0,0 0,0 0,0 0,0 0,0 0,0 0,0 0,0 -1,0 0,0 0,0 0,1 0,0 0,0 0,1 0,0 1,0 1,1 0,0 0,0 0,0l0 0 0 0 0 0 0 0 0 0 0 0 0 0 0 0 0 0 0 0 0 0 0 0 0 0 0 0 0 0 0 0 0 0 0 0 0 0 0 0 0 0 0 0 0 0 0 0 0 0 0 0 0 0 0 0 0 0 0 0 0 0 0 0 0 0 0 0 0 0 0 0 0 0 0 0 0 0 0 0 0 0 0 0 0 0 0 0 0 0 0 0 0 0 0 0 0 0 0 0 0 0 0 0 0 0 0 0 0 0 0 0 0 0 0 0 0 0 0 0 0 0 0 0 0 0 0 0 0 0 0 0 0 0 0 0 0 0 0 0 0 0 0 0 0 0 0 0 0 0 0 0 0 0 0 0 0 0 0 0 0 0 0 0 0 0 0 0 0 0 0 0 0 0c1,0 2,-1 3,-1 0,0 1,0 1,-1 0,0 0,0 1,-1 0,0 0,0 0,0l0 0 0 0 0 0 0 0 0 0 0 0 0 0 0 0 0 0 0 0 0 0 0 0 0 0 0 0 0 0 0 0 0 0 0 0 0 0 0 0 0 0 0 0 0 0 0 0 0 0 0 0 0 0 0 0 0 0 0 0 0 0 0 0 0 0 0 0 0 0 0 0 0 0 0 0 0 0 0 0 0 0 0 0 0 0 0 0 0 0 0 0 0 0 0 0 0 0 0 0 0 0 0 0 0 0 0 0 0 0 0 0 0 0 0 0 0 0 0 0 0 0 0 0 0 0 0 0 0 0 0 0 0 0 0 0 0 0 0 0 0 0 0 0 0 0 0 0 0 0 0 0 0 0 0 0 0 0 0 0 0 0 0 0 0 0 0 0 0 0 0 0 0 0 0 0 0 0 0 0 0 0 0 0 0 0 0 0 0 0 0 0 0 0 0 0 0 0 0 0 0 0 0 0 0 0 0 0 0 0 0 0 0 0 0 0 0 0 0 0 0 0 0 0 0 0c0,-1 -1,-3 -2,-4l0 0 0 -1 0 0c0,0 0,-1 0,-1 0,0 0,-1 0,-1 0,0 0,-1 -1,-1l0 0 0 0 0 0 0 0 0 0 0 0 0 0 0 0 0 0 0 0 0 0 0 0 0 0 0 0 0 0 0 0 0 0 0 0 0 0 0 0 0 0 0 0 0 0 0 0 0 0 0 0 0 0 0 0 0 0 0 0 0 0 0 0 0 0 0 0 0 0 0 0 0 0 0 0 0 0 0 0 0 0 0 0 0 0 0 0 0 0 0 0 0 0 0 0 0 0 0 0 0 0 0 0 0 0 0 0 0 0 0 0 0 0 0 0 0 0 0 0 0 0 0 0 0 0 0 0 0 0 0 0 0 0 0 0 0 0 0 0 0 0 0 0 0 0 0 0 0 0 0 0 0 0 0 0 0 0 0 0 0 0 0 0 0 0 0 0 0 0 0 0 0 0 0 0 0 0 0 0 0 0 0 0 0 0 0 0 0 0 0 0 0 0 0 0 0 0 0 0 0 0 0 0 0 0 0 0 0 0 0 0 0 0c0,0 0,0 0,0 -1,1 -4,3 -6,4 -1,1 -2,1 -3,1 -1,0 -4,-1 -5,-2l-1 0c0,0 -1,0 -1,-1l0 0c0,0 -1,0 -1,-1 0,0 0,0 0,0l0 0 0 0 0 0 0 0 0 0 0 0 0 0 0 0 0 0 0 0 0 0 0 0 0 0 0 0 0 0 0 0 0 0 0 0 0 0 0 0 0 0 0 0 0 0 0 0 0 0 0 0 0 0 0 0 0 0 0 0 0 0 0 0 0 0 0 0 0 0 0 0 0 0 0 0 0 0 0 0 0 0 0 0 0 0 0 0 0 0 0 0 0 0 0 0 0 0 0 0 0 0 0 0 0 0 0 0 0 0 0 0 0 0 0 0 0 0 0 0 0 0 0 0 0 0 0 0 0 0 0 0 0 0 0 0 0 0 0 0 0 0 0 0 0 0 0 0 0 0 0 0 0 0 0 0 0 0 0 0 0 0 0 0 0 0 0 0 0 0 0 0 0 0 0 0 0 0 0 0 0 0 0 0 0 0 0 0 0 0 0 0 0 0 0 0 0 0 0 0 0 0 0 0 0 0 0 0 0 0 0 0 0 0 0 0 0 0 0 0 0 0 0 0 0 0 0 0 0 0zm-2 7c0,0 0,1 0,1l0 0 0 0 0 0c0,0 0,0 0,0 0,0 0,0 0,0l0 0c0,0 0,0 0,0 0,0 0,0 0,0 0,0 0,0 0,0zm1 -5c0,-1 0,-1 1,-2l0 0c0,0 -1,-1 -1,-1l0 0 0 0c0,-1 0,-1 1,-2l0 0 0 0 0 0 0 0c0,-1 1,-1 1,-1l0 0 0 0c0,0 0,0 0,0l0 0c0,0 0,-1 1,-1l0 0c0,0 0,0 1,0l0 0c0,0 0,0 1,0 0,0 1,0 1,1 0,0 0,0 0,0 0,0 0,0 0,0l0 0c0,0 0,0 1,0 0,0 0,0 1,0 0,0 0,1 0,1l0 0 0 0c0,0 0,0 0,0 0,0 0,0 1,0l0 0c0,0 0,0 1,0 0,0 0,0 0,1l0 0 0 0c0,0 0,0 1,0 0,0 0,0 0,0 0,0 0,0 0,0l0 0c0,0 0,0 0,0 0,-1 0,-1 1,-1 0,0 1,-1 1,-1 1,0 1,0 1,0 0,0 0,0 0,1 0,0 0,1 0,1 0,0 0,0 -1,0l0 0 0 0c0,0 0,0 0,0l0 0c0,0 0,0 0,0l0 0 0 0c0,0 1,-1 1,-1 0,0 0,0 1,0 0,0 0,0 0,0 0,0 0,0 0,0l0 0c0,0 0,-1 0,-1 0,0 0,0 0,0l0 0 0 0 0 0c0,0 1,0 1,0 0,0 0,0 0,0 0,0 0,-1 0,-1 0,0 0,0 0,0 0,0 0,0 1,0 0,0 0,0 1,0 0,0 0,-1 0,-1l0 0c0,0 0,0 0,0 0,0 0,0 1,0 0,0 1,0 1,1l0 0 0 0 0 0 0 0 0 0 0 0c0,0 1,0 1,1 0,0 1,1 1,1 0,1 0,1 0,1l0 0 0 0 0 0 0 0 0 0 0 0c0,0 0,0 0,0 0,0 0,1 1,1 0,0 0,1 0,1 0,0 0,1 0,1l0 0 0 1 0 0c0,1 1,3 2,4 0,0 0,0 0,0 0,0 0,0 0,0l0 0c0,0 0,1 0,1 0,0 0,1 0,1 0,2 -3,3 -5,4l0 0 0 0c0,0 0,0 0,0 0,0 0,0 -1,0 0,1 0,3 0,5 0,2 0,3 0,4l0 0c0,0 0,1 0,1 0,1 0,1 0,1l0 0c0,0 1,1 1,2 0,1 0,2 -1,2 0,0 0,0 -1,0 0,0 0,0 -1,0 0,0 0,0 -1,0 -1,0 -1,0 -2,-1l0 0c0,0 -1,-1 -1,-2 0,0 0,-1 0,-2 0,0 0,0 0,0l0 0c0,0 0,0 0,0l0 0 0 0 -1 -2 0 0c0,-1 0,-2 -1,-3l0 0 0 0 -1 -6 0 0c0,1 0,1 0,2l0 0c0,0 0,1 0,1l0 0c0,1 0,2 0,3 0,1 0,2 0,3 0,1 0,1 0,2 0,0 0,1 0,1 0,2 0,3 -1,4 0,0 -1,1 -1,1 0,0 -1,0 -1,0 -1,0 -1,-1 -2,-2 0,-1 0,-1 0,-2 0,0 0,-1 0,-1 0,0 0,0 0,0l0 0c-1,-1 -1,-4 -1,-5l0 0 0 0c0,-1 0,-2 -1,-3 0,-1 0,-2 -1,-3 -1,0 -2,0 -4,-1 -1,0 -2,-1 -2,-1l0 0 0 0 0 0c0,0 -1,-1 -1,-2 0,-1 0,-1 1,-2 0,-1 1,-2 1,-4l0 -1c0,-1 1,-2 1,-2zm1 -2l0 0 0 0 0 0 0 0 0 0 0 0 0 0 0 0 0 0 0 0 0 0 0 0 0 0 0 0 0 0 0 0 0 0 0 0 0 0 0 0 0 0 0 0 0 0 0 0 0 0 0 0 0 0 0 0 0 0 0 0 0 0 0 0 0 0 0 0 0 0 0 0 0 0 0 0 0 0 0 0 0 0 0 0 0 0 0 0 0 0 0 0 0 0 0 0 0 0 0 0 0 0 0 0 0 0 0 0 0 0 0 0 0 0 0 0 0 0 0 0 0 0 0 0 0 0 0 0 0 0 0 0 0 0 0 0 0 0 0 0 0 0 0 0 0 0 0 0 0 0 0 0 0 0 0 0 0 0 0 0 0 0 0 0 0 0 0 0 0 0 0 0 0 0 0 0 0 0 0 0 0 0 0 0 0 0 0 0 0 0 0 0 0 0 0 0 0 0 0 0 0 0 0 0 0 0 0 0 0 0 0 0 0 0 0 0 0 0 0 0 0 0 0 0 0 0 0 0 0 0 0 0 0 0 0 0 0 0 0 0 0 0 0 0 0 0 0 0 0 0 0 0 0 0c0,0 1,0 1,1l0 0c0,0 1,0 1,1 0,0 0,0 1,0 1,1 4,2 5,2 0,0 1,-1 3,-1 2,-1 5,-3 6,-4 0,0 0,0 0,0l0 0 0 0 0 0 0 0 0 0 0 0 0 0 0 0 0 0 0 0 0 0 0 0 0 0 0 0 0 0 0 0 0 0 0 0 0 0 0 0 0 0 0 0 0 0 0 0 0 0 0 0 0 0 0 0 0 0 0 0 0 0 0 0 0 0 0 0 0 0 0 0 0 0 0 0 0 0 0 0 0 0 0 0 0 0 0 0 0 0 0 0 0 0 0 0 0 0 0 0 0 0 0 0 0 0 0 0 0 0 0 0 0 0 0 0 0 0 0 0 0 0 0 0 0 0 0 0 0 0 0 0 0 0 0 0 0 0 0 0 0 0 0 0 0 0 0 0 0 0 0 0 0 0 0 0 0 0 0 0 0 0 0 0 0 0 0 0 0 0 0 0 0 0 0 0 0 0 0 0 0 0 0 0 0 0 0 0 0 0 0 0 0 0 0 0 0 0 0 0 0 0 0 0 0 0 0 0 0 0 0 0 0 0 0 0 0 0 0 0c0,0 0,0 0,0l0 0 0 0 0 0 0 0c0,0 0,0 0,-1 0,0 0,-1 -1,-1 0,0 0,0 -1,-1l0 0c0,0 0,0 0,0l0 0c0,0 0,0 0,0l0 0 -4 3 0 0c0,0 0,0 0,0 -1,1 -4,3 -5,3 0,0 -3,-1 -4,-2l0 0 0 0 0 0c-1,-1 -5,-3 -6,-3 0,0 -1,1 -1,1l0 0 0 0 0 0 0 0c0,0 0,1 -1,1 0,0 1,0 1,1 0,0 0,0 1,0l0 0zm5 11l0 0 0 0 0 0 0 0 0 0 0 0 0 0 0 0 0 0 0 0 0 0 0 0 0 0 0 0 0 0 0 0 0 0 0 0 0 0 0 0 0 0 0 0 0 0 0 0 0 0 0 0 0 0 0 0 0 0 0 0 0 0 0 0 0 0 0 0 0 0 0 0 0 0 0 0 0 0 0 0 0 0 0 0 0 0 0 0 0 0 0 0 0 0 0 0 0 0 0 0 0 0 0 0 0 0 0 0 0 0 0 0 0 0 0 0 0 0 0 0 0 0 0 0 0 0 0 0 0 0 0 0 0 0 0 0 0 0 0 0 0 0 0 0 0 0c0,0 0,0 0,0 0,0 0,0 0,0l0 0c0,0 0,0 0,1 0,0 0,0 0,0zm5 0l0 0 0 0 0 0 0 0 0 0c0,0 0,0 0,0 0,0 0,0 0,0 0,0 0,0 0,0zm-13 -3c0,0 0,1 0,1 0,1 0,1 1,2l0 0c0,1 1,1 2,1 1,0 2,1 3,1l0 0 0 0c1,0 2,0 3,0l0 0 0 0c1,0 1,0 2,0l0 0 0 0 0 0 0 0 0 0 0 0 0 0 0 0 0 0 0 0 0 0 0 0 0 0 0 0 0 0 0 0 0 0 0 0 0 0 0 0 0 0 0 0 0 0 0 0 0 0 0 0 0 0 0 0 0 0 0 0 0 0 0 0 0 0 0 0 0 0 0 0 0 0 0 0 0 0 0 0 0 0 0 0 0 0 0 0 0 0 0 0 0 0 0 0 0 0 0 0 0 0 0 0 0 0 0 0 0 0 0 0 0 0 0 0 0 0 0 0 0 0 0 0 0 0 0 0 0 0 0 0 0 0 0 0 0 0 0 0 0 0 0 0 0 0 0 0 0 0 0 0 0 0 0 0 0 0 0 0 0 0 0 0 0 0 0 0 0 0 0 0 0 0 0 0 0 0 0 0 0 0 0 0 0 0 0 0 0 0 0 0 0 0 0 0 0 0 0 0 0 0 0 0 0 0 0 0 0 0 0 0 0 0 0 0 0 0 0 0 0 0 0 0 0 0 0 0 0 0 0 0 0 0 0 0 0 0 0 0 0 0 0 0 0 0 0 0 1 0 0 0 0 0c1,0 1,0 2,0 1,0 1,0 2,0 1,0 1,0 2,0l0 0 0 0 0 0 0 0 0 0 0 0 0 0 0 0 0 0 0 0 0 0 0 0 0 0 0 0 0 0 0 0 0 0 0 0 0 0 0 0 0 0 0 0 0 0 0 0 0 0 0 0 0 0 0 0 0 0 0 0 0 0 0 0 0 0 0 0 0 0 0 0 0 0 0 0 0 0 0 0 0 0 0 0 0 0 0 0 0 0 0 0 0 0 0 0 0 0 0 0 0 0 0 0 0 0 0 0 0 0 0 0 0 0 0 0 0 0 0 0 0 0 0 0 0 0 0 0 0 0 0 0 0 0 0 0 0 0 0 0 0 0 0 0 0 0 0 0 0 0 0 0 0 0 0 0 0 0 0 0 0 0 0 0 0 0 0 0 0 0 0 0 0 0 0 0 0 0 0 0 0 0 0 0 0 0 0 0 0 0 0 0 0 0 0 0 0 0 0 0 0 0 0 0 0 0 0 0 0 0 0 0 0 0 0 0 0 0 0 0 0 0 0 0 0 0 0 0 0 0 0 0 0 0c0,0 1,0 1,0 0,0 0,0 0,0l0 0 0 0c2,-1 5,-2 5,-3 0,0 0,-1 0,-1 0,0 0,-1 0,-1l0 0c0,0 0,0 0,0 0,0 0,0 0,0l0 0 0 0 0 0 0 0 0 0 0 0 0 0 0 0 0 0 0 0 0 0 0 0 0 0 0 0 0 0 0 0 0 0 0 0 0 0 0 0 0 0 0 0 0 0 0 0 0 0 0 0 0 0 0 0 0 0 0 0 0 0 0 0 0 0 0 0 0 0 0 0 0 0 0 0 0 0 0 0 0 0 0 0 0 0 0 0 0 0 0 0 0 0 0 0 0 0 0 0 0 0 0 0 0 0 0 0 0 0 0 0 0 0 0 0 0 0 0 0 0 0 0 0 0 0c0,0 0,0 0,0 0,0 0,1 -1,1 0,0 -1,1 -1,1 -1,0 -2,1 -3,1 -1,0 -3,1 -4,1 -1,0 -2,0 -2,0 0,0 -1,0 -1,0 -1,0 -2,0 -4,0 -2,0 -3,0 -4,0 -1,0 -2,0 -3,-1 -1,0 -2,-1 -2,-2l0 0zm5 -11l0 0c0,0 0,0 0,0 0,0 0,0 0,0zm2 1l0 0c0,0 0,0 0,0 0,0 0,0 0,0zm2 1l0 0 0 0 0 0c0,0 0,0 0,0 0,0 0,0 0,0zm2 1c0,0 0,0 1,0 0,0 0,0 0,0l0 0c0,0 0,0 0,0l0 0c0,0 0,0 0,0zm2 1c0,0 0,0 0,0 0,0 0,0 0,0 0,0 0,0 0,0zm1 -1c0,0 1,0 1,-1 0,0 0,0 0,0 0,0 0,0 0,0 0,0 0,0 0,0zm2 -1c0,0 1,0 1,-1 0,0 0,0 0,0l0 0c0,0 0,0 0,0l0 0zm2 -1l0 0c0,0 0,0 0,0 0,0 0,0 0,0zm2 -1l0 0c0,0 0,0 0,0 0,0 0,0 0,0zm2 -1l0 0 0 0 0 0zm0 0l0 0 0 0 0 0 0 0 0 0 0 0 0 0zm-8 20l1 6 0 0c0,1 0,2 1,3l1 2c0,0 0,0 0,0l0 0c0,0 0,0 0,0l0 0 0 0 0 0 0 0 0 0 0 0 0 0 0 0 0 0 0 0 0 0 0 0 0 0 0 0 0 0 0 0 0 0 0 0 0 0 0 0 0 0 0 0 0 0 0 0 0 0 0 0 0 0 0 0 0 0 0 0 0 0 0 0 0 0 0 0 0 0 0 0 0 0 0 0 0 0 0 0 0 0 0 0 0 0 0 0 0 0 0 0 0 0 0 0 0 0 0 0 0 0 0 0 0 0 0 0 0 0 0 0 0 0 0 0 0 0 0 0 0 0 0 0 0 0 0 0 0 0 0 0 0 0 0 0 0 0 0 0 0 0 0 0 0 0 0 0 0 0 0 0 0 0 0 0 0 0 0 0 0 0 0 0 0 0 0 0 0 0 0 0 0 0 0 0 0 0 0 0 0 0 0 0 0 0 0 0 0 0 0 0 0 0 0 0 0 0 0 0 0 0 0 0 0 0 0 0 0 0 0 0 0 0 0 0 0 0 0 0 0 0 0 0 0 0 0 0 0 0 0 0 0 0 0 0 0 0 0 0 0 0 0 0 0 0 0 0 0 0 0 0 0 0 0 0 0 0 0 0 0 0 0 0 0 0 0 0 0 0 0 0 0 0 0 0 0 0 0 0 0 0 0 0 0 0 0 0 0 0 0 0 0 0 0 0 0 0 0 0 0 0 0 0 0 0 0 0 0 0 0 0 0 0 0 0 0 0 0 0 0 0 0 0 0 0 0 0 0 0 0 0 0 0 0 0 0 0 0 0 0 0 0 0 0 0 0 0 0 0 0 0 0 0 0 0 0 0 0 0 0 0 0 0 0 0 0 0 0 0 0 0 0 0 0 0 0 0 0 0 0 0 0 0 0 0 0 0 0 0 0 0 0 0 0 0 0 0 0 0 0 0 0 0 0 0 0 0 0 0 0 0 0 0 0 0 0 0 0 0 0 0 0 0 0 0 0 0 0 0 0 0 0 0 0 0 0 0 0 0 0 0 0 0 0 0 0 0 0 0 0 0 0 0 0 0 0 0 0 0 0 0 0 0c0,0 0,0 0,0 0,0 0,0 0,-1 0,0 0,-1 0,-1l0 0 0 0 0 0c0,-1 0,-3 0,-4 0,-2 0,-4 0,-5l0 0 0 0 0 0 0 0 0 0 0 0 0 0 0 0 0 0 0 0 0 0 0 0 0 0 0 0 0 0 0 0 0 0 0 0 0 0 0 0 0 0 0 0 0 0 0 0 0 0 0 0 0 0 0 0 0 0 0 0 0 0 0 0 0 0 0 0 0 0 0 0 0 0 0 0 0 0 0 0 0 0 0 0 0 0 0 0 0 0 0 0 0 0 0 0 0 0 0 0 0 0 0 0 0 0 0 0 0 0 0 0 0 0 0 0 0 0 0 0 0 0 0 0 0 0 0 0 0 0 0 0 0 0 0 0 0 0 0 0 0 0 0 0 0 0 0 0 0 0 0 0 0 0 0 0 0 0 0 0 0 0 0 0 0 0 0 0 0 0 0 0 0 0 0 0 0 0 0 0 0 0 0 0 0 0 0 0 0 0 0 0 0 0 0 0 0 0c-1,0 -1,0 -2,0 -1,0 -1,0 -2,0l0 0 0 0 0 0 0 0 0 0 0 0 0 0 0 0 0 0 0 0 0 0 0 0 0 0 0 0 0 0 0 0 0 0 0 0 0 0 0 0 0 0 0 0 0 0 0 0 0 0 0 0 0 0 0 0 0 0 0 0 0 0 0 0 0 0 0 0 0 0 0 0 0 0 0 0 0 0 0 0 0 0 0 0 0 0 0 0 0 0 0 0 0 0 0 0 0 0 0 0 0 0 0 0 0 0 0 0 0 0 0 0 0 0 0 0 0 0 0 0 0 0 0 0 0 0 0 0 0 0 0 0 0 0 0 0 0 0 0 0 0 0 0 0 0 0 0 0 0 0 0 0 0 0 0 0 0 0 0 0 0 0 0 0 0 0 0 0 0 0 0 0 0 0 0 0 0 0 0 0 0 0 0 0 0 0 0 0 0 0 0 0 0 0 0 0 0 0 0 0 0 0zm-2 11c0,0 0,0 0,-1 0,-1 0,-1 0,-2 0,-1 0,-2 0,-3l0 0c0,-1 0,-2 0,-3l0 0c0,0 0,-1 0,-1 0,-1 0,-1 0,-2l0 0 0 0 0 0 0 0 0 0 0 0 0 0 0 0 0 0 0 0 0 0 0 0 0 0 0 0 0 0 0 0 0 0 0 0 0 0 0 0 0 0 0 0 0 0 0 0 0 0 0 0 0 0 0 0 0 0 0 0 0 0 0 0 0 0 0 0 0 0 0 0 0 0 0 0 0 0 0 0 0 0 0 0 0 0 0 0 0 0 0 0 0 0 0 0 0 0 0 0 0 0 0 0 0 0 0 0 0 0 0 0 0 0 0 0 0 0 0 0 0 0 0 0 0 0 0 0 0 0 0 0 0 0 0 0 0 0 0 0 0 0 0 0 0 0 0 0 0 0 0 0 0 0 0 0 0 0 0 0 0 0 0 0 0 0 0 0 0 0 0 0 0 0 0 0 0 0 0 0 0 0 0 0 0 0 0 0 0 0 0 0 0 0 0 0 0 0 0 0 0 0 0 0 0 0 0 0 0 0 0 0 0 0 0 0 0 0 0 0 0 0 0 0 0 0 0 0 0 0 0 0 0 0c-1,0 -1,0 -2,0l0 0 0 0 0 0 0 0 0 0 0 0 0 0 0 0 0 0 0 0 0 0 0 0 0 0 0 0 0 0 0 0 0 0 0 0 0 0 0 0 0 0 0 0 0 0 0 0 0 0 0 0 0 0 0 0 0 0 0 0 0 0 0 0 0 0 0 0 0 0 0 0 0 0 0 0 0 0 0 0 0 0 0 0 0 0 0 0 0 0 0 0 0 0 0 0 0 0 0 0 0 0 0 0 0 0 0 0 0 0 0 0 0 0 0 0 0 0 0 0 0 0 0 0 0 0 0 0 0 0 0 0 0 0 0 0 0 0 0 0 0 0 0 0 0 0 0 0 0 0 0 0 0 0 0 0 0 0 0 0 0 0 0 0 0 0 0 0 0 0 0 0 0 0 0 0 0 0 0 0 0 0 0 0 0 0 0 0 0 0 0 0 0 0 0 0 0 0 0 0 0 0 0 0 0 0 0 0 0 0 0 0 0 0 0 0 0 0 0 0 0 0 0 0c0,1 0,2 1,3 0,1 0,2 1,3l0 0 0 0c0,1 1,4 1,5l0 0c0,0 0,0 0,0l0 0 0 0 0 0 0 0 0 0 0 0 0 0 0 0 0 0 0 0 0 0 0 0 0 0 0 0 0 0 0 0 0 0 0 0 0 0 0 0 0 0 0 0 0 0 0 0 0 0 0 0 0 0 0 0 0 0 0 0 0 0 0 0 0 0 0 0 0 0 0 0 0 0 0 0 0 0 0 0 0 0 0 0 0 0 0 0 0 0 0 0 0 0 0 0 0 0 0 0 0 0 0 0 0 0 0 0 0 0 0 0 0 0 0 0 0 0 0 0 0 0 0 0 0 0 0 0 0 0 0 0 0 0 0 0 0 0 0 0 0 0 0 0 0 0 0 0 0 0 0 0 0 0 0 0 0 0 0 0 0 0 0 0 0 0 0 0 0 0 0 0 0 0 0 0 0 0 0 0 0 0 0 0 0 0 0 0 0 0 0 0 0 0 0 0 0 0 0 0 0 0 0 0 0 0 0 0 0 0 0 0 0 0 0 0 0 0 0 0 0 0 0 0 0 0 0 0 0 0 0 0 0 0 0 0 0 0c0,0 0,0 0,0 0,0 0,0 0,0 0,0 0,0 0,0l0 0 0 0 0 0 0 0 0 0 0 0 0 0 0 0 0 0 0 0 0 0 0 0 0 0 0 0 0 0 0 0 0 0 0 0 0 0 0 0 0 0 0 0 0 0 0 0 0 0 0 0 0 0 0 0 0 0 0 0 0 0 0 0 0 0 0 0 0 0 0 0 0 0 0 0 0 0 0 0 0 0 0 0 0 0 0 0 0 0 0 0 0 0 0 0 0 0 0 0 0 0 0 0 0 0 0 0 0 0 0 0 0 0 0 0 0 0 0 0 0 0 0 0 0 0 0 0 0 0 0 0 0 0 0 0 0 0 0 0 0 0 0 0 0 0 0 0 0 0 0 0 0 0 0 0 0 0 0 0 0 0 0 0 0 0 0 0 0 0 0 0 0 0 0 0 0 0 0 0 0 0 0 0 0 0 0 0 0 0 0 0 0 0 0 0 0 0 0 0 0 0 0 0 0 0 0 0 0 0 0 0 0 0 0 0 0 0 0 0 0 0 0 0 0 0 0 0 0 0 0 0 0 0 0 0 0 0 0 0 0 0 0 0 0 0 0 0 0 0 0 0zm-1 -27c0,0 0,0 0,0 0,0 0,0 0,0l0 0c0,0 0,0 0,0 0,0 0,0 0,0 0,0 0,0 0,0 0,0 0,0 0,0 0,0 1,0 1,1l0 0c0,0 0,0 1,0l0 0 0 0 0 0c0,0 0,0 0,0l0 0 0 0 0 0c0,0 0,0 0,0 0,0 0,0 0,0 0,0 1,0 1,0 0,0 0,0 1,0 0,0 0,0 1,0 0,0 0,0 0,-1l0 0 0 0c0,0 0,0 0,0l0 0c0,0 0,0 0,0 0,0 0,0 0,0l0 0 0 0c0,0 0,0 0,0 0,0 0,0 0,0 0,0 0,0 0,0 0,0 0,0 0,0 0,0 0,0 0,0 0,0 0,0 -1,1l0 0 0 0c0,0 0,0 0,0l0 0 0 0c0,0 0,0 0,0l0 0c0,0 0,0 0,0l0 0c0,0 0,0 0,0l0 0c0,0 0,0 -1,-1l0 0 0 0c0,0 1,0 1,0 0,0 0,0 0,0l0 0c0,0 0,0 0,0 0,0 -1,0 -1,0 0,0 -1,0 -1,1 0,0 0,1 -1,2l0 0 0 0zm-2 27l0 0 0 0zm3 1l0 0 0 0 0 0 0 0 0 0 0 0 0 0 0 0 0 0 0 0 0 0 0 0 0 0 0 0 0 0 0 0 0 0 0 0 0 0 0 0 0 0 0 0 0 0 0 0 0 0 0 0 0 0 0 0 0 0 0 0 0 0 0 0 0 0 0 0 0 0 0 0 0 0 0 0 0 0 0 0 0 0 0 0 0 0 0 0 0 0 0 0 0 0 0 0 0 0 0 0 0 0 0 0 0 0 0 0 0 0 0 0 0 0 0 0 0 0 0 0 0 0 0 0 0 0 0 0 0 0 0 0 0 0 0 0 0 0 0 0 0 0 0 0 0 0 0 0 0 0 0 0 0 0 0 0 0 0 0 0 0 0 0 0 0 0 0 0 0 0 0 0 0 0 0 0 0 0 0 0 0 0 0 0 0 0 0 0 0 0 0 0 0 0 0 0 0 0 0 0 0 0 0 0 0 0 0 0 0 0 0 0 0 0 0 0 0 0 0 0 0 0 0 0 0 0 0 0 0 0 0 0 0 0 0 0 0 0 0 0 0 0 0 0 0 0 0 0 0 0c0,0 0,0 0,0l0 0c0,0 0,0 0,0l0 0c0,0 0,0 0,0l0 0 0 0 0 0 0 0 0 0 0 0 0 0 0 0 0 0 0 0 0 0 0 0 0 0 0 0 0 0 0 0 0 0 0 0 0 0 0 0 0 0 0 0 0 0 0 0 0 0 0 0 0 0 0 0 0 0 0 0 0 0 0 0 0 0 0 0 0 0 0 0 0 0 0 0 0 0 0 0 0 0 0 0 0 0 0 0 0 0 0 0 0 0 0 0 0 0 0 0 0 0 0 0 0 0 0 0 0 0 0 0 0 0 0 0 0 0 0 0 0 0 0 0 0 0 0 0 0 0 0 0 0 0 0 0 0 0 0 0 0 0 0 0 0 0 0 0 0 0 0 0 0 0 0 0 0 0 0 0 0 0 0 0 0 0 0 0 0 0 0 0 0 0 0 0 0 0 0 0 0 0 0 0 0 0 0 0 0 0 0 0 0 0 0 0 0 0 0 0 0 0 0 0 0 0 0 0 0 0 0 0 0 0 0 0 0 0 0 0 0 0c0,0 0,1 0,1 0,0 0,1 0,1 0,1 1,1 1,1 0,0 1,0 1,0 0,0 1,0 1,-1 1,-1 1,-2 1,-3zm4 0c0,0 0,1 0,1 0,1 0,1 1,1l0 0c0,0 1,1 1,1 0,0 0,0 1,0l0 0c0,0 0,0 0,0 0,0 0,0 0,0 0,0 1,-1 0,-2 0,-1 0,-1 -1,-1l0 0 0 0 0 0 0 0 0 0 0 0 0 0 0 0 0 0 0 0 0 0 0 0 0 0 0 0 0 0 0 0 0 0 0 0 0 0 0 0 0 0 0 0 0 0 0 0 0 0 0 0 0 0 0 0 0 0 0 0 0 0 0 0 0 0 0 0 0 0 0 0 0 0 0 0 0 0 0 0 0 0 0 0 0 0 0 0 0 0 0 0 0 0 0 0 0 0 0 0 0 0 0 0 0 0 0 0 0 0 0 0 0 0 0 0 0 0 0 0 0 0 0 0 0 0 0 0 0 0 0 0 0 0 0 0 0 0 0 0 0 0 0 0 0 0 0 0 0 0 0 0 0 0 0 0 0 0 0 0 0 0 0 0 0 0 0 0 0 0 0 0 0 0 0 0 0 0 0 0 0 0 0 0 0 0 0 0 0 0 0 0 0 0 0 0 0 0 0 0 0 0 0 0 0 0 0 0 0 0 0 0 0 0 0 0 0 0 0 0 0 0 0 0 0 0 0 0 0 0 0 0 0 0 0 0 0 0 0 0 0 0 0 0 0 0 0 0 0 0 0 0 0 0 0 0 0 0 0 0 0 0 0 0 0 0 0 0 0 0 0 0 0 0 0 0 0 0 0 0 0 0 0 0 0 0 0 0 0 0 0 0 0 0 0 0 0 0 0 0 0 0 0 0 0 0 0 0 0 0 0 0 0 0 0 0 0 0 0 0 0 0 0 0 0 0 0 0 0 0 0 0 0 0 0 0 0 0 0 0 0 0 0 0 0 0 0 0 0 0 0 0 0 0 0 0 0 0 0 0 0 0 0 0 0 0 0 0 0 0 0 0 0 0 0 0 0 0 0 0 0 0 0 0 0 0 0 0 0 0 0 0 0 0 0 0 0 0 0 0 0 0 0 0 0 0 0 0 0 0 0 0 0 0 0 0 0 0 0 0 0 0 0 0 0 0 0 0 0 0 0 0 0 0 0 0 0 0 0 0 0 0 0 0 0 0 0 0 0 0zm-8 -19l-1 0 0 0 0 0c0,0 0,0 0,0l0 0c0,0 0,0 0,0l0 0 0 0 0 0 0 1 0 0 0 0c0,0 0,0 0,0 0,0 0,0 0,0l0 0 1 0 0 0 0 0 0 0 0 0 0 0c0,0 0,0 0,0l0 0 0 -1 0 0 0 0c0,0 0,0 0,0l0 0 0 0zm0 0l0 0 0 0 0 0zm-1 0l0 0c0,0 0,0 0,0l0 0c0,0 0,0 0,0l0 0c0,0 0,0 0,0l0 0c0,0 0,0 0,0l0 0c0,0 0,0 0,0 0,0 0,0 0,0l0 0 0 0 0 0zm-1 1l0 0 0 0 0 0 0 0 0 0c0,0 0,0 -1,0 0,0 0,0 0,0 0,0 0,0 0,0l0 0c0,0 0,0 1,0l0 0zm0 1l0 0 0 0 0 0c0,0 0,0 0,0l0 0c0,0 0,0 0,0 0,0 0,0 0,0 0,0 0,0 0,0 0,0 0,0 0,0l0 0zm1 1l0 0c0,0 0,0 0,0 0,0 0,0 0,0 0,0 0,0 0,0l0 0c0,0 0,0 0,0 0,0 0,0 0,-1zm1 0l0 0c0,0 0,0 0,1l0 0c0,0 0,0 0,0l0 0c0,0 0,0 0,0 0,0 0,0 0,0 0,0 0,0 0,0 0,0 0,0 0,0 0,0 0,0 0,0 0,0 0,0 0,0 0,0 0,0 0,0 0,0 0,0 0,0zm0 0l0 0 0 0 0 0zm0 0l0 0c0,0 0,0 0,0 0,0 0,0 0,0 0,0 0,0 0,0 0,0 0,0 0,0l0 0c0,0 0,0 0,0l0 0c0,0 0,0 0,0l0 0 0 0 0 0c0,0 0,0 0,0l0 0zm0 -1l0 0c0,0 0,0 0,0l0 0 0 0 0 0 0 0zm0 -1l0 0c0,0 1,0 1,0 0,0 0,0 0,0 0,0 0,0 0,0l0 0c0,0 0,0 0,1l0 0zm0 -1c0,0 0,0 0,0 0,0 0,0 0,0l0 0zm0 0c0,0 0,0 0,0 0,0 0,0 0,0 0,0 0,0 0,0 0,0 0,0 0,0 0,0 0,0 0,0l0 0c0,0 0,0 0,0l0 0 0 0 0 0 0 0zm4 1c0,0 0,0 0,0l0 0c0,0 0,0 0,0l0 0 0 1 0 0 0 0 1 1 1 0 0 0 0 0c0,0 0,0 0,-1l0 0c0,0 0,0 0,-1l0 0 0 0 0 0 0 0c0,0 0,0 -1,0l0 0zm-1 0l0 0 0 0 0 0 0 0 0 0zm0 1l0 0c0,0 0,0 0,0l0 0c0,0 0,0 0,0 0,0 0,0 0,0 0,0 0,0 0,0l0 0c0,0 0,0 0,0l0 0c0,0 0,0 1,0l0 0zm0 1l0 0 0 0 0 0zm0 1l0 0 0 0 0 0c0,0 0,0 0,0 0,0 0,0 0,0 0,0 0,0 0,0 0,0 0,0 0,0l0 0c0,0 0,0 0,0l0 0zm2 1l0 0c0,0 0,0 0,0l0 0zm-1 0c0,0 -1,0 -1,0l0 0c0,0 0,0 0,0 0,0 0,0 0,0l0 0c0,0 0,0 0,0 0,0 0,0 0,0zm1 0l0 0c0,0 0,0 0,0 0,0 0,0 0,0 0,0 0,0 0,0l0 0c0,0 0,0 0,0l0 0c0,0 0,0 0,0 0,0 0,0 0,0l0 0c0,0 0,0 0,0 0,0 0,0 0,0l0 0 0 0 0 0 0 0 0 0 0 0zm1 -2l0 0 0 0 0 0c0,0 0,0 0,0l0 0c0,0 0,0 0,0 0,0 0,0 0,0 0,0 0,0 0,0 0,0 0,0 0,0 0,0 0,0 0,0 0,0 0,0 0,0l0 0zm-2 -1l0 0 0 0c0,0 0,0 0,0l0 0c0,0 0,0 0,0 0,0 0,0 0,0l0 0c0,0 0,0 0,0l0 0c0,0 0,0 0,0 0,0 0,0 0,0l0 0c0,0 0,0 0,0l0 0zm10 -2c0,0 0,0 0,0 0,0 0,0 0,0l0 0 0 0 0 0 0 1 0 0c0,0 0,0 1,0l0 0c1,0 1,0 1,0 0,0 0,-1 0,-1l0 0 0 0c0,0 -1,0 -1,0l0 0 0 0zm-1 0l0 0 0 0 0 0zm0 1l0 0 0 0c0,0 0,0 0,0 0,0 0,0 0,0l0 0c0,0 0,0 0,0 0,0 0,0 0,0l0 0c0,0 0,0 0,0l0 0c0,0 0,0 0,0l0 0zm0 2l0 0 0 0c0,0 0,0 0,0zm0 0l0 0c0,0 0,0 0,0l0 0c0,0 0,0 0,0 0,0 0,0 0,0 0,0 0,0 0,0 0,0 0,0 0,0 0,0 0,0 0,0 0,0 0,0 0,0 0,0 0,0 0,0l0 0zm1 1l0 0c0,0 0,0 0,0l0 0c0,0 0,0 0,0 0,0 0,0 0,0 0,0 0,0 0,0 0,0 0,0 0,0l0 0c0,0 0,0 0,0l0 0c0,0 0,0 0,0l0 0zm2 -2l0 0c0,0 0,0 0,0 0,0 0,0 0,0 0,0 0,0 0,0 0,0 0,0 0,0 0,0 0,0 0,0l0 0c0,0 0,0 0,0zm-2 -1l0 0c0,0 0,-1 0,-1 0,0 0,0 0,0l0 0c0,0 0,0 0,0 0,0 0,0 0,0l0 0zm-20 1c0,0 0,0 0,0l0 0c0,0 0,0 0,0l0 0 0 0 0 1 0 0 0 0c0,0 0,0 0,0 0,0 1,0 1,0l0 0c0,0 0,0 0,-1l0 0c0,0 0,-1 0,-1l0 0 0 0 0 0 0 0c0,0 0,0 -1,0l0 0zm-1 0l0 0 0 0 0 0zm0 1c0,0 0,0 0,0l0 0c0,0 0,0 0,0 0,0 0,0 0,0 0,0 0,0 0,0 0,0 0,0 0,0 0,0 0,0 1,0l0 0zm0 1c0,0 0,0 0,0l0 0 0 0zm0 1l0 0c0,0 0,0 0,0 0,0 0,0 0,0l0 0c0,0 0,0 0,0 0,0 0,0 0,0 0,0 0,0 0,0 0,0 0,0 0,0 0,0 0,0 0,0 0,0 0,0 0,0l0 0zm3 -1l0 0c0,0 0,0 1,0 0,0 0,0 0,0 0,0 0,0 0,0 0,0 0,0 0,0 0,0 0,0 0,0 0,0 0,0 0,0l0 0 0 0zm-2 -1l0 0 0 0 0 0c0,0 0,0 0,0 0,0 0,0 0,0l0 0c0,0 0,0 0,0 0,0 0,0 0,0 0,0 0,0 0,0 0,0 0,0 0,0 0,0 0,0 0,0l0 0zm17 2c0,0 0,0 0,0 0,0 0,0 -1,0 0,0 -1,0 -1,0l0 0 0 0 0 0 0 1 0 0 0 0c0,0 0,0 1,0 0,0 0,0 1,0l0 0c0,0 0,0 0,0 0,0 0,0 0,-1l0 0 0 0zm-2 0l0 0c0,0 0,0 0,0 0,0 0,0 0,0 0,0 0,0 0,0 0,0 0,0 0,0 0,0 0,0 0,0l0 0c0,0 0,0 1,0l0 0zm0 1l0 0c0,0 0,0 0,0l0 0zm0 1l0 0c0,0 0,0 -1,0l0 0c0,0 0,0 0,0 0,0 0,0 0,0 0,0 0,0 0,0 0,0 0,0 0,0l0 0c0,0 0,0 0,0zm2 1l0 0c0,0 0,0 0,0l0 0c0,0 0,0 0,0 0,0 0,0 0,0 0,0 0,0 0,0l0 0c0,0 0,0 0,0l0 0c0,0 0,0 0,0l0 0 0 0zm0 -2l0 0c0,0 0,0 0,0l0 0c0,0 0,0 0,0 0,0 0,0 0,0l0 0c0,0 0,0 0,0l0 0c0,0 0,0 0,0 0,0 0,0 0,0 0,0 0,0 0,0 0,0 0,0 0,0l0 0 0 0c0,0 0,0 0,0zm-16 -11c0,0 0,0 0,0l0 0c0,0 0,0 1,0 0,0 0,0 1,0 0,0 0,0 0,0 0,0 0,0 0,-1 0,0 0,0 0,0l0 0c0,0 0,0 0,0l0 0c0,0 0,0 0,0zm4 2c0,0 1,0 1,1l0 0 0 0c0,0 0,0 1,0 0,0 0,0 0,0 0,0 0,0 0,-1 0,0 0,0 0,0 0,0 0,0 0,0 0,0 0,0 0,0zm-2 -1c0,0 0,0 1,0l0 0 0 0 0 0c0,0 0,0 0,0l0 0c0,0 0,0 0,0l0 0c0,0 0,0 0,-1 0,0 0,0 0,0 0,0 0,0 0,0l0 0c0,0 0,0 0,0zm11 1c0,0 0,0 1,0l0 0c0,0 1,0 1,-1 0,0 0,0 0,0 0,0 0,0 -1,0l0 0 0 0c0,0 0,0 0,0 0,0 0,0 0,0l0 0c0,0 0,0 0,1l0 0 0 0zm2 -1c0,0 0,0 1,0 0,0 1,0 1,-1 0,0 0,0 -1,0 0,0 0,0 0,0 0,0 0,0 0,0 0,0 0,1 0,1z"/>
     <path class="fil1" d="M37 33c-1,1 -1,1 -2,1 -1,0 -2,0 -3,0l0 0 0 0 0 -1 0 0 0 0c0,0 0,0 0,0 0,0 0,0 0,0 0,0 0,0 0,-1l0 0 1 0c1,0 1,0 1,1 0,0 0,0 0,0 0,0 1,0 1,0 0,0 1,0 1,0l1 -1 -1 1zm-2 1c0,0 1,0 1,-1 0,0 0,0 0,0 0,0 -1,0 -1,0 0,0 0,0 -1,-1 0,0 0,0 -1,-1 0,0 0,0 0,1 0,0 0,0 0,0 0,0 0,0 0,0l0 1c1,0 1,0 2,0z"/>
    </g>
   </g>
  </g>
  <path class="fil2 str0" d="M50 1c27,0 48,22 48,48 0,27 -22,48 -48,48 -27,0 -48,-22 -48,-48 0,-27 22,-48 48,-48z"/>
 </g>
</svg>
