<?xml version="1.0" encoding="UTF-8"?>
<!DOCTYPE svg PUBLIC "-//W3C//DTD SVG 1.1//EN" "http://www.w3.org/Graphics/SVG/1.1/DTD/svg11.dtd">
<!-- Creator: CorelDRAW X6 -->
<svg xmlns="http://www.w3.org/2000/svg" xml:space="preserve" width="21.6765mm" height="21.6765mm" version="1.1" style="shape-rendering:geometricPrecision; text-rendering:geometricPrecision; image-rendering:optimizeQuality; fill-rule:evenodd; clip-rule:evenodd"
viewBox="0 0 115 115"
 xmlns:xlink="http://www.w3.org/1999/xlink">
 <defs>
  <style type="text/css">
   <![CDATA[
    .str1 {stroke:#FEFEFE;stroke-width:0.404769}
    .str0 {stroke:#FEFEFE;stroke-width:2.65596}
    .fil2 {fill:none}
    .fil3 {fill:#FEFEFE}
    .fil0 {fill:#BC0300}
    .fil1 {fill:#FEFEFE;fill-rule:nonzero}
   ]]>
  </style>
 </defs>
 <g id="Layer_x0020_1">
  <metadata id="CorelCorpID_0Corel-Layer"/>
  <g id="_440807856">
   <g>
    <circle class="fil0 str0" cx="58" cy="58" r="56"/>
    <path class="fil1" d="M31 63c0,1 0,3 0,5 0,2 0,4 0,5 0,1 0,1 0,2 0,1 0,2 0,3l0 0c-1,3 -1,6 -2,8 -1,3 -1,5 -3,8l0 0c-1,1 -1,2 1,2 1,1 3,1 4,1 1,0 3,0 4,1 0,0 1,0 1,0 0,0 1,0 1,0l0 0c0,0 0,0 1,0 1,0 1,0 1,0 0,-1 2,-3 3,-4 1,-1 2,-2 2,-2l0 0c0,0 0,-1 1,-1 0,0 1,0 1,0 0,0 1,0 1,0 3,0 7,-1 10,-1 3,0 7,0 10,1l0 0c1,0 1,0 2,0l0 0c1,0 1,0 1,1 0,0 0,0 1,1l0 0 5 6 0 0c0,0 1,0 1,0l0 0c0,0 0,0 1,0 0,0 1,0 1,0 0,0 1,0 1,0 2,0 3,0 4,-1 1,0 3,-1 4,-1 2,-1 2,-1 1,-3 0,-1 -1,-2 -1,-3 -1,-4 -2,-9 -3,-14l0 0c-1,-5 -1,-9 0,-14l0 0 0 0c1,0 2,-1 2,-2 1,-1 1,-2 2,-3 0,0 1,-1 1,-2 0,0 0,-1 0,-1 0,0 0,0 -1,-1 0,0 0,0 0,0 -1,-1 -2,-1 -3,-2 -1,-1 -2,-1 -3,-2 -2,-2 -5,-4 -8,-6 -3,-2 -5,-5 -7,-7 -1,-1 -2,-2 -3,-4 -1,-1 -2,-2 -3,-4 0,0 0,0 0,-1 -1,-1 -1,-2 -2,-2l0 0 0 0 0 0 0 0 0 0 0 0c1,0 1,0 2,0l0 0 0 0c0,0 1,1 1,1 0,0 1,0 1,0 2,0 5,-3 7,-4l0 0 0 0c0,0 1,-1 1,-1l0 0c0,0 1,-1 1,-1 0,0 0,0 0,0 0,0 0,0 0,0l0 0c0,0 0,0 0,0l0 0c0,0 0,0 -1,0 -1,0 -3,1 -5,1 -1,0 -2,0 -3,-1 0,0 0,-1 0,-1l0 0c0,0 0,-1 -1,-1 -1,0 -2,-1 -3,-1 -1,0 -3,0 -4,0 -1,0 -1,1 -1,2 0,0 0,1 0,1l0 4c0,0 0,1 0,1 0,0 0,1 0,1l0 0c0,0 0,0 0,1l0 0c0,0 0,0 -1,1 -1,1 -1,2 -2,2 -1,1 -1,1 -2,2 0,0 0,1 -1,1 0,0 -1,1 -1,1l0 0 -6 6 0 0c0,0 0,0 -1,0 0,0 0,0 -1,0 0,0 -1,1 -1,1 -1,1 -2,1 -2,2l0 0c-2,2 -5,4 -7,5 -2,2 -4,3 -7,5l0 0 0 0c-1,0 -1,0 0,2 0,1 1,3 2,4 1,1 2,2 3,3l0 0 0 0zm-1 5c0,-2 0,-3 0,-4 -1,-1 -2,-2 -3,-3 -1,-1 -1,-3 -2,-4 -1,-2 -1,-2 1,-3l0 0c3,-2 5,-3 7,-5 2,-2 4,-3 7,-5l0 0c0,0 1,-1 2,-2 0,0 1,-1 1,-1 0,0 0,0 1,-1 0,0 0,0 0,0l6 -6 0 0c0,0 1,-1 1,-1 0,0 1,-1 1,-1 1,-1 1,-1 2,-2 1,-1 1,-1 2,-2 0,0 0,-1 1,-1l0 0c0,0 0,0 0,0l0 0c0,0 0,0 0,-1 0,0 0,-1 0,-1l0 -4c0,0 0,0 0,-1 0,-1 0,-3 1,-3 1,0 3,0 4,0 1,0 2,0 3,1 1,1 1,1 2,2l0 0c0,0 0,0 0,1 0,0 1,0 2,0 2,0 3,0 4,-1 1,0 1,0 2,0l0 0c0,0 1,0 1,1l0 0c0,0 0,1 0,1 0,0 0,1 0,1 0,0 -1,1 -1,1l0 0c0,0 -1,1 -1,1l0 0 0 0c-2,2 -5,4 -8,4 -1,0 -1,0 -2,0 0,0 -1,-1 -1,-1 0,0 -1,0 -1,0l0 0c0,0 1,1 1,1 0,0 0,0 1,1 1,1 2,2 3,4 1,1 2,2 3,3 2,2 4,4 7,7 2,2 5,4 7,6 1,1 2,2 3,2 1,1 2,1 3,2 0,0 0,0 0,0 1,0 1,1 1,2 0,0 0,1 0,1 0,1 -1,2 -1,2 0,1 -1,2 -2,3 -1,1 -1,2 -2,2 0,4 0,9 0,13 1,5 2,10 3,14 0,1 1,2 1,3 1,3 1,3 -1,4 -1,1 -3,1 -4,1 -1,0 -3,0 -5,1l0 0c0,0 -1,0 -1,0 0,0 -1,0 -1,0 0,0 0,0 0,0 -1,0 -1,0 -2,-1l-5 -6 0 0c0,0 0,-1 -1,-1 0,0 0,0 0,0l0 0 0 0c-1,0 -1,0 -2,0l0 0c-3,0 -6,-1 -10,-1 -3,0 -6,0 -10,1 0,0 -1,0 -1,0 0,0 -1,0 -1,0 0,0 0,0 0,0 0,0 0,0 0,0 0,0 -1,1 -2,2 -1,2 -3,4 -3,4 -1,1 -1,1 -2,1 0,0 0,0 -1,0l0 0c0,0 -1,0 -1,0l0 0c0,0 -1,0 -1,0 -2,0 -3,0 -5,-1 -1,0 -3,-1 -4,-1 -2,-1 -2,-1 -2,-4l0 0c1,-3 2,-6 2,-8 1,-3 1,-5 2,-8l0 0c0,-1 0,-2 0,-3 0,-1 0,-1 0,-2 0,-1 0,-3 0,-5zm45 31l0 0m-27 -42c1,0 2,0 3,0 0,0 1,0 1,0 1,0 1,0 2,0 1,0 2,0 3,0l9 0c0,-1 -1,-2 -1,-3 -1,-1 -1,-2 -1,-2 -1,-2 -2,-4 -3,-6 -1,-2 -2,-4 -2,-6l0 0 -1 -5 0 1c0,0 0,1 0,1 0,1 0,1 0,2 0,1 0,1 -1,2 -1,2 -1,4 -2,6 -1,2 -2,4 -3,6 0,0 -1,1 -1,2l0 0c-1,1 -1,2 -2,3zm3 1c-1,0 -2,0 -4,0l-1 0 0 -1c0,0 1,-2 2,-4l0 0c1,-1 1,-2 1,-2 1,-2 2,-4 3,-6 1,-2 2,-4 2,-6 0,-1 0,-1 0,-2 0,-1 0,-1 0,-2 0,0 0,-1 0,-1 0,-1 1,-2 1,-3l1 -1 0 1c0,0 0,1 0,1l0 0c0,0 0,0 0,0l0 0 0 0 1 5c1,2 1,4 2,6 1,2 2,4 3,6 0,0 1,1 1,2 1,2 2,3 2,4l0 1 -1 0 -10 0 0 0c-1,0 -2,0 -3,0 -1,0 -1,0 -2,0 0,0 -1,0 -1,0zm22 33c0,1 0,1 0,2l0 1 -1 0c0,0 -1,-1 -2,-2 -1,-2 -3,-4 -3,-5 -2,-3 -4,-6 -5,-10 -1,-3 -3,-7 -4,-10 0,0 0,-1 0,-1 -1,-1 -1,-2 -1,-4l0 -1 1 0c0,0 1,1 1,1l0 0c0,0 0,0 0,0 5,4 9,2 10,1 0,0 0,0 0,0l1 0 0 1c0,1 0,3 0,4 0,1 0,2 0,4 0,3 0,6 1,9 0,3 1,6 1,9 0,0 0,1 0,1zm-1 0c0,0 0,-1 0,-1 -1,-3 -1,-6 -1,-9 0,-3 0,-6 -1,-9 0,-1 0,-2 0,-4 0,-1 0,-2 0,-3 -2,1 -5,3 -11,-2 0,0 0,0 0,0l0 0 0 0c0,1 0,2 1,3 0,0 0,1 0,1 1,3 3,7 4,10 1,3 3,6 5,9 0,1 2,3 3,5l0 0zm-38 -26c-1,0 -1,0 -1,0 0,3 0,6 0,9 0,3 -1,6 -1,10 0,1 0,2 -1,3 0,1 -1,2 -1,3 0,0 0,1 0,2 0,1 0,1 0,2 0,0 0,1 0,1 0,0 0,1 0,1 0,0 1,0 1,0 1,0 2,1 3,1 1,0 2,0 3,0 1,0 2,0 2,0 0,-1 1,-2 1,-3l0 0 0 0c1,-5 2,-10 3,-16 0,-6 1,-11 1,-16 0,0 0,0 0,-1 0,0 0,0 0,0l0 0c0,0 0,0 -1,1 -1,1 -2,1 -3,2 -1,1 -2,1 -3,1zm-1 -1c1,0 1,0 1,0 1,0 2,0 3,-1 1,-1 2,-1 3,-2 0,0 0,0 1,-1l0 0c0,0 1,-1 1,-1l0 0 0 0 0 0 0 0c0,0 1,1 1,1 0,5 0,11 -1,16 0,6 -1,11 -3,16l0 0 0 0c0,1 -1,3 -1,4l0 0 0 0c-1,0 -2,0 -3,0 -1,0 -2,0 -3,0 -1,0 -2,0 -3,-1 -1,0 -2,-1 -2,-1l0 0 0 0c0,-1 0,-1 1,-2 0,0 0,-1 0,-1 0,-1 0,-1 0,-2 0,0 0,-1 0,-2 0,-1 1,-2 1,-3 0,-1 0,-2 1,-3 1,-4 1,-6 1,-9 0,-3 0,-6 0,-9l0 -1 1 0 0 0 0 0zm7 -5l0 0 0 0 0 0c0,0 -1,1 -1,1 -1,0 -1,1 -2,1l0 0c-3,1 -4,1 -5,0 0,0 -1,0 -1,0 -1,0 -1,-1 -2,-1 -1,-1 -2,-2 -2,-3l0 -1 1 0c0,0 1,0 2,0 0,0 1,0 1,0l0 0 9 1c0,0 0,0 0,0l0 0 0 0 0 0 0 0zm-1 1l-8 -1 0 0c0,0 -1,0 -1,0l0 0c0,0 1,1 1,2 0,1 1,1 1,1 0,0 1,0 1,0 1,0 2,1 4,0l0 0c0,0 1,-1 2,-1l0 0zm21 -40l0 5c0,0 1,0 1,0 0,0 1,0 1,0 2,0 2,0 2,1 0,0 0,1 1,0 0,0 1,0 2,-1 1,0 1,-1 2,-1 -2,0 -4,0 -5,-2 0,0 0,0 0,-1 0,0 0,-1 -1,-1 0,0 -1,0 -2,0 0,0 -1,0 -1,0zm-1 5l0 -6 0 0 0 0c0,0 1,0 2,0 1,0 2,0 2,0 2,0 2,1 2,2 0,0 0,0 0,0 1,1 3,1 4,1 0,0 1,0 1,0l1 0 0 1c0,0 -2,1 -3,2 -1,1 -2,1 -3,1 -1,0 -1,-1 -2,-1 0,0 0,-1 -1,0 0,0 -1,0 -1,0 -1,0 -2,1 -2,1l-1 0 0 -1zm-29 30c2,1 4,1 6,1 0,0 1,0 2,0 1,0 1,0 2,0 1,0 2,0 2,0l0 0 0 0c1,0 3,0 4,0 0,0 2,-4 3,-5l0 0 0 0c1,-2 3,-5 4,-8 1,-3 2,-6 3,-9 0,0 0,0 0,-1 0,0 0,-1 0,-1 0,1 -1,1 -1,2l0 0 0 0 0 0c-3,4 -7,8 -11,11 -4,3 -8,7 -13,9l0 0c0,0 0,0 0,0zm5 2c-2,0 -5,-1 -7,-1l-1 0 0 -1c0,0 1,-1 1,-1 0,0 0,0 0,0l0 0c4,-3 9,-6 13,-9 4,-3 8,-7 11,-11l0 0 0 0 0 0c1,-1 2,-3 3,-3l1 0 0 1c0,1 0,2 -1,3 0,0 0,1 0,1 -1,3 -2,6 -3,9 -1,3 -2,6 -4,8l0 0 0 0c-1,1 -3,6 -3,6l0 0 0 0c-1,0 -3,0 -5,0l0 0 0 0c-1,0 -2,0 -2,0 -1,0 -1,0 -2,0 0,0 -1,0 -2,0zm51 -2c0,0 -1,0 -1,0l0 0c0,0 0,0 0,0l0 0c-4,-3 -8,-6 -12,-9 -4,-3 -8,-7 -11,-11l0 0c0,0 0,0 -1,-1 0,0 -1,-1 -1,-2 0,1 0,2 1,3 1,3 2,6 2,7l0 1c2,5 3,8 7,14 0,0 0,0 0,1l0 0c0,0 0,0 0,0 0,0 0,0 1,0 1,0 1,0 2,0 1,0 1,0 2,0 1,0 2,0 4,0 1,0 2,0 3,0 1,0 1,0 1,0 1,0 2,0 4,-1zm0 -1c1,0 2,1 2,1l0 1 -1 0c-2,1 -3,1 -5,1 0,0 -1,0 -1,0 -1,0 -2,0 -3,0 -1,0 -2,0 -4,0 -1,0 -1,0 -2,0 -1,0 -1,0 -2,0 0,0 0,0 -1,0 -1,0 -1,0 -1,0 0,0 0,0 -1,-1 0,0 0,0 0,-1 -3,-5 -4,-8 -7,-14l0 -1c0,-1 -1,-4 -2,-7 -1,-2 -1,-4 -1,-4l0 -1 1 0c0,0 2,2 3,3 0,0 0,1 1,1l0 0c3,4 7,7 11,11 4,3 8,6 12,9l0 0c0,0 0,0 0,0l0 0zm-8 43c1,0 1,0 2,0 1,0 2,0 3,0 1,0 2,0 3,-1 1,0 1,0 2,-1 0,-1 -1,-2 -1,-2l0 0 0 -1 0 0c-1,-2 -1,-3 -1,-5 0,-2 -1,-4 -1,-6 0,-2 -1,-4 -1,-6 0,-2 0,-4 0,-6 0,-1 0,-1 0,-2 0,-1 0,-1 0,-2l0 0 0 0c0,0 -1,0 -1,0 -1,0 -3,0 -4,-1 -1,-1 -2,-1 -3,-2 0,0 0,0 0,0l0 0c0,0 0,0 0,0 0,0 0,0 0,0l0 0c0,0 0,0 0,1 0,2 0,4 0,5 0,1 0,1 0,2 0,2 0,3 0,5 0,2 0,3 0,5 0,2 0,3 1,5 0,1 0,3 1,4l0 0c0,1 1,4 1,6 0,1 1,2 1,2zm2 1c-1,0 -2,0 -3,0l0 0 0 0c0,0 -1,-2 -1,-3 -1,-2 -1,-5 -1,-6l0 0c0,-1 -1,-3 -1,-4 0,-2 0,-3 -1,-5 0,-2 0,-3 0,-5l0 0c0,-2 0,-3 0,-5 0,-1 0,-1 0,-2 0,-2 0,-4 0,-6 0,0 0,-1 0,-1l0 0c0,0 0,-1 1,-1l0 0 0 0c0,0 1,0 1,1l0 0c0,0 0,0 0,0 1,1 2,2 3,2 1,1 2,1 4,1l0 0c0,0 0,0 1,0l0 0c0,0 0,0 1,0l1 0 0 1c0,1 0,2 0,3 0,1 0,1 0,2 0,2 0,4 0,6 0,2 0,4 1,6 0,2 1,4 1,6 0,2 1,4 1,5l0 0 0 1 0 0c0,1 1,3 1,3l0 0 0 0c-1,0 -1,1 -2,1 -1,0 -2,0 -3,1 -1,0 -2,0 -3,0zm-31 -32c-1,0 -1,0 -1,0 0,0 -1,0 -1,0 0,0 -1,0 -1,-1l0 0 0 0c0,2 0,5 0,7 0,3 0,5 0,8 0,2 0,3 -1,5 0,2 -1,4 -1,6l0 0c0,0 0,1 0,1l0 0 0 0c1,-2 3,-4 3,-5 1,-2 3,-5 4,-7 1,-3 2,-5 3,-8l0 0c1,-2 3,-7 3,-8l0 0c0,0 0,0 -1,1 -1,1 -2,1 -3,2 -1,0 -2,1 -4,1l0 0zm-1 -1c0,0 1,0 1,0 1,0 2,0 3,-1 1,0 2,-1 3,-2 0,0 0,0 1,-1 0,0 1,-1 1,-1l1 0 0 1 0 1 0 0c0,1 -2,6 -3,8l0 0c-1,3 -2,5 -3,8 -1,2 -3,5 -4,7 0,1 -2,3 -3,5 -1,1 -1,2 -2,2l-1 0 0 -1c0,-1 0,-1 0,-2 0,0 0,-1 0,-1l0 0c0,-2 1,-4 1,-6 0,-2 0,-3 1,-5 0,-3 0,-5 0,-8 0,-3 0,-5 0,-8l0 -1 1 0c0,0 1,0 1,1l0 0c0,0 1,0 1,0 0,0 1,0 1,0zm6 -4l-9 0c0,0 0,0 0,0 0,1 1,1 1,1 1,1 3,1 4,1 1,0 3,-1 4,-2zm-10 -1l11 0 1 0 0 1c0,0 0,1 -1,1 0,0 0,0 0,0 -1,1 -3,2 -4,3 -2,0 -3,0 -5,-1 0,0 -1,-1 -1,-1 0,0 -1,-1 -1,-1l0 -1 1 0zm16 1l0 0 0 0 0 -1 1 0c1,0 2,0 3,0 1,0 2,0 3,0l0 0 6 0 1 0 0 1c0,0 -1,1 -1,1 0,1 -1,1 -1,1l0 0c0,0 -1,1 -2,1 -1,0 -1,0 -2,0 -1,0 -2,0 -3,-1 -1,-1 -2,-1 -3,-2 0,0 0,0 0,0 0,0 0,0 0,0l0 0c0,0 0,0 0,0zm2 0c1,1 2,1 2,2 1,0 2,1 2,1 1,0 1,0 2,0 0,0 1,0 1,-1l0 0c0,0 1,-1 1,-1 0,0 0,0 0,0l-5 0 0 0c-1,0 -2,0 -3,0 -1,0 -1,0 -2,0zm15 -1c0,0 0,0 0,0 1,0 1,1 2,1 2,1 4,1 4,0 0,0 1,0 1,0l0 0c0,0 1,0 1,0 0,0 0,0 1,0 0,0 1,-1 1,-2 0,0 0,0 0,0 0,0 0,0 -1,0l0 0c0,0 -1,0 -1,0 -1,0 -3,0 -4,1 -1,0 -3,0 -3,0l0 0 -1 0zm0 1c0,0 -1,-1 -1,-1l0 0 0 0 0 0 0 0c0,0 0,0 0,0l0 0 0 0 0 0 0 0 0 0 0 0 0 0 1 0c1,0 2,0 4,0 1,0 3,0 4,-1 0,0 1,0 1,0l0 0c1,0 1,0 2,0l1 0 0 1c0,0 0,1 -1,2 0,1 -1,1 -1,2 0,0 0,0 -1,1 0,0 -1,0 -1,0l0 0c0,0 0,0 -1,0 -1,0 -3,1 -5,0 0,0 -1,-1 -2,-1zm0 -1l0 0 0 0 0 0z"/>
   </g>
   <path class="fil1" d="M6 35c0,0 7,4 24,2 17,-2 27,-11 27,-11l0 0 0 0c0,0 21,14 34,12 13,-1 17,-6 17,-6l1 1c0,0 -4,4 -18,6 -13,1 -32,-10 -34,-12 -2,2 -11,10 -27,11 -17,2 -24,-2 -24,-2l1 -1z"/>
   <path class="fil2" d="M1 54c0,0 2,3 13,2 10,-1 10,-2 10,-2"/>
   <path class="fil1" d="M2 54c0,0 2,3 12,2 10,-1 9,-2 9,-2l1 0c0,0 1,2 -10,3 -11,1 -13,-2 -13,-2l1 -1z"/>
   <polygon class="fil3 str1" points="8,37 11,37 10,42 "/>
   <polygon class="fil3 str1" points="18,39 20,39 19,44 "/>
   <polygon class="fil3 str1" points="29,38 32,38 30,43 "/>
   <polygon class="fil3 str1" points="39,35 42,35 41,40 "/>
   <polygon class="fil3 str1" points="104,37 101,37 102,42 "/>
   <polygon class="fil3 str1" points="95,39 93,39 94,43 "/>
   <polygon class="fil3 str1" points="84,38 82,38 83,42 "/>
   <polygon class="fil3 str1" points="74,35 71,35 72,40 "/>
   <polygon class="fil3 str1" points="5,56 8,56 7,61 "/>
   <polygon class="fil3 str1" points="15,57 18,57 17,61 "/>
   <path class="fil2" d="M113 54c0,0 -2,3 -13,2 -10,-1 -10,-2 -10,-2"/>
   <path class="fil1" d="M113 53c0,0 -2,3 -12,2 -10,-1 -9,-2 -9,-2l-1 0c0,0 -1,2 10,3 11,1 13,-2 13,-2l-1 -1z"/>
   <polygon class="fil3 str1" points="109,56 107,56 108,60 "/>
   <polygon class="fil3 str1" points="99,56 97,56 98,61 "/>
  </g>
 </g>
</svg>
