<?xml version="1.0" encoding="UTF-8"?>
<!DOCTYPE svg PUBLIC "-//W3C//DTD SVG 1.1//EN" "http://www.w3.org/Graphics/SVG/1.1/DTD/svg11.dtd">
<!-- Creator: CorelDRAW 2018 (64-Bit) -->
<svg xmlns="http://www.w3.org/2000/svg" xml:space="preserve" width="35.9289mm" height="35.9289mm" version="1.1" style="shape-rendering:geometricPrecision; text-rendering:geometricPrecision; image-rendering:optimizeQuality; fill-rule:evenodd; clip-rule:evenodd"
viewBox="0 0 2774.54 2774.54"
 xmlns:xlink="http://www.w3.org/1999/xlink">
 <defs>
  <style type="text/css">
   <![CDATA[
    .fil0 {fill:#5B5B5B}
    .fil1 {fill:#5B5B5B;fill-rule:nonzero}
   ]]>
  </style>
 </defs>
 <g id="Layer_x0020_1">
  <metadata id="CorelCorpID_0Corel-Layer"/>
  <g id="_1738343279152">
   <g>
    <path class="fil0" d="M2362.44 1974.06l0 -1015.15c-21.72,-35.65 -22.84,-70.01 -100.73,-73.26 -140.48,-5.86 -411.5,-0.09 -561.39,-0.09 -137.6,0 -651.95,-6.99 -744.82,1.44 4.07,24.88 4.46,56.52 25.14,68.74l1256.87 0.05 -667.43 566.35c-19.55,-20.65 -46.53,-39.11 -69.57,-57.59l-507.22 -408.69c3.79,26.29 9.31,48.07 15.25,73.34 11.78,50.04 65.64,81.5 129.09,129.84 30.31,23.09 171.42,136.37 187.69,159.1l-164.12 164.99 71.97 27.11 148.73 -151.38c201.46,158.87 170.97,183.37 286.09,75.72 24.85,-23.24 64.5,-57.92 89.9,-73.93 80.12,69.21 245.11,260.09 333.5,348.82 12.05,12.1 21.82,17.84 34.43,30.01 40.93,39.53 76.81,93.69 118.84,128.44l-746.48 2.22 -4.54 70.32c58.28,-0.02 765.37,6.84 805.03,-4.72 36.84,-10.74 45.04,-34.71 63.76,-61.66zm-549.41 -567.99c19.88,37.72 305.23,324.74 358.15,380.9l119.12 122.91 0.6 -901.9c-49.1,36.53 -443.18,379.65 -477.87,398.09z"/>
    <path class="fil0" d="M412.08 1182.99l0 85.09c5.32,14.58 15.64,139.46 56.03,257.27 72.72,212.11 217.33,428.09 387.66,554.99 60,44.7 141.87,76.11 232.66,83.79 235.82,19.95 329.45,-171.04 244.88,-251.71 -50.07,-47.76 -146.11,-184.18 -196.46,-192.05 -88.12,-13.78 -158.01,114.11 -213.38,70.06 -96.76,-76.98 -189.68,-275.2 -223.24,-410.64 -15.06,-60.8 -23.26,-73.69 32,-97.31 166.25,-71.04 168.28,-28.8 110.56,-282.58 -25.78,-113.35 -11.84,-159.54 -149.97,-161.19 -141.29,-1.68 -220.42,105.58 -256.37,220.15 -10.59,33.72 -15.74,101.87 -24.37,124.11z"/>
   </g>
   <path class="fil1" d="M1387.26 0c383.07,0 729.9,155.29 980.94,406.33 251.04,251.04 406.33,597.87 406.33,980.94 0,383.07 -155.29,729.9 -406.33,980.94 -251.04,251.04 -597.88,406.32 -980.94,406.32 -383.07,0 -729.89,-155.28 -980.93,-406.32 -251.04,-251.04 -406.33,-597.87 -406.33,-980.94 0,-383.06 155.28,-729.9 406.32,-980.94 251.04,-251.04 597.87,-406.33 980.94,-406.33zm923.16 464.11c-236.24,-236.25 -562.64,-382.38 -923.16,-382.38 -360.52,0 -686.91,146.13 -923.16,382.38 -236.24,236.24 -382.37,562.64 -382.37,923.16 0,360.52 146.13,686.91 382.38,923.16 236.24,236.24 562.63,382.37 923.15,382.37 360.52,0 686.92,-146.13 923.16,-382.37 236.25,-236.25 382.38,-562.64 382.38,-923.16 0,-360.52 -146.13,-686.92 -382.38,-923.16z"/>
  </g>
 </g>
</svg>
