<?xml version="1.0" encoding="UTF-8"?>
<!DOCTYPE svg PUBLIC "-//W3C//DTD SVG 1.1//EN" "http://www.w3.org/Graphics/SVG/1.1/DTD/svg11.dtd">
<!-- Creator: CorelDRAW 2018 (64-Bit) -->
<svg xmlns="http://www.w3.org/2000/svg" xml:space="preserve" width="35.9289mm" height="35.9289mm" version="1.1" style="shape-rendering:geometricPrecision; text-rendering:geometricPrecision; image-rendering:optimizeQuality; fill-rule:evenodd; clip-rule:evenodd"
viewBox="0 0 796.96 796.96"
 xmlns:xlink="http://www.w3.org/1999/xlink">
 <defs>
  <style type="text/css">
   <![CDATA[
    .fil1 {fill:#4D4D4D}
    .fil0 {fill:#5B5B5B;fill-rule:nonzero}
   ]]>
  </style>
 </defs>
 <g id="Layer_x0020_1">
  <metadata id="CorelCorpID_0Corel-Layer"/>
  <g id="_1738337830176">
   <path class="fil0" d="M398.48 0c110.03,0 209.66,44.6 281.76,116.71 72.11,72.11 116.71,171.73 116.71,281.76 0,110.03 -44.6,209.65 -116.71,281.76 -72.11,72.11 -171.73,116.71 -281.76,116.71 -110.03,0 -209.65,-44.6 -281.76,-116.71 -72.11,-72.11 -116.71,-171.73 -116.71,-281.76 0,-110.03 44.6,-209.65 116.71,-281.76 72.11,-72.11 171.73,-116.71 281.76,-116.71zm265.17 133.31c-67.86,-67.86 -161.61,-109.83 -265.17,-109.83 -103.56,0 -197.31,41.97 -265.17,109.83 -67.86,67.86 -109.83,161.61 -109.83,265.17 0,103.56 41.97,197.31 109.83,265.17 67.86,67.86 161.61,109.83 265.17,109.83 103.56,0 197.31,-41.97 265.17,-109.83 67.86,-67.86 109.83,-161.61 109.83,-265.17 0,-103.56 -41.97,-197.31 -109.83,-265.17z"/>
   <g>
    <path class="fil1" d="M272.41 455.82l20.67 -64.3c2.36,-7.36 3.6,-16.19 13.06,-15.54 8.77,0.61 9.35,9.77 11.34,17.35 1.98,7.56 3.95,14.72 6,22.29 4.12,15.21 8.44,29.79 12.08,44.81 3.35,-5.4 27.35,-101.13 32.47,-120.74 1.65,-6.31 3.77,-24.08 16.73,-18.84 3.47,1.4 4.66,3.15 5.84,7.79 10.2,40.01 22.06,102.9 31.65,147.51l3.28 15.57c0.2,0.85 0.38,1.8 0.67,2.55 1.2,3.11 0.44,1.5 1.74,3.11l26.22 -73.61c2.43,-6.69 3.58,-12.5 10.53,-13.45 13.53,-1.83 16.99,26.5 30.18,44.49l93.31 0.59c7.47,-8.73 19.98,-36.27 24.59,-49.21 22.85,-64.19 16.97,-122.48 -30.81,-165.15 -42.82,-38.24 -113.73,-43.05 -164.05,-5.62 -23.28,17.32 -31.4,35.79 -35.21,39.26 -4.9,-4.65 -13.52,-25.7 -41.42,-43.53 -17.97,-11.48 -38.52,-20 -64.47,-21.4 -55.11,-2.97 -95.17,25.99 -115.67,56.18 -34.32,50.55 -22.99,115.08 4.04,168.57 11.57,22.89 9.88,21.62 21.45,21.49 27.63,-0.32 58.69,1.53 85.78,-0.19z"/>
    <path class="fil1" d="M304.13 421.48l-15.04 46.84c-2.4,5.94 -5.6,7.3 -13.27,7.33 -27.88,0.12 -56.59,0.51 -84.4,-0.09 2.13,5.81 15.78,21.48 19.32,25.57 18.56,21.41 45.77,46.64 67.61,64.5 11.56,9.45 96.74,72.36 105.11,71.2 3.6,-0.5 47.41,-29.62 53.73,-34.07 36.98,-26.06 65.01,-47.56 96.72,-79.42 6.96,-7 37.6,-39.64 40.62,-48.33l-83.89 -0.32c-6.47,-0.18 -8.59,-1.45 -10.95,-5.57l-10.16 -20.23c-0.13,-0.21 -0.3,-0.47 -0.43,-0.67 -1.97,-3.02 -0.27,-0.53 -1.47,-1.97 -1.67,2.32 -2.18,4.01 -3.38,7.43 -5.04,14.34 -29.49,85.29 -33.31,88.25 -5.79,4.5 -12.6,1.41 -14.78,-2.96 -1.72,-3.45 -3.47,-14.27 -4.41,-18.65l-29.52 -137.24c-0.68,-3.31 -0.99,-6.51 -2.87,-9.18 -2.68,11.55 -32.22,127.17 -35.25,131.59 -2.27,3.31 -8.35,5.82 -13.49,2.57 -7.5,-4.73 -19.93,-76.3 -26.47,-86.59z"/>
   </g>
  </g>
 </g>
</svg>
