<?xml version="1.0" encoding="UTF-8"?>
<!DOCTYPE svg PUBLIC "-//W3C//DTD SVG 1.1//EN" "http://www.w3.org/Graphics/SVG/1.1/DTD/svg11.dtd">
<!-- Creator: CorelDRAW 2018 (64-Bit) -->
<svg xmlns="http://www.w3.org/2000/svg" xml:space="preserve" width="32.6743mm" height="32.6744mm" version="1.1" style="shape-rendering:geometricPrecision; text-rendering:geometricPrecision; image-rendering:optimizeQuality; fill-rule:evenodd; clip-rule:evenodd"
viewBox="0 0 2467.23 2467.24"
 xmlns:xlink="http://www.w3.org/1999/xlink">
 <defs>
  <style type="text/css">
   <![CDATA[
    .fil0 {fill:#5B5B5B}
    .fil1 {fill:#5B5B5B;fill-rule:nonzero}
   ]]>
  </style>
 </defs>
 <g id="Layer_x0020_1">
  <metadata id="CorelCorpID_0Corel-Layer"/>
  <g id="_1738297969440">
   <path class="fil0" d="M1228.5 2131.73l471.21 -691.68c56.51,-83.78 106.17,-123.77 147.89,-238.46 163.28,-449.02 -184.86,-865.13 -607.32,-866.08 -428.07,-0.96 -780.12,400 -624.02,855.51 40.53,118.26 220.36,364.33 297.48,475.7 54.9,79.29 102.74,151.9 156.71,229.82l158.06 235.18zm-62.36 -1497.07c-173.69,35.91 -332.18,211.63 -280.78,432.08 39.69,170.22 215.05,316.31 433.77,271.11 168.52,-34.83 328.04,-202.21 281.96,-421.45 -36.77,-174.96 -211.05,-328.04 -434.95,-281.74z"/>
   <path class="fil1" d="M1233.62 0c340.64,0 649.05,138.09 872.29,361.32 223.23,223.24 361.32,531.65 361.32,872.3 0,340.65 -138.09,649.06 -361.32,872.3 -223.24,223.23 -531.65,361.32 -872.29,361.32 -340.64,0 -649.05,-138.09 -872.29,-361.33 -223.24,-223.24 -361.33,-531.65 -361.33,-872.29 0,-340.65 138.09,-649.06 361.33,-872.29 223.24,-223.24 531.65,-361.33 872.29,-361.33zm815.79 417.82c-208.77,-208.76 -497.21,-337.9 -815.79,-337.9 -318.59,0 -607.02,129.14 -815.79,337.91 -208.77,208.76 -337.91,497.2 -337.91,815.79 0,318.59 129.14,607.02 337.91,815.79 208.77,208.77 497.2,337.91 815.79,337.91 318.58,0 607.02,-129.14 815.79,-337.9 208.76,-208.77 337.9,-497.21 337.9,-815.8 0,-318.59 -129.14,-607.03 -337.9,-815.8z"/>
  </g>
 </g>
</svg>
