<?xml version="1.0" encoding="UTF-8"?>
<!DOCTYPE svg PUBLIC "-//W3C//DTD SVG 1.1//EN" "http://www.w3.org/Graphics/SVG/1.1/DTD/svg11.dtd">
<!-- Creator: CorelDRAW X6 -->
<svg xmlns="http://www.w3.org/2000/svg" xml:space="preserve" width="21.6765mm" height="21.6765mm" version="1.1" style="shape-rendering:geometricPrecision; text-rendering:geometricPrecision; image-rendering:optimizeQuality; fill-rule:evenodd; clip-rule:evenodd"
viewBox="0 0 86 86"
 xmlns:xlink="http://www.w3.org/1999/xlink">
 <defs>
  <style type="text/css">
   <![CDATA[
    .str0 {stroke:#FEFEFE;stroke-width:1.99207}
    .fil0 {fill:#BC0300}
    .fil1 {fill:#FEFEFE;fill-rule:nonzero}
   ]]>
  </style>
 </defs>
 <g id="Layer_x0020_1">
  <metadata id="CorelCorpID_0Corel-Layer"/>
  <g id="_442364064">
   <circle class="fil0 str0" cx="43" cy="43" r="42"/>
   <path class="fil1" d="M37 13c0,0 0,0 -1,0 0,0 0,0 -1,1l0 0 0 0c0,0 0,0 0,0 0,0 0,0 0,1 0,0 -1,1 -1,2 0,0 0,1 -1,1 0,0 0,1 0,1l0 0c0,2 0,4 0,5 0,0 0,1 0,1 0,0 0,1 1,1 0,0 0,1 1,1l0 0 2 3 0 0c0,0 0,1 1,1 0,1 1,1 1,1l2 3c0,0 0,1 1,1 0,1 1,1 1,2l0 0 0 0 0 0 0 0c0,0 0,0 0,0l0 0 0 0 1 3c0,0 1,1 1,2 0,0 0,1 0,1 0,0 0,0 0,0 0,0 0,0 0,0 0,0 0,-1 1,-1 0,0 0,0 0,0l0 0c0,0 0,0 0,-1l0 0 0 0c0,0 0,0 0,0 0,0 0,0 0,-1 0,0 0,-1 1,-1 0,-1 1,-1 1,-1 0,0 1,-2 2,-3 0,-1 1,-1 1,-1 0,0 0,-1 0,-1 0,0 0,0 0,0 0,0 0,0 0,0 0,0 0,-1 1,-1 0,0 0,-1 1,-1 0,0 0,0 0,0l0 0 0 0 0 0c0,0 0,-1 1,-1 0,0 0,-1 1,-1l0 0 0 0 0 0c0,0 0,0 0,0l0 0 0 0 0 -1 1 -1c0,0 0,-1 0,-1 0,0 0,0 0,0 0,0 0,0 0,-1 0,0 0,0 0,-1l0 -2 0 -2c0,0 0,-1 0,-1 0,0 0,-1 0,-1l-1 -1 0 0 0 0 0 0c-1,-2 -2,-2 -2,-3 0,0 0,0 0,0l0 0 0 0 0 0c-1,-1 -2,-1 -3,-1 -1,0 -2,0 -4,0 -1,0 -2,0 -3,1 -1,0 -2,1 -3,2zm-30 39c1,1 3,1 4,1 2,0 3,0 5,5 0,1 1,2 1,2 0,1 1,1 2,2 1,1 2,1 2,1 0,0 0,0 0,0l0 0c0,0 0,0 1,1l1 1c2,0 3,0 4,0 1,0 1,0 2,0 2,0 3,0 4,-1 0,0 1,0 2,0l0 0 11 -1 0 0c2,0 2,0 3,0 0,0 1,0 2,0 2,0 2,0 3,0 1,0 1,0 2,0 1,0 2,0 2,1 0,0 1,0 3,1 1,0 3,0 4,0 1,0 2,0 3,0 1,-1 1,-1 1,-1l0 0c0,0 0,0 0,-1 0,0 0,0 0,0l0 0c0,0 0,0 1,-1 3,-2 4,-3 4,-5 0,-1 1,-2 2,-4l0 0 0 0c1,0 2,0 2,0 2,0 3,0 4,-1 -1,-2 -2,-2 -4,-3l0 0c-1,0 -2,-1 -4,-1 -1,2 -2,4 -3,5 -1,2 -1,3 -2,5l0 0 0 0c-3,0 -5,-1 -6,-3 -1,-1 -1,-1 -2,-2 -1,-1 -2,-1 -2,-1 -1,0 -1,0 -2,-1 -1,-1 -2,-1 -2,-1l0 0c0,0 -1,-1 -2,-1 -1,1 -2,2 -3,3 -1,1 -2,3 -5,3 -3,0 -4,-1 -6,-3 -1,-1 -2,-2 -3,-3 -2,0 -2,1 -2,1l0 0c0,0 0,1 -2,1 -1,0 -1,1 -2,1 -1,0 -2,0 -2,1 -1,1 -1,1 -2,2 -1,2 -2,3 -6,3l0 0 0 0c0,0 -1,-2 -2,-5 -1,-2 -2,-4 -2,-5 -2,1 -4,1 -5,1l0 0c-2,1 -3,1 -3,2zm4 2c-1,0 -3,0 -4,-1l0 0 0 0c1,-2 1,-2 4,-3l0 0c1,0 3,-1 5,-2l0 0 0 0c0,0 1,3 2,6 1,2 2,4 2,4 3,0 4,-1 5,-3 1,-1 1,-2 2,-2 1,-1 2,-1 3,-1 1,0 1,0 2,-1 1,-1 1,-1 1,-1l0 0c0,0 0,-1 2,-1l0 0 0 0c2,1 3,2 4,3 1,1 2,3 5,3 2,0 3,-1 5,-3 1,-1 2,-2 4,-3l0 0 0 0c2,0 2,1 2,1l0 0c0,0 1,1 2,1 1,0 2,1 2,1 1,0 1,0 3,1 1,1 1,1 2,2 1,1 2,3 5,3 1,-1 2,-3 2,-4 1,-2 1,-4 3,-6l0 0 0 0c2,1 3,1 4,1l0 0c2,0 3,1 4,3l0 0 0 0c-1,1 -3,1 -5,1 -1,0 -2,0 -2,0 -1,2 -1,3 -1,4 -1,2 -1,3 -4,6 -1,0 -1,1 -1,1 0,0 0,1 -1,2l0 0 0 0c-1,0 -2,0 -3,0 -1,0 -3,0 -4,0 -2,0 -3,0 -3,-1 0,0 -1,0 -2,0 -1,0 -1,0 -2,0 -1,0 -2,0 -4,0 -1,0 -1,0 -2,0 -1,0 -1,0 -3,0l-11 1c-1,0 -1,0 -1,0 -1,0 -2,1 -4,1 -1,0 -1,0 -2,0 -1,0 -3,0 -4,0l0 0 0 0 -1 -1c-1,-1 -1,-1 -1,-1l0 0 0 0 0 0 0 0c0,0 -1,0 -2,-1 -1,-1 -1,-1 -2,-2 0,-1 -1,-1 -1,-3 -1,-5 -3,-5 -4,-4zm25 -41c0,0 0,0 0,0l0 0c1,-1 2,-1 3,-2 1,0 2,-1 4,-1l0 0c1,0 3,0 4,1 1,0 2,1 3,2l0 0 0 0 0 0c0,0 0,0 0,0 1,0 1,1 3,3l0 0 0 0 0 0 1 1 0 0 0 0c0,0 0,1 0,1 0,0 0,1 0,1l0 0 0 2 0 0 0 0 0 2 0 0 0 0c0,0 0,0 0,1 0,0 0,0 0,1 0,0 0,0 0,0 0,0 0,1 0,1l0 0 0 0 -1 2 0 0 0 1 0 0c0,0 0,0 0,0 0,0 0,0 0,0l0 0c0,0 0,0 0,0l0 0c0,0 0,1 0,1l0 0 0 0c0,0 0,1 -1,1l0 0 0 0 0 0c0,0 0,0 0,0 0,0 0,1 -1,1l0 0 0 0c0,0 0,0 0,1l0 0c0,0 0,0 0,0 0,0 0,1 0,1l0 0 0 0c0,0 0,1 -1,1 -1,1 -2,3 -2,3l0 0 0 0c0,0 0,1 -1,1 0,1 -1,1 -1,1l0 0 0 0c0,0 0,0 0,0 0,0 0,0 0,0l0 0 0 0 0 1 0 0c0,0 0,0 0,0 0,0 0,1 -1,1l0 0 0 0c0,0 0,0 0,0l0 0 0 0 0 0 0 0 0 0c0,0 0,0 0,0l0 0 0 0 0 0 0 0 0 0 0 0 0 0c0,0 0,0 0,0 0,0 0,0 0,0 0,0 0,0 0,0l0 0 0 0c0,0 0,0 0,-1 0,-1 -1,-1 -1,-1l0 0 0 0 -1 -3 0 0 0 0 0 0 0 0c0,0 0,-1 -1,-2 0,0 0,-1 0,-1l0 0 0 0 -2 -3 0 0 0 0c0,0 0,-1 -1,-1 0,-1 -1,-1 -1,-1l0 0 0 0 -2 -3 0 0 0 0c0,0 0,-1 -1,-1 0,-1 -1,-1 -1,-1l0 0 0 0c0,0 0,-1 0,-1 0,-2 -1,-3 0,-6l0 0c0,0 0,-1 0,-1 0,-1 0,-1 1,-1 0,-1 1,-1 1,-2 0,0 0,0 0,-1l0 0 0 0c0,0 0,0 0,0l0 0 0 0 0 0c0,0 1,-1 1,-1zm8 2c2,0 4,1 5,2l0 0c1,1 2,3 2,5 0,2 -1,4 -2,5l0 0c-1,1 -3,2 -5,2 -2,0 -4,-1 -5,-2l0 0c-1,-1 -2,-3 -2,-5 0,-2 1,-4 2,-5 1,-1 3,-2 5,-2zm4 3c-1,-1 -3,-2 -4,-2 -2,0 -3,1 -4,2 -1,1 -2,3 -2,4 0,2 1,3 2,4 1,1 3,2 4,2 2,0 3,-1 4,-2 1,-1 2,-3 2,-4 0,-2 -1,-3 -2,-4z"/>
  </g>
 </g>
</svg>
