<?xml version="1.0" encoding="UTF-8"?>
<!DOCTYPE svg PUBLIC "-//W3C//DTD SVG 1.1//EN" "http://www.w3.org/Graphics/SVG/1.1/DTD/svg11.dtd">
<!-- Creator: CorelDRAW 2018 (64-Bit) -->
<svg xmlns="http://www.w3.org/2000/svg" xml:space="preserve" width="35.9289mm" height="35.9289mm" version="1.1" style="shape-rendering:geometricPrecision; text-rendering:geometricPrecision; image-rendering:optimizeQuality; fill-rule:evenodd; clip-rule:evenodd"
viewBox="0 0 796.96 796.96"
 xmlns:xlink="http://www.w3.org/1999/xlink">
 <defs>
  <style type="text/css">
   <![CDATA[
    .fil0 {fill:#5B5B5B}
    .fil1 {fill:#5B5B5B;fill-rule:nonzero}
   ]]>
  </style>
 </defs>
 <g id="Layer_x0020_1">
  <metadata id="CorelCorpID_0Corel-Layer"/>
  <g id="_1738317498560">
   <g>
    <path class="fil0" d="M213.14 135.04l0 455.77c0,16.86 17.56,36.14 38.46,36.14l157.36 0 0 -39.63c0,-2.36 -5.04,-7.04 -6.85,-9.47 -19.93,-26.62 -16.26,-64.13 7.11,-87.02 26.46,-25.92 68.05,-26.69 93.89,-1.16 18.09,17.87 21.25,30.4 21.25,55.68 0,24.87 -18.65,35.15 -18.65,43.13l0 38.47c26.54,0 49.79,4.08 66.12,-10.81 4.75,-4.33 11.98,-16.73 11.98,-25.32l0 -334.54 -87.42 0c-28.1,0 -48.96,-11.98 -48.96,-41.96l0 -114.23 -199.33 0c-16.06,0 -34.97,18.81 -34.97,34.97z"/>
    <path class="fil0" d="M583.82 236.45l-102.23 -119.25c-1.83,-2.16 -1.63,-2.4 -3.57,-4.59l-11.93 -12.55c0,20.54 -2.72,114.68 1.97,125.09 1.63,3.61 3.98,5.95 7.06,8.09 4.15,2.88 6.29,3.29 13.07,3.25l95.63 -0.05z"/>
    <path class="fil0" d="M407.8 538.36c0,25.88 19.49,47.14 46.27,49.33 5.18,0.42 13.54,-0.61 19.18,-2.53 7,-2.38 10.25,-4.72 15.37,-9.11 17.15,-14.72 22.63,-39.72 11.67,-60.24 -5.48,-10.26 -14.64,-18.08 -25.35,-22.44 -5.08,-2.07 -14.04,-4.05 -20.05,-3.51 -27.53,2.5 -47.1,23.93 -47.1,48.5z"/>
    <path class="fil0" d="M427.62 696.88l28.87 -28.25c10.21,7.01 23.24,26.29 30.58,28.25l0 -95.58c-5.2,0.43 -8.45,2.56 -13.69,3.79 -19.23,4.5 -28.52,0.23 -45.75,-3.79l0 95.58z"/>
   </g>
   <path class="fil1" d="M398.48 0c110.03,0 209.65,44.6 281.76,116.71 72.11,72.11 116.71,171.73 116.71,281.76 0,110.03 -44.6,209.66 -116.71,281.76 -72.11,72.11 -171.73,116.71 -281.76,116.71 -110.03,0 -209.65,-44.6 -281.76,-116.71 -72.11,-72.11 -116.71,-171.73 -116.71,-281.76 0,-110.03 44.6,-209.65 116.71,-281.76 72.11,-72.11 171.73,-116.71 281.76,-116.71zm265.17 133.31c-67.86,-67.86 -161.61,-109.83 -265.17,-109.83 -103.56,0 -197.31,41.97 -265.17,109.83 -67.86,67.86 -109.83,161.61 -109.83,265.17 0,103.56 41.97,197.31 109.83,265.17 67.86,67.86 161.61,109.83 265.17,109.83 103.56,0 197.31,-41.97 265.17,-109.83 67.86,-67.86 109.83,-161.61 109.83,-265.17 0,-103.56 -41.97,-197.31 -109.83,-265.17z"/>
  </g>
 </g>
</svg>
