<?xml version="1.0" encoding="UTF-8"?>
<!DOCTYPE svg PUBLIC "-//W3C//DTD SVG 1.1//EN" "http://www.w3.org/Graphics/SVG/1.1/DTD/svg11.dtd">
<!-- Creator: CorelDRAW 2018 (64-Bit) -->
<svg xmlns="http://www.w3.org/2000/svg" xml:space="preserve" width="35.9289mm" height="35.9289mm" version="1.1" style="shape-rendering:geometricPrecision; text-rendering:geometricPrecision; image-rendering:optimizeQuality; fill-rule:evenodd; clip-rule:evenodd"
viewBox="0 0 2774.54 2774.54"
 xmlns:xlink="http://www.w3.org/1999/xlink">
 <defs>
  <style type="text/css">
   <![CDATA[
    .fil0 {fill:#5B5B5B}
    .fil1 {fill:#5B5B5B;fill-rule:nonzero}
   ]]>
  </style>
 </defs>
 <g id="Layer_x0020_1">
  <metadata id="CorelCorpID_0Corel-Layer"/>
  <g id="_1738192336176">
   <g>
    <path class="fil0" d="M945.9 1631.23c-4.15,7.44 -61.22,59.99 -72.88,70.74l-72.35 70.91c-11.07,11.72 -25.34,22.9 -37.48,34.19l-36.1 35.55c-22.09,20.06 -62.77,52.9 -23.16,91.68 36.12,35.36 76.03,-11.44 90.71,-28.24l91.69 -86.41c6.94,-6.3 11.2,-12.68 17.95,-18.87 12.94,-11.87 24.62,-22.28 37.44,-34.24l36.24 -35.4c6.37,-5.82 12.23,-10.61 18.16,-16.67 6.93,-7.1 7.96,-12.29 18.4,-17.28 0.21,41.45 0,82.96 0,124.41 0,18.82 -2.79,40.52 5.87,56.2 17.06,30.87 60.47,32.8 80.11,2.55 9.96,-15.34 7.48,-37.12 7.48,-56.7 0,-41.04 -1.63,-85.53 0.19,-126.14 5.26,2.32 13.68,10.59 18.02,15.18l17.99 18.8c42.71,38.78 84.95,82.66 127.96,121.81l18.02 18.79c11.65,11.97 24.93,22.77 37.45,34.26 12.86,11.79 21.17,25.53 37.24,34.33 39,21.32 83.57,-19.53 64.71,-60.65 -6.73,-14.67 -23.85,-27.35 -34.5,-37.09 -12.74,-11.64 -23.43,-23.85 -36.12,-35.48 -6.57,-6.02 -11.67,-10.59 -18.23,-16.6 -7.84,-7.17 -10.35,-10.36 -18.11,-18.7 -10.97,-11.78 -25.21,-23.12 -37.4,-34.3 -6.97,-6.39 -10.15,-11 -16.87,-17.87 -6.31,-6.44 -12.55,-11.54 -19.24,-17.64l-72.89 -71.23c67.99,1.35 137.26,0.12 205.4,0.12 51.9,0 152.52,5.78 195.74,-8.94 47.09,-16.04 87.46,-54.7 104.76,-99.97 11.74,-30.7 11.88,-55.04 11.88,-89.65 0,-33.54 1.42,-70.31 -0.24,-103.45 -11.7,-9.76 -27.37,-18.19 -48.06,-35.72l-44.63 -38.41c-4.22,51.06 4.42,188.24 -1.97,220.94 -15.09,77.21 -100.27,61.86 -162.22,61.86l-779.92 0c-55.69,0 -136.14,10.43 -135.96,-88.84l0.02 -560.89c0,-67.77 -16.05,-151.34 47.72,-176.29 29.12,-11.39 174.6,-5.9 217.18,-5.9 223.82,0 447.62,0 671.43,0 30.29,0 77.76,-4.16 101.94,8.56 23.97,12.61 40.8,35.45 41.35,71.19 1.13,74.93 -0.18,150.64 0.02,225.68 39.8,15.74 78.5,59.11 93.02,67.99 2.42,-34.56 0.32,-157.52 0.32,-201.46 0,-67.71 7.98,-126.17 -23.63,-180.31 -21.99,-37.63 -63.18,-74.36 -121.64,-83.08 -34.45,-5.14 -727.83,-1.91 -816.03,-1.91 -53.06,0 -148.08,-6.24 -192.97,10.93 -47.18,18.04 -84.01,55.46 -101.52,103.22 -15.7,42.83 -9.7,142.75 -9.7,194.14 0,136.48 0,272.94 0,409.41 0,54.32 -6.5,146.25 11.77,192.15 18.42,46.29 55.59,82.57 104.85,99.81 42.07,14.73 145.19,8.95 195.76,8.95 68.33,0 136.69,0.22 205.01,0z"/>
    <path class="fil0" d="M1743.55 1178.84c-3.42,-3.58 -4.68,-5.73 -8.96,-9.03 -4.7,-3.61 -6.2,-4.1 -10.39,-8.11l-123.71 -105.56c-7.12,-4.63 -16.39,-9.67 -27.23,-11.78 -48.79,-9.51 -78.9,37.23 -54.67,79.42 9.34,16.26 52.67,52.2 68.46,64.54l51.56 44.58c14.96,12.89 69.86,61.36 84.03,67.49 57.04,24.7 95.28,-17.92 136.84,-57.15l71.66 -63.47c1.24,-1.17 18.05,-15.51 20.85,-16.73 2.27,201.26 0.05,403.91 0.05,605.33 0,100.98 0.25,201.99 -0.02,302.96 -0.11,43.09 16.98,80.45 62.6,89.66 50.4,10.18 82.98,-22.29 93.35,-59.54 0.32,0.47 0.71,0.66 0.84,1.48 0.15,0.99 1.32,2.42 1.57,2.94 5.09,10.9 6.14,18.06 16.21,29.01 32.38,35.22 73.86,36.02 110.37,9.83 18.45,-13.23 29.03,-40.02 28.97,-73.38l-0.05 -511.99c46.72,-10.34 68.32,-59.3 76.1,-113.8 9.03,-63.28 3.5,-125.39 3.47,-188.94 -0.02,-57.06 1.56,-125.47 -13.88,-178.29 -16.84,-57.58 -51.08,-76.88 -120.92,-71.31 -5.52,9.74 -15.41,46.68 -20.02,59.62 -7.1,19.98 -15.01,38.2 -23.07,56.76 -3.82,8.82 -46.87,101.02 -59.27,99.63 -13.02,-7.08 -48.53,-78.55 -57.41,-99.45 -8,-18.82 -15.44,-37.05 -22.76,-57.04 -4.75,-13 -14.8,-51.25 -20.14,-59.75 -49.25,-3.76 -74.06,4.71 -103.26,31.9l-71.52 63.58c-6.45,5.41 -7.67,5.36 -14.36,12.29l-75.3 64.28z"/>
    <path class="fil0" d="M1273.25 1384.81l-40 0.29 0.14 -444.52 -345.91 -0.42 -0.44 445.04 -39.37 -0.12c2.71,-102.08 -0.05,-219.74 0.22,-325.02 0.12,-49.79 -16.44,-44.18 -61.96,-44.18 -74.26,0 -62.64,-6.6 -62.64,150.65 0,49.19 2.3,177.54 -0.35,216.99 -12.49,6.67 -27.85,7 -26.2,28.29 1.2,15.55 15.43,22.46 31.76,22.92 36.26,1 74.2,-0.03 110.65,-0.03l442.16 0c36.64,0 74.1,0.77 110.64,0.05 18.51,-0.36 31.12,-5.58 33.49,-21.39 3.13,-20.81 -13.37,-22.83 -24.56,-29.83 -3.72,-115.59 -0.16,-265.02 -0.16,-386.89 0,-66.25 2.46,-67.16 -64.13,-67.16 -64.47,-0.01 -63.47,0.94 -63.47,65.11 0.01,126.75 -2.55,266.44 0.15,390.22zm-344.86 -286.93l44.88 -0.09 -0.24 -48.97 -44.82 0.21 0.18 48.85zm386.33 168.78l44.51 1.07 -0.18 -13.16 0.03 -26.61 -0.07 -8.13 -44.26 0.08 -0.03 46.74zm-551.36 0.85l44.5 -0.01 -0.12 -47.07 -44.24 -0.7 -0.13 47.77zm551.35 -263.44l44.25 0.82 0 -48.4 -43.8 -0.03 -0.45 47.62zm-551.33 88.64l44.43 0.01 -0.14 -47.88 -43.54 -0.47 -0.75 48.34zm551.43 87.06l43.62 0.46 0.7 -48.39 -44.31 0.05 -0.01 47.88zm-551.29 0.33l43.83 0.03 0.43 -47.77 -44.25 -0.67 -0.02 48.41zm551.17 -87.93l44.3 0.73 -0.04 -48.49 -43.79 0.07 -0.47 47.69zm-551.3 263.36l44.45 -0.02 -0.07 -47.57 -44.57 -1.02 0.19 48.61zm551.33 -0.72l44.52 0.93 -0.12 -48.57 -44.58 -0.02 0.19 47.66zm-169.34 -171.01l44.77 -0.04 -0.11 -48.84 -44.82 0.08 0.16 48.8zm-108.51 0l44.81 -0.05 -0.15 -48.84 -44.8 0.08 0.14 48.8zm-108.5 0.02l44.82 -0.07 -0.15 -48.9 -44.77 0.16 0.09 48.8zm216.99 172.01l44.77 -0.12 -0.11 -48.88 -44.81 0.12 0.15 48.88zm0 -343.9l44.77 -0.12 -0.11 -48.88 -44.81 0.13 0.15 48.87zm-108.49 257.99l44.79 -0.17 -0.12 -48.86 -44.8 0.11 0.14 48.92zm-0.02 -257.97l44.8 -0.14 -0.12 -48.91 -44.82 0.16 0.15 48.89zm0 343.9l44.8 -0.13 -0.12 -48.92 -44.82 0.17 0.15 48.88zm-108.48 -0.01l44.87 -0.11 -0.2 -48.93 -44.74 0.16 0.07 48.87zm0 -343.9l44.87 -0.11 -0.2 -48.93 -44.74 0.16 0.07 48.87zm0.02 257.99l44.8 -0.16 -0.15 -48.91 -44.78 0.15 0.13 48.92zm216.97 -172l44.8 -0.12 -0.13 -48.92 -44.84 0.14 0.17 48.9zm-108.5 0.04l44.77 -0.16 -0.09 -48.97 -44.83 0.22 0.15 48.92zm108.52 171.95l44.81 -0.16 -0.17 -48.9 -44.85 0.14 0.21 48.92z"/>
    <path class="fil0" d="M2087.34 760.17c-57.16,11.28 -105.78,65.2 -93.49,136.01 9.89,56.93 66.94,107.59 136.81,94.31 57.05,-10.84 105.39,-65.25 94.12,-134.97 -9.36,-57.86 -66.57,-109.32 -137.44,-95.35z"/>
    <path class="fil0" d="M1047.26 811.48l-144.08 83.4c-7.75,4.56 -14.36,6.24 -15.52,13.96 -1.71,11.4 5.14,13.21 14.87,13.41 86.66,1.85 195.51,-0.12 284.61,-0.12 15.07,0 45.85,5.93 45.64,-11.42 -0.12,-10.62 -15.33,-15.26 -33.04,-24.85 -24.58,-13.31 -50.36,-26.5 -75.06,-39.62 -17.17,-9.11 -66.43,-39.84 -77.42,-34.76z"/>
    <path class="fil0" d="M2107.39 1194c7.24,-4.78 9.53,-12.19 14.73,-21.8 16.13,-29.85 18.97,-27.41 13.75,-49.44 -2.22,-9.39 -4.08,-20.02 -7.4,-27.35l-38.7 -0.52c-5.31,14.47 -13.43,39.6 -6.35,53.58 6.14,12.1 20.94,35.6 23.97,45.52z"/>
    <path class="fil0" d="M2088.9 1083.55c11.04,2.69 31.3,2.86 40.68,-0.12 3.38,-6.53 4.49,-17.49 6.36,-26.46 4.73,-22.73 10.22,-19.37 -44.01,-19.38 -15.99,0 -12.96,2.1 -9.78,17.78 1.9,9.36 2.74,20.01 6.74,28.18z"/>
   </g>
   <path class="fil1" d="M1387.27 0c383.07,0 729.89,155.28 980.93,406.32 251.04,251.04 406.33,597.87 406.33,980.94 0,383.06 -155.28,729.9 -406.32,980.94 -251.04,251.04 -597.87,406.33 -980.94,406.33 -383.07,0 -729.9,-155.29 -980.94,-406.33 -251.04,-251.04 -406.33,-597.88 -406.33,-980.94 0,-383.07 155.29,-729.9 406.33,-980.94 251.04,-251.04 597.88,-406.32 980.94,-406.32zm923.15 464.1c-236.24,-236.24 -562.63,-382.37 -923.15,-382.37 -360.52,0 -686.92,146.13 -923.16,382.37 -236.25,236.25 -382.38,562.64 -382.38,923.16 0,360.52 146.13,686.92 382.38,923.16 236.24,236.25 562.64,382.38 923.16,382.38 360.52,0 686.91,-146.13 923.16,-382.38 236.24,-236.24 382.37,-562.64 382.37,-923.16 0,-360.52 -146.13,-686.91 -382.38,-923.16z"/>
  </g>
 </g>
</svg>
