<?xml version="1.0" encoding="UTF-8"?>
<!DOCTYPE svg PUBLIC "-//W3C//DTD SVG 1.1//EN" "http://www.w3.org/Graphics/SVG/1.1/DTD/svg11.dtd">
<!-- Creator: CorelDRAW 2018 (64-Bit) -->
<svg xmlns="http://www.w3.org/2000/svg" xml:space="preserve" width="35.9289mm" height="35.9289mm" version="1.1" style="shape-rendering:geometricPrecision; text-rendering:geometricPrecision; image-rendering:optimizeQuality; fill-rule:evenodd; clip-rule:evenodd"
viewBox="0 0 1164.93 1164.93"
 xmlns:xlink="http://www.w3.org/1999/xlink">
 <defs>
  <style type="text/css">
   <![CDATA[
    .fil1 {fill:#5B5B5B}
    .fil0 {fill:#5B5B5B;fill-rule:nonzero}
   ]]>
  </style>
 </defs>
 <g id="Layer_x0020_1">
  <metadata id="CorelCorpID_0Corel-Layer"/>
  <g id="_1672344610752">
   <path class="fil0" d="M582.46 0c160.84,0 306.46,65.2 411.86,170.6 105.4,105.4 170.6,251.02 170.6,411.86 0,160.84 -65.2,306.46 -170.6,411.86 -105.4,105.4 -251.03,170.6 -411.86,170.6 -160.84,0 -306.45,-65.2 -411.86,-170.6 -105.4,-105.4 -170.6,-251.02 -170.6,-411.86 0,-160.83 65.2,-306.46 170.6,-411.86 105.4,-105.4 251.02,-170.6 411.86,-170.6zm387.6 194.86c-99.19,-99.19 -236.23,-160.55 -387.6,-160.55 -151.37,0 -288.41,61.35 -387.6,160.55 -99.19,99.19 -160.54,236.23 -160.54,387.6 0,151.37 61.35,288.41 160.55,387.6 99.19,99.19 236.23,160.54 387.6,160.54 151.37,0 288.41,-61.35 387.6,-160.54 99.19,-99.19 160.55,-236.23 160.55,-387.6 0,-151.37 -61.35,-288.41 -160.55,-387.6z"/>
   <path class="fil1" d="M228.6 305.93l0 592.78c19.38,20.83 33.81,-5.28 45.25,-16.74l116.2 -116.6c11.67,-9.02 48.06,-5.34 71.31,-5.34 58.69,0 357.86,4.54 380.69,-4.91 43.78,-18.1 35.13,-65.03 35.13,-119.72 0,-51.34 0.49,-102.92 -0.08,-154.23 -0.34,-31.22 -1.78,-22.56 25.27,-49.59 19.41,-19.4 18.04,-19.36 33.96,-45.43l0 -23.45c-14.25,-23.16 -15.47,-40.6 -59.47,-44.75 -4.7,-69.27 -65.76,-58.61 -129.26,-58.61l-377.46 0c-106.26,0 -106.2,-11.56 -141.55,46.59zm147.27 276.86l214.47 0 0 31.45 -214.47 0 0 -31.45zm0 -88.64l301.29 0c10.57,-2.8 14.05,-9.21 22.03,-17.26l114.84 -114.78c12.02,-11.99 56.65,-45.41 20.87,-68.73 -15.35,-10.01 -405.2,-4.88 -455.31,-4.88 -130.18,0 -121.73,-20.68 -121.73,107.84 0,152.79 1.78,306.64 -0.11,459.3 20.7,-13.21 95.14,-99.86 119.81,-118.52 16.36,-12.37 292.18,-5.97 351.18,-5.97 135.2,0 119.39,17.26 119.39,-120.93 0,-40.44 1.1,-82.44 -0.28,-122.69l-82.38 80.78c-16.11,16.09 -19.48,26.99 -49.13,32.79 -20.97,4.1 -50.76,12.96 -70.22,9.41 -8.88,-19.82 5.35,-60.13 9.56,-84.93l-178.19 0c-11.39,0.08 -22.39,0.1 -32.69,0l-68.93 0 0 -31.45zm0 -88.64l356.01 0 0 31.45 -356.01 0 0 -31.45zm464.55 -28.03l35.36 37.41c60.95,-42.36 17.09,-78.15 -9.67,-63.79 -3.92,2.1 -21.89,21.67 -25.69,26.38zm-164.94 201.79c28.02,-3.9 42.75,-4.81 58.18,-20.71l121.28 -121.32 -37.09 -38.66c-21.79,26.83 -56.37,57.26 -80.74,81.64 -46.27,46.27 -55.99,45.05 -61.63,99.05z"/>
  </g>
 </g>
</svg>
