<?xml version="1.0" encoding="UTF-8"?>
<!DOCTYPE svg PUBLIC "-//W3C//DTD SVG 1.1//EN" "http://www.w3.org/Graphics/SVG/1.1/DTD/svg11.dtd">
<!-- Creator: CorelDRAW X6 -->
<svg xmlns="http://www.w3.org/2000/svg" xml:space="preserve" width="21.6765mm" height="21.6765mm" version="1.1" style="shape-rendering:geometricPrecision; text-rendering:geometricPrecision; image-rendering:optimizeQuality; fill-rule:evenodd; clip-rule:evenodd"
viewBox="0 0 99 99"
 xmlns:xlink="http://www.w3.org/1999/xlink">
 <defs>
  <style type="text/css">
   <![CDATA[
    .str0 {stroke:#FEFEFE;stroke-width:2.28402}
    .fil0 {fill:#BC0300}
    .fil1 {fill:#FEFEFE;fill-rule:nonzero}
   ]]>
  </style>
 </defs>
 <g id="Layer_x0020_1">
  <metadata id="CorelCorpID_0Corel-Layer"/>
  <g id="_97908208">
   <circle class="fil0 str0" cx="50" cy="50" r="48"/>
   <path class="fil1" d="M39 39l0 0m15 5c0,0 0,0 0,0m-21 -7c-1,1 -1,1 -2,2 -1,1 -2,1 -3,3l-1 6c0,0 0,1 0,1 0,0 0,1 0,1l0 0 0 0c0,0 0,0 -1,1 0,0 0,0 0,0l0 0c0,0 0,0 0,0 0,0 0,0 0,0 0,1 0,1 1,2 0,0 0,0 0,1 0,1 1,2 1,3 1,2 2,3 2,4 0,1 1,1 1,2 0,1 1,1 1,2 0,0 1,1 1,1l0 0c0,0 0,1 1,1l0 0c0,0 1,1 1,1l0 0c0,0 0,0 1,1 0,0 1,0 1,-1 0,0 1,-1 1,-1 0,0 0,0 0,0l0 0c0,0 0,0 0,0l0 0 0 0 0 0 0 0 0 1c0,1 0,3 -1,5 0,1 0,2 0,3 0,0 0,0 0,0 0,1 0,1 1,2l0 0c0,0 0,0 0,0l0 0c0,0 0,0 0,0 0,0 0,0 1,0l0 0c0,0 1,1 1,1 1,1 2,1 3,1l0 0c1,0 3,0 4,0 2,0 3,0 4,-1 1,0 2,0 4,-1 0,-1 0,-1 0,-2 0,0 0,-1 0,-1 0,-1 0,-1 0,-2 0,-1 0,-1 0,-2 0,-1 0,-2 0,-3 0,-1 0,-2 1,-3l0 -1 0 1c0,1 1,6 2,9 0,1 0,2 0,2 0,1 0,1 0,2 0,0 0,1 0,1 0,1 0,1 0,2 0,0 0,0 0,1 0,1 0,1 0,2 0,0 0,1 0,1 0,0 0,1 0,1 0,0 0,0 0,1 0,0 0,0 0,1l0 0 0 0 0 0 0 0 0 0 0 0 0 0c0,0 0,0 0,0 0,0 0,1 0,1 0,0 0,0 1,0l0 0c0,0 0,0 0,0 1,0 1,0 2,0l0 0c0,0 0,0 1,0l0 0c1,0 1,0 1,0 0,0 0,0 1,0 1,0 2,-1 2,-2 0,-1 0,-2 0,-3 0,-1 0,-1 0,-1l0 0c0,0 0,0 0,-1 0,-3 -1,-7 -2,-10 -1,-4 -2,-7 -3,-10 0,0 0,0 0,-1l0 0c0,-1 -1,-2 -1,-2 0,-1 0,-1 0,-1 0,0 0,0 0,0l-7 -2 0 0 0 0c0,-3 0,-3 1,-3 0,0 1,0 1,-1 1,-1 1,-2 2,-3l0 0c0,0 0,-1 0,-1l0 0 0 0c0,0 1,0 1,0l0 0c0,0 0,0 0,0 2,0 3,-1 4,-2 1,-1 2,-2 2,-3 0,-1 0,-1 1,-1 1,-1 1,-1 1,-3 0,-1 0,-2 0,-3 0,-1 0,-2 -1,-3l0 0c0,0 0,-1 0,-1 0,-2 0,-5 -4,-8l0 0c-1,0 -1,-1 -1,-1l0 0c0,0 -1,0 -2,-1 0,0 0,0 -1,0l0 0c0,0 0,0 -1,0l0 0c0,0 -1,-1 -1,-1 0,0 0,0 -1,-1 -1,-1 -3,-2 -4,-2 -2,0 -3,0 -5,1 -1,0 -1,0 -1,0l0 0c0,0 -1,0 -2,0 -3,0 -5,2 -6,3 0,0 0,0 0,1 0,0 -1,0 -1,0l0 0c0,0 0,0 0,0 -4,1 -4,4 -4,5 0,1 0,1 0,1 0,0 0,1 -1,1l0 0c0,0 0,1 0,1 0,1 0,2 0,3 0,1 1,2 2,3l0 0c0,0 0,0 0,1 0,0 0,0 0,0l0 0c0,0 0,0 0,1 0,1 0,1 1,2 0,0 0,1 0,1l0 0 0 0zm1 14c0,0 1,1 1,1 0,0 1,0 2,0 0,0 0,0 1,0 0,0 1,0 1,0 0,0 0,0 0,-1 0,0 0,-1 0,-1l0 0 0 0c0,0 1,0 1,1 0,0 1,1 1,1 0,0 0,0 1,0 1,0 2,1 2,1l0 0 -1 0 -3 1 0 0c0,0 0,0 -1,0l0 0c0,0 0,0 0,0l0 0c0,1 -1,1 -1,2 -1,1 -1,2 -2,3l0 0 -1 1 0 0 0 0c0,0 0,0 0,0l0 0 0 0 0 0 0 0 0 0 0 0 0 0 0 0 0 0 0 0 -3 -8 0 0c0,-1 0,-1 0,-1 0,0 0,0 0,0l0 0 0 0c0,0 0,-1 1,-1 0,0 1,-1 1,-1 0,0 0,0 0,0 0,0 0,-1 0,-1l0 0 0 0 0 0 0 0c0,0 1,0 1,1 0,0 0,0 0,1l0 0c0,0 0,1 0,1 0,0 0,0 0,1 0,1 0,1 0,2zm1 1c0,0 -1,0 -1,-1l0 0 0 0c0,-1 0,-1 0,-2l0 0c0,0 0,0 0,-1 0,0 0,-1 0,-1l0 0c0,0 0,-1 0,-1 0,0 0,0 0,0 0,0 0,0 0,0 0,0 0,0 0,0 0,1 -1,1 -1,2 0,0 0,0 0,0l0 0c0,0 0,0 1,1l3 8 1 -1c1,-1 1,-2 2,-3 0,-1 1,-1 1,-2l0 0c0,0 0,-1 0,-1l0 0c0,0 0,0 1,0l0 0 3 0c0,0 -1,0 -1,0 0,0 -1,0 -1,0 0,0 -1,0 -1,-1 0,0 -1,0 -1,0 0,0 0,0 0,1 0,0 0,1 -1,1 0,0 -1,0 -1,0 0,0 0,0 -1,0 -1,0 -1,1 -2,0zm6 23c0,0 -1,0 -1,0 0,0 0,0 -1,0l0 0 0 0 0 0c-1,-1 -2,-1 -1,-2 0,-1 1,-3 1,-4 0,-1 1,-3 1,-4l0 0 1 -5 0 0c0,0 0,-1 0,-1 0,0 0,-1 0,-1 0,0 0,-1 0,-1 0,-1 0,-1 0,-2l0 0c0,-1 0,-1 0,-1 0,0 1,0 2,0l0 0 0 0 0 0c0,0 1,0 1,0 0,0 0,0 1,0 0,0 0,0 0,-1 0,-1 0,-1 0,-1 0,0 0,0 0,0 0,0 -1,0 -2,0 -1,0 -2,-1 -2,-1 -1,0 -2,-1 -2,-2l0 0 0 0c0,0 0,0 0,0 0,0 0,0 0,1l0 0c0,0 0,0 -1,1 0,0 -1,0 -1,0l0 0 0 0 1 -4c0,0 0,0 0,0 0,0 -1,0 -2,0 0,0 -1,0 -1,0 0,0 0,0 0,0 0,0 0,0 0,1 0,1 0,1 0,2l0 0 0 0 -1 2 0 0 0 0 -3 0 0 0 0 0 0 0 0 0 0 0c0,0 0,0 0,0 0,0 0,0 0,-1 0,-1 0,-2 0,-4 0,0 0,-1 0,-1 0,-2 0,-3 2,-4l0 0c0,0 1,0 1,0l0 0c0,0 1,0 1,0 2,-1 2,-2 3,-3 0,0 0,0 1,-1l0 0 0 0 0 0c0,0 0,0 0,0l0 0c0,0 0,0 1,0 0,0 0,0 0,1l0 0 0 0 -1 1 0 0c0,0 0,0 0,1 0,0 0,0 0,1 0,0 0,0 0,0l0 0c0,0 -1,1 -1,1 0,0 0,0 0,0 0,0 0,0 0,0l1 0 0 0 0 -1c0,0 0,0 0,0l0 0c0,0 0,0 0,0l0 0 0 0c0,0 0,1 0,1 0,0 0,1 0,1l0 0 0 0c0,0 0,0 0,0l0 0 0 0 0 0 0 0c0,0 0,-1 0,-1 0,0 0,0 0,0l-1 0 0 0c0,1 0,1 0,1l0 0c0,0 0,0 0,1l0 0 0 0 0 0 0 0c0,0 1,0 1,0l0 0 0 0 2 1 0 0c0,0 0,0 1,0 0,0 0,0 1,0l3 1 0 0c0,0 1,0 2,0 1,0 1,0 2,0l1 0 0 0c0,0 0,0 0,0l0 0 0 0 0 0 0 0 0 0c-1,0 -2,0 -3,0l0 0c0,0 -1,0 -1,0 0,0 0,1 0,1 0,0 0,1 -1,1l0 0c0,0 1,1 1,1 1,0 2,1 3,1 0,0 1,0 1,0 1,0 1,0 2,-1 0,0 1,-1 1,-1l1 -1 0 0 0 0c0,0 1,0 2,0 1,0 3,0 4,0l0 0c0,0 0,0 0,0l0 0 0 0 0 0 0 0 0 0c0,0 0,0 0,0 0,0 0,0 0,0 0,0 -1,0 -2,0 -1,0 -2,-1 -3,-1 0,0 0,0 -1,0l0 0c0,0 0,0 -1,0l0 0 -6 -3 0 0c0,0 0,0 0,0 -1,0 -1,0 -2,0 0,0 0,0 -1,0l-1 0 0 0c0,0 -1,0 -1,0 0,0 -1,0 -1,0l0 0 0 0c0,-1 0,-2 0,-3 0,-1 0,-1 0,-2l0 0c0,-1 0,-2 1,-3 0,-1 1,-2 1,-3l0 0 0 0 0 0c1,-1 2,-3 3,-4l0 0 0 0c1,1 2,2 2,3 1,1 1,1 2,2l0 0 0 0c0,0 0,0 0,1l0 0c0,0 0,0 0,0l1 0 0 0c0,0 0,0 0,0l0 0c0,0 0,0 0,0l0 0c0,0 0,0 1,0l0 0 2 1c0,0 1,0 1,1l0 0c0,0 1,0 1,0 1,0 2,0 2,-1l0 0 0 0 0 0 0 1 1 0 0 0 0 0 0 0 0 0 0 0 0 0 0 0 0 0c0,0 1,0 1,1l0 0c0,0 0,0 0,0l0 0c0,0 0,0 0,0 0,0 0,1 0,1l0 0c0,0 0,1 0,1 -1,1 -1,1 -2,0 -1,0 -1,-1 -1,-1l0 0c0,0 0,0 0,0 0,0 0,0 0,0 0,0 0,0 0,0 0,0 0,0 0,0 0,0 0,1 0,1 0,0 0,1 0,1l0 0 0 0 0 0c0,0 0,1 0,1l0 0 0 0c0,0 0,0 0,1 0,0 0,0 0,1 0,0 0,0 0,0l0 0 0 0c0,1 0,2 -1,2 0,1 -1,2 -2,2 0,0 -1,0 -1,0l0 0c0,0 0,0 -1,1l0 3c0,0 1,0 1,0 0,0 0,0 0,0l0 0 0 0c0,1 0,2 -1,2 0,0 0,0 0,0l1 -1 0 0 0 0c0,0 0,-1 1,-2l0 0c0,0 0,0 0,0l0 0 0 0c0,0 0,0 1,0l0 0c0,0 0,0 0,0l0 0 0 0c1,0 2,0 2,1l0 0 0 0c0,0 0,1 0,1l0 0 0 0 0 0c0,1 -1,2 -1,2 0,0 0,1 0,1l0 0c0,1 -1,2 -1,3 0,2 -1,3 -1,5 0,1 0,2 0,3 0,1 0,2 0,3 0,1 0,1 0,2 0,1 0,1 0,2l0 0 0 0c0,0 -1,0 -1,0 0,0 -1,0 -1,0 0,0 0,0 0,0l0 0c-1,0 -1,0 -1,0 0,0 0,-1 0,-1l0 0c0,0 0,-1 0,-2l0 0 -1 -4 0 0 0 0 0 0 0 0c0,-1 0,-2 -1,-3 0,-1 0,-2 0,-3l0 0 0 0c1,0 1,-1 2,-1 0,0 0,0 0,0 1,0 1,-1 1,-2l0 0 0 0 1 -1c0,0 0,1 -1,1 0,0 0,1 -1,1l0 0c0,0 0,0 0,0l0 0 0 0 -3 3 0 0 0 0 -1 0c0,0 0,0 0,0 0,0 0,1 -1,2 0,0 0,1 0,1 0,1 -1,2 -1,3 0,0 0,1 0,1 0,1 -1,2 -2,3 0,1 -1,2 -1,2l0 0 0 0zm-1 -1c0,0 0,0 1,0 0,0 1,-1 1,-2 1,-1 1,-3 2,-3 0,0 0,-1 0,-1 0,-1 1,-2 1,-3 0,0 0,-1 0,-1 0,-1 1,-2 1,-2 0,0 0,0 0,0 0,0 0,0 0,0l0 0 0 0c0,0 0,0 0,0l0 0c0,0 0,0 0,0l0 0c0,0 0,0 0,0l0 0c-1,-1 -1,-2 -1,-3 0,-1 0,-2 -1,-3 0,-1 0,-1 0,-1 0,0 0,0 0,-1 0,0 0,-1 0,-1l0 0c0,0 0,0 0,-1l0 0 0 0c-1,0 -1,0 -1,0 0,0 0,0 0,1l0 0c0,1 0,1 0,2 0,0 0,1 0,1 0,0 0,1 0,1 0,0 0,1 0,1l0 0 -1 5 0 0c0,1 -1,3 -1,4 0,2 -1,3 -1,4 0,1 0,1 1,2l0 0 0 0 0 0c0,0 0,0 1,0zm13 2c0,0 1,0 1,0 0,0 0,-1 0,-1 0,-1 0,-1 0,-2 0,-1 0,-2 0,-3 0,-1 0,-2 0,-3 0,-1 0,-3 1,-5 0,-1 1,-3 1,-3l0 0c0,0 0,-1 0,-1 0,-1 1,-2 1,-3l0 0 0 0 0 0c0,0 0,0 0,-1 0,0 -1,0 -2,-1l0 0 0 0c0,0 0,0 0,0l0 0c0,0 0,0 -1,0l0 0 0 0c0,0 0,0 0,0 0,0 0,1 0,1l0 0 0 0 0 0 0 0 -2 4 0 0 0 0 0 0c0,1 -1,1 -2,2 0,0 0,0 0,0 -1,0 -1,1 -2,1 0,1 0,2 0,3 0,1 0,2 1,3l0 0c0,0 0,0 0,0l0 0 1 4c0,1 0,1 0,2 0,1 0,1 0,1 0,0 0,0 1,0 0,0 0,0 0,0 0,0 1,0 1,0zm2 -32c0,0 0,0 0,0l0 0 0 0 0 0zm-19 -9l0 0 0 0 0 0 0 0c0,0 0,0 -1,1 -1,1 -1,2 -3,3l0 0c0,0 -1,0 -1,0l0 0c0,0 -1,0 -1,0l0 0c-1,1 -2,2 -2,4 0,1 0,1 0,2 0,1 0,3 0,4 0,0 0,1 0,1 0,0 0,0 0,0l3 0 1 -2c0,-1 0,-1 0,-2 0,0 0,-1 0,-1l0 0 0 0c0,0 1,0 1,0 0,0 1,0 1,0 1,0 1,0 1,0 0,0 0,0 1,0l0 0 0 0 -1 4c0,0 1,0 1,0 0,0 0,0 0,0l0 0c0,0 0,0 0,-1 0,0 0,-1 0,-1l0 0 0 0c0,0 0,0 0,0l0 0c0,0 0,0 0,0l0 0c1,1 1,1 2,2 1,0 1,1 2,1 1,0 1,0 2,0l0 0c0,0 1,0 1,0 0,0 0,0 0,1 0,0 0,1 0,1l0 0 0 0c0,0 -1,0 -1,0 0,0 0,0 -1,0 0,0 0,1 0,1 0,1 0,1 0,2 0,1 0,1 0,2 0,0 0,1 0,1 0,1 0,1 1,2 0,1 1,1 1,2l1 1 1 0 3 -3c0,0 0,0 0,0l0 0c0,0 0,-1 1,-1 1,-1 1,-2 2,-3 0,-1 0,-1 1,-2l0 0c-1,0 -2,0 -2,-1l0 0 0 0 0 -4 0 0 0 0c0,-1 0,-1 1,-1l0 0c0,0 0,0 1,0 1,0 1,-1 2,-2 0,-1 0,-1 1,-2l0 0 0 0 0 0c0,0 0,0 0,0l0 0c0,0 0,0 0,0 -1,0 -3,0 -4,0l0 0c-1,0 -1,0 -2,0l-1 1 0 0c0,1 -1,1 -1,2 -1,0 -1,1 -2,1 0,0 -1,0 -1,0 -1,0 -2,0 -3,-1 -1,0 -1,-1 -2,-2 0,0 0,0 0,0l0 0 0 0c0,0 0,0 0,0 0,0 0,0 0,0 0,0 0,0 0,0 0,0 0,-1 0,-1l0 0 0 0c0,0 1,0 1,0 1,0 2,0 3,0 0,0 0,0 -1,0 -1,0 -1,0 -2,0l0 0 -3 -1 0 0 0 0c0,0 0,0 -1,0 0,0 -1,0 -1,0l0 0 -2 -1c0,0 0,0 -1,0 0,0 -1,0 -1,0l0 0 0 0c0,0 0,0 0,0l0 0 0 0 0 0 0 0 0 0 0 0 0 0c0,0 0,0 0,0l0 0 0 0c0,0 0,0 0,0l0 0c0,0 0,0 0,-1 0,0 0,0 -1,0l0 0 0 0c0,-1 1,-1 1,-2l0 0c0,0 0,0 0,0 0,0 0,0 0,-1 0,0 0,0 0,-1l0 -1c0,0 0,0 0,0 0,0 0,0 0,0l0 0zm13 4c1,0 1,-1 1,-2 0,0 0,-1 0,-1 0,0 0,-1 -1,-1 -1,0 -1,-1 -2,0 0,0 0,0 0,0l0 0c0,0 1,1 0,1l0 0c0,0 0,0 -1,0 0,0 0,0 -1,0 0,0 0,0 0,-1 0,1 0,1 0,2l0 0c0,0 0,1 1,1 0,0 1,1 1,1 1,0 1,0 2,0zm1 -2c0,1 0,2 -1,2 -1,1 -2,1 -3,1 0,0 -1,0 -1,-1l0 0c0,0 -1,-1 -1,-1l0 0c0,-1 0,-2 1,-3l0 0 0 0c0,0 0,0 0,0 0,0 0,0 0,1 0,0 0,0 0,0 0,0 0,0 0,0l0 0c0,0 0,-1 0,-1l0 0c0,0 0,0 0,0l0 0c0,0 0,0 0,0 0,0 0,0 0,0l0 0 0 0 0 0 0 0 0 0 0 0 0 0c0,-1 0,-1 0,-1l0 0 0 0c1,0 2,0 3,0 0,0 1,1 1,1 0,0 0,1 0,1zm-10 -1l0 0c1,0 1,-1 1,-1l0 0 0 0c0,0 0,0 0,-1l0 0c0,0 0,0 0,0l0 0 0 0c0,0 -1,-1 -1,-1 0,0 -1,0 -1,0 0,0 0,0 -1,0 0,0 0,1 0,1 0,0 0,0 0,1 0,0 0,1 1,1 0,0 1,0 1,0 0,0 1,0 1,0zm0 0l0 0 0 0 0 0c0,0 -1,0 -1,0 0,0 -1,0 -1,0 0,0 -1,-1 -1,-1 0,0 0,0 0,-1l0 0c0,0 0,0 0,0 0,0 0,1 0,2l0 0c0,1 0,2 0,2 0,0 0,0 1,0 0,0 1,0 1,0l1 0c0,0 0,0 0,0 0,0 0,-1 0,-1 0,0 0,0 0,0l0 0c0,0 0,0 1,0l0 0c0,0 1,0 1,0 1,0 1,0 1,0 0,0 0,0 0,0l0 0c0,0 0,0 0,0l0 -2 0 0 0 3 0 0 0 0c0,0 0,0 -1,0l0 0c0,0 0,0 0,0 0,0 -1,0 -1,0 0,0 0,0 -1,0 0,0 0,0 0,0l0 0c0,0 0,0 0,0 0,0 0,0 0,1 0,0 0,0 0,0 0,0 0,0 1,0 1,0 1,0 2,0l0 0 0 0c0,0 0,0 0,0l0 0c0,0 0,0 0,0l0 0 6 3c0,0 0,0 1,0l0 0c0,0 0,0 1,0 0,0 1,0 2,1 1,0 1,0 2,0 0,0 0,0 1,0 0,0 0,0 0,0 0,-1 0,-1 0,-1l0 0c0,0 0,0 0,0l0 0c0,0 0,-1 0,-1l0 0c0,0 0,-1 0,-1 0,-1 0,-1 0,-2l0 0 0 0c0,0 0,0 0,0 0,0 0,0 0,0l0 0 0 0c0,0 0,0 1,1 0,0 0,0 0,0l0 0c0,0 1,1 1,1 0,0 1,0 1,0 0,0 0,0 0,-1 0,0 0,-1 0,-1 0,0 0,0 0,0l0 0c0,0 0,0 0,0l0 0 0 0c0,0 -1,0 -1,0l0 0 0 0 0 0 -1 0 0 0 0 0 0 -1c-1,1 -1,1 -3,0 0,0 -1,0 -1,0l0 0c0,0 -1,0 -1,-1l0 0 -2 -1 0 0 0 0c0,0 0,0 0,0l0 0c0,0 0,0 0,0 0,0 0,0 0,0l0 0 -1 0 0 0 0 0c0,0 0,0 0,-1l0 0c0,0 0,0 0,0 0,0 -1,-1 -2,-2 -1,-1 -2,-2 -2,-3 -1,0 -2,2 -3,3l0 0 0 0 0 0c0,0 0,1 0,1 0,0 0,0 1,0l0 0 0 0c0,0 1,0 1,-1 0,0 1,0 1,0l0 0 0 0c0,0 0,1 0,1 0,0 0,1 0,1l0 0 0 0c-1,0 -2,1 -2,1l0 0c0,0 0,0 1,0 1,0 1,0 2,1l0 0c0,0 0,0 0,1l0 0c0,0 0,0 0,1l0 0 0 0c0,1 -1,1 -1,2zm-3 -4l0 0c0,1 0,1 0,2 0,0 0,-1 0,-1 0,0 0,0 0,0l0 0 0 0c0,0 0,0 0,-1zm2 2c0,0 0,1 0,1 0,0 0,0 0,0l0 0c0,0 0,0 0,0 0,0 0,0 -1,0l0 0 0 0c0,0 0,0 0,0 0,0 0,0 0,0l0 0c0,0 0,0 0,0 0,0 0,0 0,0l0 0 0 0zm0 1c0,0 0,0 0,0 0,0 0,0 0,0l0 0c0,0 0,0 0,0zm-1 -2c0,0 0,0 1,0 1,0 1,-1 2,-1 0,0 0,0 0,-1 0,0 0,0 0,-1 0,0 -1,0 -1,0 0,0 -1,0 -1,1l0 0 0 0c-1,1 -1,1 -1,2zm14 7c0,0 0,0 0,0l0 0c0,0 0,0 0,0 0,0 0,0 0,0 0,0 0,0 0,0 0,0 0,0 0,0l0 0c0,0 0,0 1,0zm0 -1c0,0 0,0 0,1l0 0 0 0c-1,0 -1,0 -1,0l0 0c0,0 0,0 0,-1 0,0 0,0 0,-1 0,0 1,0 1,0 0,0 0,0 0,0l0 0zm-6 -4c0,0 0,0 0,0l0 0c0,0 0,0 0,0 0,0 0,0 0,0l0 0zm-15 3c1,0 2,-1 2,-1 0,0 0,0 0,-1 0,0 0,-1 -1,-2 0,0 0,0 0,-1l0 0c0,0 0,0 0,0l0 0c0,0 0,0 0,0l0 0c-1,-1 -1,-2 -2,-3 0,-1 0,-2 0,-3 0,-1 0,-1 0,-1l0 0c0,0 0,-1 1,-1 0,0 0,-1 0,-1 0,-2 1,-5 5,-6 0,0 0,0 0,0 0,0 1,0 1,0 0,0 0,0 0,-1 1,-1 2,-3 6,-3 1,0 2,0 2,0l0 0c0,0 0,0 1,0 2,-1 3,-2 5,-1 2,0 3,1 5,2 0,0 0,0 1,1 0,0 1,1 1,1l0 0c0,0 0,0 1,0l0 0c0,0 0,0 1,0 1,0 1,1 2,1l0 0c0,0 1,1 2,1l0 0c4,3 4,6 4,8 0,1 0,1 0,1l0 0c0,1 1,2 1,3 0,1 0,2 0,3 0,2 -1,3 -1,3 0,0 -1,1 -1,1 -1,2 -1,3 -3,4 -1,1 -3,2 -4,2 0,0 0,0 -1,0l0 0c0,0 -1,0 -1,0 0,0 0,1 0,1l0 0c0,1 0,2 -2,3 -1,1 -1,1 -1,1 -1,0 -1,0 -1,3l7 2 0 0 0 0c0,0 0,1 0,1 0,0 0,0 0,0 0,1 1,2 1,3l0 0c0,0 0,1 0,1 1,3 2,6 3,10 1,4 2,7 2,10 0,1 0,1 0,1l0 0c0,0 0,0 0,0 0,1 0,2 0,3 0,1 -1,2 -2,2 -1,0 -1,0 -1,0 0,0 0,0 -2,1l0 0c0,0 0,0 -1,0l0 0c0,0 -1,1 -2,0 0,0 0,0 0,0l0 0c0,0 -1,0 -1,-1 0,0 0,-1 0,-1 0,0 0,0 0,0l0 0 0 0 0 0 0 0c0,0 0,0 0,-1 0,0 0,-1 0,-1 0,0 0,0 0,-1 0,0 0,-1 0,-1 0,-1 0,-1 0,-2 0,0 0,-1 0,-1 0,0 0,0 0,-2 0,0 0,-1 0,-1 0,-1 0,-1 0,-2 0,0 0,-1 0,-2 0,-3 -1,-6 -1,-8 0,1 0,2 0,2 0,1 0,2 0,3 0,1 0,1 0,2 0,1 0,1 0,2 0,0 0,1 0,1 0,1 0,2 0,2l0 0 0 0c-1,0 -2,0 -4,1 -1,0 -3,1 -4,1 -1,0 -3,0 -4,0 -1,0 -2,-1 -3,-1 -1,-1 -1,-1 -1,-1l0 0c0,0 0,0 0,0 0,0 0,0 0,0 0,0 0,0 0,0l0 0c-2,-1 -2,-2 -1,-3 0,0 0,0 0,0l0 0c0,-1 0,-1 0,-3 0,-2 1,-3 1,-4 0,0 0,0 0,0l0 0c0,0 0,0 0,0 0,0 -1,1 -1,1 0,0 -1,1 -1,1l0 0 0 0c0,0 -1,0 -1,-1 0,0 -1,-1 -1,-1l0 0c0,0 -1,-1 -1,-1l0 0c0,0 -1,-1 -1,-1 0,-1 -1,-1 -1,-2 0,-1 -1,-1 -1,-2 0,-1 -1,-2 -2,-4 -1,-1 -1,-2 -1,-3 0,0 0,0 0,-1 0,-1 -1,-1 -1,-2l0 0 0 0c0,0 0,0 0,0 0,0 0,0 1,0l0 0c0,0 0,0 0,0 0,0 0,0 1,0 0,0 0,-1 0,-1 0,0 0,-1 0,-1l0 0 0 0 1 -6 0 0 0 0c1,-2 2,-2 3,-3z"/>
  </g>
 </g>
</svg>
