<?xml version="1.0" encoding="UTF-8"?>
<!DOCTYPE svg PUBLIC "-//W3C//DTD SVG 1.1//EN" "http://www.w3.org/Graphics/SVG/1.1/DTD/svg11.dtd">
<!-- Creator: CorelDRAW X6 -->
<svg xmlns="http://www.w3.org/2000/svg" xml:space="preserve" width="21.6765mm" height="21.6766mm" version="1.1" style="shape-rendering:geometricPrecision; text-rendering:geometricPrecision; image-rendering:optimizeQuality; fill-rule:evenodd; clip-rule:evenodd"
viewBox="0 0 99 99"
 xmlns:xlink="http://www.w3.org/1999/xlink">
 <defs>
  <style type="text/css">
   <![CDATA[
    .str0 {stroke:#FEFEFE;stroke-width:2.28402}
    .fil0 {fill:#BC0300}
    .fil1 {fill:#FEFEFE;fill-rule:nonzero}
   ]]>
  </style>
 </defs>
 <g id="Layer_x0020_1">
  <metadata id="CorelCorpID_0Corel-Layer"/>
  <g id="_442736288">
   <path class="fil0 str0" d="M50 1c27,0 48,22 48,48 0,27 -22,48 -48,48 -27,0 -48,-22 -48,-48 0,-27 22,-48 48,-48z"/>
   <path class="fil1" d="M21 35l0 0 0 0 0 0c0,-1 0,-1 1,-1l0 0 0 0c1,0 3,0 5,0 1,0 1,0 1,0 1,0 1,0 2,0 1,0 3,0 4,0 0,0 1,0 1,0 0,0 0,0 0,0l0 0 0 -1 0 0 0 0 0 0c0,0 0,0 0,0l0 0 0 0 0 0 0 0 0 0 0 0c0,0 0,0 0,0l0 0c0,0 0,-1 1,-1 0,0 1,-1 1,-1 0,0 1,0 2,0 0,0 0,0 1,0 2,0 5,0 7,0 3,0 6,0 9,0l0 0 1 0 0 0 0 0 0 0 0 0c0,0 0,0 0,0l0 0c0,0 0,0 0,0 0,0 0,0 0,0l0 0c0,0 0,0 0,0 0,0 0,0 0,0l0 0c0,0 0,1 1,1l0 0 0 0c0,0 0,0 0,1l0 0 0 0 0 0c0,0 0,0 0,0l0 0 0 0 0 0 0 0 0 0c0,0 0,0 0,0 0,0 0,0 0,0 0,0 1,0 1,1l1 0 0 0c2,0 4,0 5,0l1 0c0,0 0,0 1,0 1,0 5,0 5,0 0,0 0,0 0,1 0,0 0,0 0,0l0 0c0,0 0,0 0,0l0 0 0 0 0 0 0 32 0 0c0,0 0,0 0,0 0,1 0,1 0,2 0,1 0,1 -1,1l0 0c0,0 0,0 0,0l0 0c-2,0 -14,0 -22,0 -3,0 -5,0 -6,0 -3,0 -7,0 -10,0 -1,0 -2,0 -4,0l-10 0 0 0c0,0 0,0 -1,0 -1,0 -2,0 -3,0 0,0 -1,0 -1,0l0 0c0,0 0,0 0,-1 0,0 0,0 0,0 0,0 0,-1 0,-2 0,0 0,0 0,0l0 0 0 -27 0 0c0,0 0,0 0,0l0 0c0,-1 0,-3 0,-4zm1 0l0 0 0 0 0 0c0,0 0,2 0,3 0,0 0,0 0,1l0 27 0 0c0,0 0,0 0,0 0,0 0,1 0,1l0 0 0 0c0,0 0,0 0,0 0,0 0,0 0,0l0 0c0,0 0,0 0,0l0 0 0 0 0 0 0 0c0,0 1,0 2,0l0 0c0,0 1,0 1,0l10 0c1,0 2,0 4,0 3,0 7,0 10,0 1,0 3,0 6,0 8,0 21,0 21,0l0 0 0 0 0 0 0 0 0 0c0,0 0,0 0,-1 0,0 0,0 0,-1l0 -32 0 0 0 0 0 0 0 0c0,0 0,0 0,0l0 0c0,0 0,0 0,0l0 0c0,0 0,0 0,0l0 0 0 0c0,0 -3,0 -5,0 0,0 0,0 -1,0l-1 0c-2,0 -4,0 -5,0l0 0 -1 0 0 0 0 0c-1,0 -1,0 -1,-1 0,0 0,0 0,0l0 0 0 0c0,0 0,0 0,0l0 0 0 0 0 0 0 0c0,0 0,0 0,-1l0 0 0 0 0 0 0 0c0,0 0,-1 -1,-1l0 0c0,0 0,0 0,0l0 0 0 0 0 0 0 0 0 0 -1 0c-3,0 -6,0 -9,0 -2,0 -5,0 -7,0 0,0 0,0 -1,0 -1,0 -1,0 -1,0l0 0 0 0c0,0 0,0 -1,1 0,0 -1,1 -1,1l0 0 0 0 0 0 0 0 0 0 0 0 0 0 0 0c0,0 0,0 0,0l0 0 0 0 0 1 0 0 0 0 -1 1 0 0 0 0c0,0 0,0 0,0 0,0 -1,0 -1,0l0 0c-1,0 -3,0 -4,0 -1,0 -1,0 -2,0 0,0 -1,0 -1,0 -2,0 -4,0 -5,0l0 0c0,0 0,0 0,0zm-1 0c0,0 0,0 0,0m18 -7c0,0 0,0 -1,1 0,0 0,0 0,1 0,0 0,0 0,1 0,0 0,0 0,0 0,0 0,0 0,0l0 0 0 0 0 0c0,0 0,0 0,0 0,0 0,0 0,0l0 0c0,0 0,0 0,1l0 0 0 0 0 0 0 0c0,0 0,0 0,0 0,0 0,0 0,0 0,0 0,0 0,0l0 0c0,0 0,0 0,0l0 0 0 0 0 0 -11 0 0 0c-1,0 -2,0 -2,0 0,0 0,0 -1,0l-1 1 0 0 0 0 0 0 0 0c0,0 0,0 0,0l0 0c0,0 0,0 0,0 0,0 0,0 0,0 0,0 0,0 0,1l0 0 0 0 0 2 0 2 0 2 0 2 0 2 0 2 0 0 0 2 0 2 0 2 0 0 0 2 0 2 0 2 0 2 0 2 0 0 0 2 0 2 0 2 0 0 0 2 0 2c0,0 0,0 0,1 0,0 0,0 0,1 0,0 0,0 0,0 0,0 0,0 0,0l0 0 0 0c0,0 0,0 1,0 0,0 0,0 1,0l2 0 0 0 2 0 0 0 2 0 2 0 2 0 2 0 2 0 2 0 0 0 2 0 2 0 0 0 2 0 2 0 2 0 2 0 2 0 2 0 0 0 2 0 2 0 0 0 2 0 2 0 2 0 2 0 2 0 2 0 0 0 2 0 2 0 0 0 2 0 2 0 2 0 0 0c0,0 1,0 1,0 1,0 2,0 3,0l0 0c0,0 1,-1 1,-1 0,0 0,-1 1,-1l0 -2 0 -2 0 -2 0 -2 0 -2 0 -2 0 -2 0 -2 0 -2 0 -2 0 -2 0 -2 0 -2 0 -2 0 -2 0 -2 0 -2 0 -2 0 -2c0,-1 0,-1 0,-1l0 0c0,0 0,0 0,0 0,0 0,0 0,0 0,0 0,0 0,0 0,0 0,0 -1,0l0 0 -1 0 -11 0c0,0 0,0 0,0 -1,0 -1,0 -1,0 0,0 0,0 0,0l0 0c0,0 0,0 0,0l0 0 0 0c0,0 0,0 0,0 0,0 0,0 0,0l0 0 0 0c0,0 0,0 0,0l0 0c0,0 0,0 0,0 0,0 0,0 -1,-1l0 0c0,0 -1,-1 -1,-1 0,0 0,0 0,0l0 0c0,0 0,0 0,0 0,0 0,0 0,0l0 0c0,0 0,0 0,0l-20 0c0,0 -1,0 -1,0l0 0 0 0zm-1 0c0,0 0,0 1,-1l0 0 0 0 0 0 0 0c0,0 1,0 1,0l0 0 0 0 20 0 0 0 0 0c0,0 0,0 0,0l0 0c0,0 0,0 1,0 0,0 0,0 1,0l0 0c0,0 0,0 0,0l0 0 0 0 0 0 0 0 0 0c0,0 0,1 1,1l0 0c0,0 0,0 0,1l0 0 0 0c0,0 0,0 0,0l0 0c0,0 0,0 0,0 0,0 0,0 0,0 0,0 0,0 0,0l0 0 0 0 0 0 0 0c0,0 0,0 0,0l0 0 0 0 0 0 0 0c0,0 0,0 0,0 0,0 0,0 0,0l0 0 11 0 0 0 0 0 1 0 0 0 0 0 0 0c0,0 1,0 1,0 0,0 0,0 1,1 0,0 0,0 0,0l0 0 0 0c0,0 0,0 0,1l0 0c0,0 0,1 0,1l0 0 0 0 0 2 0 0 0 2 0 2 0 2 0 2 0 2 0 2 0 2 0 2 0 2 0 2 0 2 0 2 0 2 0 2 0 2 0 2 0 2 0 0 0 2 0 0 0 0c0,1 0,1 -1,2 0,1 -1,1 -1,1l0 0c-1,1 -2,1 -4,0 0,0 0,0 -1,0l-2 0 -2 0 -2 0 0 0 -2 0 -2 0 0 0 -2 0 -2 0 -2 0 -2 0 -2 0 -2 0 0 0 -2 0 -2 0 0 0 -2 0 -2 0 -2 0 -2 0 -2 0 -2 0 0 0 -2 0 -2 0 0 0 -2 0 -2 0 -2 0 -2 0 -2 0 -2 0 0 0 -2 0 0 0 -2 0 0 0c0,0 -1,0 -1,0 0,0 -1,0 -1,0l0 0 0 0 0 0c0,0 0,0 0,0 0,0 0,0 0,-1 0,0 0,0 0,-1 0,0 0,0 0,-1l0 0 0 0 0 -2 0 0 0 -2 0 -2 0 0 0 -2 0 -2 0 -2 0 0 0 -2 0 -2 0 -2 0 -2 0 -2 0 0 0 -2 0 -2 0 -2 0 0 0 -2 0 -2 0 -2 0 -2 0 0 0 -2 0 0 0 0 0 0 0 0c0,0 0,-1 0,-1 0,0 0,0 0,0 0,0 0,0 0,0l0 0c0,0 0,0 0,0l0 0 0 0 0 0 1 -1 0 0 0 0c0,0 0,0 1,0 0,0 1,-1 3,0l11 0 0 0 0 0c0,0 0,0 0,0 0,0 0,0 0,0 0,0 0,0 0,0l0 0 0 0 0 0 0 0 0 0c0,0 0,0 0,-1l0 0c0,0 0,0 0,0 0,0 0,0 0,0l0 0 0 0 0 0c0,0 0,0 0,0l0 0c0,0 0,0 0,0l0 0 0 0 0 0 0 0c0,0 0,0 0,0 0,0 0,0 0,-1l0 0 0 0 0 0zm-1 2l0 0 0 0 0 0 0 0 0 0 0 0zm0 0l0 0c0,0 0,0 0,0z"/>
   <path class="fil1" d="M40 51l0 -1 0 0 0 0c0,-1 0,-2 1,-2 0,-1 0,-1 1,-2 0,0 0,-1 1,-1l0 0c0,0 1,-1 1,-1 0,0 0,-1 1,-1 0,0 1,-1 1,-1 0,0 1,-1 2,-1l0 0c0,0 1,0 1,0 1,0 2,0 2,0l0 0 0 0 0 0 0 0 2 0 0 0 0 0 0 0c0,0 1,0 1,0l0 0 0 0 0 0 0 0 0 0c0,0 1,0 1,0 0,0 0,0 1,0l0 0c0,0 0,0 0,0 0,0 0,0 0,0l0 0 0 0c0,0 0,0 0,0l0 0 0 0c0,0 0,0 1,0 0,0 0,0 0,1 0,0 0,0 0,0l0 0 0 0 0 0 0 0 0 0c0,0 0,0 0,0l0 0 0 0c0,0 0,1 1,1 0,0 0,1 0,1 0,0 0,1 0,2l0 0 0 0 0 0 0 2 0 0 0 0 0 0 0 0c0,1 0,1 0,2 0,0 0,1 0,1 0,0 0,1 -1,1l0 0c0,0 0,0 0,0 0,0 0,0 -1,1l0 0c0,0 0,0 0,0l0 0c0,0 0,0 -1,1 0,0 0,0 0,0 0,0 0,0 0,0l0 0 0 0c0,0 -1,0 -1,1 0,0 -1,0 -1,0 0,0 -1,0 -1,1l0 0 0 0 0 0 0 0c0,0 -1,0 -2,0 -1,0 -2,0 -2,0 0,0 -1,0 -1,0l0 0c0,0 -1,0 -1,0 0,0 0,0 -1,0l0 0 0 0 0 0 0 0c0,0 0,0 0,0l0 0c0,0 0,0 0,0l0 0c0,0 0,0 0,0l0 0c0,0 0,0 0,0 0,0 -1,0 -1,-1 0,0 -1,0 -1,-1 0,0 0,-1 -1,-1 0,0 -1,-1 -1,-2 0,-1 -1,-2 -1,-3l0 0zm1 -1l0 1c0,1 0,1 1,2 0,1 0,1 1,1l0 0 0 0c0,0 0,1 0,1 0,0 0,0 1,1l0 0 0 0 0 0 0 0c0,0 0,0 0,0l0 0 0 0 0 0 0 0 0 0 0 0 0 0c0,0 0,0 0,0l0 0 0 0 0 0 0 0c0,0 0,0 1,0l0 0 0 0c0,0 0,0 1,0l0 0c0,0 1,0 1,0l0 0 0 0c0,0 1,0 2,0 1,0 1,0 1,0l0 0 0 0 0 0 0 0c0,0 1,0 1,0l0 0 0 0c0,0 0,0 1,0 0,0 1,0 1,-1l0 0 0 0 0 0 0 0 0 0 0 0c0,0 0,0 0,0l0 0c0,0 0,0 0,0l0 0c0,0 0,0 0,-1 0,0 0,0 0,0l0 0c0,0 0,-1 1,-1 0,0 0,-1 0,-1l0 0 0 0c0,0 0,-1 0,-1l0 0 0 0 0 -2 0 0c0,0 0,-1 0,-1l0 0 0 0c0,0 0,0 0,-1 0,0 0,-1 0,-1l0 0 0 0 0 0 0 0c0,0 0,0 0,0l0 0 0 0 0 0 0 0 0 0c0,0 0,0 0,0l0 0 0 0c0,0 0,0 0,0 0,0 0,0 0,0l0 0 0 0c0,0 0,0 0,0l0 0 0 0 0 0 0 0 0 0 0 0 0 0c0,0 0,0 0,0l0 0 0 0 0 0 0 0c0,0 0,0 0,0l0 0 0 0 0 0 0 0 0 0c0,0 0,0 -1,0l0 0 0 0 0 0 -2 0 0 0 0 0c-1,0 -1,0 -2,0l0 0 0 0c0,0 -1,0 -1,0l0 0c-1,0 -1,0 -1,1l0 0 0 0c0,0 -1,0 -1,1 0,0 0,0 -1,1l0 0 0 0 0 0 0 0c0,0 0,0 -1,1 0,0 0,1 -1,1l0 0 0 0c0,0 0,1 -1,1 0,1 0,2 0,2zm6 -10l-2 0m0 -1l2 -1 0 0 0 0 3 0 0 0 1 0 0 0 0 0 2 0 0 0c0,0 1,0 1,0 0,0 1,0 1,0l0 0 0 0c0,0 0,0 0,0 0,0 0,0 0,0l0 0 0 0c0,0 0,0 0,0 0,0 0,0 1,0l0 0 0 0 1 1 0 0 0 0 1 1 0 0 1 1 0 0 0 0 1 2 0 0 0 0 0 0 0 0 0 2 0 0 0 1 0 0 0 0 0 2 0 0 0 0 0 1 0 0c0,0 0,1 0,1 0,0 0,1 0,1l0 0c0,0 0,0 0,0 0,0 0,0 0,1 0,0 0,0 0,0 0,0 0,0 0,0l0 0 0 0c0,0 0,0 -1,1l0 0c0,0 -1,1 -1,1l0 0 0 0c0,0 0,0 0,0l0 0c0,0 0,0 0,0l0 0 0 0c0,0 0,0 0,0 0,0 0,0 0,0 0,0 0,0 0,0l0 0c0,0 0,0 0,0l0 0c0,0 -1,0 -1,0 0,0 0,0 -1,0l0 0 0 0c0,0 0,0 -1,0 0,0 0,0 -1,0 0,0 0,0 0,0 0,0 0,0 -1,0l0 0 0 0 -2 0 0 0 0 0 -1 0 0 0 -2 0 0 0 0 0c0,0 0,0 0,0 0,0 0,0 0,0l0 0 0 0 -2 -1 0 0 0 0c0,0 0,0 -1,-1 0,0 -1,-1 -2,-2 0,0 -1,-1 -1,-2 0,0 -1,-1 -1,-1l0 0 0 0c0,0 0,-1 0,-1 0,-1 -1,-2 -1,-4 0,-1 0,-1 0,-1 0,0 0,-1 0,-1l0 0c0,0 0,0 0,-1 0,0 0,-1 0,-1l0 0 0 0 1 -2 0 0c0,0 0,-1 1,-1 0,0 0,0 0,-1l0 0 0 0 0 0 0 0c0,0 0,0 1,-1l0 0c0,0 0,0 1,0l0 0 0 0 0 0 0 0 0 0c0,0 0,0 1,0 0,0 0,0 1,0l0 0 0 0zm0 1c0,0 0,0 -1,0 0,0 0,0 -1,0 0,0 0,0 -1,0l0 0c0,0 -1,0 -1,1 0,0 0,0 0,0l0 0 0 0c0,0 0,0 -1,1 0,0 0,0 -1,1l0 0 -1 2c0,0 0,1 0,1 0,0 0,0 0,1l0 0c0,0 0,1 0,1 0,0 0,1 0,1 0,2 0,3 1,3 0,0 0,1 0,1 0,0 0,1 1,1 0,1 1,1 1,1 1,1 1,1 1,1 0,0 1,0 1,1l1 1 0 0c0,0 0,0 1,0l2 0 1 0 2 0c0,0 1,0 1,0l0 0c0,0 0,0 0,0 0,0 0,0 1,0 0,0 0,0 1,0 0,0 0,0 1,0 0,0 1,0 1,0l0 0c0,0 0,0 0,0l0 0c0,0 0,0 0,0 0,0 0,0 0,0 0,0 0,0 0,0 0,0 0,0 0,0l0 0c0,0 0,0 0,0 0,0 0,-1 1,-1l0 0c0,0 0,0 1,-1 0,0 0,0 0,-1 0,0 0,0 0,0 0,0 0,0 0,-1 0,0 0,0 0,0l0 0c0,0 0,-1 0,-1 0,0 0,-1 0,-1l0 -1 0 -2 0 -1 0 -2 0 0 0 0 -1 -2 0 -1 -1 -1 -1 -1c0,0 0,0 -1,0 0,0 0,0 0,0l0 0c0,0 0,0 -1,0 0,0 -1,0 -1,0 0,0 0,0 -1,0l0 0 -2 0 -1 0 -3 0m-5 2l0 0 0 0 0 0z"/>
   <path class="fil1" d="M28 39c0,0 0,0 0,0 0,0 0,0 0,0l0 0c0,0 0,1 0,2 0,0 0,1 0,1 0,0 0,0 0,0 0,0 0,0 0,0l0 0c0,0 0,0 0,0l1 0 0 0 0 0c1,0 1,0 2,0 0,0 0,0 0,0l0 0 0 0 0 0 0 0c0,0 0,-1 0,-1 0,0 0,0 0,-1l0 -1 -1 0c0,0 0,0 -1,0 0,0 -1,0 -1,0l-1 0zm-1 -1c0,0 0,0 1,0l0 0 0 0 2 0 0 0 0 0c0,0 1,0 1,0 0,0 0,0 1,0l0 0 0 0 1 1 0 0 0 0 1 1 0 0 0 0c0,1 0,1 0,1 0,0 0,1 -1,1l0 0 0 0 0 0 0 0 0 0 0 0 0 0 0 0c-1,0 -1,0 -2,0l0 0 0 0 0 0 -1 0 0 0 0 0 0 0 0 0 0 0 0 0 0 0c0,0 0,0 0,0 0,0 0,-1 -1,-1l0 0 0 0c0,-1 0,-2 0,-2l0 0 0 0 0 0c0,0 0,0 0,0zm0 5l0 0c0,0 0,0 0,0l0 0 0 0zm0 0l0 0c0,0 0,0 0,0l0 0z"/>
   <path class="fil1" d="M36 51l0 -2 0 0 0 0c0,-1 0,-2 1,-4 0,-1 1,-2 1,-2 0,0 1,-1 1,-1l0 0c0,-1 1,-1 1,-1 0,0 1,-1 1,-1 1,0 1,-1 2,-1 1,0 2,-1 3,-1l0 0c1,0 1,0 2,0 1,0 2,0 3,0l0 0 0 0 0 0 0 0 3 1 0 0 0 0 0 0c0,0 1,0 1,0l0 0 0 0 0 0 0 0 0 0c0,0 1,0 1,1 0,0 0,0 1,0l0 0c0,0 0,0 0,0 0,0 0,0 0,0l0 0 0 0c0,0 0,0 0,0l0 0 0 0c0,0 1,0 1,1 0,0 1,1 1,1 0,0 0,0 0,0l0 0 0 0 0 0 0 0 0 0c0,0 0,0 0,1l0 0 0 0c0,0 1,1 1,2 0,0 0,1 0,1 0,1 1,2 1,2l0 0 0 0 0 0 0 3 0 0 0 0 0 0 0 0c0,1 0,2 -1,3 0,1 0,1 -1,2 0,1 -1,1 -1,2l0 0c0,0 0,0 0,0 0,0 0,1 -1,1l0 0c0,0 0,0 0,0l0 0c0,0 -1,1 -1,1 0,0 0,0 0,0 0,0 0,0 0,0l0 0 0 0c0,0 -1,1 -1,1 0,0 -1,0 -1,0 -1,0 -1,1 -2,1l0 0 0 0 0 0 0 0c-1,0 -2,0 -2,0 -1,0 -3,0 -4,-1 0,0 -1,0 -1,0l0 0c0,0 -1,0 -1,-1 -1,0 -1,0 -1,-1l0 0 0 0 0 0 0 0c0,0 0,0 0,0l0 0c0,0 0,0 0,0l0 0c0,0 0,0 0,0l0 0c0,0 0,0 0,0 0,0 -1,0 -1,-1 0,0 -1,-1 -1,-1 0,0 -1,-1 -1,-1 0,0 -1,-1 -1,-2 0,-1 -1,-3 -1,-4l0 0zm2 -2l0 2c0,1 0,2 1,3 0,1 1,1 1,2l0 0 0 0c0,0 0,1 1,1 0,0 1,1 1,1l0 0 0 0 0 0 0 0c0,0 0,0 0,0l0 0 0 0 0 0 0 0 0 0 0 0 0 0c0,0 0,0 0,0l0 0 0 0 0 0 0 0c0,0 0,0 1,0l0 0 0 0c0,0 0,0 1,0l0 0c0,0 1,0 1,0l0 0 0 0c1,0 2,0 3,1 1,0 2,0 2,0l0 0 0 0 0 0 0 0c1,0 1,0 1,0l0 0 0 0c0,0 1,0 1,0 0,0 1,-1 1,-1l0 0 0 0 0 0 0 0 0 0 0 0c0,0 0,0 1,0l0 0c0,0 0,0 0,0l0 0c0,0 0,0 1,-1 0,0 0,0 0,0l0 0c0,0 1,-1 1,-1 0,0 0,-1 1,-2l0 0 0 0c0,0 0,-1 1,-2l0 0 0 0 0 -3 0 0c0,-1 0,-1 0,-2l0 0 0 0c0,0 0,-1 0,-1 0,0 0,-1 -1,-1l0 0 0 0 0 0 0 0c0,0 0,0 0,0l0 0 0 0 0 0 0 0 0 0c0,0 0,0 0,0l0 0 0 0c0,0 0,0 0,-1 0,0 0,0 -1,0l0 0 0 0c0,0 0,0 0,0l0 0 0 0 0 0 0 0 0 0 0 0 0 0c0,0 0,0 0,0l0 0 0 0 0 0 0 0c0,0 0,0 0,0l0 0 0 0 0 0 0 0 0 0c0,0 -1,0 -1,0l0 0 0 0 0 0 -3 -1 0 0 0 0c-1,0 -2,0 -2,0l0 0 0 0c0,0 -1,0 -2,0l0 0c-1,0 -2,1 -2,1l0 0 0 0c0,0 -1,1 -2,1 0,0 -1,1 -1,1l0 0 0 0 0 0 0 0c0,0 -1,1 -1,1 0,0 -1,1 -1,1l0 0 0 0c0,0 -1,1 -1,2 0,1 -1,2 -1,3zm8 -15l-2 1m-1 -2l3 -1 0 0 0 0 5 0 0 0 1 0 0 0 0 0 3 1 0 0c0,0 1,0 1,0 0,0 1,0 1,0l0 0 0 0c0,0 0,0 0,0 0,0 0,0 0,0l0 0 0 0c0,0 0,0 0,0 0,0 1,0 1,1l0 0 0 0 2 2 0 0 0 0 1 2 0 0 1 1 0 0 0 0 1 2 0 0 0 0 0 0 0 0 1 3 0 0 0 2 0 0 0 0 0 4 0 0 0 0 0 2 0 0c0,1 0,1 -1,2 0,1 0,1 -1,2l0 0c0,0 0,0 0,1 0,0 0,1 -1,1 0,0 0,0 0,1 0,0 0,1 0,1l0 0 0 0c0,0 0,0 -1,1l0 0c-1,1 -1,1 -1,1l0 0 0 0c0,0 0,0 0,0l0 0c0,0 0,0 0,0l0 0 0 0c0,0 0,0 -1,0 0,0 0,0 -1,0 0,0 0,0 -1,0l0 0c0,0 0,0 -1,0l0 0c-1,0 -1,1 -2,1 0,0 -1,0 -1,0l0 0 0 0c0,0 -1,0 -1,0 0,0 -1,0 -1,0 0,0 0,0 0,0 0,0 -1,0 -1,0l0 0 0 0 -3 0 0 0 0 0 -2 0 0 0 -3 -1 0 0 0 0c0,0 0,0 0,0 0,0 0,0 0,0l0 0 0 0 -2 -1 0 0 0 0c0,0 -1,-1 -1,-1 -1,-1 -2,-1 -2,-2 0,-1 -1,-2 -2,-2 0,-1 -1,-1 -1,-1l0 0 0 0c0,0 0,-1 0,-1 0,-1 -1,-3 -1,-6 0,-1 0,-1 0,-2 0,-1 0,-1 0,-2l0 0c0,0 0,-1 0,-1 0,-1 0,-1 0,-2l0 0 0 0 2 -3 0 0c0,-1 1,-1 1,-1 0,0 1,-1 1,-1l0 0 0 0 0 0 0 0c0,0 1,0 1,-1l0 0c0,0 1,-1 1,-1l0 0 0 0 0 0 0 0 0 0c0,0 1,0 1,0 0,0 1,0 1,0l0 0 0 0zm0 2c0,0 -1,0 -1,0 0,0 -1,1 -1,0 0,0 0,0 -1,1l0 0c0,0 -1,1 -1,1 0,0 0,0 0,0l0 0 0 0c0,0 -1,1 -1,1 0,0 -1,1 -1,1l0 0 -2 3c0,1 0,1 -1,2 0,0 0,1 0,1l0 0c0,1 0,1 0,2 0,1 0,1 0,2 0,3 0,4 1,5 0,1 0,1 0,2 0,0 1,1 1,1 1,1 1,2 2,2 1,1 2,2 2,2 0,0 1,1 1,1l2 1 0 0c0,0 1,0 1,0l2 1 2 0 2 0c0,0 1,0 1,0l0 0c0,0 0,0 0,0 0,0 1,0 1,0 0,0 1,0 1,0 0,0 1,0 1,0 1,0 1,0 1,-1l0 0c0,0 0,0 1,0l0 0c0,0 0,0 1,0 0,0 0,0 1,0 0,0 0,0 1,0 0,0 0,0 1,-1l0 0c0,0 0,0 1,0 0,0 1,-1 1,-1l0 0c0,0 1,-1 1,-1 0,0 0,-1 1,-1 0,0 0,0 0,0 0,0 0,-1 0,-1 0,0 0,0 0,-1l0 0c0,0 0,-1 1,-1 0,-1 0,-1 0,-2l0 -2 0 -3 0 -2 -1 -2 0 0 0 0 -1 -2 -1 -1 -1 -2 -2 -2c0,0 -1,0 -1,-1 0,0 0,0 -1,0l0 0c0,0 -1,0 -1,-1 -1,0 -1,0 -1,-1 0,0 -1,0 -1,0l0 0 -2 -1 -1 0 -4 0m-7 4l0 0 0 0 0 0z"/>
  </g>
 </g>
</svg>
