<?xml version="1.0" encoding="UTF-8"?>
<!DOCTYPE svg PUBLIC "-//W3C//DTD SVG 1.1//EN" "http://www.w3.org/Graphics/SVG/1.1/DTD/svg11.dtd">
<!-- Creator: CorelDRAW 2018 (64-Bit) -->
<svg xmlns="http://www.w3.org/2000/svg" xml:space="preserve" width="35.9289mm" height="35.929mm" version="1.1" style="shape-rendering:geometricPrecision; text-rendering:geometricPrecision; image-rendering:optimizeQuality; fill-rule:evenodd; clip-rule:evenodd"
viewBox="0 0 1522.19 1522.19"
 xmlns:xlink="http://www.w3.org/1999/xlink">
 <defs>
  <style type="text/css">
   <![CDATA[
    .fil0 {fill:#5B5B5B}
    .fil1 {fill:#5B5B5B;fill-rule:nonzero}
   ]]>
  </style>
 </defs>
 <g id="Layer_x0020_1">
  <metadata id="CorelCorpID_0Corel-Layer"/>
  <g id="_1738337829824">
   <g>
    <path class="fil0" d="M1094.85 366.92l0.01 90.7 60.62 0.12 0.03 667.28 -788.25 0.08 -0.5 -667.51 60.62 -0.12 0.07 -90.62c-27.54,-1.68 -64.34,-0.93 -92.28,-0.19 -27.4,0.72 -47.78,18.4 -55.39,38.57 -6.91,18.3 -4.05,65.37 -4.05,88.18l0 650.38c-0.05,82.69 62.72,72.1 114.06,72.1l742.6 0c41.5,0 85.25,8.13 106.92,-31.94 7.18,-13.29 7.16,-23.36 7.15,-40.16l0 -649.17c0,-23.01 2.9,-71 -4.16,-89.31 -7.85,-20.35 -27.28,-37.05 -54.01,-38.52l-93.44 0.14z"/>
    <path class="fil0" d="M484.85 791.61c-34.66,4.9 -42.08,60.4 10.5,60.25 42.79,-0.12 532.06,1.25 543.56,-0.42 22.21,-3.22 33.97,-30.88 18.25,-49.86 -12.74,-15.38 -48.86,-10.35 -72.81,-10.35 -27.22,0 -489.08,-1.1 -499.5,0.37z"/>
    <path class="fil0" d="M480.5 944.16c-22.24,6.08 -31.25,34.42 -13.74,51.07 13.82,13.14 52.79,8.37 75.92,8.37l416.2 0c16,0 71.74,1.98 83.19,-1.04 21.66,-5.72 30.64,-34.75 13.34,-51.17 -8.73,-8.27 -18.3,-8.32 -33.43,-8.3l-458.67 0c-15.83,0 -71.96,-1.89 -82.81,1.08z"/>
    <path class="fil0" d="M882.41 455.99l-0.12 -87.58c-8.49,-2.23 -228.27,-0.97 -241.91,-0.82l0.19 89.3c13.23,0.19 233.08,1.52 241.83,-0.89z"/>
    <path class="fil0" d="M909.13 660.02c-22.86,-14.4 -42.19,-57.08 -71.19,-52.05 -14.63,2.54 -28.25,17.73 -24.1,36.53 2.79,12.67 20.63,27.01 27.75,34.13 10.6,10.61 20.36,20.29 31,30.89 11.93,11.88 19.39,25.28 37.79,24.66 16.49,-0.56 29.17,-17.53 37.03,-25.37l92.77 -92.87c7.58,-7.6 24.53,-21.39 27.21,-34.62 3.81,-18.82 -9.56,-33.72 -24.76,-35.95 -20.05,-2.95 -31.81,13.76 -40.06,22.04 -11.14,11.18 -88.29,89.63 -93.43,92.61z"/>
    <path class="fil0" d="M479.81 641.17c-22.26,6.95 -30.36,35.22 -12.36,51.21 14.3,12.7 52.07,8 75.23,8 21.98,0 155.68,1.58 165.81,-1.19 21.46,-5.88 30.77,-33.97 13.13,-51.04 -8.75,-8.47 -18.26,-8.41 -33.32,-8.39 -30.62,0.03 -198.47,-1.71 -208.48,1.42z"/>
    <path class="fil0" d="M965.89 307.15c-21.81,5.54 -22.83,20.8 -22.83,45.49 0,22.65 0,45.3 0,67.95 0,31.78 -7.13,67.16 35.22,67.28 39.41,0.11 55.8,3.51 55.8,-46.65 0,-22.65 0,-45.3 0,-67.95 0,-31.97 7.02,-67.14 -35.16,-67.27 -10.59,-0.03 -23.29,-1.32 -33.03,1.15z"/>
    <path class="fil0" d="M510.89 307.15c-21.71,5.47 -22.79,20.98 -22.79,45.49 0,22.65 0,45.3 0,67.95 0,31.93 -7.05,67.14 35.16,67.28 39.5,0.13 55.86,3.55 55.85,-46.65 0,-22.65 0,-45.3 0,-67.95 0,-31.93 7.08,-67.14 -35.22,-67.27 -10.37,-0.03 -23.52,-1.24 -33.01,1.15z"/>
    <path class="fil0" d="M882.41 455.99c-8.75,2.41 -228.61,1.08 -241.83,0.89l-0.19 -89.3c13.63,-0.15 233.41,-1.41 241.91,0.82 -1.65,-3.84 -1.71,-2.3 -13.21,-2.27l-167.45 0c-19.25,0 -42.93,-1.22 -61.64,0.25 -2.55,6.28 -2.52,83.91 -0.27,91.62 20.43,1.78 175.83,0.31 212.37,0.31l26.75 0.05c3.64,-0.84 1.74,0.18 3.56,-2.37z"/>
   </g>
   <path class="fil1" d="M761.1 0c210.16,0 400.44,85.2 538.17,222.93 137.73,137.73 222.93,328.01 222.93,538.17 0,210.16 -85.2,400.44 -222.93,538.17 -137.73,137.73 -328.01,222.93 -538.17,222.93 -210.16,0 -400.45,-85.2 -538.17,-222.93 -137.73,-137.73 -222.93,-328.01 -222.93,-538.17 0,-210.16 85.2,-400.44 222.93,-538.17 137.73,-137.73 328.01,-222.93 538.17,-222.93zm506.47 254.62c-129.61,-129.61 -308.68,-209.78 -506.47,-209.78 -197.79,0 -376.86,80.17 -506.47,209.78 -129.61,129.61 -209.78,308.68 -209.78,506.47 0,197.79 80.17,376.86 209.78,506.47 129.61,129.61 308.68,209.78 506.47,209.78 197.79,0 376.86,-80.17 506.47,-209.78 129.61,-129.61 209.78,-308.68 209.78,-506.47 0,-197.79 -80.17,-376.86 -209.78,-506.47z"/>
  </g>
 </g>
</svg>
