<?xml version="1.0" encoding="UTF-8"?>
<!DOCTYPE svg PUBLIC "-//W3C//DTD SVG 1.1//EN" "http://www.w3.org/Graphics/SVG/1.1/DTD/svg11.dtd">
<!-- Creator: CorelDRAW 2018 (64-Bit) -->
<svg xmlns="http://www.w3.org/2000/svg" xml:space="preserve" width="35.9289mm" height="35.9289mm" version="1.1" style="shape-rendering:geometricPrecision; text-rendering:geometricPrecision; image-rendering:optimizeQuality; fill-rule:evenodd; clip-rule:evenodd"
viewBox="0 0 1522.19 1522.19"
 xmlns:xlink="http://www.w3.org/1999/xlink">
 <defs>
  <style type="text/css">
   <![CDATA[
    .fil1 {fill:#5B5B5B}
    .fil0 {fill:#5B5B5B;fill-rule:nonzero}
   ]]>
  </style>
 </defs>
 <g id="Layer_x0020_1">
  <metadata id="CorelCorpID_0Corel-Layer"/>
  <g id="_1738345744096">
   <path class="fil0" d="M761.1 0c210.16,0 400.44,85.2 538.17,222.92 137.73,137.73 222.92,328.01 222.92,538.17 0,210.16 -85.19,400.44 -222.92,538.17 -137.73,137.73 -328.01,222.93 -538.17,222.93 -210.16,0 -400.45,-85.2 -538.17,-222.93 -137.73,-137.73 -222.93,-328.01 -222.93,-538.17 0,-210.16 85.2,-400.44 222.93,-538.17 137.73,-137.73 328.01,-222.92 538.17,-222.92zm506.47 254.62c-129.61,-129.61 -308.68,-209.78 -506.47,-209.78 -197.79,0 -376.86,80.17 -506.47,209.78 -129.61,129.61 -209.78,308.68 -209.78,506.47 0,197.79 80.17,376.86 209.78,506.47 129.61,129.61 308.68,209.78 506.47,209.78 197.79,0 376.86,-80.17 506.47,-209.78 129.61,-129.61 209.78,-308.68 209.78,-506.47 0,-197.79 -80.17,-376.86 -209.78,-506.47z"/>
   <g>
    <path class="fil1" d="M251.37 370.95c-0.88,1.47 -6.98,4.39 -9.27,6.25 -2.68,2.17 -5.76,5.41 -7.89,8.15 -4.87,6.27 -6.9,14.32 -8.13,23.85l-0.11 29.4 0 24.08 -0 29.41 0 24.08 -0 29.4 0 24.09 -0 29.4 0 24.09 -0 29.4 0 24.08 -0 29.4 0 24.09 -0 29.4 0 24.09 -0 29.4 0 24.08 -0 29.41 0 24.08 -0 29.41 0 24.08 -0 29.4 0 24.08 -0 29.41 0 24.08c0.03,11.3 0.89,19.76 3.5,29.84 2.56,9.91 6.76,17.01 9.04,25.4 3.09,3.29 8.07,13.53 11.49,18.34 4.21,5.93 9.24,12.18 14.05,16.7 9.7,9.13 22.48,18.16 40.83,20.69l453.92 0.06c-3.16,-11.43 -11.86,-24.23 -17.91,-33.59 -12.36,-19.12 -11.62,-27.5 -16.14,-34.93 -20.7,-1.61 -46.89,-0.28 -68.2,-0.27 -22.73,0.01 -45.46,0 -68.19,0l-205.92 0c-17.53,0.01 -51.76,3.59 -63.62,-5.34 -29.64,-22.31 -23.46,-70.4 -23.78,-114.46 -1.17,-159.48 1.05,-320.67 0.01,-480.04 -0.08,-11.6 -0.03,-23.17 0.01,-34.77 0.04,-9.91 -2.62,-24.73 5.53,-29.96 7.89,-3.11 17.93,1.46 26.47,2.39 30.72,3.34 207.8,-2.3 224.06,1.17l-0.51 -70.35 -2.37 0.64c-34.91,0.01 -234.9,-1.8 -264.8,1.17 -13.24,1.31 -20.31,4.4 -32.04,7.22z"/>
    <path class="fil1" d="M655.94 205.19l-29.55 17.47c-1.11,2.83 0.28,0.12 -1.42,2.55l-14.76 16c-21.71,28.25 -21,50.34 -20.74,86.41 0.15,21.13 1.39,130.56 -0.5,142.38 -16.2,0.82 -33.37,-0.77 -34.79,16.98 -1.53,19.08 16.19,19.58 32.81,19.56l212.61 0c15.99,0 36.29,2.53 39.96,-13.4 2.16,-9.4 -2.03,-15.95 -7.04,-19.23 -6.25,-4.09 -14.66,-3.69 -23.09,-3.8 -2.66,-12.13 -0.38,-43.74 -0.74,-58.25 -0.3,-29.8 0,-59.78 0.06,-89.58 0.02,-13.93 0.66,-28.51 -2.17,-41.77 -3.04,-14.22 -8.05,-20.52 -12.43,-31.77 -2.27,-1.09 -9.38,-12.29 -15.22,-18.1 -3.21,-3.2 -5.88,-5.23 -9.38,-8.02l-6.72 -5.12c-1.44,-1.31 -1.19,-1.27 -1.48,-1.72 -11.62,-4.3 -18.41,-10.24 -33.38,-14.33 -15.57,-4.25 -26.73,-4.37 -43.36,-3.28 -6.95,1.49 -24.04,6.76 -28.67,7.02z"/>
    <path class="fil1" d="M975.27 697.55l-27.65 5.16c-6.08,2.34 -17.77,5.16 -25.56,8.07 -6.4,2.39 -19.76,9.16 -24.61,9.51 -1.24,1.47 -0.63,0.9 -2.35,2.25 -0.36,0.28 -24.41,13.89 -34.77,21.52 -17.82,13.1 -32.67,28 -46.56,44.36 -9.41,11.07 -16.27,22.15 -23.78,35.02 -3.32,5.67 -8.1,16.46 -10.97,19.05l-8.05 23.69c-5.41,13.17 -8.83,31.49 -10.93,46.04l-1.75 6.99c-0.1,0.26 -0.28,0.69 -0.48,1.01 1.16,4.64 0.73,5.55 0.22,10.5l0.78 42.28c1.28,7.93 2.25,16.04 3.88,23.91 1.48,7.09 5.66,19.23 5.53,25.11 3.45,3.54 4.53,10.43 6.43,15.18 2.42,6.06 4.69,10.11 6.26,16.08 2.08,1.99 11.7,20.99 14.78,25.75 3.32,5.11 15.91,22.17 16.84,25.03 2.32,1.55 1.1,-0.06 2.76,2.17 1.54,2.07 0.37,0.32 1.53,3.14 4.08,2.06 7.23,6.77 10.46,10.28l9.24 9.33c1.58,2.11 0.53,0.21 1.22,2.17 4.39,1.91 3.12,0.11 5.48,5.06 5.2,1.98 17.86,13.11 24.67,17.72 4.86,3.29 23.13,13.39 25.81,16.07 11.73,3.47 26.45,12.29 50.34,18.69 0.38,0.1 3.83,1.04 4.18,1.17l3.04 1.43c0.25,0.12 0.68,0.34 0.98,0.57 8,-0.79 18.97,2.7 27.46,3.82 11.37,1.5 82.51,2.8 90.55,-7.98 -12.02,-6.44 -28.06,-39.86 -31.49,-51.04 -17.77,-0.01 -30.54,2.85 -50.23,0.76 -10.97,-1.17 -36.21,-4.19 -42.84,-10.73 -10,0.15 -34.61,-14.79 -41.85,-19.41 -13.19,-8.43 -23.64,-18.07 -33.26,-27.5 -9.38,-9.71 -19.39,-22.01 -27.05,-35.2 -4.94,-8.49 -18.2,-32.86 -18,-43.09 -1.08,-1.29 -0.64,-0.45 -1.63,-2.62 -0.33,-0.72 -0.88,-2.24 -1.12,-3.02l-4.63 -25.01c-0.87,-4.78 -1.33,-5.91 0.32,-9.75l-1.88 -23.7c0.23,-5.34 0.43,-17.17 3.37,-21.85 -1.11,-6.1 1.46,-15.65 3.88,-20.93 7.02,-36.29 37.31,-75.72 61.79,-95.84 15.38,-12.64 43.02,-30.46 62.91,-34.46 3.77,-2.32 15.2,-5.52 21.74,-5.34 7.93,-7.6 78.49,-5.09 86.92,2.52 6.15,-0.14 20,4 23.62,7.46 19.13,4.18 49.64,28.24 60.39,38.12 9.75,8.96 36.17,40.39 41.29,58.48 4.59,5.78 11.16,28.11 13.41,37.7 4.18,17.76 3.84,30.53 5.14,48.77l13.49 3.57c8.37,1.99 16.46,5.47 23.17,9.01 4.23,2.23 17.27,10.6 20.09,11.21l2.08 -9.35c-2.29,-8.6 0.07,-24.27 -0.58,-34.4 -0.64,-9.82 -3.79,-23.85 -3.16,-32.66l-9.87 -35.19c-1.66,-2.06 -8.46,-20.54 -10.99,-25.56 -2.49,-4.96 -12.31,-21.88 -12.72,-25.16 -2.17,-1.61 -0.65,-0.25 -2.47,-2.25l-3.39 -4.85c-1.43,-2.14 -2.87,-4.03 -4.43,-6.25 -8.52,-12.12 -19.87,-25.54 -30.32,-35.18 -7.5,-6.91 -15.23,-13.65 -24.05,-20.07l-25.61 -17.93 -24.58 -10.92c-8.72,-4.21 -19.25,-7.88 -29.29,-10.71 -7.11,-2 -24.78,-3.92 -29.93,-7.77 -5.69,0.76 -9.63,-0.22 -14.92,-0.97l-33.42 -1.08 -24.91 2.06z"/>
    <path class="fil1" d="M439.68 657.25l0.9 19.88c0.87,12.75 1.87,8.83 -2.6,18.99 -3.4,7.74 -2.72,14.7 -2.07,23.29 1.4,4.26 2.07,5.46 2.07,9.62 3.29,2.88 3.39,4.93 6.74,8.33 3.8,3.86 5.48,3.19 7.56,8.55 7.6,19.49 7.55,23.45 21.66,41.11 2.6,3.25 4.44,5.96 2.69,11.75 -1.73,5.77 -5.56,5.21 -11.31,6.47 -1.11,0.99 -21.9,10.22 -25.23,11.95 -6.61,3.42 -21.04,13.25 -25.39,14.04l-16.79 13.35c-17.29,13.87 -28.6,24.5 -39.17,43.68l-3.5 5.18 -2.06 10.51 -0.2 15.39 7.7 0.08 24.83 -0 28.66 0 24.83 -0 28.66 0 24.83 -0 28.66 0 24.83 -0 28.66 0 24.83 -0 28.66 0 24.83 -0c8.77,-0.02 19.4,-1.33 27.5,0.86 0.61,-13.71 -0.45,-21.29 -5.66,-31.87 -5.82,-11.81 -12.9,-17.59 -15.98,-23.77l-15 -13.47c-3.27,-2.88 -13.65,-9.94 -15.35,-12.9 -18.81,-8.54 -22.88,-19.56 -70.71,-35.88 -4.33,-17.51 2.42,-10.21 16.82,-39.17 2.25,-4.52 6.35,-18.2 8.7,-20.82 3.09,-3.44 7.88,-3.89 12.3,-17.08 7.3,-21.8 -2.63,-31.36 -3.39,-36.73 -0.5,-3.56 3.86,-51.72 -9.21,-62.78 -2.79,-7.67 -9.67,-14.99 -15.34,-19.41 -6.31,-4.91 -15.01,-7.55 -20.17,-10.75 -18.72,-3.36 -25.88,-4.39 -46.04,-3.18l-1.78 -0.6c-1.98,1.53 -18.96,6 -23.85,8.35 -32.8,15.79 -32.35,50.36 -36.12,57.04z"/>
    <path class="fil1" d="M1138.07 683.81c2.83,0.35 20.29,9.08 22.58,11.52l11.36 3.74 0.25 -22.26 0 -24.34 -0 -29.15 0 -24.34 -0 -29.15 0 -24.33 -0 -29.16 0 -24.33 -0 -29.15 0 -24.34 -0.19 -28.9c-1.54,-8.44 -1.7,-11.29 -5.59,-18.36l-2.69 -5.75c-3.03,-1.4 -1.81,0.63 -3.29,-3.69l-5.24 -3.3c-8.54,-6.61 -10.75,-5.83 -19.95,-10.11 -44.94,-8.98 -94.64,-5.75 -141.81,-5.68 -19.5,0.03 -137.63,-1.38 -146.26,0.56l0.11 67.74c9.35,2.2 49.37,0.67 61.91,0.67 20.86,0 146,0.72 157.47,-0.6 25.82,-2.98 36.58,-12.45 36.47,19.54 -0.12,37.08 -1.49,197.75 0.27,218.91 8.52,1.95 28.72,7.01 34.61,14.26z"/>
    <path class="fil1" d="M1054.37 850.6c-1.24,3.41 -5.75,6.79 -8.52,9.43l-63.03 61.33c-21.99,21.01 -31.13,33.26 -54.27,54.03 -18.58,16.68 -7.49,5.44 -15.36,18.16 -1.69,8.12 -16.89,58.56 -20.7,62.22 0.1,8.68 -6.08,11.19 2.05,15.18 6.02,0.67 42.94,-12.72 53,-15.23 7.46,-2.7 25.03,-6.88 30.28,-10.97l60.41 -59.94c23.52,-23.15 59.83,-57.13 80.82,-79.31 -1.52,-4 -54.84,-55.62 -58.71,-58.15 -3.53,1.75 -2.58,1.62 -5.99,3.26z"/>
    <path class="fil1" d="M1243.81 1073.3l-7.89 6.24c-7.74,4.84 -21.61,12.48 -23.99,18.3l22.43 5.66c-2.11,19.76 -28.38,44.97 -46.67,48.95 -3.24,2.96 -11.57,4.26 -16.79,3.71 -5.63,4 -27.89,0.21 -34.08,-2.44l-4.43 -2.84c-7.7,0.01 -20.86,-11.12 -24.63,-14.88 -7.28,-7.24 -11.79,-13.98 -16.31,-23.6l-9.24 2.04 -24.78 7.06 4.45 12.45c2.65,1.73 5.63,8.48 8.05,11.82 2.47,3.41 7.79,8.61 8.66,11.79 4.91,2.5 2.36,-0.17 4.82,4.99 3.1,0.73 8.13,5.89 11.12,8.08 21.04,15.5 29.42,13.34 39.84,19.31 13.04,1.58 20.08,2.99 34.29,2.74l14.43 -0.86 3.92 -1.96c11.12,-4.04 11.93,-1.78 29.04,-11.2 15.57,-8.58 17.13,-12.96 22.19,-16.59 3.6,-2.58 0.8,-1.28 4.54,-2.1 0.99,-5.86 7.22,-8.34 15.17,-22.31 5.05,-8.88 7.7,-15.68 11.39,-26.03l26.89 4.83c-3.47,-13.16 -17.46,-26.39 -18.74,-34.48l-11 -15.59c-17.59,-1.12 -12.64,5.59 -22.67,6.92z"/>
    <path class="fil1" d="M1138.55 971.85c-0.31,0.25 -0.72,0.53 -0.96,0.68 -5.99,3.77 -4.82,2 -13.53,5.85 -4.59,2.03 -8.22,4.22 -12.17,6.52 -38.15,22.31 -42.9,53.98 -50.27,65.03l-25.63 -5.13 1.66 8.38c3.12,2.14 14.73,20.27 15.46,24.55 2.85,2.13 1.94,0.73 3.47,4.75 3.54,2.53 4.66,7.94 8.33,10.85 6.41,5.1 10.05,0.3 15.07,-0.43 2.96,-3.61 5.73,-4.8 9.67,-7.25l21.09 -13.69c6.28,-3.85 7.19,-2.5 9,-9.56l-22.47 -4.61c0.93,-8.04 6.65,-19.4 11.91,-22.67 0.8,-4.27 -0.58,-1.39 3.23,-5.55 1.78,-1.94 2.9,-2.89 4.74,-4.67 3.54,-3.44 5.67,-5.42 10.27,-8.43 5.94,-3.89 17.37,-10.2 25.89,-10.17 3.64,-3.3 13.62,-2.85 19.4,-2.69 3.39,0.1 6.89,0.36 10.15,0.9 4.66,0.77 5.56,0.62 8.27,2.97 13.18,-0.32 32.67,16.39 40.75,27.14 3.24,4.31 5.74,9.9 8.99,13.98 6.39,-0.69 28.34,-6.32 33.35,-9.66l-3.45 -10.46 -4.47 -5.62c-10.54,-16.92 -24.19,-27.39 -26.37,-31.47 -3.14,-0.7 -16.82,-9.96 -23.88,-13.17 -8.91,-4.04 -17.04,-5.06 -26,-8.29l-29.4 -1.25 -22.09 3.17z"/>
    <path class="fil1" d="M772.03 678.27c5.77,2.42 8.4,10.79 28.89,11.09 13.75,0.2 27.7,-0.06 41.47,-0.03 21.42,0.05 46.45,-1.03 51.45,-31.84 0.8,-15.06 -4.26,-26.62 -16.18,-34.86l-11.9 -6.45 -2.14 0.53c-17.92,-0.97 -69.79,-3.08 -82.17,4.26 -14.83,8.79 -23.31,25.83 -17.29,43.07 2.02,5.79 6.04,11.21 7.3,13.24 0.14,0.23 0.41,0.65 0.59,0.99z"/>
    <path class="fil1" d="M1070.9 834.84c1.78,4.79 -0.28,0.87 2.9,4.88 7.57,9.56 53.56,53.53 56.09,54.67 46.34,-39.22 26.99,-37.1 -13.4,-78.68 -5.83,-6 -6.81,-6.26 -17.35,-5.3 -7.52,5.49 -8.6,5.99 -14.74,11.94 -4.41,4.29 -8.84,9.87 -13.5,12.49z"/>
    <path class="fil1" d="M676.85 304.46c4.33,7.36 6.78,15.39 19.79,15.52 12.37,0.12 16.28,-6.74 20.29,-15.1 0.78,-14.85 -5.5,-25.43 -20.29,-25.41 -7.24,0.01 -11.93,3.66 -15.27,7.48 -4.72,5.42 -4.8,9.38 -4.52,17.51z"/>
   </g>
  </g>
 </g>
</svg>
