<?xml version="1.0" encoding="UTF-8"?>
<!DOCTYPE svg PUBLIC "-//W3C//DTD SVG 1.1//EN" "http://www.w3.org/Graphics/SVG/1.1/DTD/svg11.dtd">
<!-- Creator: CorelDRAW X6 -->
<svg xmlns="http://www.w3.org/2000/svg" xml:space="preserve" width="21.6765mm" height="21.6765mm" version="1.1" style="shape-rendering:geometricPrecision; text-rendering:geometricPrecision; image-rendering:optimizeQuality; fill-rule:evenodd; clip-rule:evenodd"
viewBox="0 0 115 115"
 xmlns:xlink="http://www.w3.org/1999/xlink">
 <defs>
  <style type="text/css">
   <![CDATA[
    .str1 {stroke:#FEFEFE;stroke-width:0.53126}
    .str0 {stroke:#FEFEFE;stroke-width:2.6563}
    .fil1 {fill:none}
    .fil2 {fill:#FEFEFE}
    .fil0 {fill:#BC0300}
   ]]>
  </style>
 </defs>
 <g id="Layer_x0020_1">
  <metadata id="CorelCorpID_0Corel-Layer"/>
  <circle class="fil0 str0" cx="58" cy="58" r="56"/>
  <g id="_442147136">
   <path class="fil1 str1" d="M26 80c1,1 3,4 4,5 0,1 1,1 2,1 7,6 17,10 27,10 4,0 8,-1 11,-2 1,0 1,0 2,-1 2,-7 1,-15 0,-21 0,0 0,-1 0,-1 0,0 0,0 -1,0 0,0 -1,3 -1,3 1,3 0,4 -1,8 0,1 0,1 -1,1 -1,0 -1,0 -2,0 -2,4 -4,7 -7,10 0,0 -1,1 -1,1 0,0 0,0 0,0l-2 -3c-1,-1 -1,-2 -2,-3 -1,-2 -2,-3 -3,-4 -2,-3 0,-1 -3,-2 -1,0 -1,-1 -1,-2 0,-1 -1,-3 -1,-5 0,-1 0,-2 0,-3 0,-1 0,-2 -1,-3 0,0 -1,1 -1,1 0,0 -1,1 -1,1 -3,2 -4,3 -7,4 -2,1 -9,3 -11,4z"/>
   <path class="fil1 str1" d="M44 46l1 -1c0,0 0,0 0,0l1 -2c1,-1 3,-3 3,-3l3 -2c2,-2 6,-4 9,-6 3,-2 6,-3 9,-4 1,0 2,-1 2,-1 1,0 2,-1 2,-1 0,-3 -3,-5 -6,-5 -2,0 -5,1 -6,2 -1,0 -1,1 -2,1 1,-1 3,-2 4,-3 2,-1 3,-1 5,-1 -1,-1 -5,-2 -6,-2 -5,0 -9,1 -13,3 -2,1 -4,3 -6,5 0,0 -1,1 -1,1 -1,1 -1,1 -2,2 -1,2 -2,3 -3,6 -1,4 0,7 1,10 1,2 1,2 2,3 0,0 1,-1 1,-1 0,0 0,-1 0,-2l1 0z"/>
   <path class="fil1 str1" d="M56 47c-1,0 -2,0 -2,-1 -1,0 -2,0 -2,0 0,0 0,0 0,0 0,0 0,0 0,0 -1,0 -2,0 -3,0 0,0 -1,0 -1,0l-2 0 0 0c0,0 0,0 -1,1 0,0 -1,0 -1,0l0 2 0 0c0,0 1,0 1,0 0,1 0,2 0,2 1,1 1,1 1,2 0,1 1,1 2,1 1,0 2,0 3,0 3,0 4,0 5,-2 2,-2 1,-4 3,-4 1,0 1,2 3,4 1,1 3,2 5,2 2,0 4,0 4,-2 0,0 0,0 0,0l0 0c1,-1 1,-3 1,-4 0,0 0,0 1,0 0,0 0,0 0,0 0,0 0,0 0,0l0 -1c-2,0 -1,0 -2,-1 -1,-1 -1,-1 -1,-2 0,1 1,1 1,2 -3,0 -5,0 -7,0 -2,0 -5,1 -7,1z"/>
   <path class="fil1 str1" d="M58 79c1,0 1,0 1,1 1,1 2,2 3,2 1,1 4,1 5,1 1,0 1,0 1,-1 0,0 0,-1 0,-1 0,-1 0,-2 0,-3 0,-1 -1,-5 -1,-5 -2,0 -5,1 -7,2l-2 2c-1,0 -1,0 -2,0 -1,-1 -2,-2 -3,-3 -1,-1 -4,-1 -5,-1 -1,1 -1,4 -1,5 0,1 0,2 0,3 0,1 0,2 1,2 2,1 6,-1 7,-2l1 -1c0,0 0,0 1,0z"/>
   <path class="fil1 str1" d="M39 26c0,0 -2,1 -4,3 -2,2 -2,3 -3,6 -1,3 -2,7 -4,9l-1 1c0,0 2,2 3,2 0,-3 0,-5 1,-8 0,2 -1,4 -1,7 0,2 0,5 1,7 1,2 1,4 2,4 1,0 1,0 1,0 1,-1 2,-3 4,-4 0,0 -2,-1 -3,-4 -1,-2 -1,-4 -1,-6 0,0 0,2 0,2 0,1 1,5 2,6 1,-1 1,-5 0,-7 -3,-5 -4,-12 0,-16 1,-1 1,-2 2,-2 0,0 -1,0 -1,0z"/>
   <path class="fil1 str1" d="M70 65c0,0 3,12 3,13 1,5 2,9 3,14l2 -1c0,-2 -2,-7 -3,-9 -1,-1 -1,-3 -2,-5 0,-1 -1,-3 -2,-5l4 9c1,2 3,7 4,9 0,0 1,-1 2,-1 0,-2 0,-7 -1,-9 -1,-5 -4,-7 -7,-13l-2 -5c0,0 0,-1 -1,-2 0,0 0,2 0,3 0,1 -1,0 0,2z"/>
   <path class="fil1 str1" d="M52 59c0,0 -1,1 -1,1 -1,1 -2,-1 -2,-2 0,0 1,0 1,-1 -1,0 -2,0 -2,1 -1,1 0,1 0,2 0,0 0,0 1,0 0,1 0,1 0,1 0,0 0,0 0,0l0 0c1,0 2,0 3,0l2 0c1,-1 1,0 2,0 1,0 1,-1 2,-1 3,2 3,1 3,1 0,0 1,0 1,0 1,0 1,0 2,0 1,0 2,0 3,0 1,0 1,-1 1,-2 0,0 0,0 1,0 0,-1 1,-2 0,-2 0,0 -1,-1 -2,0 3,1 1,2 0,2 -1,0 -2,-1 -2,-1 0,0 0,0 -1,0 -1,0 -2,-1 -3,-1 -1,0 -1,0 -2,0 -1,0 0,0 -1,0 -3,-1 -4,1 -6,1z"/>
   <path class="fil1 str1" d="M63 38c1,2 3,3 5,5 0,0 1,1 1,1 1,1 2,1 2,2 0,0 1,0 2,1 0,1 -1,1 1,2 1,0 2,-1 3,-2 1,-1 0,-2 0,-3 -1,-1 -2,-2 -3,-3 0,0 -1,-1 -1,-1 -3,-2 -5,-3 -9,-2z"/>
   <path class="fil1 str1" d="M84 87l1 -1c0,0 0,-1 0,-2 0,-3 -1,-6 -3,-9 -1,-1 -1,-1 -2,-2 0,0 -1,-1 -1,-1l-2 -2c0,0 -1,-1 -1,-1 0,0 -2,-1 -2,-2 0,1 4,7 6,9 1,2 2,5 3,8 0,1 1,3 1,3z"/>
   <path class="fil1 str1" d="M36 34c0,2 0,4 1,6 1,2 1,4 2,5 0,-1 -1,-2 -1,-3 0,-4 1,-7 3,-10 4,-6 8,-8 9,-9 -1,0 -3,2 -4,2 -1,1 -3,2 -4,2 0,0 -1,0 -1,1l-2 2c-1,1 -1,2 -2,3 0,0 0,0 0,1l0 0z"/>
   <path class="fil1 str1" d="M44 46c2,0 1,0 2,-1 1,-1 1,-1 2,-2 1,-1 1,-1 2,-2 1,-1 4,-4 5,-4 1,-1 2,-2 4,-3 4,-3 8,-4 13,-6l3 -1c1,0 1,0 1,-1 -1,0 -2,0 -2,1 -1,0 -2,1 -2,1 -3,1 -6,2 -9,4 -3,1 -6,4 -9,6l-3 2c-1,1 -2,2 -3,3l-1 2c0,0 0,0 0,0l-1 1z"/>
   <path class="fil1 str1" d="M73 40c1,0 3,0 4,1l0 0c0,-1 -1,-1 -1,-2 -1,-1 -2,-2 -3,-3 0,-1 -1,-1 -1,-2 0,0 -1,-1 -1,-1 0,0 -1,-1 -2,-1l-4 1c1,0 1,1 2,1 3,2 2,2 5,4 0,0 1,0 1,1z"/>
   <path class="fil1 str1" d="M72 62c0,0 2,3 3,5 0,0 1,1 1,1 1,1 2,2 3,3l2 2c0,0 0,0 0,0 0,-2 -1,-2 -3,-3 -1,-1 -1,-3 -2,-4 -1,-2 -2,-2 -3,-3 -1,0 -3,-2 -4,-2l1 3z"/>
   <path class="fil1 str1" d="M68 54c2,-1 3,-6 1,-7 -1,-1 -4,-1 -5,0 -1,0 -2,0 -2,1 -1,0 -1,1 -1,2 0,2 1,4 3,4 1,0 3,1 3,0 1,0 1,0 1,0z"/>
   <path class="fil1 str1" d="M53 54c1,0 1,0 1,-1 0,0 1,-1 1,-1 0,-1 1,-3 1,-3 -1,-2 -5,-2 -6,-2l-2 0c-2,0 -2,4 -1,5 0,1 1,2 2,2 1,0 3,0 3,0 1,0 1,0 2,0z"/>
   <path class="fil1 str1" d="M71 94l3 -1c0,0 0,0 0,0 0,-2 -2,-11 -2,-13l-1 -3c0,0 0,0 0,-1 0,0 0,0 0,0l0 0c0,2 0,3 1,5 0,2 0,3 0,5 0,2 0,5 -1,7 0,1 0,1 -1,2z"/>
   <path class="fil1 str1" d="M72 34l3 1c1,0 2,1 3,1 0,0 1,1 1,1 0,-1 -2,-4 -3,-4 -1,-1 -3,-3 -4,-3 -2,2 -1,1 -3,2l0 0c0,0 1,0 1,1 0,0 1,0 1,1z"/>
   <path class="fil1 str1" d="M86 85c0,0 0,0 0,0 0,0 0,0 0,0l2 -2c0,-1 2,-2 2,-3 -1,0 -4,-2 -6,-3 0,1 1,2 1,3 0,1 0,3 0,4z"/>
   <path class="fil1 str1" d="M71 49c0,0 0,1 0,2 0,1 0,1 -1,2 0,1 -1,2 -1,4 0,0 0,0 0,0 0,0 0,1 1,1 1,0 1,0 1,-1l0 0c0,0 -1,0 -1,0 0,-1 0,0 1,0 0,-1 1,-1 1,-4 0,-3 -1,-3 -1,-4 0,0 0,0 0,0 0,0 0,0 0,0 0,0 -1,0 -1,0z"/>
   <path class="fil1 str1" d="M44 55c0,0 0,0 1,0 0,1 0,0 0,0 0,0 0,0 -1,0 0,1 0,1 1,1 1,0 1,0 1,0l0 1c0,-1 0,-2 0,-3 0,-1 -1,-2 -1,-3 -1,-1 0,-2 0,-2 0,0 -1,0 -1,0l0 0c0,0 -1,1 -1,1 -1,1 0,3 0,4 0,1 1,1 1,2z"/>
   <path class="fil1 str1" d="M66 55l0 0c0,0 0,0 0,0 0,0 0,0 -1,0l1 0 0 3c0,0 0,0 0,0 0,0 0,0 0,0l0 1c0,0 -1,0 -1,0l-1 0c0,0 0,0 1,0 1,0 2,1 2,1 1,0 2,-2 0,-2 0,0 2,0 2,0 0,0 2,-4 2,-5 0,1 -2,2 -4,2z"/>
   <path class="fil1 str1" d="M47 21c1,0 2,-1 3,-1 3,-1 5,-1 6,-1 1,0 1,0 2,0 2,0 3,0 5,0 0,0 0,0 0,0 -1,0 -3,-1 -4,-1 -3,0 -6,0 -9,2 -1,0 -3,2 -3,2z"/>
   <path class="fil1 str1" d="M61 71c3,-1 5,-2 7,-4 2,-2 1,-2 2,-5 -1,1 -2,1 -3,2 0,1 0,0 -1,1l-2 3c0,0 0,0 0,1l-1 1c0,0 0,0 -1,0z"/>
   <path class="fil1 str1" d="M55 71c0,0 -1,0 -1,-1l-1 -2c0,0 0,0 0,-1 0,0 0,0 0,-1l-1 -1c0,0 0,0 0,0 -1,-1 -2,-2 -3,-3 0,2 -1,2 1,3 2,2 4,4 7,5z"/>
   <path class="fil1 str1" d="M79 38c0,0 -1,-1 -1,-1 -1,-1 -2,-1 -3,-1l-3 -1c0,0 0,0 0,0 0,0 1,1 1,1 1,2 1,1 2,3 2,1 2,2 2,3 1,0 2,-2 1,-3z"/>
   <path class="fil1 str1" d="M26 43l1 -1c2,-2 4,-6 4,-9 1,-3 1,-4 3,-6 2,-2 4,-2 4,-3 -2,1 -3,2 -5,3 -1,1 -2,3 -3,5 0,2 -1,4 -2,6 -1,2 -1,2 -2,3 0,0 -1,1 -1,1 0,0 1,1 1,1z"/>
   <path class="fil1 str1" d="M77 30c0,0 -1,-1 -1,-1 0,0 -1,-1 -1,-1l-2 2 2 1c1,0 1,1 1,1 2,1 2,3 3,3 0,-1 0,-3 -1,-4l-1 -1z"/>
   <path class="fil1 str1" d="M54 63c1,1 0,1 2,1 1,0 4,0 5,0 1,0 1,-1 2,-1 0,0 -1,0 -1,0 -1,0 0,1 -3,-1 -1,0 -1,1 -2,1 -1,0 -1,0 -2,0z"/>
   <path class="fil1 str1" d="M62 37c1,0 1,0 2,0 1,0 2,0 3,0 1,0 3,1 4,2 -1,-2 -4,-3 -5,-4 -1,0 -1,0 -1,0 -1,0 -2,1 -3,1l1 1z"/>
   <path class="fil1 str1" d="M78 41l0 0c-2,-1 -3,-1 -4,-1 1,1 2,1 3,3 0,0 1,1 1,1 2,0 2,-3 1,-3z"/>
   <path class="fil1 str1" d="M35 26c1,0 3,-3 6,-3 1,0 1,-1 2,-2 0,0 1,-1 1,-1 -3,0 -6,1 -8,4 0,0 -1,1 -1,2z"/>
   <path class="fil1 str1" d="M58 45c1,0 1,0 1,-1 0,-1 0,-5 -1,-6 0,0 -1,3 -1,4 0,1 0,1 0,2 0,1 0,1 1,1z"/>
   <path class="fil1 str1" d="M67 71l1 0c0,0 0,1 1,2l0 0c0,-1 1,-3 1,-4l0 -2c0,0 -1,2 -1,2 0,1 -1,2 -1,3z"/>
   <path class="fil1 str1" d="M62 37c0,0 0,1 1,1 4,-1 6,0 9,2 0,0 -1,-1 -1,-1 -1,-1 -2,-2 -4,-2 -1,0 -2,0 -3,0 -1,0 -2,0 -2,0z"/>
   <path class="fil1 str1" d="M55 38c2,1 4,-1 5,-1 2,-1 3,-1 4,-2 -1,0 -8,3 -9,4z"/>
   <path class="fil2 str1" d="M73 56c0,0 1,1 1,1 0,1 -1,1 -1,1 -1,0 -2,-1 -2,-2 0,0 0,0 0,0l0 3c0,0 1,1 2,1 2,0 2,-1 2,-3 0,-1 -1,-1 -1,-1 0,0 -1,0 -1,0 0,0 0,0 1,0z"/>
   <path class="fil2 str1" d="M44 55c-2,0 -2,4 1,4 1,0 1,0 2,-1 0,0 0,0 0,0 0,0 0,0 0,0 0,0 0,-1 0,-1 0,1 0,1 -1,1 -1,0 -1,0 -2,0 0,0 -1,-1 -1,-1 0,-1 0,-1 1,-1 0,0 1,0 1,0 0,0 0,0 0,0 0,0 0,0 -1,0z"/>
   <path class="fil1 str1" d="M71 56c-1,1 0,2 2,2 1,0 1,0 1,-1 0,-1 0,-1 -1,-1l0 0c0,0 0,1 -1,1 -1,0 -1,0 -1,-1z"/>
   <path class="fil1 str1" d="M57 75c1,0 1,0 2,0 0,0 -1,-1 -1,-1 0,0 -1,1 -1,1z"/>
   <path class="fil1 str1" d="M77 30c0,0 0,-1 0,-2 0,-1 -1,-1 -1,-1l0 0c0,0 2,1 2,2z"/>
   <path class="fil1 str1" d="M48 46c1,0 2,0 3,0 0,0 0,0 0,0 -1,0 -2,0 -2,0z"/>
  </g>
 </g>
</svg>
