<?xml version="1.0" encoding="UTF-8"?>
<!DOCTYPE svg PUBLIC "-//W3C//DTD SVG 1.1//EN" "http://www.w3.org/Graphics/SVG/1.1/DTD/svg11.dtd">
<!-- Creator: CorelDRAW X6 -->
<svg xmlns="http://www.w3.org/2000/svg" xml:space="preserve" width="21.6765mm" height="21.6765mm" version="1.1" style="shape-rendering:geometricPrecision; text-rendering:geometricPrecision; image-rendering:optimizeQuality; fill-rule:evenodd; clip-rule:evenodd"
viewBox="0 0 86 86"
 xmlns:xlink="http://www.w3.org/1999/xlink">
 <defs>
  <style type="text/css">
   <![CDATA[
    .str0 {stroke:#FEFEFE;stroke-width:1.99207}
    .fil0 {fill:#BC0300}
    .fil1 {fill:#FEFEFE;fill-rule:nonzero}
   ]]>
  </style>
 </defs>
 <g id="Layer_x0020_1">
  <metadata id="CorelCorpID_0Corel-Layer"/>
  <g id="_442285496">
   <circle class="fil0 str0" cx="43" cy="43" r="42"/>
   <g>
    <path class="fil1" d="M42 31c0,1 0,1 0,1l0 0 0 0c0,0 0,0 0,-1 0,0 0,0 1,0 0,0 0,0 0,0 0,0 0,0 0,0 0,0 0,0 0,-1l-2 1zm0 1c0,0 -1,0 -1,-1l0 0 0 0 2 -1 0 0 0 0c0,1 0,1 0,1 0,0 0,0 0,0l0 0 0 0c0,0 0,0 0,0l0 0c0,0 0,0 0,0 0,0 0,0 0,0 0,0 0,0 0,0l0 0c0,0 0,0 0,0l0 0c0,0 0,0 0,0l0 0 0 0c0,0 0,0 0,0l0 0z"/>
    <path class="fil1" d="M35 30l0 0 0 0 0 0 3 -1 0 0 0 0c0,1 0,1 0,1 0,0 0,1 -1,1l0 0 0 0c0,0 0,0 0,0l0 0c0,0 0,0 0,0l0 0c0,0 0,0 -1,0 0,0 0,0 0,0 0,0 0,0 0,0l0 0 0 0 0 0 0 0c-1,0 -1,0 -1,-1 0,0 -1,-1 0,-1l0 0zm0 0c0,0 0,1 0,1 0,0 1,0 1,0 0,0 0,0 0,0l0 0c0,0 0,0 0,-1l0 0 0 0c1,0 1,0 1,0l0 0c0,0 0,0 0,0l0 0c0,0 0,-1 0,-1 0,0 0,-1 0,-1l-3 1z"/>
    <path class="fil1" d="M39 69c0,0 1,0 1,-1 0,0 0,0 0,0 0,0 1,-1 2,-2 0,0 1,-1 1,-1l0 0 1 -2 0 0c0,0 0,0 0,0 0,0 0,0 0,0 0,0 0,0 -1,0 0,0 0,0 -1,0l0 0 0 0 0 0c0,0 0,0 1,0 0,0 1,0 1,-1l0 0 1 -1c0,0 0,-1 1,-1 0,-1 1,-1 1,-2l-2 0 0 0c0,0 -1,0 -1,0 0,0 -1,0 -1,0 0,0 -1,0 -1,0 0,0 -1,0 -1,0l0 0 0 0 0 0c0,0 -1,0 -1,1 0,0 -1,1 -1,2 0,1 0,1 0,2l0 0 0 0c1,1 1,1 2,1 0,0 0,0 1,0l0 0 0 0c0,0 0,0 0,0 0,0 -1,0 -1,0 -1,0 -1,0 -2,0 0,0 0,0 0,0l0 0c0,0 0,0 0,-1l0 0c0,0 0,0 0,0 0,1 -1,1 0,2l0 0c0,0 0,0 0,0l0 0c0,0 0,0 0,0l0 0c0,0 0,0 1,1 0,0 0,0 1,0zm1 -1c0,0 -1,1 -1,1l0 0 0 0c0,0 -1,0 -1,0 0,0 -1,0 -1,-1l0 0 0 0 0 0 0 0 0 0c0,0 0,0 0,0l0 0c0,0 0,0 0,0 0,-1 0,-2 0,-2 0,0 0,-1 0,-1l0 0 0 0c0,0 0,0 0,0 0,0 0,0 0,1l0 0c0,0 0,0 0,0 0,0 1,0 2,0 0,0 1,0 1,0l0 0c-1,0 -2,0 -3,-1l0 0 0 0 0 0 0 0 0 -1 0 0 0 0c0,-1 0,-1 0,-2 0,-1 1,-1 1,-2 0,0 1,-1 1,-1l0 0 0 0 0 0c0,0 0,0 1,0 0,0 1,0 1,0 0,0 1,0 1,0 0,0 1,0 1,0l2 0 0 0 0 0c0,0 -1,1 -1,2 0,0 0,1 -1,1l0 0 0 0 -1 1 0 0c0,0 -1,0 -1,1 0,0 0,0 1,0 0,0 0,0 1,0l0 0 0 0 0 0c0,0 0,0 0,0 0,0 0,0 0,0l1 -1 -1 1c0,0 0,0 0,0 0,0 0,1 0,1 0,0 0,0 0,0l0 0 0 0 -1 2c0,0 0,1 -1,1 -1,1 -1,2 -1,2l0 0 0 0c0,0 0,0 0,0z"/>
    <path class="fil1" d="M32 55l6 0 0 0 0 0c0,0 0,0 0,0 0,0 0,0 0,0l0 0 0 0 0 0 0 0c0,0 -1,0 -1,-1 0,0 0,-1 0,-1l0 0 0 0 0 0 0 0 0 0 0 0c0,0 0,0 0,0l0 0c0,0 -1,0 -1,0 -1,0 -2,0 -2,0l0 0c-1,0 -2,0 -2,0 -1,0 -1,0 -1,0 0,0 0,0 -1,0 0,0 0,0 0,0l0 0c0,0 0,0 0,0l0 0 0 0 0 0 0 0 0 0c0,-1 0,-1 0,-2l0 0c0,-1 0,-1 0,-2 0,-1 0,-1 0,-2 0,-1 0,-1 0,-2 0,-1 0,-1 0,-1l0 0c0,0 0,0 1,0l0 0 0 0c0,0 0,0 0,0l0 0c0,0 0,0 0,0l0 0c0,0 0,0 0,0 0,0 0,0 0,0l0 0c0,0 0,0 0,0l0 0 0 0c0,0 0,1 -1,2 0,1 0,3 0,4 0,1 0,3 0,4 0,1 0,2 1,2 0,0 2,0 3,0l0 0 0 0 0 0 0 0 0 0 0 0zm7 0l-7 0 0 0 0 0 0 0 0 0 0 0 0 0 0 0 0 0c-1,0 -3,0 -3,0 0,0 0,-1 -1,-2 0,-1 0,-3 0,-4 0,-1 0,-3 0,-4 0,-1 0,-2 1,-2l0 0 0 0 0 0 0 0 0 0 0 0 0 0c0,0 0,0 1,0l0 0c0,0 0,0 0,0 0,0 0,0 0,0l0 0c0,0 0,0 0,1l0 0 0 0c0,0 0,0 0,0 0,0 0,0 0,0l0 0c0,0 0,0 0,0l0 0c0,0 0,0 0,1l0 0c0,1 0,1 0,2 0,1 0,1 0,2 0,1 0,1 0,2l0 0c0,1 0,1 0,2l0 0 0 0 0 0 0 0 0 0c0,-1 0,-1 0,-2 0,-1 0,-1 0,-2 0,-1 0,-1 0,-2 0,-1 0,-1 0,-2l0 0 0 0c0,0 0,-1 0,-1 0,0 0,0 0,0l0 0c0,0 0,0 0,0l0 0c0,0 0,0 0,0l0 0 0 0c0,0 0,0 0,-1 0,0 0,0 0,0 0,0 0,0 -1,0l0 0c0,0 0,0 -1,0l0 0 0 0 0 0 0 0 0 0 0 0 0 0 0 0c0,0 0,1 -1,2 0,1 0,3 0,4 0,2 0,3 0,4 0,1 0,2 1,2 0,0 1,0 1,0 1,0 1,0 2,0l0 0 0 0 0 0c0,0 0,0 1,0l0 0 0 0 7 0 0 0 0 0 0 0c0,0 0,0 0,0 0,0 0,0 0,0l0 0c0,0 0,0 0,0 0,0 0,0 0,0l0 0 0 0c0,0 0,0 0,0l0 0 0 0 0 0 0 0c0,0 -1,-1 0,-2l0 0 0 0 0 0 0 0c0,0 0,0 0,0l0 0 0 0 0 0c0,0 0,0 0,0 0,0 0,0 0,0l0 0 0 0c0,0 -1,0 -2,0 -1,0 -2,0 -3,0 -1,0 -2,0 -2,0 -1,0 -1,0 -1,0 0,0 -1,0 -1,0 0,0 0,0 0,0l0 0 0 0 0 0c0,0 0,0 0,0l0 0c0,0 0,0 0,0l0 0c0,0 0,0 0,0 0,0 0,0 1,0 0,0 1,0 1,0 1,0 2,0 2,0 1,0 2,0 2,0 1,0 1,0 2,0l0 0 0 0c0,0 0,0 0,0 0,0 0,0 0,0l0 0 0 0c0,0 0,0 0,0l0 0 0 0 0 0 0 0 0 0c0,1 0,1 0,1 0,0 0,0 1,1l0 0 0 0 0 0 0 0c0,0 0,0 0,0l0 0c0,0 0,0 0,0 0,0 0,0 0,0l0 0c0,0 0,0 0,0l0 0 0 0zm-9 -2l0 0m0 0l0 0m9 2l-7 0 0 0 0 0 0 0 0 0c0,0 0,0 0,0l0 0 0 0 0 0c-1,0 -1,0 -2,0 -1,0 -1,0 -1,0 0,0 -1,-1 -1,-2 0,-1 0,-3 0,-4 0,-2 0,-3 0,-4 0,-1 0,-2 1,-2l0 0 0 0 0 0 0 0 0 0 0 0 0 0 0 -1 0 0 0 1 0 0c0,0 0,0 1,0l0 0c0,0 0,0 1,0 0,0 0,0 0,1 0,0 0,0 0,1l0 0 0 0 0 0 0 0c0,0 0,0 0,0l0 0c0,0 0,0 0,0 0,0 0,0 0,0 0,0 0,0 0,1l0 0 0 0c0,1 0,1 0,2 0,1 0,1 0,2 0,1 0,1 0,2 0,1 0,1 0,2 0,0 0,0 0,0 0,0 0,0 1,0 0,0 1,0 2,0 1,0 2,0 2,0l0 0c1,0 2,0 3,0 1,0 1,0 2,0l0 0 0 0 0 0 0 0c0,0 0,0 0,0 0,0 0,0 0,0l0 0 0 0 0 0 0 0 0 0 0 0 0 0c0,1 0,1 0,1l0 0 0 0 0 0c0,0 0,0 0,0l0 0 0 0 0 0 0 0 0 0c0,0 0,0 0,0 0,0 0,0 0,0l0 0c0,0 0,0 0,0 0,0 0,0 0,0l0 0 0 0 0 0 0 0zm-10 -13l0 0"/>
    <path class="fil1" d="M40 30l0 2c0,0 1,0 1,0 0,0 1,0 1,0l0 0c0,0 0,0 1,1 0,0 0,1 0,1 0,0 0,0 1,0 0,0 0,0 1,0l0 0c0,0 0,0 0,0l0 0c0,0 1,0 1,0l0 0c0,0 0,0 0,0 0,0 0,0 0,0l0 0c0,0 0,0 0,0l0 0 0 0 0 0 0 0 0 0 0 0 0 0 0 0 0 0 0 0 0 0c0,0 0,0 0,0 0,0 0,0 0,0l0 0c0,0 0,0 0,0l0 0c0,0 0,0 0,0 0,0 0,0 0,0l0 0c0,0 0,0 0,0l0 0c0,0 0,0 0,0 0,0 0,0 0,0l0 0 0 0 0 0c0,0 0,0 0,0l0 0 0 0 0 0 0 0 0 0c0,0 0,0 0,0 0,0 0,0 0,0l0 0c0,0 0,0 0,0 0,0 0,0 0,0 0,0 0,1 0,1l0 0c0,0 0,1 -1,1 0,0 -1,1 -1,1 0,0 -1,0 -1,1 -1,0 -2,0 -3,1 -1,0 -2,0 -3,0l0 0 0 0 0 1c0,0 0,0 0,0 0,0 0,0 1,0 0,0 0,0 1,0 0,0 0,0 1,0l0 0 0 0 0 0 0 0 0 0c0,0 0,1 0,1l0 1 0 0c0,1 0,2 0,3 0,1 0,2 0,2 0,0 0,0 0,0l0 0 0 0 0 0 0 0 0 0c0,0 0,0 0,0l0 0c0,0 0,0 0,0 1,0 1,0 1,0 0,0 0,-1 1,-1l5 -11 0 0 0 0 0 0 0 0c1,0 3,0 4,0 1,0 3,0 4,0l0 0 0 0c2,0 4,0 6,0 1,0 1,0 1,0l0 0c0,0 0,0 0,0l0 0 0 0 0 0 0 0 0 0c0,0 -1,1 -1,2 -1,1 -1,2 -2,4l0 0c-1,1 -1,2 -1,2 -1,1 -1,2 -2,3l0 0 -1 1 0 0 0 0 0 0 0 0 0 0 0 0 -5 4c0,1 0,1 -1,2 0,1 -1,1 -1,2l0 0 0 0 0 0 1 0c1,0 1,0 2,0 1,0 1,0 2,0l0 0 0 0 0 0 0 0 0 0 0 2 0 0 0 0 0 0 0 0 0 0 -6 0 0 0 0 0 0 0c0,0 0,0 -1,0 0,0 0,0 -1,0l0 0c0,0 0,0 0,0 0,0 0,0 0,0 0,0 0,0 0,0l0 0 0 0 0 0c0,0 0,0 0,0l0 0 0 0 0 0 0 0 0 0 0 0 0 0c0,0 0,0 -1,1 0,0 0,0 0,0l0 0 0 0 0 0 0 0 0 0c0,0 0,0 0,0 0,0 -1,1 -1,1 0,0 -1,1 -1,1 0,0 -1,1 -1,1 0,0 -1,0 -1,0 0,0 0,0 0,0l0 0 0 0 0 0c0,0 0,0 -1,1 0,0 0,0 -1,0 0,1 -1,2 -1,2l0 0 0 0 0 0c0,0 0,0 0,0 0,0 0,0 0,0l0 0 0 0c0,0 0,0 0,0l0 0c0,0 0,0 0,0l0 0m0 0l0 0 0 0c0,0 0,0 0,0 0,0 0,0 0,0 0,0 1,0 1,1 0,0 1,0 1,0l0 0c0,0 1,0 1,0 0,0 0,0 1,0l0 0 0 0 0 0 0 0 0 0 0 0 0 0c0,0 0,1 0,1l0 0c0,0 0,1 -1,1 0,0 0,0 -1,0 0,0 -1,0 -1,0 0,0 -1,0 -1,0 0,0 -1,0 -1,0 -1,0 -2,-1 -3,-1 -1,0 -2,-1 -2,-1l0 0 0 0 0 0 0 0c0,0 0,0 0,-1l0 0 0 0c0,0 0,0 0,0 0,0 0,0 0,0 0,0 0,0 0,-1l0 0 0 0c0,0 0,-1 0,-1 0,0 0,-1 0,-2 0,0 0,-1 0,-1 0,0 0,-1 0,-1 0,0 0,-1 0,-1 0,0 0,0 0,0 0,0 0,0 0,0 0,0 0,0 0,0l0 0 0 0 0 0c0,0 0,-1 0,-1 0,0 0,0 0,-1 0,0 0,0 0,-1l0 0c0,0 0,0 0,0l0 0c0,0 -1,0 -1,0 -1,0 -1,0 -2,0l0 0c-1,0 -1,0 -2,0l0 0 0 0 0 0c-1,0 -2,0 -2,-1 -1,0 -1,-1 -2,-1 -1,0 -1,-1 -2,-1 -1,0 -1,-1 -2,0l0 0 -1 0 0 0 0 0 2 -2c0,0 0,0 0,-1 0,0 0,-1 0,-1 0,-1 0,-1 0,-2 0,-1 0,-1 0,-1 0,-1 0,-2 0,-3 0,-1 0,-2 1,-3 0,-1 1,-2 1,-3l0 0c0,-1 1,-2 1,-3l0 0 0 0 0 0 0 0c0,0 0,-1 0,-1 0,0 0,0 0,0 0,0 0,0 1,0 0,0 0,0 1,0l0 0c0,0 1,0 1,0 0,0 1,0 1,0 0,0 1,0 1,0 0,0 0,0 1,0l0 -1c0,0 0,0 -1,-1 0,0 0,-1 -1,-1l0 0 0 0c0,0 0,-1 0,-1 0,0 0,-1 0,-1l0 -1c0,0 0,0 0,0 0,0 0,0 0,0 0,0 -1,0 -1,0 0,0 -1,0 -1,0l0 0 0 0c0,0 0,0 0,0l0 0 -1 2 1 -2 0 0c0,0 0,0 0,0l0 0c0,0 0,0 0,0 0,0 0,0 0,0l0 0c0,0 0,0 0,0 0,0 0,0 -1,0 0,0 0,0 -1,0l0 0c0,0 0,0 0,0 0,0 0,0 0,0l0 0 0 0 0 0 0 0 0 0 0 0c0,0 0,0 0,0 0,0 0,0 0,-1l0 0c0,0 0,-1 0,-1 0,0 0,-1 0,-1 0,0 0,-1 0,-1 0,0 0,-1 0,-1l0 0c0,0 0,-1 0,-1 0,0 0,-1 0,-1 0,0 0,-1 0,-1 0,0 0,-1 0,-1 1,-1 1,-2 1,-2l0 0 0 0c0,0 1,-1 1,-1l0 0c0,-1 1,-1 1,-2 0,-1 1,-1 1,-2l0 0c1,0 1,-1 2,-1 1,0 1,-1 2,-1 0,0 1,0 1,0 0,0 1,0 1,0l0 0 0 0c1,0 1,0 2,-1 1,-1 3,-1 4,-1 1,0 3,0 4,0 1,0 2,1 3,1 1,1 2,1 2,2l0 0 0 0c0,0 0,0 0,0l0 0 0 0 0 0 0 0c0,0 0,0 0,0 0,0 0,0 0,0 0,0 1,1 1,1 0,0 1,1 1,1 0,0 0,1 0,1 0,0 0,1 0,2 0,0 0,1 0,1l0 0 0 0c0,0 0,0 0,0 0,0 0,0 0,1 1,1 1,2 1,3 0,1 0,2 -1,2 0,0 0,0 0,1 0,0 0,0 0,0 0,0 0,0 0,1 0,0 0,0 0,1 0,0 0,0 0,1 0,0 0,0 0,1 0,0 0,1 0,1l0 0c0,0 0,0 0,1 0,0 0,0 -1,1l0 0c0,0 0,0 -1,0 0,0 0,0 -1,1l0 0 0 0 0 0c-1,1 -1,2 -4,2l0 0 0 0 0 0 0 0c1,-2 2,-3 2,-5 0,-1 0,-3 0,-4 0,0 -1,-1 -1,-1 0,0 -1,-1 -2,-1l0 0c0,0 0,0 -1,0l0 0 0 0 0 0c0,0 0,0 0,0l0 0 0 0 0 0 0 0 2 4 0 0 0 1 0 1 -1 -1 0 0 0 0c0,0 0,0 -1,-1l0 0c0,0 0,-1 -1,-1l0 0 0 0c0,0 0,-1 -1,-1 0,0 0,0 0,-1 0,0 0,0 0,0l0 0c0,0 0,0 -1,0 0,0 -1,0 -1,1 -1,0 -1,1 -1,1l0 0 0 0 0 0 0 0 0 0 0 0 0 0c0,0 0,0 -1,0l0 1 0 0 0 0 0 0 0 0c0,0 0,0 -1,0l0 0c0,0 0,0 0,0 0,0 0,0 0,0 0,0 0,0 0,0l0 0c0,0 -1,0 -1,0 0,0 0,0 -1,0 0,0 0,0 -1,1l0 0c0,0 0,0 -1,1 0,0 0,1 -1,1 0,0 0,1 0,1 0,0 0,1 0,1 0,0 0,1 0,1 0,0 1,0 1,0 0,0 1,0 1,0l0 0 0 0 0 0c0,0 0,0 1,0l0 0 0 0c1,0 2,0 3,-1l0 0 0 0 0 0c0,0 0,0 0,0 0,0 0,0 0,0 0,0 0,0 1,0 0,0 0,0 1,0l0 0 0 0c0,0 0,0 0,0l0 0c0,0 0,0 0,0l0 0c0,0 0,0 0,0 0,0 0,0 -1,0l0 0 0 0 0 0c0,0 0,0 0,0l0 0 0 0 0 0 0 0 0 -3 0 0 0 0 0 0 0 0 0 0m-2 44l0 0m12 -63l0 0m0 19l0 0m-13 3l0 0m5 17c0,0 0,0 -1,0l0 0c0,0 0,0 0,0l0 0c0,0 0,0 0,0zm1 -1c-1,0 -1,0 -1,0 0,0 1,0 1,0zm0 -29c0,0 0,0 -1,0 -1,0 -1,0 -2,0 -2,0 -4,1 -6,3 -1,1 -2,2 -3,4 0,0 0,0 1,0 0,0 0,0 0,0 0,0 0,0 0,0 0,0 0,0 0,0l0 0 0 0 0 0c0,0 0,0 0,0 0,0 0,0 0,0l0 0c0,0 0,0 1,0 0,0 0,0 1,0l0 0 0 0 0 0c0,0 1,-1 2,-1 1,0 2,-1 2,-1 1,0 2,-1 3,-1 1,0 2,-1 2,-1zm-13 7c0,0 0,1 0,1 0,0 0,0 0,0 0,0 0,-1 0,-1zm8 5c-1,0 -1,0 -1,0l1 0c0,0 1,0 1,0zm2 0c0,0 0,0 0,0 0,0 0,0 0,0l0 0c0,0 0,0 0,0 0,0 0,0 0,0zm1 0c0,0 0,0 -1,0 0,0 0,0 0,0l0 0 0 0 0 0 0 0c0,0 0,0 0,0 0,0 0,0 0,0l0 0 0 0 0 0 0 0c-1,0 -1,0 -2,0 0,0 -1,0 -1,0l0 0c0,0 -1,0 -1,0 0,0 0,0 0,0l0 0c0,0 0,0 0,0 0,0 -1,0 -1,0 0,0 -1,0 -1,0l0 0 0 0 0 0 0 0c0,0 0,0 0,0l0 0c0,0 0,0 -1,0 0,0 0,0 0,0l0 0 0 0 0 0c0,0 0,0 0,1l0 0c0,0 1,0 1,1 0,0 1,0 1,0 1,0 1,0 2,0l0 0 0 0 0 0 0 0 0 0 0 0c0,0 0,0 0,0 0,0 0,0 0,0 0,0 0,0 1,0 0,0 0,0 1,0l0 0 0 0 0 0c1,0 1,0 1,-1l0 0 0 0 0 0c0,0 0,0 0,0 0,0 0,0 1,0 0,0 1,0 2,0 0,0 1,0 1,0 0,0 1,0 1,0 0,0 0,0 1,0l0 0c0,0 0,0 0,0l0 0c0,0 0,0 0,0 0,0 0,0 0,0 0,0 -1,0 -1,0 0,0 0,0 0,0l0 0 0 0 0 0 0 0c0,0 -1,0 -2,-1zm-9 0c0,0 0,-1 0,-1 0,0 0,-1 0,-1 0,0 0,-1 0,-1 0,0 0,-1 1,-1 0,0 0,-1 1,-1 0,0 0,0 1,-1l0 0c0,0 0,0 1,0l0 0c0,0 1,0 1,0l0 0c0,0 0,0 1,0l0 0 0 0 0 0c0,0 0,0 0,0 0,0 0,0 0,0l0 -1 0 0 0 0 0 0 0 0c0,0 0,0 1,0l0 0 0 0 0 0 0 0 0 0 0 0 0 0 0 0c0,0 0,0 0,0l0 0c0,0 1,0 1,-1 0,0 1,0 1,-1 0,0 1,0 1,0 0,0 0,0 1,0l0 0 0 0 0 0 0 0c0,0 0,0 0,1 0,0 0,0 0,1l-1 -2 0 0 0 0 0 0c-1,0 -1,1 -2,1 -1,0 -2,1 -3,1 -1,0 -2,1 -2,1 -1,0 -1,1 -2,1l0 0 0 0 0 0c0,0 0,0 -1,0 0,0 0,0 -1,0 0,0 0,0 0,0l0 0c0,0 0,0 0,0l0 0c0,0 0,0 0,0l0 0c0,0 0,0 0,0 0,0 0,0 0,0 0,0 0,0 0,1l0 0 0 0 0 0 0 0c0,0 0,0 -1,0l0 0c0,0 0,0 0,0 0,0 0,0 0,0 0,0 0,0 0,0l-1 1c0,0 0,0 0,0 0,0 0,0 0,0l0 0c0,0 0,0 1,0 0,0 1,0 1,0l0 0 0 0 0 -1 0 1 0 0c0,0 0,0 1,0l0 0 0 0 0 0c0,0 1,0 1,0zm-4 -3l0 0 0 0c1,-3 3,-5 4,-6 2,-2 5,-3 7,-3 1,0 2,0 2,0 1,0 1,0 2,0l0 0c1,0 1,1 2,1 1,0 1,1 1,1 1,1 1,2 1,4 0,1 -1,3 -2,5 1,0 2,0 2,0l0 0c0,0 1,-1 1,-1 0,0 0,0 0,0l0 0c0,0 0,0 1,0 0,0 0,0 1,0 0,0 0,0 0,0 0,0 0,0 0,-1 0,0 0,0 0,-1 0,0 0,0 0,-1 0,0 0,0 0,-1 0,0 0,0 0,-1 0,0 0,0 0,-1 0,0 0,0 0,-1l0 0c0,0 0,0 0,-1 0,-1 1,-3 0,-5 0,0 0,-1 0,-1 0,0 0,0 0,-1l0 0c0,0 0,0 0,-1 0,-1 0,-1 0,-1l0 0c0,0 0,-1 0,-1 0,0 0,-1 -1,-1 0,0 -1,-1 -1,-1 0,0 0,0 0,0l0 0c0,0 0,0 0,0l0 0 0 0 0 0 0 0 0 0c-1,-1 -1,-1 -2,-2l0 0c-1,-1 -2,-1 -3,-1 -1,0 -2,0 -3,0 -1,0 -3,1 -4,1 -1,0 -2,1 -2,1l0 0 0 0c0,0 -1,0 -1,0 0,0 -1,0 -1,0 -1,0 -1,1 -2,1 -1,0 -1,1 -2,1 0,0 -1,1 -1,1 0,0 -1,1 -1,2l0 0 0 0c0,1 -1,1 -1,1l0 0c0,0 0,0 0,1 0,0 0,1 -1,1 0,0 0,1 0,1 0,0 0,1 0,1 0,0 0,1 0,1 0,0 0,1 0,1 0,0 0,1 0,1 0,0 0,1 0,1 0,0 0,1 0,1l0 0c0,0 0,1 0,1 0,0 0,0 0,1 0,0 0,0 0,0l0 0c0,0 0,0 0,0l0 0c0,0 0,0 0,0 0,0 0,0 1,0 0,0 0,0 1,0 0,0 0,0 0,0 0,0 0,0 0,0l0 0 0 0zm12 26c0,-1 1,-1 1,-2l0 0 0 0 0 0 0 0c0,-1 1,-2 1,-2l-1 0 0 0 0 0 0 0 0 0 0 -1c0,0 0,0 0,0 0,0 0,0 0,0 0,0 0,0 0,0 0,0 0,0 0,0l0 0 0 0c0,0 0,0 0,0l0 0c0,0 0,0 0,0l0 0 0 0 0 0 0 0c0,-1 0,-1 0,-2 0,-1 0,-2 0,-3l0 -1c0,0 0,-1 0,-1 0,0 0,0 0,0 0,0 0,0 -1,0 0,0 0,0 -1,0 0,0 0,0 -1,0l0 0 0 0 0 0 0 0 0 -1 0 0 0 0 0 0 0 0 0 0c0,0 1,0 1,0l0 0c1,0 2,0 2,0 1,0 1,0 3,-1 0,0 1,0 1,0l0 0c0,0 1,0 1,-1 0,0 0,-1 1,-1 0,0 0,-1 0,-1 0,0 0,0 0,0l0 0 0 0c0,0 0,0 -1,0 0,0 -1,0 -1,0 0,0 -1,0 -1,0 -1,0 -1,0 -2,0 0,0 0,0 0,0 0,0 0,0 0,0l0 0c0,0 0,0 -1,1 0,0 -1,0 -1,0l0 0 0 0 0 0 0 0 0 0c0,0 -1,0 -1,0 0,0 -1,0 -1,0 0,0 0,0 -1,-1 0,0 0,0 0,-1 0,0 -1,0 -2,0 -1,0 -1,0 -2,0 0,0 -1,0 -1,0l0 0 0 0c0,0 0,0 0,1l0 0c0,0 0,1 0,1 0,0 0,0 1,0l0 0 0 0 0 0 0 0 0 0 0 0 0 1 0 0 0 0 0 0 0 0c0,0 0,0 -1,0 0,0 -1,0 -1,0l0 0c0,0 -1,0 -1,0 0,0 -1,0 -1,0l0 0 0 0c0,0 -1,0 -1,0 0,0 0,0 0,0 0,0 0,0 0,0l0 0c0,0 0,0 0,1l0 0 0 0 0 0 0 0c0,1 -1,2 -1,3 0,1 -1,2 -1,3 0,1 0,2 -1,3 0,1 0,2 0,3 0,0 0,1 0,1 0,0 0,1 0,2 0,0 0,1 0,1 0,0 0,0 0,1l0 0 0 0 0 0 0 0 0 0 0 0 0 0 0 0 0 0 0 0 0 0 2 1 0 0 0 0 0 0 0 0 0 0 0 0 0 0 0 0 0 0 0 0 1 0c0,0 0,0 1,0l0 0c0,0 0,0 1,0 0,0 0,0 1,0l0 0c0,0 0,0 0,0 0,0 0,0 0,0l0 0c0,0 0,0 0,0l0 0 0 0 0 0 0 0 0 0c0,0 0,-1 1,-1 0,0 0,0 1,-1l0 0 0 0c0,0 0,0 0,0 1,-1 2,-1 3,-1l0 0 0 0 0 0 0 0 0 0c0,0 1,0 1,0l0 0c0,0 1,0 1,0 0,0 1,0 1,0 1,0 1,0 2,0zm2 -2c0,0 0,1 -1,1l0 0c0,0 0,0 0,1 1,0 2,0 3,0 1,0 2,0 3,0l0 0c3,0 5,0 6,0l5 -4 1 -1 0 0 0 0 0 0c1,-1 1,-2 2,-3 0,0 1,-1 1,-2l0 0c1,-1 1,-2 2,-3 1,-1 1,-2 1,-2l0 0 0 0 0 0 0 0 0 0c0,0 0,0 -1,0 -2,0 -4,0 -6,0l0 0 0 0 0 0c-3,0 -6,0 -8,-1l-5 11c0,0 0,0 -1,0 0,0 -1,0 -1,1l1 0 0 0 0 0 0 0 0 0 0 0c0,0 0,1 0,1 0,1 -1,1 -1,2zm-19 4l-1 1c1,0 1,0 2,1 1,0 1,1 2,1 1,0 1,1 2,1 1,0 1,1 2,1 0,0 1,0 2,0l0 0 0 0 0 0 0 0c1,0 2,0 4,0l0 0 0 0 0 0 0 0 0 0 0 0c0,0 0,0 0,1l0 0c0,0 0,0 0,1 0,0 0,0 0,1 0,0 0,0 0,1 0,0 0,1 0,1l0 0 0 0 0 0 0 0 0 0c0,0 0,1 0,1l0 0 0 0 0 0 0 0 0 0c0,0 0,0 0,0l0 0c0,0 0,0 0,1 0,0 0,1 0,1 0,0 0,1 0,1 0,1 0,1 0,1 0,0 0,1 0,1l0 0c0,0 0,0 0,1 0,0 0,0 0,1l0 0 0 0 0 0c0,0 0,0 0,0 0,0 1,0 2,1 1,0 2,1 3,1 0,0 1,0 1,0 0,0 1,0 1,0 0,0 1,0 1,0 0,0 0,0 1,0 0,0 0,0 0,0l0 0c0,0 0,0 -1,0 0,0 -1,0 -1,0l0 0c0,0 -1,0 -1,-1 0,0 -1,0 -1,-1l0 0 0 0 0 0c0,0 0,0 0,-1 0,0 0,0 0,-1l0 0 0 0c0,0 0,0 0,0 0,0 0,0 0,0l0 0 0 0c0,0 0,0 0,0l0 0 0 0 0 0 0 0 0 0 0 0 0 0c0,-1 1,-1 1,-2l0 0 0 0 0 0 0 0 0 0c0,0 0,0 0,0 0,0 0,0 1,-1l0 0c0,0 0,0 0,0l0 0 0 0 0 0 0 0 0 0c0,0 1,0 1,0 0,0 1,0 1,-1 0,0 1,-1 1,-1 0,0 1,-1 1,-1 0,0 0,0 0,0l0 0 0 0 0 0c0,0 0,0 0,0 0,0 0,0 1,0l0 0 0 0 0 0 0 0 0 0c0,0 0,0 0,0l0 0c0,0 0,0 0,0l0 0 0 0 0 0c0,0 0,0 1,-1l0 0 0 0 0 0 0 0 0 0 0 0c0,0 0,0 1,0 0,0 0,0 1,0 0,0 0,0 1,0 0,0 0,0 1,0l5 0 0 -2c0,0 -1,0 -1,0 -1,0 -1,0 -2,0l0 0 -1 0c0,0 -1,0 -1,0l0 0 0 0 0 0 0 0 0 0c0,0 0,-1 1,-1l0 0 0 0c0,0 1,-1 1,-2 0,0 1,-1 1,-1 -1,0 -3,0 -6,0l0 0 0 0 0 0c-4,0 -9,0 -10,0l0 0 0 0 0 0c0,0 -1,0 -1,0 0,0 -1,0 -1,0l0 0 0 0 0 0 0 0 0 0 0 0 0 0 0 0 0 0 0 0 0 0c0,0 -1,0 -1,0 0,0 -1,0 -1,1 0,0 0,0 -1,0l0 0 0 0 0 0c0,0 0,0 -1,1 0,0 0,0 -1,1l0 0c0,0 0,0 0,0l0 0 0 0 0 0c0,0 0,0 0,0l0 0c0,0 0,0 0,0l0 0 0 0 0 0 0 0 0 0c0,0 0,0 0,0 0,0 0,0 -1,0l0 0c0,0 -1,0 -1,0 0,0 -1,0 -1,0l0 0 0 0 0 0 0 0 0 0 -1 0 0 0 0 0 0 0 0 0 0 0 -2 -1 0 0 0 0 0 0 0 0 0 0 0 0c0,0 0,0 0,0l0 0z"/>
   </g>
  </g>
 </g>
</svg>
