<?xml version="1.0" encoding="UTF-8"?>
<!DOCTYPE svg PUBLIC "-//W3C//DTD SVG 1.1//EN" "http://www.w3.org/Graphics/SVG/1.1/DTD/svg11.dtd">
<!-- Creator: CorelDRAW X6 -->
<svg xmlns="http://www.w3.org/2000/svg" xml:space="preserve" width="21.6765mm" height="21.6765mm" version="1.1" style="shape-rendering:geometricPrecision; text-rendering:geometricPrecision; image-rendering:optimizeQuality; fill-rule:evenodd; clip-rule:evenodd"
viewBox="0 0 115 115"
 xmlns:xlink="http://www.w3.org/1999/xlink">
 <defs>
  <style type="text/css">
   <![CDATA[
    .str1 {stroke:#FEFEFE;stroke-width:1.06252}
    .str0 {stroke:#FEFEFE;stroke-width:2.6563}
    .fil2 {fill:none}
    .fil0 {fill:#BC0300}
    .fil1 {fill:#FEFEFE;fill-rule:nonzero}
   ]]>
  </style>
 </defs>
 <g id="Layer_x0020_1">
  <metadata id="CorelCorpID_0Corel-Layer"/>
  <g id="_442361160">
   <g>
    <circle class="fil0 str0" cx="58" cy="58" r="56"/>
    <path class="fil1" d="M63 14l1 1 0 0 0 0 0 0 0 0c0,0 0,0 0,0l0 -1c0,0 0,0 0,-1 0,0 0,0 0,0l0 0c0,0 0,0 0,0 0,0 0,1 -1,1zm-30 74l1 0 0 -12 0 0 0 0c0,-1 1,-1 1,-1 1,0 2,-1 1,-3l0 0c0,-1 0,-1 -1,-2 0,-1 -1,-2 -1,-4l0 0 0 0c0,0 1,0 1,0 1,0 1,0 1,-2 0,0 0,-1 0,-1 0,-1 -1,-1 0,-2 0,-1 1,-1 1,-1l0 0c0,0 0,0 0,0l0 0c0,0 0,0 0,-1l0 0c0,0 0,0 0,-1l0 0c0,-1 1,-2 3,-2 0,-1 1,-2 1,-3 1,0 2,0 3,0 0,-2 1,-3 2,-3 1,0 2,0 3,1 0,0 0,0 0,0 1,-1 1,-2 3,-2 1,0 2,0 2,0 1,0 1,0 2,-1l-25 0 0 40zm1 1l-2 0 0 0 0 0 0 -41 0 0 0 0 51 0 0 0 0 0 0 41 0 0 0 0 -2 0 0 0 0 0 0 -13c0,0 0,0 0,0 0,0 -1,0 -1,-1 -1,-1 0,-3 1,-4l0 0c0,-1 1,-2 1,-4 0,0 -1,0 -1,0 -1,0 -2,-1 -2,-2 0,-1 0,-1 0,-2 0,0 0,-1 -1,-2 -1,-1 -1,-1 -1,-1l0 0c0,0 0,0 0,-1 0,-1 -1,-1 -1,-1 0,0 -1,0 -2,0l0 0 0 -1c0,-1 0,-2 -1,-3 -1,0 -1,0 -3,1l0 0 0 -1 0 0c0,0 0,-1 0,-1 0,-1 -1,-2 -2,-1l-1 1 0 0 0 0c0,0 0,-1 -1,-1 -1,-1 -1,-1 -2,-2 -1,0 -1,0 -2,0 -1,0 -2,0 -3,-1 -1,1 -1,1 -2,1l0 0c0,0 -1,0 -2,0 -2,0 -2,1 -2,2 0,0 0,1 -1,1l0 0 0 0c-1,-1 -2,-1 -3,-1 -1,0 -1,1 -1,3l0 1 0 0c-1,-1 -2,-1 -3,-1 -1,0 -1,1 -1,3l0 1 0 0c-2,-1 -3,0 -3,1l0 0c0,0 0,0 0,1l0 0c0,0 0,1 0,1l0 0c0,1 0,1 -1,1l0 0c0,0 0,0 0,1 0,1 0,1 0,2 0,0 0,1 0,2 0,2 -1,2 -2,2 0,0 0,0 -1,0 0,2 1,2 1,3 0,0 0,1 1,2l0 0c1,3 0,4 -1,4 0,0 -1,0 -1,0l0 13 0 0 55 0 0 0 0 0c1,2 1,2 0,3l0 0 0 0 0 0 0 0c-2,0 -18,0 -33,0 -14,0 -28,0 -31,0l0 0 0 0c-1,-1 -1,-2 0,-3 0,-1 1,-1 3,-1l0 0 5 0zm25 -41c0,1 1,1 2,1 1,0 1,0 2,0 2,0 2,1 3,2 0,0 0,0 0,1l1 -1 0 0 0 0c2,-1 3,0 3,1 0,0 0,1 0,1 1,-1 2,-1 3,0 1,0 1,1 1,3 1,0 1,0 2,0 1,0 1,0 2,1 0,1 0,1 0,1 0,0 0,0 1,1 1,2 1,2 1,3 0,0 0,1 0,2 0,1 0,1 1,2 0,0 1,0 1,0l0 0 0 0c0,2 -1,3 -1,4l0 0c-1,1 -1,2 -1,3 0,1 0,1 1,1l0 0c0,0 1,0 1,1l0 0 0 0 0 12 1 0 0 -40 -25 0zm-26 -4l50 0 0 -5 -50 0 0 5zm51 1l-51 0 0 0 0 0 0 -6 0 0c-2,0 -3,0 -3,0l0 0 0 0 0 -1 0 0 0 0 58 0 0 0 0 0c0,1 0,2 -1,2 0,0 0,0 -1,0 0,0 0,0 -1,0l-1 0 0 0 0 6 0 0 0 0zm-57 47c3,0 16,0 30,0 15,0 30,0 32,0l0 0 0 0c0,-1 0,-1 0,-2l-61 0 0 0c-1,0 -2,0 -2,1 0,0 0,1 0,2zm3 -54c2,0 9,0 17,0 15,0 33,0 38,0 0,0 0,0 1,0 0,0 0,0 1,0 0,0 0,0 0,-1l-57 0 0 1zm22 -4l12 0c0,-1 -1,-2 -2,-3l0 0 0 0 0 0c-1,0 -1,-1 -2,-1 -1,0 -1,-1 -2,-1 -1,1 -1,1 -2,2l0 0c-2,1 -3,2 -4,4zm13 1l-13 0 0 0 0 0c0,-2 2,-4 4,-5l0 0c1,-1 2,-1 2,-2l0 0 0 0c1,0 1,1 2,1 1,1 1,1 2,1l0 0 0 0c1,1 2,2 3,4l0 0 0 0zm-16 -12l19 0 0 0c0,-1 -1,-1 -1,-2l-17 0 -1 2zm19 1l-20 0 -1 0 0 -1 1 -3 0 0 0 0 0 0 0 0c0,-1 0,-1 0,-2l0 0c0,-1 0,-2 1,-2l0 0 0 0 0 0 0 0c0,0 0,0 0,0 0,0 0,0 0,0l0 0 0 0c0,0 0,-1 1,-1 0,0 0,0 0,-1 0,0 0,0 0,-1l0 0c0,-1 0,-2 0,-4l0 -2 1 2c1,2 0,3 0,4 0,1 0,1 1,2l0 0 0 0 -1 1c1,0 1,1 1,2 0,0 0,1 0,2l1 0c0,-1 0,-1 0,-2 0,-1 0,-2 1,-2l-1 -1 0 0 0 0c0,-1 1,-1 1,-1l0 0c0,0 0,0 0,0l0 0 0 0c0,0 0,0 0,-1 0,0 0,-1 0,-1l0 0c0,-1 0,-2 0,-3l1 -2 0 2c0,2 0,3 0,4 0,0 0,0 0,1 0,0 0,0 0,1 0,0 0,0 0,1l0 0 0 0 -1 1c1,1 1,1 1,2 0,0 0,1 0,2l1 0c0,-1 0,-1 0,-2 0,-1 0,-2 1,-2l-1 -1 0 0 0 0 0 0c1,-1 1,-1 1,-1 0,0 0,-1 0,-1 0,-1 0,-2 0,-4l0 -4 0 4c0,1 0,1 0,2l0 0c0,1 0,1 0,2 0,0 0,1 0,1 0,0 0,1 0,1l0 0c0,0 0,0 0,0 0,0 0,0 1,1l0 0 0 0 -1 1c1,1 1,1 1,2 0,0 0,1 0,2l0 0 0 0 0 0c0,1 1,2 1,2 0,0 0,1 1,1l0 1 -1 0zm-34 11c3,0 3,0 3,0l0 0c0,0 0,0 0,-1 1,-2 4,-4 6,-6 1,-1 3,-2 4,-3 -3,0 -3,0 -5,2 -1,1 -1,1 -3,2l0 0 -1 0 0 0c-2,1 -5,3 -5,6zm4 0c0,1 0,1 -4,1l0 0 0 0c0,-3 4,-5 6,-7l0 0 1 0 0 0c1,-1 2,-1 3,-2 2,-2 3,-2 7,-2l1 0 -1 1c-1,1 -3,2 -5,4 -2,2 -5,3 -6,5 0,0 0,1 0,1l0 0zm40 0l3 0c0,-2 -4,-5 -7,-7 -1,-1 -2,-1 -3,-2 -1,-1 -2,-1 -4,-1 1,1 3,2 4,3 2,1 4,2 5,3 1,1 1,1 1,2 0,0 0,1 1,1zm3 1l-4 0 0 0 0 0c0,-1 -1,-1 -1,-1 0,-1 -1,-1 -1,-2 -1,-1 -3,-2 -4,-3 -2,-1 -4,-3 -5,-4l-1 -1 1 0 1 0c3,0 3,0 5,1 1,1 2,1 3,2 3,2 7,5 7,8l0 0 0 0zm-41 -1l2 0c0,0 0,-1 0,-1 1,-2 1,-2 4,-5 0,0 1,0 1,-1l0 0c1,-1 3,-2 4,-3 -2,0 -3,1 -5,2 -1,0 -1,1 -2,2l0 0 -1 0 0 0c-2,1 -4,3 -5,5zm2 1l-3 0 0 0 0 0c1,-3 3,-5 5,-6l0 0 1 0 0 0c1,-1 2,-1 2,-2 2,-2 3,-2 6,-2l1 0 0 1c-1,1 -3,3 -5,4l0 0c0,0 -1,1 -1,1 -3,2 -3,3 -4,4 0,0 0,1 -1,1l0 0 0 0zm30 -1l2 0c-1,-3 -4,-5 -7,-7 -1,-1 -2,-1 -2,-2 0,0 0,0 -1,0 -1,-1 -1,-1 -3,-1 1,1 3,2 5,3 0,0 1,0 1,1 3,2 4,3 5,5 0,0 0,1 0,1zm2 1l-3 0 0 0 0 0c0,0 0,-1 -1,-1 -1,-2 -1,-2 -4,-5 0,0 -1,0 -1,-1 -2,-1 -5,-3 -5,-4l0 -1 1 0c3,0 3,0 4,1 0,0 0,0 1,0 1,0 1,1 2,2 3,2 6,4 7,8l0 0 0 0zm-30 -1l2 0c1,-2 2,-3 4,-5l0 0 0 0c1,0 1,-1 2,-1 1,-1 2,-1 3,-2l-1 0c-2,1 -5,3 -7,5 -1,1 -2,2 -3,4zm2 1l-3 0 0 0 0 0c0,-1 1,-3 3,-4 2,-2 6,-5 8,-6l0 0 0 0 1 1 0 0 0 0c-1,1 -2,2 -3,2 -1,0 -1,1 -2,1l0 0 0 0c-2,1 -3,2 -4,5l0 0 0 0zm11 -9c1,1 2,2 3,2 2,1 4,3 5,6l2 0c0,-1 -1,-2 -1,-3 -1,-1 -2,-2 -3,-2l-6 -4 -1 0zm3 3c-1,-1 -3,-2 -4,-3l0 0 0 0 1 -1 0 0 0 0 6 4 0 0c1,1 2,1 3,2 1,1 2,2 2,3l0 0 0 0 -3 0 0 0 0 0c-1,-3 -3,-4 -5,-6zm-5 -15l1 1 0 0 0 0c0,0 0,0 0,0l0 0c0,0 0,0 0,0l0 0 0 0 0 -1 0 0c0,0 0,-1 -1,-1 0,0 0,0 0,1 0,0 0,0 0,0 0,0 0,0 -1,1zm1 2l0 0c-1,0 -1,1 -1,2 0,0 0,1 0,2l4 0c0,-1 0,-1 0,-2 0,-1 0,-1 -1,-2l0 0 0 0c0,0 0,0 0,0l0 0zm-1 -3l0 0 0 0 0 0 0 0zm-6 1c0,0 0,0 0,0l0 0 0 0 0 0 0 0 0 0 0 0 0 0 0 0 0 0c0,0 0,0 0,0l0 0 0 0 0 0 0 0 0 0 0 0 1 -1c0,0 -1,-1 -1,-1 0,0 0,0 0,1 0,0 0,0 0,1zm0 1l0 0c0,0 0,0 0,0l0 0 0 0zm1 1l0 0c-1,0 -1,1 -1,2l0 0c0,0 0,1 0,2l4 0c0,-1 0,-1 0,-2 0,-1 0,-1 -1,-2l0 0zm12 0l0 0c-1,0 -1,1 -1,2 0,0 0,1 0,2l4 0c0,-1 0,-1 0,-2 0,-1 0,-1 -1,-2l0 0z"/>
   </g>
   <line class="fil2 str1" x1="43" y1="59" x2="73" y2= "59" />
   <line class="fil2 str1" x1="43" y1="65" x2="73" y2= "65" />
   <line class="fil2 str1" x1="43" y1="71" x2="73" y2= "71" />
   <line class="fil2 str1" x1="43" y1="77" x2="73" y2= "77" />
   <line class="fil2 str1" x1="43" y1="83" x2="73" y2= "83" />
  </g>
 </g>
</svg>
