<?xml version="1.0" encoding="UTF-8"?>
<!DOCTYPE svg PUBLIC "-//W3C//DTD SVG 1.1//EN" "http://www.w3.org/Graphics/SVG/1.1/DTD/svg11.dtd">
<!-- Creator: CorelDRAW 2018 (64-Bit) -->
<svg xmlns="http://www.w3.org/2000/svg" xml:space="preserve" width="35.9291mm" height="35.9288mm" version="1.1" style="shape-rendering:geometricPrecision; text-rendering:geometricPrecision; image-rendering:optimizeQuality; fill-rule:evenodd; clip-rule:evenodd"
viewBox="0 0 1522.21 1522.2"
 xmlns:xlink="http://www.w3.org/1999/xlink">
 <defs>
  <style type="text/css">
   <![CDATA[
    .fil1 {fill:#5B5B5B}
    .fil0 {fill:#5B5B5B;fill-rule:nonzero}
   ]]>
  </style>
 </defs>
 <g id="Layer_x0020_1">
  <metadata id="CorelCorpID_0Corel-Layer"/>
  <g id="_1738299407008">
   <path class="fil0" d="M761.1 0c210.16,0 400.44,85.19 538.18,222.92 137.73,137.73 222.93,328.01 222.93,538.18 0,210.17 -85.2,400.45 -222.93,538.18 -137.73,137.73 -328.01,222.93 -538.18,222.93 -210.17,0 -400.44,-85.2 -538.18,-222.93 -137.73,-137.73 -222.92,-328.01 -222.92,-538.18 0,-210.16 85.2,-400.44 222.93,-538.17 137.73,-137.73 328.01,-222.93 538.17,-222.93zm506.48 254.62c-129.61,-129.61 -308.68,-209.78 -506.48,-209.78 -197.79,0 -376.86,80.17 -506.47,209.78 -129.61,129.61 -209.78,308.68 -209.78,506.47 0,197.79 80.17,376.87 209.78,506.48 129.61,129.61 308.68,209.78 506.48,209.78 197.79,0 376.87,-80.17 506.48,-209.78 129.61,-129.61 209.78,-308.68 209.78,-506.48 0,-197.79 -80.17,-376.86 -209.78,-506.48z"/>
   <path class="fil1" d="M595.38 392.92c-28.73,8.57 -30.35,34.54 -40.39,63.22 -29.26,83.57 -12.97,73.63 -134.45,73.63 -34.65,0 -62.07,0.51 -84.95,19.41 -49.25,40.69 -35.84,96.17 -35.84,172.32l-0.03 310.3c-0.06,34.27 13.13,59.52 30.6,74.98 22.72,20.12 42.03,23.29 79.3,23.28l520.06 0c66.61,0 142.17,3.35 207.66,-0.12 32.38,-1.72 53.81,-19.68 66.55,-35.93 21.18,-27.03 19.22,-47.21 19.21,-86.25 0,-54.15 4.01,-387.09 -3.77,-412.02 -8,-25.61 -25.8,-45.39 -46.69,-56.11 -51.06,-26.2 -157.01,9.1 -182.83,-24.64 -7.19,-9.4 -22.65,-60.81 -27.96,-76.97 -11.18,-34.01 -15.23,-46.62 -56.19,-46.43 -50.41,0.23 -296.14,-2.88 -310.27,1.34zm493.55 231.58c-40.83,13.9 -20.61,74.57 20.18,60.25 34.96,-12.27 21.14,-74.32 -20.18,-60.25zm-354.57 46.9c-41.2,9.05 -67.13,28.72 -85.15,53.73 -19.26,26.74 -32.5,68.87 -23.69,110.21 14.29,67.04 79.5,124.65 164.85,107.46 66.64,-13.42 124.89,-82.53 106.86,-164.57 -14.35,-65.29 -79.6,-125.14 -162.86,-106.84zm-3.12 -92.68c-116.53,16.03 -217.04,121.91 -198.16,259.89 15.81,115.52 124.36,215.88 260.54,196.58 116.26,-16.48 214.34,-123.67 196.07,-260.17 -15.34,-114.62 -123.73,-214.82 -258.46,-196.29z"/>
  </g>
 </g>
</svg>
