<?xml version="1.0" encoding="UTF-8"?>
<!DOCTYPE svg PUBLIC "-//W3C//DTD SVG 1.1//EN" "http://www.w3.org/Graphics/SVG/1.1/DTD/svg11.dtd">
<!-- Creator: CorelDRAW 2018 (64-Bit) -->
<svg xmlns="http://www.w3.org/2000/svg" xml:space="preserve" width="35.9289mm" height="35.9289mm" version="1.1" style="shape-rendering:geometricPrecision; text-rendering:geometricPrecision; image-rendering:optimizeQuality; fill-rule:evenodd; clip-rule:evenodd"
viewBox="0 0 2774.54 2774.54"
 xmlns:xlink="http://www.w3.org/1999/xlink">
 <defs>
  <style type="text/css">
   <![CDATA[
    .fil1 {fill:#5B5B5B}
    .fil0 {fill:#5B5B5B;fill-rule:nonzero}
   ]]>
  </style>
 </defs>
 <g id="Layer_x0020_1">
  <metadata id="CorelCorpID_0Corel-Layer"/>
  <g id="_1738343319696">
   <path class="fil0" d="M1387.26 0c383.06,0 729.9,155.29 980.94,406.33 251.04,251.04 406.33,597.87 406.33,980.94 0,383.07 -155.29,729.9 -406.33,980.94 -251.04,251.04 -597.88,406.32 -980.94,406.32 -383.07,0 -729.9,-155.29 -980.94,-406.32 -251.04,-251.04 -406.32,-597.87 -406.32,-980.94 0,-383.06 155.28,-729.9 406.32,-980.94 251.04,-251.04 597.87,-406.33 980.94,-406.33zm923.16 464.11c-236.24,-236.25 -562.64,-382.38 -923.16,-382.38 -360.52,0 -686.91,146.13 -923.16,382.38 -236.24,236.24 -382.37,562.64 -382.37,923.16 0,360.52 146.13,686.91 382.37,923.16 236.25,236.24 562.65,382.37 923.16,382.37 360.52,0 686.92,-146.13 923.16,-382.37 236.25,-236.25 382.38,-562.64 382.38,-923.16 0,-360.52 -146.13,-686.92 -382.38,-923.16z"/>
   <g>
    <path class="fil1" d="M1672.56 1477.6c-15.81,33.51 -28.34,93.9 -40.33,133.71 -21.07,69.95 -110.47,357.42 -144.86,380.03 -8.3,-14.67 -14.86,-67.75 -18.02,-87 -5.14,-31.33 -15.88,-65.38 -2.56,-91.68 30.76,-60.76 38.75,-196.36 29.19,-179.86 -0.48,0.83 -2.02,-0.79 -2.71,-0.94 -0.72,-0.16 -1.98,-0.6 -2.89,-0.77l-17.06 -1.14c-46.53,-0.7 -164.01,-6.32 -195.17,4.39 -7.06,36.59 15.54,148.96 31.33,177.49 18.33,33.13 -7,140.14 -18.23,181.34 -41.24,-40.26 -121.41,-300.38 -145.62,-380.38 -8.59,-28.39 -29.01,-119.8 -40.13,-137.65 -26.12,2.46 -157.09,61.45 -186.08,74.64 -68.16,31.01 -117.44,53.62 -172.69,94.19 -88.3,64.84 -157.75,194.8 -182.27,348.02 -16.32,102.04 -27.94,110.59 97.62,147.03 72.7,21.11 141.58,34.67 219.26,47.26 167.23,27.1 330.55,29.9 502.88,29.92 257.47,0.03 473.62,-5.99 718.51,-73.87 30.87,-8.56 69.99,-20.28 96.78,-34.67 21.77,-11.68 21.42,-17.24 19.89,-46.87 -4.88,-94.99 -28.09,-182.01 -67.22,-262.71 -67.01,-138.21 -152.71,-186.35 -288.92,-244.88 -29.45,-12.66 -164.8,-76.22 -190.67,-75.61z"/>
    <path class="fil1" d="M1332.98 560.72c-131.65,15.48 -213.68,83.42 -257.84,177.06 -27.73,58.8 -28.53,116.88 -29.29,188.12 -0.9,84.27 -5.83,53.34 -23.04,86.87 -13.27,25.88 -14.28,65.64 -10.72,97.05 13.31,117.49 70.23,140.23 104.58,218.76 32.79,75.01 71.62,139.94 145.16,182.18 114.79,65.96 228.66,36.11 316.6,-52.64 41.48,-41.86 56.46,-68.33 83.69,-133.52 12.19,-29.16 24.09,-42.18 41.76,-64.82 45.82,-58.7 91.04,-188.98 49.11,-250.78 -21.34,-31.46 -17.61,-36.03 -19.91,-86.69 -1.54,-33.98 -3.14,-68.75 -9.89,-100.59 -6.99,-33.01 -18.43,-51.35 -33.25,-73.49 -37.57,-56.14 -22.7,-122.09 -161.17,-166.21 -56.64,-18.05 -132.49,-28.76 -195.79,-21.31z"/>
   </g>
  </g>
 </g>
</svg>
