<?xml version="1.0" encoding="UTF-8"?>
<!DOCTYPE svg PUBLIC "-//W3C//DTD SVG 1.1//EN" "http://www.w3.org/Graphics/SVG/1.1/DTD/svg11.dtd">
<!-- Creator: CorelDRAW X6 -->
<svg xmlns="http://www.w3.org/2000/svg" xml:space="preserve" width="21.6765mm" height="21.6765mm" version="1.1" style="shape-rendering:geometricPrecision; text-rendering:geometricPrecision; image-rendering:optimizeQuality; fill-rule:evenodd; clip-rule:evenodd"
viewBox="0 0 99 99"
 xmlns:xlink="http://www.w3.org/1999/xlink">
 <defs>
  <style type="text/css">
   <![CDATA[
    .str0 {stroke:#FEFEFE;stroke-width:2.28402}
    .fil0 {fill:#BC0300}
    .fil1 {fill:#FEFEFE;fill-rule:nonzero}
   ]]>
  </style>
 </defs>
 <g id="Layer_x0020_1">
  <metadata id="CorelCorpID_0Corel-Layer"/>
  <g id="_469075432">
   <g>
    <circle class="fil0 str0" cx="50" cy="50" r="48"/>
    <path class="fil1" d="M55 27l0 0 0 0 0 0 0 0 0 0c0,0 0,0 -1,-1l0 0 0 0 0 0c0,0 0,-1 -1,-1 0,0 -1,0 -1,-1 -1,0 -1,0 -1,-1 -1,0 -1,-1 0,-2 0,0 1,-1 1,-1 0,0 1,-1 1,-1 2,-1 3,0 3,0 0,0 0,1 0,1l0 0c0,0 0,0 0,0 1,1 2,2 0,4 0,0 0,0 0,0l0 0c0,0 0,0 0,0l-1 1zm17 15c0,0 -1,0 -1,0 0,0 -1,0 -1,0 0,0 -1,0 -1,0 -1,0 -1,0 -2,0 0,0 -1,0 -1,-1 -1,-1 -2,-1 -3,-1 0,0 0,0 0,0 0,0 0,1 -1,1l0 0 0 0c0,1 0,2 -1,2 -1,1 -3,1 -5,1l0 0 0 0 0 0c0,0 -1,0 -1,0 -1,0 -2,0 -3,0 0,0 0,0 -1,0l0 0c-1,0 -2,0 -2,0 0,0 0,0 0,0l0 0c0,0 0,0 -1,1l0 0 -3 3 0 12c5,0 12,0 18,0 3,0 6,0 8,0l0 0 2 0c0,-5 0,-10 0,-15 0,-2 0,-4 0,-6l0 0 0 0c0,0 0,0 1,0l0 0c0,0 0,0 0,0l0 0c0,0 0,0 0,-1 0,0 0,0 0,0 0,0 -1,0 -1,0 0,0 -1,0 -1,0l0 0c0,0 0,0 0,0l0 0c0,0 0,0 0,0l0 0c0,0 1,1 0,2l0 0 0 0zm-58 0c0,0 1,-1 1,-3 0,-1 1,-2 1,-2l-1 0c-2,-1 -3,-1 -5,1 -1,1 -1,1 -1,2 0,0 0,0 0,1 0,1 0,1 1,1 0,0 1,0 1,0l0 0c0,0 0,0 0,0l0 0c0,0 1,0 1,0 0,0 0,0 1,0 0,0 0,0 0,0zm1 1c0,0 0,0 0,0 0,0 0,0 0,0 0,0 0,0 0,0l0 0c0,0 0,0 0,0l5 -1c0,0 1,0 2,0 1,0 2,-1 3,-1 0,0 0,-1 0,-1 0,-1 0,-1 -1,-2 0,-1 0,-1 0,-2 0,-1 0,-1 0,-2 0,0 0,0 -1,0 0,0 0,0 0,0 -1,1 -1,1 -2,0l0 0c0,0 0,0 0,0l0 0c-2,0 -2,0 -3,0l0 0 0 0 0 0c0,0 -1,1 -1,1 0,0 0,1 -1,2 0,0 0,0 0,0l0 0c0,0 0,0 0,1l0 0 -1 2zm0 1c0,0 0,0 0,-1l0 0 0 0 1 -2c0,0 0,0 0,0l0 0c0,0 0,0 0,0 0,-1 0,-1 1,-2 0,-1 0,-1 1,-2l0 0 0 0 0 0c1,-1 2,-1 3,0l0 0c0,0 0,0 0,0l0 0c0,0 1,0 1,0 0,0 0,0 0,0 0,0 0,-1 1,-1l0 0 0 0c1,1 1,2 0,3 0,1 0,1 0,1 0,0 1,1 1,2 0,1 0,1 0,2l0 0 0 0c-1,0 -2,0 -3,1 -1,0 -1,0 -2,0l0 0 -5 1 0 0 0 0c0,0 0,-1 -1,-1l0 0c0,0 0,0 0,0 0,0 0,0 0,0l0 0zm1 -3l0 0m0 -1c-1,1 -1,3 -2,3l0 0 0 0c0,0 -1,0 -1,0 0,0 0,0 0,0 0,0 -1,0 -1,0l0 0c0,0 0,0 -1,0l0 0c0,0 -1,0 -1,0 -1,0 -1,0 -1,-1 0,0 0,0 0,-1 0,-1 0,-1 1,-2 2,-2 3,-1 6,-1 0,0 1,0 1,0l0 0 0 0c0,1 0,2 -1,3zm33 -2c0,0 1,0 1,0 1,0 1,0 2,0 0,0 0,-1 0,-1l0 0c0,-1 1,-2 1,-3 0,0 0,-1 0,-1 0,0 0,-1 0,-1l0 0 0 0c0,0 0,1 0,2 0,1 -1,2 -1,3 0,0 0,0 0,1l0 0c0,0 0,0 0,1 -1,1 -1,1 -2,1 0,0 0,0 -1,0 0,0 -1,0 -2,0 -1,0 -1,0 -2,0 0,0 0,0 -1,1 0,0 -1,1 -1,1 -1,1 -2,1 -3,2 0,0 -1,0 -1,0 0,0 0,0 -1,0 0,0 0,0 -1,0 -1,1 -3,1 -5,1l0 0c-1,0 -1,0 -1,0 0,0 -1,0 -2,0 -1,0 -3,0 -3,0 0,0 0,0 -1,0 0,0 0,0 -1,0l-1 0c-1,0 -1,0 -1,0l0 0c0,0 0,0 0,-1l0 0c-1,0 -1,0 -1,0l0 0c0,0 0,0 0,0l0 0c-1,0 -2,1 -3,1 -1,0 -3,1 -3,1 0,1 0,2 0,2 0,1 0,1 1,2 1,1 1,1 2,1 0,0 1,1 1,2l0 0 2 4 0 0c1,2 2,3 3,4 0,0 0,1 1,1 0,0 0,1 1,1 0,0 0,0 1,1 3,2 4,2 8,1 1,0 1,0 2,0 2,0 3,0 3,1 0,0 1,0 1,1 1,1 6,0 9,0 1,0 2,0 2,0 1,0 3,0 6,0 9,0 25,0 28,0 0,0 0,-1 0,-1 0,-1 0,-1 0,-2l0 0 0 0c0,1 0,1 0,2 0,0 0,0 0,1 0,0 0,0 1,0l0 0c0,-1 0,-3 0,-4 0,-2 0,-3 -1,-3 0,-1 -1,-1 -1,-2 0,0 0,0 -1,-1 0,0 -1,-1 -1,-1 0,0 -1,-1 -1,-2 0,-1 0,-1 -1,-2 0,-1 0,-1 -1,-2 0,0 0,0 0,-1 0,0 0,0 0,-1l0 0c0,-1 -2,-2 -3,-4 -1,-1 -2,-1 -2,-2l0 20 0 0 0 0c-1,1 -4,1 -6,1 0,0 -1,0 -1,0l-20 0c0,0 -1,0 -1,0 -1,0 -2,0 -3,-1l0 0 0 0c0,-1 0,-3 0,-6 0,-3 0,-6 0,-7 0,0 0,0 -1,0 0,0 -1,1 -1,1 0,0 -1,1 -1,1 0,0 -1,0 -1,1 -1,1 -3,1 -4,1 -2,0 -3,-1 -5,-1 -1,-1 -2,-2 -3,-3l0 0c-1,-1 -1,-3 -1,-4l0 0 0 0c1,0 1,0 1,0 0,0 0,0 1,0l0 0 0 0c1,0 2,0 2,0 2,0 3,0 5,0 2,0 3,-1 5,-1 0,0 1,-1 2,-1 1,0 2,-1 2,-1l0 0 0 0c0,1 0,1 -1,1 0,0 0,0 -1,0 0,0 0,1 0,1 0,0 0,1 0,1l0 0 0 0c0,0 0,0 -1,0l0 0c0,0 -1,0 -1,0 0,0 0,0 1,1 0,0 1,0 1,1l0 0c1,1 2,1 3,-1 0,0 1,0 1,-1l0 0 0 0c1,-1 1,-1 2,-2l0 0 0 0c1,0 3,0 5,0 1,0 1,0 2,0 1,0 1,0 1,0 0,0 0,0 0,0 0,0 0,0 0,0 0,0 0,0 1,0 2,0 2,-1 2,-3l0 -1 0 0c0,-1 0,-1 0,-1 0,-1 0,-1 -1,-3l0 0c0,0 0,0 0,-1 0,0 -1,-1 -1,-1 0,-1 0,-2 0,-2 0,-1 0,-2 -1,-2 -1,-1 -2,0 -3,0l0 0c0,0 -1,0 -1,0l0 0 0 0c-1,1 -2,1 -2,3 0,0 0,1 -1,2 0,1 0,1 -1,1 0,0 0,0 0,0l0 0zm0 1c0,0 -1,0 -1,0l0 0 0 0c0,0 0,0 0,0 0,0 0,0 0,0l0 0c0,0 0,0 0,0l0 0 0 0c0,0 0,0 1,0 0,0 0,0 0,0 0,0 0,-1 0,-1 0,-1 1,-2 1,-2 1,-3 1,-3 3,-4l0 0 0 0c0,0 1,0 1,0l0 0c2,-1 2,-1 4,0 1,1 1,2 1,3 0,1 0,1 0,2 0,1 1,1 1,1 0,0 0,0 0,1l0 0c2,2 2,2 1,4 0,0 0,1 0,1l0 0 0 1c-1,2 -1,3 -3,3 0,0 -1,0 -1,0 0,0 0,0 -1,0l0 0c0,0 0,0 -1,0 0,0 -1,0 -1,0 0,0 -1,0 -2,0 -2,0 -3,0 -5,0 -1,1 -1,1 -2,2l0 0c0,0 -1,1 -1,1 -2,2 -2,2 -4,1l0 0c0,0 -1,0 -1,-1 -1,0 -1,-1 -1,-1l0 0 0 0c1,0 1,0 2,0l0 0c0,0 0,0 0,0 0,0 0,0 0,0 0,-1 0,-1 0,-1l0 0c-1,0 -1,1 -2,1 -2,1 -3,1 -5,1 -2,0 -3,0 -5,0 -1,0 -2,0 -2,0l0 0 0 0c-1,0 -1,0 -1,0 0,0 0,0 -1,0 0,1 0,2 1,3l0 0c1,1 2,2 3,3 1,1 3,1 5,1 1,0 3,0 4,-1 0,0 1,-1 1,-1 0,0 1,-1 1,-1 1,0 1,-1 1,-1 0,0 1,-1 1,-1l0 0 0 0c1,2 1,5 1,8 0,2 0,4 0,5 1,1 1,1 2,1 0,0 1,0 1,0l20 0c0,0 1,0 1,0 2,0 5,0 6,0l0 -20 0 0 0 0c1,0 2,1 3,2 2,1 3,3 4,4l0 0c0,0 0,1 0,1 0,0 0,0 0,1 0,1 0,1 1,2 0,1 0,1 1,2 0,1 1,1 1,1 0,0 1,1 1,1 0,0 0,0 1,1 1,1 1,1 2,2 0,0 0,2 1,4 0,2 0,4 0,5l0 0 0 0c0,0 0,0 0,0 -1,0 -1,0 -1,0l0 0 0 0 0 0c-2,0 -19,0 -28,0 -3,0 -5,0 -6,0 -1,0 -1,0 -2,0 -3,0 -8,0 -9,0 -1,0 -1,0 -1,-1 -1,0 -1,-1 -3,0 -1,0 -1,0 -2,0 -3,0 -5,1 -8,-1 0,0 -1,0 -1,-1 0,0 0,0 -1,-1 0,0 0,-1 -1,-1 -1,-1 -2,-2 -3,-5l0 0 -2 -4 0 0c0,-1 -1,-1 -1,-2 0,0 -1,-1 -1,-1 -1,-1 -1,-1 -1,-2 0,0 0,-1 0,-2l0 0 0 0c1,0 2,-1 4,-1 1,0 2,-1 3,-1l0 0c0,0 0,0 0,0l0 0c1,0 1,0 2,0l0 0 0 0c0,0 0,0 0,0 0,0 0,0 0,0l0 0c0,0 0,0 1,0l1 0c1,0 1,0 1,0 0,0 0,0 0,0 1,0 2,0 3,0 1,0 2,0 2,0 0,0 1,0 1,0l0 0c1,0 3,-1 4,-1 0,0 0,0 1,0 0,0 0,0 1,0 0,0 1,0 1,0 1,0 2,-1 2,-2 0,-1 1,-1 1,-1 0,0 0,0 1,-1l0 0 0 0c0,0 1,0 2,0l0 0zm6 13c0,0 0,0 0,0 0,0 0,0 1,0l0 0 0 0 0 1 2 0 0 -3c0,0 -1,0 -2,0 -1,0 -1,0 -2,0 0,0 0,0 0,1 0,0 0,0 0,0 0,0 0,0 0,1 0,0 0,1 0,1zm1 0c0,0 0,0 -1,0l0 0 0 0c0,0 0,-1 0,-2 0,0 0,0 0,-1 0,0 0,0 0,0l0 0c0,-1 0,-1 0,-1 0,0 0,0 -1,0l0 2 0 0 0 0c-1,1 -1,1 -1,1 0,0 0,1 -1,2l0 0c0,0 0,0 0,0 0,0 0,0 0,1 0,0 0,0 0,0 0,0 0,0 1,0l0 0 0 0c0,-1 0,-1 1,-1 0,0 1,0 1,-1 1,-1 1,-1 5,0 0,0 1,0 1,0 1,0 2,0 3,0l0 0 0 0c0,0 0,0 0,1 0,0 0,0 1,0 1,0 1,0 1,1 0,0 0,0 0,0 1,0 1,0 1,0 0,0 0,-1 -1,-2 0,0 0,-1 -1,-2 0,-1 0,-1 0,-1 0,0 0,0 0,-2 0,-1 0,-1 0,-1 0,0 0,0 -1,0l0 0c1,0 1,3 0,4l0 0 0 0 0 0c-1,0 -1,0 -1,0 0,0 0,0 0,0l0 1 0 0 0 0c0,0 -1,0 -1,0 0,0 0,0 -2,0l0 0 0 0 0 -3 0 0 0 0c0,0 1,0 2,0 1,0 1,0 2,0 0,0 -1,-1 -1,-1l-1 -1 0 0c0,0 0,0 -1,0l0 0 0 0 0 0c-1,0 -2,0 -3,0l0 0c0,0 -1,0 -1,1l0 0 0 0c-1,0 -1,1 -1,1 0,0 0,0 0,0 0,0 1,0 2,0 1,0 2,0 2,0l0 0 0 0 0 3 0 0 0 0 -2 0 0 0 0 0c0,0 0,0 0,0l0 0 0 0 0 0c0,0 0,0 0,0zm5 -3l0 3c1,0 2,0 2,0 0,0 0,0 0,0l0 -1 0 0 0 0c1,0 1,0 1,1 0,0 0,0 0,0 0,-1 0,-3 0,-3 0,0 -1,0 -2,0 -1,0 -1,0 -2,0zm10 -8c0,0 1,0 1,0 0,-1 0,-1 0,-1l0 0c0,0 -1,0 -1,-1l0 0c0,0 0,0 0,0l0 0c0,0 1,-1 1,-1 0,0 1,0 1,0 0,0 0,0 0,0l0 0 0 0 0 0c0,1 0,1 0,1l0 0c0,0 0,0 0,0l0 0c0,0 0,0 0,0 0,2 0,4 0,6 0,5 0,10 0,15l0 0 0 0 -2 0 0 0c-3,0 -5,0 -8,0 -6,0 -13,0 -18,0l0 0 0 0 0 -13 0 0 0 0 3 -3 0 0c0,0 0,0 0,0l0 0c0,0 0,0 0,-1 1,-1 2,-1 3,-1l0 0c0,0 0,0 1,0 1,0 2,0 3,0 0,0 1,0 1,0l0 0 0 0 0 0c2,0 4,0 5,-1 0,0 1,-1 1,-2l0 0 0 0c0,-1 0,-1 1,-2 0,0 0,0 0,-1l0 0 0 0c1,0 2,1 3,1 0,0 1,0 1,1 0,0 1,0 1,0 0,0 1,0 1,0 0,0 1,0 1,0zm-17 9l0 -2 0 0 0 0c1,0 1,0 1,0 0,0 0,0 1,-1l0 0 0 0c1,-1 1,-1 2,-1l0 0c1,0 1,0 3,0l0 0 0 0 0 0c0,0 0,0 0,0l0 0c0,0 0,0 1,0l0 0 0 0 1 1 0 0 0 0c1,1 1,1 2,1 1,0 1,0 1,1 0,2 0,2 0,2 0,0 0,0 1,1 0,1 0,1 1,2 0,1 1,2 1,2 0,1 -1,1 -2,1l0 0 0 0 0 0c0,0 0,0 0,-1 0,0 0,0 -1,0 -1,0 -1,0 -1,-1 0,0 0,0 0,0 -1,0 -2,0 -2,0 -1,0 -1,0 -1,0 -3,0 -4,0 -4,0 0,0 0,0 -1,1 0,0 -1,0 -1,1l0 0c0,0 0,0 0,0l0 0 0 0c0,0 -1,0 -1,0 0,0 -1,0 -1,-1l0 0 0 0c0,0 0,-1 0,-1 0,0 0,0 0,0l0 0c0,-1 0,-1 1,-2 0,-1 0,-1 1,-2zm1 9c0,0 0,0 1,-1 0,0 1,-1 1,-1 0,0 0,0 0,-1 0,0 -1,-1 -1,-1 0,0 -1,0 -1,0 0,0 0,0 0,0 0,0 0,0 0,0 0,0 0,0 0,0 0,0 0,0 0,1l0 0 0 0 0 0c0,0 1,1 1,1zm1 0c0,0 -1,1 -1,1l0 0 0 0c-1,0 -1,-1 -1,-1l0 0 0 0c-1,-1 -1,-1 0,-2 0,0 0,0 0,0l0 0c0,0 0,0 0,0l0 0c1,-1 1,-1 2,0 0,0 1,0 1,1 0,0 1,1 0,1l0 0 0 0c0,0 0,1 -1,1zm-8 -1c0,0 0,1 1,1 0,0 1,1 1,1 0,0 0,0 1,-1 0,0 1,-1 1,-1 0,0 0,-1 -1,-1 0,0 -1,-1 -1,-1l0 0 0 0 0 0c0,0 0,0 -1,1 0,0 -1,1 -1,1zm0 1c0,0 -1,-1 -1,-1l0 0 0 0c0,0 1,-1 1,-1 0,0 1,-1 1,-1 0,0 0,0 0,0l0 0c0,0 1,1 1,1 0,0 1,1 1,1 0,0 0,0 0,0l0 0 0 0c0,0 -1,1 -1,1 0,0 -1,1 -1,1l0 0 0 0c0,0 -1,-1 -1,-1zm15 -1c0,0 0,1 1,1 0,0 1,1 1,1 0,0 0,0 1,0 0,0 1,-1 1,-1 0,0 0,-1 -1,-1 0,0 -1,-1 -1,-1 0,0 -1,0 -1,1 0,0 -1,1 -1,1zm0 1c0,0 -1,-1 -1,-1l0 0 0 0c0,0 1,-1 1,-1 0,0 1,-1 1,-1l0 0 0 0c0,0 1,0 1,1 0,0 1,1 1,1l0 0 0 0c0,0 -1,1 -1,2 0,0 -1,1 -1,1l0 0 0 0c0,0 -1,-1 -1,-1zm-4 0c0,0 1,-1 1,-1 0,0 0,-1 1,-1 0,0 0,0 0,-1 0,0 0,-1 -1,-1 0,0 -1,0 -1,0l0 0 0 0 0 0c0,0 -1,1 0,1l0 0 0 0 0 0c0,0 1,1 1,1zm1 0c0,1 -1,1 -1,1l0 0 0 0c-1,0 -1,-1 -2,-1l0 0 0 0 0 0c-1,-1 0,-1 0,-2l0 0 0 0 0 0c1,-1 1,-1 2,0 0,0 1,1 1,1 0,0 0,1 1,1l0 0 0 0c0,0 0,1 -1,1zm9 0c0,0 1,0 1,0l0 0c0,0 0,0 0,0l0 0 0 0 0 0c1,-1 1,-1 1,-1l0 0c0,0 0,0 0,0l0 0c0,0 0,0 -1,-1 0,-1 -1,0 -1,0l0 0 0 0 0 0 0 0c0,0 -1,1 -1,1 0,0 0,1 1,1 0,0 0,0 0,0zm1 0c0,0 -1,1 -1,1l0 0 0 0c0,0 0,0 -1,-1 0,0 -1,-1 -1,-1 -1,-1 0,-2 1,-2l0 0 0 0 0 0 0 0c1,-1 1,-1 2,0 0,0 1,1 1,1l0 0c0,0 1,1 1,1l0 0c0,0 0,1 -1,2l0 0 0 0 0 0c0,0 0,0 0,0zm-21 -35c0,0 0,0 0,0 0,0 0,0 0,1 0,0 0,0 0,1 0,0 0,0 0,1l1 0 0 0 0 0c0,1 0,1 1,1 0,0 0,0 1,0 0,0 1,0 1,0l0 0 0 0c0,0 0,0 0,0 0,0 0,0 0,0 0,0 -1,0 -1,-2 0,0 0,0 0,0l0 0c0,0 0,0 -1,0 0,0 0,0 0,0l0 0c0,0 -1,0 -1,0l0 1zm0 1c0,0 0,0 0,-1l0 0 0 0 1 -1 0 0 0 0c1,0 1,0 1,0l0 0c0,0 0,0 0,0 1,0 1,0 1,1l0 0 0 0c1,1 1,1 1,1 0,0 0,0 1,1l0 0 0 0c0,0 0,1 -1,1l0 0 0 0c0,0 -1,0 -1,0 0,0 0,0 -1,0 -1,0 -1,0 -1,-1l-1 0 0 0 0 0c0,0 0,-1 0,-1 0,0 0,0 0,-1 0,-1 0,-1 0,-1l0 0zm6 1l1 -1 0 0 0 0c0,0 0,0 0,0l0 0c0,0 0,0 0,0 1,-1 0,-3 0,-4 0,0 0,0 0,0 0,0 0,0 0,0 0,0 0,0 0,-1 0,-1 -1,-1 -2,0 0,0 -1,0 -1,1 0,0 -1,1 -1,1 -1,1 -1,1 0,2 0,0 1,0 1,1 1,0 1,0 2,1 0,0 0,1 1,1l0 0 0 0c0,0 0,1 1,1l0 0 0 0z"/>
   </g>
   <path class="fil1" d="M16 79l0 -7c0,0 0,0 0,0 0,0 0,0 0,0l0 0 2 0 0 0c0,0 0,0 0,0 0,0 0,0 0,0l0 7c0,0 0,0 0,0 0,0 0,0 0,0l0 0 -2 0 0 0c0,0 0,0 0,0 0,0 0,0 0,0zm7 -6l0 6c0,0 0,0 0,0 0,0 0,0 0,0l0 0 -2 0 0 0c0,0 0,0 0,0 0,0 0,0 0,0l0 -6 -3 0c0,0 0,0 0,0 0,0 0,0 0,0l0 0 0 -1 0 0c0,0 0,0 0,0 0,0 0,0 0,0l6 0c0,0 0,0 0,0 0,0 0,0 0,0l0 0 0 1 0 0c0,0 0,0 0,0 0,0 0,0 0,0l-3 0zm5 6l0 -7c0,0 0,0 0,0 0,0 0,0 0,0l0 0 2 0 0 0c0,0 0,0 0,0 0,0 0,0 0,0l0 7c0,0 0,0 0,0 0,0 0,0 0,0l0 0 -2 0 0 0c0,0 0,0 0,0 0,0 0,0 0,0zm4 -6l0 6c0,0 0,0 0,0 0,0 0,0 0,0l0 0 -2 0 0 0c0,0 0,0 0,0 0,0 0,0 0,0l0 -7c0,0 0,0 0,0 0,0 0,0 0,0l0 0 2 0 0 0c0,0 0,0 0,0 0,0 0,0 0,0l5 6 0 -6c0,0 0,0 0,0 0,0 0,0 0,0l0 0 2 0 0 0c0,0 0,0 0,0 0,0 0,0 0,0l0 7c0,0 0,0 0,0 0,0 0,0 0,0l0 0 -2 0 0 0c0,0 0,0 0,0 0,0 0,0 0,0l-5 -6zm10 3l0 3 5 0c0,0 0,0 0,0 0,0 0,0 0,0l0 0 0 1 0 0c0,0 0,0 0,0 0,0 0,0 0,0l-6 0 0 0c0,0 0,0 0,0 0,0 0,0 0,0l0 -7c0,0 0,0 0,0 0,0 0,0 0,0l0 0 6 0c0,0 0,0 0,0 0,0 0,0 0,0l0 0 0 1 0 0c0,0 0,0 0,0 0,0 0,0 0,0l-5 0 0 3 3 0c0,0 0,0 0,0 0,0 0,0 0,0l0 0 0 1 0 0c0,0 0,0 0,0 0,0 0,0 0,0l-3 0zm9 0l0 3c0,0 0,0 0,0 0,0 0,0 0,0l0 0 -2 0 0 0c0,0 0,0 0,0 0,0 0,0 0,0l0 -7c0,0 0,0 0,0 0,0 0,0 0,0l0 0 4 0c1,0 1,0 1,0 0,0 1,0 1,0 0,0 0,0 1,1 0,0 0,1 0,1 0,1 0,1 -1,1 0,0 -1,1 -2,1l2 3c0,0 0,0 1,0l0 0 -2 0 0 0c0,0 0,0 0,0 0,0 0,0 0,0l-2 -3 -3 0zm0 -1l3 0c0,0 1,0 1,0 0,0 0,0 1,0 0,0 1,-1 1,-1 0,-1 0,-1 -1,-1 0,0 0,0 -1,0 0,0 -1,0 -1,0l-3 0 0 3zm13 2l-4 0 -1 2c0,0 0,0 0,0 0,0 0,0 0,0l0 0 -2 0 0 0c0,0 0,0 0,0 0,0 0,0 0,-1l3 -6c0,0 0,0 0,0 0,0 0,0 0,0l0 0 2 0 0 0c0,0 0,0 0,0 0,0 0,0 0,0l3 6c0,0 0,1 0,1 0,0 0,0 0,0l0 0 -2 0 0 0c0,0 0,0 0,0 0,0 0,0 0,0l-1 -1zm0 -1l-2 -4 -2 4 4 0zm5 -1l0 3c0,0 0,0 0,0 0,0 0,0 0,0l0 0 -2 0 0 0c0,0 0,0 0,0 0,0 0,0 0,0l0 -7c0,0 0,0 0,0 0,0 0,0 0,0l0 0 4 0c1,0 1,0 1,0 0,0 1,0 1,0 0,0 0,0 1,1 0,0 0,1 0,1 0,1 0,1 -1,1 0,0 -1,1 -2,1l2 3c0,0 0,0 1,0l0 0 -2 0 0 0c0,0 0,0 0,0 0,0 0,0 0,0l-2 -3 -3 0zm0 -1l3 0c0,0 1,0 1,0 0,0 0,0 1,0 0,0 1,-1 1,-1 0,-1 0,-1 -1,-1 0,0 0,0 -1,0 0,0 -1,0 -1,0l-3 0 0 3zm11 1l0 3c0,0 0,0 0,0 0,0 0,0 0,0l0 0 -2 0 0 0c0,0 0,0 0,0 0,0 0,0 0,0l0 -3 -3 -3c0,0 0,-1 -1,-1 0,0 0,0 0,0l0 0 2 0 0 0c0,0 0,0 0,0 0,0 0,0 0,1l2 3 2 -3c0,0 0,0 0,0 0,0 0,0 0,0l0 0 2 0 0 0c0,0 0,0 0,0 0,0 0,0 -1,1l-2 3z"/>
  </g>
 </g>
</svg>
