<?xml version="1.0" encoding="UTF-8"?>
<!DOCTYPE svg PUBLIC "-//W3C//DTD SVG 1.1//EN" "http://www.w3.org/Graphics/SVG/1.1/DTD/svg11.dtd">
<!-- Creator: CorelDRAW X6 -->
<svg xmlns="http://www.w3.org/2000/svg" xml:space="preserve" width="21.6765mm" height="21.6765mm" version="1.1" style="shape-rendering:geometricPrecision; text-rendering:geometricPrecision; image-rendering:optimizeQuality; fill-rule:evenodd; clip-rule:evenodd"
viewBox="0 0 86 86"
 xmlns:xlink="http://www.w3.org/1999/xlink">
 <defs>
  <style type="text/css">
   <![CDATA[
    .str0 {stroke:#FEFEFE;stroke-width:1.99207}
    .fil0 {fill:#BC0300}
    .fil1 {fill:#FEFEFE;fill-rule:nonzero}
   ]]>
  </style>
 </defs>
 <g id="Layer_x0020_1">
  <metadata id="CorelCorpID_0Corel-Layer"/>
  <g id="_442161184">
   <circle class="fil0 str0" cx="43" cy="43" r="42"/>
   <path class="fil1" d="M38 53c0,1 -1,1 -2,2 -1,1 -2,2 -3,3 0,0 0,0 0,1 0,0 0,0 0,1 0,1 -1,1 -1,1 0,0 0,0 0,0 0,0 0,0 1,0l1 0 0 1c0,1 0,2 0,2 0,1 1,1 1,2l0 0c0,0 1,1 1,1 1,1 1,1 1,2 1,1 2,3 3,4 1,1 2,1 2,1 0,0 0,0 0,0l0 0c0,0 0,-1 1,-1 0,-1 1,-1 2,-1 2,0 4,-1 7,-3 0,-1 1,-1 1,-2 0,-1 0,-1 0,-2l0 0 0 0 0 0c0,0 0,0 0,0l0 0c0,0 -1,-1 -1,-1l0 -1 1 0c0,0 0,0 1,0l0 0c0,0 0,0 0,0 0,0 -1,-1 -1,-2 0,-1 -1,-1 -1,-2 -1,-1 -2,-2 -2,-2l0 0 0 0c-1,0 -2,-1 -2,-1 0,0 0,1 -1,1 0,0 -1,0 -1,0 -1,0 -1,0 -1,0 0,0 -1,0 -2,0 0,0 -1,0 -2,0 -1,0 -2,1 -3,0 0,0 0,0 0,0zm-12 -11c0,1 0,1 0,1 0,0 1,1 1,1l1 0c0,0 1,0 1,-1 0,0 0,-1 1,-2 0,0 1,-1 1,-1l0 0c0,0 1,-1 1,-1 0,0 -1,0 -1,0 -1,0 -2,1 -4,1zm0 2c0,0 0,-1 0,-2l0 0 0 0c2,0 3,-1 4,-1 1,0 1,0 1,0l0 0 0 0c0,1 0,1 -1,1l0 0c0,0 0,0 -1,1 0,1 -1,1 -1,2 0,1 0,1 -1,1l0 0 0 0 -1 0 0 0 0 0c0,0 -1,-1 -1,-1zm36 -1l0 0c-2,0 -3,-1 -4,-1 0,0 0,0 -1,0 0,0 0,0 0,0l0 0c0,1 0,1 -1,2 0,0 0,1 0,1 0,0 0,0 0,1 0,0 0,0 0,0 0,0 0,0 1,0 1,0 2,-1 3,-2l0 0 0 0 0 0 0 0c0,0 1,0 1,-1zm0 0l0 0 0 0 0 0c0,1 0,1 -1,1l0 0 0 0 0 0c-1,1 -2,2 -4,2 0,0 -1,0 -1,0 0,0 0,0 -1,0 0,0 0,0 0,0l0 0c0,1 0,2 -1,3 0,0 0,1 0,1l0 0 0 0c-1,0 -1,0 -1,-1 0,0 0,0 -1,0 0,0 -1,0 -1,0l0 0c0,0 -1,0 -1,0l0 0c-1,0 -1,0 -2,-1 -1,0 -1,0 -2,0l0 0 0 0c0,0 0,1 0,1 0,0 0,0 -1,0 0,0 0,0 0,0l0 0c0,0 0,0 0,0 0,0 0,1 -1,1 -1,0 -1,0 -1,0l0 0 0 0c0,0 0,0 1,0 0,0 1,0 1,0l0 0c0,0 1,0 1,0 1,0 3,1 4,2 2,1 4,3 4,4 0,0 1,1 1,1 1,1 1,2 4,3 2,1 5,0 6,-1 1,-1 2,-2 3,-3 1,-1 1,-2 1,-3 0,-1 -1,-3 -2,-4 0,0 0,0 0,0 -1,-1 -2,-1 -3,-1 -1,0 -2,0 -2,1 0,0 0,0 0,0 0,0 0,0 0,0 0,1 -1,2 0,3 0,1 1,2 1,2l0 0c0,0 0,0 0,0l1 0 -1 0c-1,0 -1,0 -2,0 -1,-1 -2,-1 -3,-2l0 0 0 0c0,0 0,-1 1,-1 0,0 0,0 1,-1 0,0 0,0 0,-1 0,0 0,0 0,-1l0 0c0,0 0,0 0,-1l0 0c0,0 0,0 0,0l0 0c0,0 0,-1 0,-1 0,-1 0,-1 1,-2l0 0c1,-1 3,-1 3,-2 1,-1 1,-1 1,-1 0,0 0,0 1,0 1,-1 2,-2 3,-3 0,-1 0,-2 0,-3 -1,-1 -1,-2 -1,-3 0,0 0,-1 0,-1 -1,-1 0,-1 0,-2 0,0 0,0 0,-1 0,-1 0,-2 0,-3 0,-1 0,-2 0,-2l0 0c0,-1 -1,-1 -1,-2 -1,0 -1,-1 -2,-1l0 0 0 0c0,-1 -1,-1 -1,-1 -1,-1 -1,-2 -4,-3 0,0 -1,0 -1,0 0,0 -1,0 -1,-1 0,0 0,-1 -1,-1l0 0c0,0 0,0 -1,-1l0 0c0,0 -1,-1 -1,-1 0,0 -1,0 -1,0 -2,-1 -3,0 -4,0 0,0 -1,0 -1,0l0 0 0 0c0,0 0,0 -1,0 -1,-1 -1,-1 -2,-1 -2,0 -2,0 -2,0l0 0c0,0 -1,1 -1,0 -1,0 -1,0 -2,0 0,0 -1,0 -1,1 -1,0 -1,0 -2,0 -2,0 -4,0 -5,2l0 0c0,0 0,0 0,0l0 0c0,0 0,1 -1,1l0 0c0,0 0,0 -1,0 0,0 -1,0 -2,1 -4,1 -4,2 -3,4l0 0 0 0 0 0 0 0c0,0 -1,1 -1,1 -1,1 -2,1 -2,3 -1,2 0,3 0,4l0 0c0,1 0,1 0,1 0,0 0,0 0,1 -1,1 -2,5 0,7 0,0 1,0 1,1l0 0c0,0 1,0 1,0l0 0 0 0c0,0 0,1 0,1 0,1 0,2 3,3l0 0 0 0c0,1 0,2 1,3 0,1 1,1 2,1l0 0 0 0 0 1 0 0 0 0c0,0 -1,1 -1,1 -1,1 -2,2 -4,2l-1 0 1 -1 0 0 0 0c0,0 3,-3 1,-5 -1,-1 -2,-1 -2,-2 -1,0 -1,0 -2,0l0 0c-1,0 -1,1 -2,1l0 0c-1,1 -1,3 -1,5 0,1 1,1 1,2 1,1 2,2 4,3 2,1 3,1 5,0 1,0 2,-1 3,-1 0,0 1,-1 1,-2l0 0c0,0 0,0 1,-1l0 0c1,-1 2,-3 4,-4 1,-1 3,-2 5,-3 0,0 1,0 1,0 0,0 -1,0 -1,-1 0,0 0,0 0,0 0,0 0,0 0,0 0,0 0,0 0,0 0,0 0,0 -1,0 0,0 0,0 -1,-1l0 0c-1,0 -1,0 -1,0 -1,0 -2,0 -3,0 -1,0 -2,1 -2,1 0,0 -1,0 -1,0l0 0 0 0c0,0 0,0 0,-1 0,-1 -1,-1 -1,-2l0 -1 0 0c0,0 1,0 1,0 0,0 0,0 1,0 1,0 3,0 4,-1 1,-1 3,-2 3,-3 1,-1 1,-2 1,-2 0,0 0,-1 0,-2l0 0 0 0c0,0 1,0 2,0 0,0 1,0 1,0 0,0 0,1 0,2 0,0 0,1 0,1 0,1 1,2 2,3 1,1 3,2 4,2 2,0 2,0 3,-1 0,0 1,0 1,-1l0 0c0,0 0,-1 0,-1 0,-1 0,-1 1,-2l0 0 0 -1 0 0 0 0c0,0 0,0 1,0 0,0 0,0 1,0 1,1 2,1 4,1zm-31 -3c0,0 -1,0 -2,-1 -1,0 -1,0 -2,-1 -1,0 -1,-1 -2,-2 -1,-1 -1,-1 -2,-2 0,0 0,0 0,0 0,0 0,0 0,0 0,0 0,1 -1,1 0,1 0,1 0,2 0,2 1,3 3,3 1,0 2,0 3,-1 0,0 1,0 1,0 0,0 0,0 0,0 0,0 1,0 1,-1zm-2 -1c1,0 2,1 2,1l0 0 0 0c0,1 -1,1 -1,1 0,0 0,0 0,0 0,0 -1,0 -1,0 -1,0 -2,1 -4,1 -2,0 -3,-1 -3,-4 0,-1 0,-1 0,-2 0,-1 0,-1 1,-2l0 0 0 0c0,0 0,0 1,0 0,0 0,0 0,1 0,1 1,1 1,2 1,1 1,1 2,2 0,0 1,0 2,1zm2 0l0 -4 0 0c0,-1 0,-1 0,-1 0,0 0,0 0,0l0 0c0,0 0,-1 -1,-1l-2 -3c0,0 0,-1 -1,-1 0,-1 -1,-1 -1,-2 0,0 -1,0 -1,1 -1,1 -1,2 -1,2 0,1 0,2 0,2 0,1 0,2 1,2 0,0 0,0 0,0l0 0c0,0 0,0 0,0 0,0 0,0 0,0 0,0 0,0 2,2l0 0 0 0 0 0 0 0 0 0c1,0 1,1 2,1 1,0 1,1 2,1zm1 -4l0 0 0 4 0 0 0 0c-1,0 -2,0 -2,-1 -1,0 -1,-1 -2,-1l0 0 0 0 0 0 0 0c-2,-1 -2,-2 -2,-2 0,0 0,0 0,0 0,0 0,0 -1,-1l0 0c0,0 0,0 0,0 -1,-1 -1,-2 -1,-3 0,-1 0,-2 0,-3 0,-1 1,-2 2,-2 1,-1 1,-1 2,-1l0 0 0 0c0,1 1,1 1,2 0,0 0,1 1,1l0 0 2 3c0,0 0,1 1,1l0 0 0 0c0,0 0,0 0,0 0,0 1,1 0,1zm0 -2l1 -4 -1 -3c0,-1 0,-2 -1,-3 0,-1 0,-2 0,-2 -1,0 -2,0 -3,1 -1,0 -1,1 -2,1 0,0 -1,1 0,1 0,0 0,0 0,1l0 0c0,0 0,0 0,0 0,0 0,0 0,0 0,0 0,0 0,0l0 0 0 0 0 1 0 0 0 0 0 0c0,1 1,2 1,2 0,1 1,2 1,2l0 1c0,0 0,1 1,1 0,0 0,1 0,1zm1 -4l-1 5 0 0 0 0c0,0 -1,-1 -1,-1 0,0 0,-1 0,-1l0 0 0 -1 0 0 0 0c0,-1 -1,-2 -1,-2 0,-1 -1,-2 -1,-2l0 0 0 0 0 0 0 0 0 0 0 -1 0 0 0 0c0,0 0,0 0,0 0,0 0,0 0,0 0,0 0,0 0,-1 0,-1 0,-1 1,-2 0,0 1,-1 2,-1 1,0 2,-1 3,-1l0 0 0 0c0,0 0,1 0,2l0 0c0,1 0,2 1,3l0 0 1 3 0 0 0 0zm0 -2c0,0 1,-2 1,-2l0 0 0 0c0,0 0,-1 1,-1 0,-1 1,-2 1,-3l0 0 0 0 1 -3 0 0c0,0 0,0 0,-1 0,0 0,0 0,0l0 0 0 0c0,0 0,0 -1,0 -2,0 -4,0 -4,3 -1,2 0,4 0,5 0,0 0,1 0,1 0,0 0,0 0,0l0 0c0,0 0,0 0,0 0,0 0,0 0,0zm1 -2c0,1 -1,2 -1,3l0 0 0 0 0 0 0 0c0,0 0,0 0,0 0,0 0,0 0,0 0,0 0,0 0,0 0,0 0,-1 0,-1 0,-2 -1,-4 0,-6 1,-2 3,-3 5,-3 0,0 0,0 1,0l1 0 0 0 0 0c0,0 0,0 0,1 0,0 0,0 0,0l-1 3c0,1 -1,2 -1,3 0,1 0,1 -1,1l0 0 0 0zm-3 14l1 -1 0 0c1,0 2,-1 3,-1 0,0 1,0 1,0 1,0 1,0 1,-1 0,0 0,0 0,0l0 0c1,-1 2,-4 3,-6 1,-3 2,-5 2,-6l0 0c0,-2 1,-6 0,-8 0,0 -1,0 -2,1 0,0 -1,0 -1,1 0,0 0,0 0,1l0 0 0 0 0 0 0 0 0 0 0 0c-1,1 -1,1 -1,2 0,0 0,0 0,0l0 0c0,0 0,0 0,0l0 0 -1 2 0 0 0 0c0,0 0,1 0,1 0,0 0,1 -1,1 0,0 0,0 0,0 0,0 0,0 0,0 -1,2 -1,5 -2,7 0,2 -1,4 0,5zm1 0l-1 1 0 0 0 0c0,-2 0,-3 0,-5 0,-3 1,-5 2,-7 0,0 0,0 0,0 0,0 0,0 0,0 0,-1 0,-1 1,-1 0,0 0,-1 0,-1l1 -2c0,0 0,0 0,0 0,0 0,0 0,0 0,-1 1,-1 1,-2l0 0 0 0 0 0 0 0 0 0c0,0 0,-1 0,-1 0,0 0,0 1,-1 1,-1 2,-1 3,-1 1,1 1,6 0,8l0 0c0,1 -1,4 -2,6 -1,3 -2,5 -3,7l0 0c0,0 0,0 0,0 0,1 0,1 -1,1 0,0 -1,0 -1,0 -1,0 -2,0 -3,1zm10 -23c0,0 0,0 0,1 0,0 0,1 0,1 0,2 0,4 0,6l0 0c0,2 -1,4 -1,6l0 0 0 1c0,1 -1,3 -1,4l0 0 -1 2 0 0c0,0 0,0 0,1 0,0 0,1 -1,1 0,0 0,0 0,0l0 0c0,0 0,0 1,0l0 0 0 0c1,0 1,0 1,0 0,0 0,-1 1,-1 1,-1 2,-3 3,-5l0 0 1 -2c0,-1 1,-2 1,-3 0,-1 0,-2 0,-3 0,0 0,-1 0,-1 0,-1 1,-3 0,-5 0,0 0,-1 0,-1 0,0 0,-1 -1,-1l0 0 0 0c0,0 -1,0 -2,0 -1,0 -1,0 -2,1zm0 1c0,0 0,-1 0,-1l0 0 0 0c1,0 1,-1 2,-1 1,0 1,0 2,0l0 0 0 0c0,0 1,1 1,1 0,0 0,1 1,1 0,2 0,4 0,5 0,0 0,1 0,1 0,1 0,2 0,3 0,1 0,2 -1,3l-1 2c-1,2 -2,4 -3,5 0,0 -1,1 -1,1l0 0 0 0c-1,0 -1,0 -2,0l0 0c-1,0 -1,0 -1,0l0 0c0,0 0,0 -1,0l0 0 0 0c0,-1 0,-1 1,-2 0,0 0,0 0,-1l0 0 1 -2 0 0c0,-1 1,-3 1,-4l0 -1 0 0c1,-2 1,-4 1,-6 0,-2 0,-4 0,-6 0,0 0,-1 0,-1zm6 0c0,1 0,1 0,1 0,1 0,1 0,3 0,1 0,1 0,2 0,1 0,2 0,3 1,0 2,-1 2,-1l0 0 0 0 0 0c1,-1 2,-2 3,-3 1,-1 2,-2 1,-3 0,0 0,-1 0,-1l0 0c0,0 0,0 0,0l0 0 0 0 0 -1c-1,0 -2,-1 -3,-1 -1,0 -2,0 -3,1zm0 1c0,0 0,-1 0,-1l0 0 0 0c1,-1 2,-1 3,-1 1,0 2,1 3,1l0 0 0 0 0 1c0,0 0,0 1,0l0 0c0,0 0,0 0,1 0,1 -1,3 -2,4 -1,1 -2,2 -3,3l0 0c-1,1 -2,1 -2,2l0 0 0 0c0,-1 0,-2 0,-3 0,-1 0,-1 0,-2 0,-2 0,-3 0,-3zm-3 16c1,0 2,-1 3,-1 1,-1 2,-1 3,-2l0 0c0,0 0,0 0,0l0 0c0,0 0,0 0,0 0,0 1,-1 1,-1l0 0c1,-1 1,-1 1,-2 0,0 0,-1 1,-1 0,0 1,-1 1,-2l0 0 0 0c0,0 0,0 0,0l0 0c0,0 0,0 0,0l0 0c0,0 0,0 0,0 0,-1 1,-2 1,-3 0,-1 0,-1 0,-2 0,1 -1,2 -1,3 -1,1 -2,2 -3,3l0 0 -4 3c0,0 0,0 0,0 0,0 0,0 0,0l0 0c0,0 0,0 0,1 0,0 0,0 0,1l0 0 -2 4 0 0c0,0 0,0 0,0l0 0zm3 -1c-1,1 -2,1 -3,1l0 0 0 0c0,0 0,0 0,0 0,0 0,0 0,0l2 -4c0,0 0,0 0,-1l0 0c0,0 0,0 0,-1l0 0c0,0 0,0 0,0 0,0 0,0 0,0l0 0 0 0 4 -3c1,-1 2,-2 3,-2 1,-1 1,-2 1,-3l0 0 0 0c1,1 1,1 1,2 0,1 0,2 -1,3 0,0 0,0 0,0l0 0 0 0 0 0c0,1 -1,1 -1,2 0,0 0,1 -1,1 0,0 -1,1 -1,2l0 0c-1,1 -1,1 -1,1 0,0 0,0 0,0l0 0c0,0 0,0 0,0l0 0c-1,1 -2,2 -3,2zm-5 5c1,0 2,0 2,0 1,0 2,0 3,0 0,0 1,0 1,0l0 0c0,0 1,0 1,0 1,0 1,0 2,0l0 0c0,0 0,0 1,0 0,0 0,-1 -1,-1l0 0c0,0 0,-1 -1,-1l0 0 0 0c-1,0 -2,0 -4,0l0 0c0,0 0,0 0,0 -1,0 -2,-1 -3,0l0 0 -2 2zm2 0c-1,0 -2,0 -3,0l0 0 0 0 2 -3 0 0c1,-1 3,-1 3,0 0,0 0,0 0,0 1,0 3,0 4,0 0,0 0,0 0,0l0 0c0,0 1,0 1,1l0 0c1,1 1,2 1,2l0 0 0 0c0,0 -1,0 -1,0 0,0 -1,0 -2,0 -1,0 -1,0 -1,0 0,0 -1,0 -1,0 -1,0 -2,0 -3,0zm2 -4c0,0 1,0 1,0 1,0 2,0 2,0 1,0 1,0 2,0 1,0 2,0 2,-1 1,0 2,-1 4,-2 1,-1 3,-2 3,-3 1,-1 1,-2 1,-4 0,0 0,-1 -1,-1 0,-1 -1,-1 -1,-1 0,0 -1,-1 -1,-1l0 0c0,0 -1,-1 -1,-1 0,0 -1,-1 -1,-1 0,1 0,2 0,3 0,1 -1,2 -1,3l0 0c0,0 0,0 0,0l0 0c0,0 0,0 0,1l-1 2 0 0 0 0c0,0 0,0 0,0l0 0c0,0 0,0 0,0l0 0c0,0 0,0 0,0l-2 2 0 0 0 0c0,0 -1,1 -2,1 0,0 -1,1 -1,1 0,0 0,0 0,0 0,0 0,0 0,0zm1 1c-1,0 -1,0 -2,0l0 0 0 0c0,0 0,0 1,0 0,0 0,0 0,0 0,0 1,0 1,-1 1,0 1,-1 2,-1l2 -2 0 0 0 0c0,0 0,0 0,0l0 0c0,0 0,0 0,0l0 0c0,0 0,0 0,0l0 0 0 0 0 0 0 0 1 -2 0 0c0,0 0,0 0,-1l0 0c0,0 0,0 0,0l0 0c1,-1 1,-2 1,-3 0,-1 0,-2 0,-3l0 0 0 0c0,0 1,0 2,1 1,0 1,1 1,1l0 0c0,0 1,1 1,1 0,0 1,1 1,1 0,0 0,1 1,1 0,2 0,3 -1,4 -1,1 -2,2 -3,3 -1,1 -3,1 -4,2 -1,0 -1,0 -2,1 -1,0 -1,0 -2,0 0,0 -2,0 -2,0zm5 1c1,0 3,0 5,0 2,0 4,-1 5,-2 0,0 0,0 1,0 0,0 0,0 1,-1l0 0c0,0 0,0 0,-1 0,0 0,-1 1,-2 0,-1 0,-1 0,-1 0,0 0,0 0,0 0,0 0,0 0,0l0 0c0,0 0,0 0,0l0 0c0,0 0,0 0,0 0,0 0,0 0,0 0,0 0,0 0,-1 0,0 0,0 -1,-1 0,0 -1,0 -1,0 0,0 0,1 0,1 0,1 0,2 -1,3 0,1 -1,1 -2,2 -1,1 -2,1 -3,2 0,0 0,0 -1,0 0,0 -1,0 -1,1l0 0c-1,0 -1,0 -2,1l0 0 0 0 -2 0zm5 1c-2,0 -4,0 -5,0l0 0 0 0 2 -1 0 0c1,0 1,0 2,-1l0 0c0,0 1,0 1,-1 0,0 0,0 1,0 1,0 2,-1 2,-2 1,-1 1,-1 2,-2 1,-1 1,-2 1,-3 0,0 0,-1 0,-1l0 0 0 0c0,0 1,0 1,0 0,0 1,0 1,1 0,1 0,1 0,1 0,0 0,0 0,0 0,0 0,0 0,0 0,0 0,0 0,0l0 0 0 0c0,0 0,1 0,1 0,1 0,2 -1,2 0,0 0,1 0,1l0 0c-1,1 -1,1 -1,1 0,0 0,0 -1,0 -1,1 -3,2 -5,2zm-1 5l1 0 0 0 0 0c0,0 0,0 0,0l0 0c0,0 0,0 1,1 0,0 0,0 0,0l0 0c0,0 0,0 0,0l0 0c0,0 0,0 0,0l0 0c0,0 0,0 0,0l0 0 0 0c0,0 1,0 2,0 1,0 1,0 2,0 1,0 2,-1 2,-2 0,-1 1,-1 1,-2 0,-1 0,-1 0,-1 0,0 0,0 0,0 0,0 -1,0 -1,0 -1,0 -3,1 -5,0 0,0 -1,-1 -1,-1 0,0 0,0 0,0 0,0 -1,0 -1,0 -1,0 -1,0 -2,0 -1,0 -1,0 -2,0 0,0 -1,0 -1,0 0,0 0,0 0,1 0,0 1,1 1,1l0 0 1 1c0,0 0,0 0,0l0 0c0,0 0,0 0,0 0,0 0,0 0,0l0 0 0 0 0 0 0 0 0 0 0 0 0 0c0,0 0,0 0,0l0 0c0,0 0,0 0,1l0 0c0,0 0,0 0,1zm1 0l-1 0 0 0 0 0c0,0 0,0 0,-1l0 0c0,0 0,-1 0,-1l0 0c0,0 0,0 0,0 0,0 0,0 0,0 0,0 0,0 0,0l0 0c0,0 0,0 0,0l0 0 -1 -1 0 0c0,0 -1,-1 -1,-1 0,0 0,-1 -1,-1l0 0 0 0c0,0 1,0 2,0 1,0 1,0 2,0 1,0 1,0 2,0 0,0 1,0 1,0l0 0 0 0c0,0 0,0 1,1 0,0 0,0 1,1 2,1 3,0 4,0 1,0 1,0 1,0 0,0 0,0 0,0 0,0 0,1 0,2 0,1 0,1 -1,2 -1,1 -1,1 -2,2 -1,0 -1,0 -2,0 -1,0 -1,0 -2,0l0 0 0 0 0 0 0 0 0 0 0 0 0 0 0 0 0 0c0,0 0,0 0,0l0 0 0 0c0,0 0,0 0,0 0,0 0,0 0,0 0,0 0,0 0,0 -1,0 -1,-1 -1,-1l0 0 0 0zm-15 -1c0,1 0,1 0,1 0,1 0,1 -1,3 -1,1 -2,2 -3,3l0 0c0,0 1,0 1,0 0,-1 0,-1 1,-1l0 0c0,0 1,0 1,0 0,0 1,0 1,1l0 1 -1 0c0,0 0,0 -1,0 0,0 0,0 0,0 0,0 0,0 0,0l0 0c0,0 0,1 0,1 0,0 0,0 0,0 0,0 0,0 1,0 0,0 0,0 0,1 0,0 0,0 0,0 0,0 0,1 1,0 0,0 0,0 0,0 0,0 0,0 0,0l0 0c0,0 0,0 1,-1 0,0 0,0 1,0 0,0 0,0 0,-1 0,0 -1,0 -1,0l0 0c0,0 0,0 0,0l-1 0 1 -1c1,-1 1,-1 2,-1 0,0 1,0 1,1 0,0 1,0 1,0 0,0 -1,-1 -1,-1 -1,-1 -2,-2 -3,-4 0,0 0,-1 0,-1 0,0 0,-1 0,-1 0,0 0,0 -1,0 0,0 -1,0 -1,0zm-8 8c0,0 0,0 -1,0 0,0 -1,0 -1,0l0 0c0,0 0,1 0,1 0,0 0,0 0,0 0,0 0,0 0,0 0,0 0,0 1,0zm18 0l0 0 0 0c0,0 1,0 1,1 0,0 0,0 1,0 0,0 0,0 1,0 0,0 0,0 0,-1 0,-1 0,-1 1,-2 0,0 0,0 0,0 -1,0 -1,1 -3,1zm-20 11c0,0 0,0 0,0 0,0 -1,1 -1,1 -1,1 -2,1 -3,1 -2,1 -4,0 -6,0 -2,-1 -3,-2 -4,-3 -1,-1 -1,-2 -1,-2 -1,-2 0,-4 1,-5l0 0c1,-1 1,-1 2,-2l0 0c1,0 2,-1 2,-1 1,0 2,1 3,2 2,2 0,5 -1,6 1,0 2,-1 3,-2 0,0 1,-1 1,-1l0 -1c-1,0 -1,-1 -2,-2 0,-1 -1,-2 -1,-3 -3,-1 -3,-2 -3,-3 0,0 0,0 0,-1 0,0 0,0 -1,0l0 0c-1,0 -1,0 -2,-1 -3,-2 -1,-6 0,-8 0,0 0,0 0,0 0,0 0,0 0,-1l0 0c0,-1 -1,-3 0,-5 1,-2 2,-2 2,-3 0,0 0,0 1,-1l0 0 0 0c0,-2 -1,-4 4,-5 1,0 2,0 2,-1 0,0 0,0 0,0l0 0c0,0 0,0 0,0l0 0c0,0 0,0 0,0l0 0c1,-2 3,-3 5,-3 1,0 1,0 2,0 1,0 1,0 1,0 1,0 1,-1 2,0 0,0 1,0 1,0l0 0c0,0 1,-1 3,-1 1,0 2,1 3,1 0,0 0,0 0,0 0,0 0,0 1,0 1,0 3,-1 5,0 0,0 1,0 1,1 0,0 1,0 1,1l0 0c0,0 1,1 1,1l0 0c0,0 0,0 1,1 0,0 1,1 1,1 0,0 0,0 1,0 3,2 3,2 4,4 0,0 1,1 1,1 1,0 2,0 2,1 1,0 1,1 1,2l0 0c0,1 0,2 0,3 0,1 0,2 -1,3 0,0 0,1 0,1 0,0 0,0 0,1 0,0 0,1 0,1 0,0 0,1 1,2 1,1 1,3 0,4 -1,1 -2,3 -3,3 0,0 -1,0 -1,0 0,0 0,0 -1,1 -1,1 -2,2 -3,3l0 0c0,0 0,1 0,1 0,0 0,1 0,1l0 0c0,0 0,0 0,1l0 0c0,0 0,0 0,0l0 0c0,0 0,0 0,1 0,0 0,0 0,1 0,1 0,1 -1,1 0,0 0,0 0,0 0,0 1,1 2,1 0,0 0,0 1,0 -1,-1 -1,-1 -1,-2 0,-1 0,-2 1,-3 0,0 0,0 0,0 0,0 0,0 0,0 1,-1 2,-1 3,-1 1,0 2,0 3,1 0,0 0,0 0,0 2,1 2,3 2,4 0,1 0,3 -1,4 -1,1 -2,2 -3,3 -2,1 -5,2 -7,1 -2,0 -2,-1 -3,-2 0,1 1,2 1,2 0,0 0,0 0,1l0 0 0 0c0,0 -1,0 -1,0 0,0 0,0 0,1l0 0 0 0 0 0c0,1 0,1 0,2 0,1 -1,1 -1,2 -2,3 -5,3 -7,4 -1,0 -2,0 -2,1 0,0 -1,1 -1,1l0 0c0,0 0,1 -1,1 -1,0 -2,0 -3,-1 -2,-1 -3,-3 -4,-4 0,-1 -1,-1 -1,-2 0,0 -1,-1 -1,-1l0 0c-1,-1 -1,-1 -1,-2 0,-1 0,-1 0,-2 0,0 0,0 -1,0l0 0 0 0c0,-1 0,-1 1,-1 0,0 1,-1 1,-1zm14 -6c0,0 0,0 1,-1 -1,0 -2,-1 -2,-1 0,0 -1,0 -1,0l0 0c0,0 0,0 -1,0 0,0 -1,0 -1,0l0 0c0,0 0,0 -1,0 -1,0 -2,1 -3,1 0,0 0,0 0,0 0,0 0,0 0,0 1,1 1,0 2,0 1,0 1,0 2,0 1,0 1,0 2,0 0,0 1,0 1,0 0,0 1,0 1,0z"/>
  </g>
 </g>
</svg>
