<?xml version="1.0" encoding="UTF-8"?>
<!DOCTYPE svg PUBLIC "-//W3C//DTD SVG 1.1//EN" "http://www.w3.org/Graphics/SVG/1.1/DTD/svg11.dtd">
<!-- Creator: CorelDRAW X6 -->
<svg xmlns="http://www.w3.org/2000/svg" xml:space="preserve" width="21.5mm" height="21.5mm" version="1.1" style="shape-rendering:geometricPrecision; text-rendering:geometricPrecision; image-rendering:optimizeQuality; fill-rule:evenodd; clip-rule:evenodd"
viewBox="0 0 97 97"
 xmlns:xlink="http://www.w3.org/1999/xlink">
 <defs>
  <style type="text/css">
   <![CDATA[
    .str2 {stroke:#FEFEFE;stroke-width:0.452915}
    .str3 {stroke:#BC0300;stroke-width:0.452915}
    .str1 {stroke:#FEFEFE;stroke-width:1.13229}
    .str0 {stroke:#FEFEFE;stroke-width:2.26458}
    .fil1 {fill:none}
    .fil2 {fill:#FEFEFE}
    .fil0 {fill:#BC0300}
   ]]>
  </style>
 </defs>
 <g id="Layer_x0020_1">
  <metadata id="CorelCorpID_0Corel-Layer"/>
  <g id="_442304856">
   <circle class="fil0 str0" cx="49" cy="49" r="48"/>
   <path class="fil1 str1" d="M49 26c-1,1 -1,2 -1,4 0,12 0,25 0,37 0,2 1,2 3,2 4,0 27,0 28,0 1,0 1,-3 1,-4l0 -32c0,-2 0,-3 0,-5 0,-2 -1,-2 -3,-2 -4,0 -27,0 -28,0zm2 40l27 0 0 -38 -27 0 0 38z"/>
   <path class="fil1 str1" d="M23 50l-1 3c-1,0 -4,-3 -6,-2 -1,0 -1,2 -1,2 0,1 -1,2 -1,3 -1,2 -2,4 -3,5 -1,3 0,3 4,5 1,0 1,0 1,1 1,2 4,2 4,-1 0,-1 5,-10 5,-11 0,-2 -1,-2 -2,-2 0,-1 1,-2 1,-3 0,-1 0,-1 1,-1 1,0 1,0 1,-1 1,-1 0,-3 1,-4 0,-1 0,-2 2,-3 0,2 -1,6 0,7l3 5c2,3 2,2 2,6 0,2 0,6 1,7 1,1 2,1 3,0 1,-1 1,-2 1,-3 0,-3 0,-5 0,-8 0,-3 -1,-3 -2,-6 -2,-3 -1,-2 -1,-7 1,0 1,1 2,2 1,0 2,0 3,0 2,0 4,1 5,-1 1,-3 -3,-3 -5,-3 -1,0 -1,0 -2,-1 0,0 0,-1 -1,-1 -2,-3 -3,-6 -8,-3 -1,1 -5,3 -6,4 -1,1 -1,1 -1,3 0,1 0,3 0,4 0,1 0,1 1,1l0 1zm9 -23c-5,2 -3,9 2,8 2,-1 4,-3 3,-5 -1,-2 -3,-4 -5,-3zm-3 26c0,2 1,4 0,5 -1,1 -1,3 -2,4 0,1 -1,3 -1,4 0,2 1,3 3,2 1,-1 2,-2 2,-4 1,-2 1,-3 1,-4 -1,-5 0,-3 -3,-7l-1 -1z"/>
   <path class="fil2 str2" d="M63 56c0,0 -1,0 -1,0 -1,0 -1,2 -2,3l-1 0 0 1 1 0c0,3 0,3 0,4 0,1 0,1 1,1 1,0 1,-1 1,-2l6 0c0,1 0,2 1,2 0,0 0,0 1,0 0,0 0,-1 0,-1 0,-1 0,0 0,-3 0,-1 0,-1 0,-1l0 0 0 -1c-1,0 -1,0 -1,-1 -1,-2 -1,-2 -3,-2l0 -1c-1,0 -1,0 -2,0 -1,0 -1,0 -1,1z"/>
   <path class="fil0 str2" d="M61 59l7 0c0,0 -1,-2 -1,-2 -2,0 -3,0 -5,0 0,0 -1,2 -1,2z"/>
   <path class="fil1 str3" d="M68 62c0,-1 0,-1 -1,-1l0 0c-1,0 -1,2 1,1z"/>
   <path class="fil1 str3" d="M61 62l1 0c0,-1 0,-1 -1,-1 0,0 -1,0 -1,1 0,1 0,1 1,1z"/>
   <path class="fil2 str2" d="M57 33l3 -1 8 3 4 -1 2 0c0,0 1,0 -1,1 -1,1 -17,6 -17,6l-3 -4 2 -1 3 2 5 -2 -5 -4z"/>
   <g>
    <path class="fil2" d="M62 45c0,0 0,0 0,0 0,0 0,0 0,0 0,0 0,0 -1,1 -1,1 0,3 1,3 0,0 0,0 1,0 2,0 13,0 13,0 0,0 0,-5 0,-6 0,0 0,0 0,-1 0,0 0,0 0,0 0,0 -3,0 -4,0 0,0 0,0 0,1 0,1 0,0 0,1 0,1 0,1 0,2l-1 0 0 -1 -1 0 0 1 -1 0 0 -1c0,0 -2,0 -2,0 0,0 0,1 0,1l-1 0c0,-1 0,-1 0,-2 0,-1 0,0 0,-1 0,0 0,0 0,0 0,0 0,0 0,0l-3 0c0,2 0,0 0,2 0,1 0,1 0,2z"/>
    <path class="fil2" d="M60 53l2 0c1,-2 0,-2 1,-3 0,0 1,0 1,0 1,0 1,0 1,1 0,0 1,-1 1,-1 1,0 1,0 1,1 0,0 1,-1 1,-1 1,0 1,0 1,1 0,0 0,0 0,0l0 0c0,0 0,0 1,-1 0,0 1,0 1,0 1,0 1,1 1,2 1,0 1,0 1,-2 0,0 0,0 0,0l-13 0c-1,0 0,0 -1,1 0,1 -1,2 -1,3z"/>
    <path class="fil2" d="M71 44l1 0c0,0 1,0 1,0 0,0 0,-2 0,-2 0,0 -2,0 -2,0 0,0 0,2 0,2z"/>
    <path class="fil2" d="M69 50c-2,1 -1,3 1,2 1,-1 1,-3 -1,-2z"/>
    <path class="fil2" d="M66 50c-2,1 -1,3 1,2 1,-1 1,-3 -1,-2z"/>
    <path class="fil2" d="M72 50c-2,1 -1,3 1,2 1,-1 1,-3 -1,-2z"/>
    <path class="fil2" d="M63 50c-2,1 -1,3 1,2 1,-1 1,-3 -1,-2z"/>
   </g>
  </g>
 </g>
</svg>
