<?xml version="1.0" encoding="UTF-8"?>
<!DOCTYPE svg PUBLIC "-//W3C//DTD SVG 1.1//EN" "http://www.w3.org/Graphics/SVG/1.1/DTD/svg11.dtd">
<!-- Creator: CorelDRAW X6 -->
<svg xmlns="http://www.w3.org/2000/svg" xml:space="preserve" width="21.6765mm" height="21.6765mm" version="1.1" style="shape-rendering:geometricPrecision; text-rendering:geometricPrecision; image-rendering:optimizeQuality; fill-rule:evenodd; clip-rule:evenodd"
viewBox="0 0 115 115"
 xmlns:xlink="http://www.w3.org/1999/xlink">
 <defs>
  <style type="text/css">
   <![CDATA[
    .str0 {stroke:#FEFEFE;stroke-width:2.6563}
    .fil0 {fill:#BC0300}
    .fil1 {fill:#FEFEFE;fill-rule:nonzero}
   ]]>
  </style>
 </defs>
 <g id="Layer_x0020_1">
  <metadata id="CorelCorpID_0Corel-Layer"/>
  <g id="_438725496">
   <circle class="fil0 str0" cx="58" cy="58" r="56"/>
   <path class="fil1" d="M52 15c-2,0 -3,1 -5,1 -2,1 -3,1 -4,2l0 0c0,0 0,0 0,0l0 0 -1 0 0 0c-1,1 -2,1 -2,2 -1,1 -2,2 -2,3 -1,1 -1,1 -3,1 0,0 -1,0 -1,0l0 0c0,0 0,0 -1,0 -1,0 -1,0 -1,0 0,0 -1,0 -1,1 1,2 4,2 7,3 7,1 16,0 19,0 0,-2 -1,-3 -1,-5 0,-2 0,-4 0,-6 0,-1 0,-2 0,-2 0,0 0,-1 0,-1 0,0 0,0 0,0 0,0 -1,0 -1,0l0 0 0 0 0 0 0 0c0,0 0,0 0,0 0,0 -1,0 -1,0l0 0 0 0 0 0 0 0c-1,0 -1,0 -2,0l0 0 0 0zm18 24c0,0 0,0 0,0l0 0 0 0zm-33 28c0,0 1,1 1,1 1,0 1,0 2,0 0,0 0,0 0,0 1,0 2,-1 2,-3 0,0 -1,0 -1,0 -1,0 -2,-1 -3,-3 -1,-1 -1,-2 -1,-4 0,-1 0,-2 0,-2 -1,0 -2,0 -3,1 -2,1 -3,1 -5,0 -1,-1 -3,-1 -4,-2 -1,-1 -2,-2 -3,-3 0,0 -1,-1 -1,-2 0,-1 -1,-1 -1,-2 0,0 0,0 -1,-1 -1,-1 -1,-1 -2,-4 0,-1 0,-1 0,-2 0,-1 0,-1 0,-1l0 0c0,-1 0,-1 1,-1l0 0c0,0 0,0 0,-1 0,-1 1,-3 2,-4 1,-1 2,-2 3,-3 1,-1 1,-1 1,-2 0,-1 0,-2 2,-4 2,-2 4,-2 6,-2l0 0c0,0 1,0 1,0 0,-1 1,-2 2,-3 1,-1 3,-3 4,-3 3,-2 7,-3 10,-4 3,0 7,0 11,1 1,0 2,1 4,1 1,0 2,1 3,2 0,0 1,0 1,1 0,0 1,0 1,0l0 0 0 0c0,0 0,0 1,1 0,0 0,0 1,0 0,0 0,0 1,1 0,0 0,0 0,0 0,0 1,0 1,0 1,0 2,0 5,0l0 0 0 0c1,0 1,0 1,0 1,0 2,1 4,2 1,0 1,1 2,2 1,1 1,1 2,2l0 0c0,0 0,1 1,1 1,1 1,1 2,3 1,2 2,5 2,7 0,3 0,5 -1,8 -1,1 -1,3 -2,4 -1,1 -2,2 -3,3 -1,1 -3,2 -4,3 -1,1 -3,1 -4,1l0 0c-1,0 -1,0 -1,0l-2 -1 2 0c0,0 1,0 2,-1 1,0 1,-1 2,-1 0,-1 0,-2 -1,-3 0,-1 -1,-2 -1,-2l-2 1c0,0 0,0 -1,0 -3,2 -4,-4 -8,-3l-1 6 0 0c2,1 5,2 5,6l0 0c0,2 -2,2 -3,3l0 0c0,0 0,0 0,0 0,1 1,2 1,2 0,0 1,1 1,1 1,0 2,0 2,0 0,0 0,0 1,0 0,0 0,0 0,0l0 0 0 0 0 0c0,0 0,0 0,0 0,0 1,-1 1,-1 0,0 0,-1 0,-2l0 -1 1 0c1,0 2,0 2,1 1,1 1,2 1,3 0,1 0,2 0,3 -1,2 -2,4 -3,5 -1,1 -2,1 -3,2 -1,0 -2,1 -3,1 -2,0 -3,0 -4,0 0,0 1,0 1,1l0 0 1 1c2,1 5,4 7,5 1,1 3,2 3,4l0 0 0 0c0,0 -1,1 -1,1 -1,1 -2,2 -3,3 -3,3 -7,4 -12,5 -5,1 -10,1 -15,1 -3,0 -6,-1 -9,-2 -2,-1 -4,-2 -6,-3 -1,0 -1,-1 -2,-1l0 0 0 0c0,-1 1,-3 1,-4 1,-1 2,-3 3,-4l0 0c0,0 0,0 1,-1 0,-1 1,-1 1,-2 1,-1 1,-1 2,-2 0,0 0,0 1,0 1,0 1,-1 2,-2 -2,0 -3,0 -5,-1 -2,-1 -3,-1 -5,-3 -1,-2 -2,-4 -2,-5 0,-1 0,-1 0,-2l0 0c0,-1 1,-1 1,-1 0,0 1,-1 2,-1l1 0 0 1c0,1 0,1 0,2l0 0zm5 2c2,0 4,-1 6,-2 1,-1 3,-1 4,-1 0,0 0,0 0,0 0,0 0,0 0,0l0 0 0 0c0,-1 1,-2 2,-3l0 0c1,-1 2,-2 2,-3 0,-3 0,-5 -1,-7 0,-1 0,-1 0,-2l0 0 0 0c1,0 1,0 2,0 0,0 1,0 1,0 0,0 1,0 1,0 0,0 1,0 1,0l0 0 0 0c0,1 0,2 0,3 0,2 0,3 0,5 1,3 1,4 1,4 0,0 1,1 1,2 0,1 0,2 0,2 0,0 0,0 -1,1 2,0 4,0 6,0 1,0 2,0 3,0 0,0 0,0 1,0 0,0 1,0 2,0 -1,-1 -1,-2 -2,-3l0 0 0 0 0 0 0 0c0,0 0,0 1,0l0 0c1,0 2,-1 2,-2 1,-3 -2,-4 -4,-5 0,0 -1,0 -1,0l0 0 0 0 1 -7 0 0 0 0 0 0c3,-1 4,5 7,3 0,0 0,0 1,0 1,0 2,-1 2,-1l0 0 0 0c1,0 1,1 1,3 0,1 1,3 1,3 1,-1 3,-2 3,-2 1,-1 2,-2 3,-3 1,-1 1,-2 2,-4 1,-2 1,-5 1,-7 0,-2 -1,-5 -2,-7 0,-1 -1,-2 -2,-3 0,0 0,-1 -1,-1l0 0c0,0 0,0 0,0l0 0 0 0c0,1 0,1 0,2 0,0 0,0 0,0l0 0 0 0c0,1 0,1 -1,2 0,0 -1,1 -1,1 0,0 0,0 -1,0l0 0 0 0 0 0c0,0 0,0 -1,0l-1 0 0 0c-2,1 -5,2 -7,3 -2,1 -5,1 -8,1l-2 0 1 -1 8 -6c0,0 1,-1 1,-1 1,-1 1,-1 2,-3l0 0 1 -1 0 0 0 0c1,-1 1,-2 2,-2l0 0 0 0c0,0 -1,0 -1,0 -3,0 -4,0 -5,0 0,0 -1,0 -2,0l0 0 0 0c0,0 0,0 -1,-1 0,0 0,0 -1,-1 0,0 0,0 -1,0 0,0 -1,0 -1,-1 0,0 0,0 -1,0 0,0 -1,0 -1,-1 -1,-1 -2,-1 -3,-1 -1,0 -2,-1 -3,-1 -2,0 -4,-1 -5,-1 0,0 0,1 0,1 0,1 0,1 0,2 0,2 0,4 0,6 0,2 1,4 1,6l0 1 -1 0c-1,0 -12,1 -20,0 -4,-1 -7,-2 -8,-4 -2,2 -2,3 -2,3 0,1 0,1 -2,2 -1,1 -2,2 -3,3 -1,1 -1,2 -2,4 0,1 0,1 -1,1l0 0c0,0 0,0 0,1l0 0c0,0 0,1 0,1 0,1 0,1 0,2 0,2 1,3 1,3 0,0 0,1 1,1 0,1 1,1 1,2 0,1 1,1 1,2l0 0 0 0c1,1 1,2 2,2 1,1 2,2 4,2 1,1 3,0 4,0 1,0 2,-1 4,-1l0 0c0,-2 1,-4 2,-5 1,-1 2,-2 2,-2l1 0 0 1c0,0 0,1 0,2 0,3 0,9 0,9l0 0c0,0 0,1 0,1 0,1 0,1 0,1 0,0 0,1 0,1l0 0c0,0 0,1 -1,1 0,0 0,0 0,0l0 0 0 1c0,1 -1,2 -1,3zm36 -2c0,0 0,0 0,0l0 0c0,0 -1,1 -2,1 -1,0 -1,0 -2,0 -1,0 -3,0 -3,0 0,0 0,0 -1,0 -1,0 -2,0 -3,0 -3,0 -6,-1 -8,1 -1,1 -2,1 -2,2 0,1 0,1 -1,1l0 0c0,0 0,0 0,-1 0,0 0,0 -1,-1 -3,-2 -5,-1 -7,0 -2,1 -4,2 -7,2 0,0 -1,0 -1,0 0,0 -1,0 -1,0l0 0c-1,0 -1,0 -2,-1 -1,-1 -2,-2 -2,-3 0,0 -1,0 -1,0 0,0 0,1 -1,1l0 0c0,0 0,1 0,1 0,2 1,4 2,5 1,1 2,2 4,2 2,0 4,1 5,1l0 0c0,0 0,0 1,-1l0 0 0 0c1,0 1,0 2,1l0 0 1 0c0,0 1,0 1,-1 1,0 1,0 2,-1 0,0 1,0 1,-1 1,0 3,-1 3,-1l0 0 0 0c0,0 0,0 0,1l0 0c0,0 0,0 0,0l0 0c0,0 0,0 0,0l0 0c0,0 0,0 1,1l0 0c0,0 0,0 0,0l0 0c0,0 0,0 0,0l0 0c0,0 0,0 0,0 0,0 0,-1 1,-1l0 0 0 0c0,0 1,0 1,0 1,0 3,1 4,1l0 0 0 0 0 0c0,0 1,0 1,1l0 0c0,0 1,0 2,0 1,0 3,0 5,0 1,0 2,-1 3,-1 1,0 2,-1 3,-1 1,-1 2,-3 2,-4 0,-1 0,-2 0,-3 0,-1 0,-2 -1,-2 0,0 -1,0 -1,0 0,0 0,1 0,1 0,1 0,1 -1,2 0,0 0,0 -1,1zm-24 0c1,0 1,0 2,1 0,0 1,0 1,1 0,0 1,-1 2,-1 0,0 1,0 1,-1 -1,0 -1,0 -1,0l0 0c0,0 0,0 -1,0 0,0 -1,0 -1,1 0,0 -1,1 -1,1 0,0 0,0 -1,0zm-7 -15c0,0 -1,0 -1,0l0 0 0 0 0 0c0,0 0,0 -1,1 0,0 0,1 0,1 0,0 1,0 1,0 1,0 1,0 2,0 0,0 0,0 1,0 1,0 1,0 2,0 0,0 0,0 0,0l0 0c0,0 0,0 0,0 0,0 0,0 0,0 0,0 0,0 0,0 0,0 -1,-1 -2,-1 -1,0 -2,0 -3,0zm-1 -1c0,0 0,0 0,0 1,0 2,0 3,0 1,0 2,0 3,1 0,0 0,0 0,1 0,0 0,1 0,1 0,0 0,1 0,1l0 0c0,0 0,0 -1,0 -1,0 -2,0 -2,0 0,0 0,0 -1,0 -1,0 -1,0 -2,0 -1,0 -2,1 -3,0 0,-1 0,-1 0,-2 0,0 1,-1 1,-1l0 0 0 0c0,0 0,0 1,0l0 0c0,0 0,0 0,0l0 0zm14 1c0,0 0,0 0,-1l0 0c0,-1 1,-2 3,-2 1,0 2,0 3,0l0 0c1,0 2,1 2,2 0,0 0,1 0,1 0,0 -1,1 -1,1 -1,1 -1,0 -2,0 0,0 0,0 -1,0 -1,0 -1,0 -2,0l0 0 0 0c-1,1 -1,0 -2,0 0,0 0,0 -1,0l-1 0 0 -1zm1 0l0 0c0,0 1,0 1,1 0,0 0,0 0,0l0 0 0 0c1,0 1,-1 2,0 0,0 1,0 1,0 0,0 1,0 1,0 0,0 0,0 0,0 0,0 0,0 0,-1 0,0 -1,-1 -1,-1l0 0c-1,0 -2,0 -3,0 -1,0 -2,1 -2,2l0 0zm6 5l0 1c0,1 0,4 0,4 0,0 0,0 0,0l0 0c0,0 0,0 0,0 0,0 0,0 1,0 1,0 1,0 2,-1l0 0c0,0 1,-1 1,-1 0,0 0,-1 0,-1l0 0c0,0 -1,-1 -1,-1 -1,0 -1,-1 -2,-1zm-1 1c0,-1 0,-1 0,-1l0 -1 1 0c1,0 2,0 3,1 1,0 1,1 1,2l0 0c0,1 1,1 0,2 0,1 0,1 -1,2l0 0c-1,0 -1,1 -2,1 0,0 -1,0 -1,0 0,0 -1,0 -1,-1l0 0c0,0 0,0 0,-1 0,-1 0,-3 0,-4zm-13 -7c0,0 0,1 0,1 0,2 1,4 1,7 0,2 -1,3 -2,4l0 0c-1,1 -1,2 -1,2l0 0c0,0 1,1 2,0 0,0 1,0 1,-1 1,0 1,-1 2,-1l0 0c1,0 1,0 1,0l0 0c0,0 1,0 2,0 0,0 1,0 1,-1 0,0 0,-1 0,-1 0,-1 -1,-1 -1,-1 -1,-1 -1,-2 -2,-5 0,-1 0,-3 0,-5 0,-1 0,-2 0,-2 0,0 0,0 -1,0 0,0 -1,0 -1,0 0,0 -1,0 -1,0 0,0 -1,0 -1,0zm-12 0c0,0 -1,1 -1,1 -1,1 -1,3 -2,5 0,2 -1,4 0,5 0,1 0,2 1,2 0,0 1,0 2,0 0,0 0,0 1,0 0,0 0,0 0,0l0 0c0,0 0,0 0,-1 0,0 0,-1 0,-1 0,0 0,-1 0,-1l0 0c0,-1 0,-6 0,-10l0 -2zm28 -10c0,0 0,0 0,0 0,0 0,0 0,1l-2 2 0 0c-1,1 -2,1 -2,2 -1,1 -2,1 -3,2 -1,0 -1,1 -2,1l0 0c0,0 -1,0 -1,0l0 0c-1,0 -2,1 -3,1 -2,0 -3,0 -4,0l0 0c-5,0 -6,0 -8,-1l0 0 -1 0 -1 0 1 -1c0,0 3,-1 4,-1 0,0 1,0 1,0l0 0 1 0c1,0 3,-1 4,-2l0 0 9 -4 0 0 0 0c0,0 0,0 0,0 0,0 0,0 0,0 1,0 1,0 2,1 1,0 2,0 3,0l0 0 0 0 0 0 0 1 0 0zm-3 1l1 -1c-1,0 -1,0 -2,0 -1,0 -2,0 -3,-1 0,0 0,0 -1,0l0 0 -9 4 0 0c-1,1 -3,1 -5,2l-1 0 0 0c0,0 -1,0 -1,0 -1,0 -2,1 -3,1 2,1 3,1 7,1 1,0 3,0 4,0 1,0 2,0 3,-1l0 0c0,0 1,0 1,0l0 0c1,0 1,0 2,-1 1,0 2,-1 3,-2 1,-1 2,-1 2,-2l0 0zm-18 36c0,0 1,0 1,1 1,0 2,0 3,0 0,0 1,-1 1,-1 1,-1 1,-1 2,-2 0,0 0,0 0,0l0 0c0,0 0,0 0,0 0,0 0,0 0,0 -1,0 -2,1 -3,1 -1,0 -1,0 -1,1 -1,0 -1,1 -2,1 0,0 0,0 0,0zm8 -1c0,0 -1,1 -1,2 -1,1 -1,1 -1,1l0 0 0 0 0 0c0,0 0,1 0,2 0,1 0,1 -1,2 0,2 0,3 0,3 0,0 0,0 0,0l0 0c0,1 0,0 -1,0 0,0 0,0 0,0l0 0 0 1c0,0 0,1 0,1 0,2 0,4 1,5 0,0 0,1 1,1 0,0 1,0 1,-1 0,-1 1,-2 1,-3 1,-4 2,-11 2,-12l0 -3 0 0zm1 0l2 2c1,0 2,0 2,-1 1,0 1,-1 2,-1l0 0 0 0 0 0 0 0c-1,0 -3,-1 -4,-1l-1 0c0,0 0,1 0,1 0,0 0,0 0,0l0 0c0,0 0,0 0,0l0 0c0,0 0,0 0,0zm2 3l-3 -2 1 2c0,1 0,2 0,4 0,1 0,2 0,3 0,1 1,4 2,6 0,1 1,1 1,2l0 0c0,0 1,0 1,0 0,0 0,0 1,0 1,-1 1,-2 1,-4 0,-1 0,-1 0,-2l0 0 0 0c1,-1 3,-1 4,-1 1,0 1,0 2,0 0,0 0,0 0,0l0 0c0,0 0,0 -1,0 0,0 -1,0 -1,0 0,0 -1,0 -1,0 -2,0 -3,0 -3,1 0,0 0,0 -1,0l-1 0 0 -1c0,-2 -1,-5 -1,-7l0 0c0,-1 0,-1 0,-2 0,0 0,0 0,0l0 0 0 0zm-24 14c1,0 1,1 2,1 2,1 4,2 5,2 5,2 11,2 17,1 6,-1 11,-2 15,-5 1,0 2,-1 3,-2 0,0 1,-1 1,-1 1,-1 0,-1 0,-1 0,0 0,0 0,0 0,0 0,0 0,0 0,0 -1,-1 -1,-1 -1,-1 -3,-2 -4,-3 -1,0 -1,-1 -1,-1 0,0 -1,-1 -1,-1l0 0c-1,-1 -2,-2 -4,-2 -2,0 -3,0 -4,1 -1,0 -1,0 -2,1 0,0 0,1 0,2l0 0c0,2 1,4 1,6l0 0c1,0 1,-1 4,-1 0,0 1,0 1,0 0,0 1,0 1,0 1,0 1,0 2,1l0 0c0,0 0,1 0,2l0 0 0 0c0,0 -1,0 -2,0 -1,0 -3,0 -4,0 0,1 0,1 0,2 0,2 0,3 -1,4 0,0 -1,1 -1,1 -1,0 -1,0 -2,-1l0 0c0,-1 -1,-1 -1,-2 -1,-2 -2,-6 -2,-7 0,-1 0,-1 0,-2 0,2 -1,5 -1,7 0,1 -1,2 -1,3 -1,1 -1,1 -2,1 0,0 -1,0 -1,-1 -1,-1 -1,-3 -1,-5l0 0c-1,0 -2,0 -3,0 -1,0 -3,0 -4,1l0 0c-1,0 -1,0 -2,0 0,0 -1,-1 0,-2l0 0 0 0c1,0 1,-1 2,-1 1,0 2,0 2,0l0 0c1,0 3,0 5,0l0 0 0 0 0 0c0,0 0,0 0,0 0,-1 0,-1 0,-3 0,-1 0,-2 1,-3 0,-1 0,-1 0,-1l0 0c0,0 0,0 0,0l0 0c-1,0 -2,0 -3,-1 -1,0 -1,0 -2,-1l0 0c0,0 -1,0 -2,-1 -1,1 -2,2 -3,3l0 0c-1,1 -3,3 -4,3 0,0 -1,1 -1,1 -1,1 -2,2 -3,4 -1,1 -1,2 -1,3 0,0 1,0 1,1zm12 -4c1,0 2,0 3,-1 -1,-1 -3,0 -4,0l0 0c-1,0 -1,0 -2,0 -1,0 -1,0 -2,1 0,0 0,0 0,0 0,0 0,0 1,0l0 0c2,0 3,-1 5,-1zm40 -59c0,0 0,-1 0,-2 0,0 0,0 0,0 0,0 0,0 0,0 -1,-1 -2,-1 -3,-2 -1,0 -1,-1 -1,-1 0,1 -1,2 -1,2l0 0 0 1 0 0 -1 1 0 0c-1,1 -2,2 -2,3 0,0 -1,1 -1,1l0 0 0 0 -7 5c2,0 4,0 6,-1 2,-1 5,-2 7,-3l0 0 1 0 0 0c0,0 0,0 1,0l0 0 0 0 0 0c0,0 0,0 1,0 0,0 1,-1 1,-1l0 0 0 0c0,0 0,0 0,-1l0 0 0 0c0,0 0,0 0,0zm2 8c0,1 -4,4 -6,6l-1 0c-1,1 -2,1 -3,2 -1,1 -2,1 -3,2 0,0 -1,0 -1,0 -1,0 -1,0 -2,0l0 0 0 0c0,0 0,-1 0,-2 0,-1 0,-2 0,-2 0,0 1,-1 1,-1 0,0 1,-1 1,-1l0 -1 0 0 0 0 0 0c2,0 4,-1 6,-1 2,-1 4,-1 5,-2 0,0 1,0 1,0 0,0 0,0 1,0 0,0 0,0 0,0l0 0c0,0 0,0 0,0l2 0 -2 1c0,0 0,0 0,0l0 0zm-7 5c1,-1 3,-3 5,-4 -1,1 -3,1 -5,2 -2,0 -3,1 -5,1 0,1 -1,1 -1,2 0,0 -1,0 -1,1 0,0 0,1 0,2 0,1 0,1 0,2 0,0 0,0 1,0 0,0 1,0 1,0 1,0 2,-1 3,-2 1,-1 2,-1 3,-2l0 0 1 0zm-59 0l0 0 0 0c0,0 0,0 0,0l0 0c0,0 0,0 0,0l0 0 3 -3 0 0c0,0 1,-1 2,-2 1,-1 2,-1 2,-2l0 -1 1 0c3,1 6,2 11,3 4,0 9,0 12,0 2,0 2,0 2,0l1 1 -1 0c0,0 -1,0 -2,1l0 0c0,0 -1,0 -1,0l0 0 -7 2 0 0c-3,1 -6,1 -10,2 -3,0 -5,0 -7,0 0,0 -1,0 -1,0 -1,0 -2,0 -2,0l0 0 0 -1zm1 0c0,0 1,0 1,0 1,0 1,0 1,0 2,0 5,0 7,0 3,0 7,-1 10,-2l7 -2c-3,0 -7,0 -10,0 -4,0 -8,-1 -11,-2 0,0 -1,1 -2,1 -1,1 -2,1 -2,2l0 0 -3 3 0 0z"/>
  </g>
 </g>
</svg>
