<?xml version="1.0" encoding="UTF-8"?>
<!DOCTYPE svg PUBLIC "-//W3C//DTD SVG 1.1//EN" "http://www.w3.org/Graphics/SVG/1.1/DTD/svg11.dtd">
<!-- Creator: CorelDRAW 2018 (64-Bit) -->
<svg xmlns="http://www.w3.org/2000/svg" xml:space="preserve" width="34.244mm" height="34.244mm" version="1.1" style="shape-rendering:geometricPrecision; text-rendering:geometricPrecision; image-rendering:optimizeQuality; fill-rule:evenodd; clip-rule:evenodd"
viewBox="0 0 731.57 731.57"
 xmlns:xlink="http://www.w3.org/1999/xlink">
 <defs>
  <style type="text/css">
   <![CDATA[
    .fil0 {fill:#5B5B5B}
    .fil1 {fill:#5B5B5B;fill-rule:nonzero}
   ]]>
  </style>
 </defs>
 <g id="Layer_x0020_1">
  <metadata id="CorelCorpID_0Corel-Layer"/>
  <g id="_1738337818496">
   <path class="fil0" d="M168.32 476.68c-5.36,1.93 -8.04,-0.83 -18.37,4.95 -10.35,5.8 -17.79,17.94 -17.48,30.77 0.5,20.3 14.51,13.85 -2.66,27.17 -1.99,1.54 -2.67,2.58 -4.26,4.21 -2.43,2.49 -2.3,1.68 -4.71,3.73 -1.95,1.66 -2.22,2.61 -4.22,4.18 -2.12,1.67 -2.73,1.4 -4.72,3.8 -2.74,3.3 -4.16,8.41 -0.76,12.33 7.89,9.12 20.21,-5.96 30.18,-14.86 1.98,-1.77 7.86,-7.06 10.21,-7.74l63.34 62.79c-3.57,11.58 -34.34,31.49 -21.96,41.57 10.81,8.79 22.86,-16.11 35.69,-28.81 10.36,2.93 19.44,8.97 36.03,-0.97 14.82,-8.88 14.51,-22.65 16.25,-28.94 1.39,-5.04 22.46,1.23 32.99,-22.43 4.52,-10.15 4.31,-22.35 -2.03,-32.1 -6.95,-10.69 -9.26,-4.39 1.22,-17.56 15.65,-19.68 37.65,-41.88 48.87,-63.86 1.37,-2.68 1.56,-4.04 2.96,-6.28 2.57,0.74 2.51,1.5 3.62,3.72 3.65,7.25 3.49,8.13 8.96,16.39 1.41,2.12 2.26,2.91 3.73,4.76 1.46,1.82 2.08,2.93 3.58,4.87 2.42,3.15 5.04,6.29 7.71,9.24l30.41 36.99c-0.66,2.56 -0.7,2.14 -2.47,3.83 -2.75,2.64 -1.43,1.1 -3.65,3.9 -7.03,8.92 -11.03,20.33 -6.62,32.54 1.06,2.94 3.12,7.3 4.61,9.47 6.65,9.72 16.92,13.66 29.62,14.56 1.2,8.51 1.77,12.97 5.25,19.14 8.25,14.65 26.52,21.14 42.94,14.3 4.07,-1.7 4.85,-3.36 8.59,-4.25l24.41 29.63c8.42,9.26 21.1,-0.98 13.71,-10.84 -2.38,-3.17 -25.26,-28.82 -24.98,-31.46 0.16,-1.57 60.36,-61.62 63,-62.95l20.58 17.03c4.5,4 15.78,17.7 23.06,7.77 6.84,-9.34 -11.98,-20.73 -22.81,-30.62 -17,-15.52 -4.88,-4.19 -5.44,-27.13 -0.43,-18.01 -15.23,-32.14 -35.62,-32.37 -1.96,-14.65 -4.76,-25.01 -19.13,-32.56 -5.6,-2.94 -13.26,-4.83 -21.37,-3.41 -12.07,2.11 -12.8,6.51 -18.22,7.83 -12.24,-11.86 -26.2,-20.47 -35.49,-35.58 -25.58,-41.62 20.17,-109.08 -12.62,-187.6l-43.97 -99.71c-3.79,-8.37 -7.19,-16.88 -10.98,-24.79 -3.73,-7.8 -6.48,-18.35 -16.15,-20.67 -7.55,-1.81 -9.74,1.48 -14.83,0.76 -7.31,-1.04 -16.39,-4.62 -23.3,9.61 -1.98,4.09 -3.89,8.49 -5.89,12.81l-44.14 99.76c-19.09,43.02 -25.76,62.22 -19.57,120 1.7,15.84 6.98,52.24 5.7,65.56 -0.97,10.18 -5.17,19.22 -9.44,26.06 -5.06,8.11 -18.61,20.49 -27.2,27.21 -9.14,7.15 -9.26,11.51 -15.1,6.44 -19.9,-17.29 -51.06,-5.38 -55.8,19.56 -0.68,3.56 0.03,5.16 -1.28,8.21zm-7.17 19.72c-6.28,2.58 -11.16,7.54 -10.47,16.89 0.57,7.72 7.87,12.92 11.46,16.71l55.87 55.93c10.96,10.38 20.81,25.47 33.96,20.22 5.82,-2.32 11.37,-7.77 10.76,-16.63 -0.57,-8.31 -7.53,-12.89 -11.57,-16.98l-70.02 -70.03c-4.65,-4.67 -10.16,-10.15 -19.99,-6.11zm213.57 -288.26c-1.29,60.13 -0.03,121.75 -0.04,182.06 -0,31.69 4.52,50.14 19.69,71.08 6.46,8.92 13.09,16.31 20.29,24.84l20.58 25.16c3.53,-1.29 21.45,-20.34 25.41,-24.36 4.99,-5.08 22.05,-20.61 24.81,-25.29 -18.6,-17.63 -45.9,-33.91 -48.86,-72.36 -1.26,-16.38 2.56,-40.09 4.46,-56.34 4.88,-41.8 7.79,-64.56 -9.12,-104.79 -5.76,-13.7 -12.61,-28.8 -18.72,-42.24 -2.78,-6.11 -35.29,-81.12 -37.99,-84.14 -1.44,3.57 -0.46,55.22 -0.55,66.62 -0.09,11.98 0.75,9.3 6.64,16.46 12.35,15.02 25.31,36.1 31.87,60.25 1.99,7.3 14.1,57.68 -8.48,48.11 -9.65,-4.09 -0.19,-23.14 -13.43,-56.26 -2.39,-5.99 -12.84,-27.67 -16.56,-28.81zm-132.08 256.06c0.89,2.12 43.24,46.06 49.86,50.57 4.05,-3.51 6.85,-7.87 10.31,-11.81 4.12,-4.69 6.93,-8.11 10.79,-12.7 1.08,-1.29 1.31,-1.8 2.46,-3.16 1.27,-1.5 1.54,-1.63 2.65,-3 23.47,-28.97 37.96,-42.89 37.88,-90.14 -0.1,-61.46 1.18,-123.95 -0.06,-185.27 -7.47,4.19 -20.18,37.03 -22.53,49.94 -1.4,7.68 -1.1,28.32 -4.39,32.43 -1.22,1.52 -17.33,11.87 -15.93,-15.49 1.81,-35.53 15.55,-64.04 36.24,-90.18 3.37,-4.25 6.67,-5.27 6.67,-12.31 0,-9.87 1.26,-64.71 -0.91,-69.98 -0.08,-0.19 -0.23,-0.49 -0.4,-0.7 -5.79,14.29 -12.07,28.1 -18.74,42.44 -6.13,13.18 -12.32,28.14 -18.76,42.37 -11.75,25.97 -28.93,58.7 -30.68,92.07 -1.92,36.64 11.36,90.26 7.41,114.21 -5.9,35.76 -27.1,49.51 -51.89,70.73zm274.81 -4.56c-8.04,2.78 -20.97,18.41 -29.43,26.47l-56.46 56.3c-13.12,13.11 0.75,33 16.33,27.63 7.23,-2.5 48.85,-46.2 57.28,-54.59 9.04,-8.99 20.02,-18.9 28.1,-28.26 14.03,-16.25 -2.18,-32.26 -15.83,-27.55zm35.32 36.47c-7.01,2.53 -48.38,45.53 -57.35,54.69 -8.19,8.37 -18.89,17.83 -27.61,27.85 -12.37,14.2 1.05,33.15 16.72,27.87 6.95,-2.35 48.83,-46.35 57.13,-54.6 9.31,-9.26 18.83,-18.17 27.72,-27.72 13.09,-14.06 0.62,-34.31 -16.6,-28.09zm-354.09 -36.56c-6.77,2.25 -12.16,7.45 -11.87,16.21 0.29,8.66 7.3,13.15 11.35,17.27l70.03 70.02c16.56,16.95 31.07,3.01 30.75,-9.29 -0.21,-8.1 -6.88,-13.4 -10.77,-17.29l-70.01 -70.04c-3.99,-4.01 -10.37,-9.92 -19.47,-6.89z"/>
   <path class="fil1" d="M365.79 0c101.01,0 192.46,40.95 258.65,107.14 66.19,66.19 107.14,157.64 107.14,258.65 0,101.01 -40.95,192.46 -107.14,258.65 -66.19,66.19 -157.64,107.14 -258.65,107.14 -101.01,0 -192.46,-40.95 -258.65,-107.14 -66.19,-66.19 -107.14,-157.64 -107.14,-258.65 0,-101.01 40.95,-192.46 107.14,-258.65 66.19,-66.19 157.64,-107.14 258.65,-107.14zm242.66 123.12c-62.1,-62.1 -147.9,-100.51 -242.66,-100.51 -94.77,0 -180.56,38.41 -242.66,100.51 -62.1,62.1 -100.51,147.9 -100.51,242.66 0,94.77 38.41,180.56 100.51,242.66 62.1,62.1 147.9,100.51 242.66,100.51 94.77,0 180.56,-38.41 242.66,-100.51 62.1,-62.1 100.51,-147.9 100.51,-242.66 0,-94.77 -38.41,-180.56 -100.51,-242.66z"/>
  </g>
 </g>
</svg>
